<svg width="30" height="38" viewBox="0 0 30 38" fill="none" xmlns="http://www.w3.org/2000/svg">
<path d="M1.90186 0.342113C1.22018 0.342113 0.651855 0.910447 0.651855 1.59213V36.5921C0.651855 37.2738 1.22015 37.8421 1.90186 37.8421H28.1494C28.8311 37.8421 29.3994 37.2738 29.3994 36.5921V8.46709C29.3995 8.29347 29.3275 8.12765 29.2004 8.00933L21.0767 0.508134C20.961 0.401362 20.8093 0.342041 20.6519 0.342041L1.90186 0.342113ZM1.90186 1.59213H20.0244V9.71711H28.1494V36.5921H1.90186V1.59213ZM21.2744 2.39167L27.8552 8.46709H21.2744V2.39167ZM5.65308 5.34334C4.9714 5.34334 4.40308 5.91168 4.40308 6.59336V9.09455C4.40308 9.77624 4.9714 10.3446 5.65308 10.3446H8.14819C8.82987 10.3446 9.39942 9.77624 9.39942 9.09455V6.59336C9.39942 5.91168 8.82987 5.34334 8.14819 5.34334H5.65308ZM11.8994 5.9659C11.0472 5.947 11.0472 7.23506 11.8994 7.21592H17.533C18.3478 7.19702 18.3478 5.98419 17.533 5.9659H11.8994ZM5.65308 6.59336H8.14819V9.09455H5.65308V6.59336ZM11.8994 8.46709C11.0839 8.48363 11.0839 9.69952 11.8994 9.71711H17.561C18.3766 9.70058 18.3766 8.48472 17.561 8.46709H11.8994ZM5.65308 12.8396C4.9714 12.8396 4.40308 13.4092 4.40308 14.0909V16.5909C4.40308 17.2726 4.9714 17.8421 5.65308 17.8421H8.14819C8.82987 17.8421 9.39942 17.2726 9.39942 16.5909V14.0909C9.39942 13.4092 8.82987 12.8396 8.14819 12.8396H5.65308ZM11.8994 14.7183H25.6482C26.4823 14.7183 26.4823 13.4671 25.6482 13.4671H11.8994C11.0491 13.4718 11.0706 14.7268 11.8994 14.7183ZM5.65308 14.0909H8.14819V16.5909H5.65308V14.0909ZM11.8994 17.2183H25.6482C26.4997 17.2372 26.4997 15.95 25.6482 15.9684H11.8994C11.0704 15.9702 11.0708 17.22 11.8994 17.2183ZM5.65308 20.3421C4.9714 20.3421 4.40308 20.9104 4.40308 21.5921V24.0933C4.40308 24.7751 4.9714 25.3434 5.65308 25.3434H8.14819C8.82987 25.3434 9.39942 24.7751 9.39942 24.0933V21.5921C9.39942 20.9104 8.82987 20.3421 8.14819 20.3421H5.65308ZM11.8994 20.9647C11.0472 20.9458 11.0472 22.2338 11.8994 22.2146H25.0256C25.8405 22.1957 25.8405 20.983 25.0256 20.9647H11.8994ZM5.65308 21.5921H8.14819V24.0933H5.65308V21.5921ZM11.9141 23.4659C11.0625 23.447 11.0625 24.7343 11.9141 24.7159H25.0256C25.8772 24.7348 25.8772 23.4475 25.0256 23.4659H11.9141ZM5.65308 27.8446C4.9714 27.8446 4.40308 28.4129 4.40308 29.0946V31.5896C4.40308 32.2713 4.9714 32.8409 5.65308 32.8409H8.14819C8.82987 32.8409 9.39942 32.2713 9.39942 31.5896V29.0946C9.39942 28.4129 8.82987 27.8446 8.14819 27.8446H5.65308ZM11.8994 28.4671C11.0846 28.486 11.0846 29.6988 11.8994 29.7171H25.0256C25.8779 29.736 25.8779 28.448 25.0256 28.4671H11.8994ZM5.65308 29.0946H8.14819V31.5896H5.65308V29.0946ZM11.8994 32.2171H25.0256C25.8772 32.236 25.8772 30.9487 25.0256 30.9671H11.8994C11.0421 30.9742 11.0981 32.2222 11.8994 32.2171Z" fill="#CFD3D6"/>
</svg>
