<svg width="72" height="41" viewBox="0 0 72 41" fill="none" xmlns="http://www.w3.org/2000/svg">
<g clip-path="url(#clip0)">
<path d="M15.58 38.09C15.58 38.6735 15.3482 39.2331 14.9356 39.6457C14.523 40.0582 13.9635 40.29 13.38 40.29C13.0916 40.29 12.806 40.2331 12.5396 40.1224C12.2732 40.0117 12.0314 39.8495 11.8279 39.6451C11.6244 39.4406 11.4633 39.198 11.3538 38.9312C11.2444 38.6643 11.1887 38.3785 11.19 38.09C11.1887 37.8016 11.2444 37.5157 11.3538 37.2489C11.4633 36.982 11.6244 36.7394 11.8279 36.535C12.0314 36.3306 12.2732 36.1684 12.5396 36.0577C12.806 35.947 13.0916 35.89 13.38 35.89C13.9627 35.8927 14.5207 36.1253 14.9327 36.5373C15.3447 36.9493 15.5774 37.5074 15.58 38.09ZM26.76 38.09C26.76 38.6718 26.5296 39.2299 26.1192 39.6421C25.7087 40.0544 25.1517 40.2874 24.57 40.29C24.2807 40.2914 23.994 40.2354 23.7265 40.1253C23.459 40.0152 23.216 39.8532 23.0114 39.6486C22.8069 39.4441 22.6449 39.201 22.5348 38.9335C22.4247 38.666 22.3687 38.3793 22.37 38.09C22.3687 37.8008 22.4247 37.5141 22.5348 37.2466C22.6449 36.9791 22.8069 36.736 23.0114 36.5315C23.216 36.3269 23.459 36.1649 23.7265 36.0548C23.994 35.9447 24.2807 35.8887 24.57 35.89C25.1517 35.8927 25.7087 36.1256 26.1192 36.5379C26.5296 36.9502 26.76 37.5083 26.76 38.09ZM37.94 38.09C37.9413 38.3793 37.8853 38.666 37.7752 38.9335C37.6651 39.201 37.5031 39.4441 37.2986 39.6486C37.094 39.8532 36.851 40.0152 36.5835 40.1253C36.3159 40.2354 36.0293 40.2914 35.74 40.29C35.1582 40.2874 34.6012 40.0544 34.1908 39.6421C33.7804 39.2299 33.55 38.6718 33.55 38.09C33.55 37.5083 33.7804 36.9502 34.1908 36.5379C34.6012 36.1256 35.1582 35.8927 35.74 35.89C36.0289 35.89 36.315 35.9469 36.5819 36.0575C36.8488 36.1681 37.0913 36.3301 37.2956 36.5344C37.4999 36.7387 37.662 36.9812 37.7725 37.2481C37.8831 37.515 37.94 37.8011 37.94 38.09ZM49.12 38.09C49.1213 38.3793 49.0653 38.666 48.9552 38.9335C48.8451 39.201 48.6831 39.4441 48.4786 39.6486C48.274 39.8532 48.031 40.0152 47.7635 40.1253C47.4959 40.2354 47.2093 40.2914 46.92 40.29C46.3382 40.2874 45.7812 40.0544 45.3708 39.6421C44.9604 39.2299 44.73 38.6718 44.73 38.09C44.73 37.5083 44.9604 36.9502 45.3708 36.5379C45.7812 36.1256 46.3382 35.8927 46.92 35.89C47.2089 35.89 47.495 35.9469 47.7619 36.0575C48.0288 36.1681 48.2713 36.3301 48.4756 36.5344C48.6799 36.7387 48.842 36.9812 48.9525 37.2481C49.0631 37.515 49.12 37.8011 49.12 38.09ZM60.3 38.09C60.3013 38.3785 60.2456 38.6643 60.1362 38.9312C60.0267 39.198 59.8656 39.4406 59.6621 39.6451C59.4586 39.8495 59.2167 40.0117 58.9504 40.1224C58.684 40.2331 58.3984 40.29 58.11 40.29C57.8207 40.2914 57.534 40.2354 57.2665 40.1253C56.999 40.0152 56.756 39.8532 56.5514 39.6486C56.3469 39.4441 56.1848 39.201 56.0748 38.9335C55.9647 38.666 55.9087 38.3793 55.91 38.09C55.91 37.8011 55.9669 37.5151 56.0775 37.2481C56.188 36.9812 56.3501 36.7387 56.5544 36.5344C56.7586 36.3301 57.0012 36.1681 57.2681 36.0575C57.535 35.9469 57.8211 35.89 58.11 35.89C58.6917 35.8927 59.2487 36.1256 59.6592 36.5379C60.0696 36.9502 60.3 37.5083 60.3 38.09ZM71.49 38.09C71.49 38.6735 71.2582 39.2331 70.8456 39.6457C70.433 40.0583 69.8735 40.29 69.29 40.29C69.0016 40.29 68.716 40.2331 68.4496 40.1224C68.1832 40.0117 67.9414 39.8495 67.7379 39.6451C67.5344 39.4406 67.3733 39.198 67.2638 38.9312C67.1543 38.6643 67.0987 38.3785 67.1 38.09C67.1 37.5083 67.3304 36.9502 67.7408 36.5379C68.1512 36.1256 68.7082 35.8927 69.29 35.89C69.8727 35.8927 70.4307 36.1253 70.8427 36.5373C71.2547 36.9493 71.4874 37.5074 71.49 38.09V38.09Z" fill="#CFD3D6"/>
<path d="M2.19999 35.89C2.48868 35.8893 2.77458 35.9464 3.04081 36.0581C3.30704 36.1697 3.54818 36.3336 3.74999 36.54C3.9562 36.7421 4.12003 36.9832 4.23186 37.2494C4.3437 37.5155 4.40131 37.8013 4.40131 38.09C4.40131 38.3787 4.3437 38.6645 4.23186 38.9307C4.12003 39.1968 3.9562 39.438 3.74999 39.64C3.44425 39.9503 3.0529 40.1624 2.62599 40.2492C2.19908 40.3359 1.75599 40.2934 1.35339 40.1269C0.950794 39.9605 0.606969 39.6778 0.365883 39.315C0.124796 38.9522 -0.00259316 38.5257 -7.72556e-06 38.09C0.00665324 37.5104 0.235775 36.9555 0.639992 36.54C0.844002 36.3337 1.08696 36.1701 1.35477 36.0585C1.62257 35.9469 1.90987 35.8896 2.19999 35.89Z" fill="#CFD3D6"/>
<path d="M15.58 26C15.58 26.2885 15.523 26.5741 15.4123 26.8404C15.3017 27.1068 15.1394 27.3487 14.935 27.5522C14.7306 27.7556 14.488 27.9168 14.2211 28.0262C13.9543 28.1357 13.6684 28.1914 13.38 28.19C13.092 28.1914 12.8066 28.1356 12.5403 28.026C12.274 27.9165 12.0321 27.7552 11.8285 27.5516C11.6249 27.3479 11.4636 27.106 11.354 26.8397C11.2444 26.5734 11.1887 26.288 11.19 26C11.1887 25.7116 11.2444 25.4258 11.3538 25.1589C11.4633 24.892 11.6244 24.6494 11.8279 24.445C12.0314 24.2406 12.2732 24.0784 12.5396 23.9677C12.806 23.857 13.0916 23.8 13.38 23.8C13.9627 23.8027 14.5207 24.0353 14.9327 24.4473C15.3447 24.8593 15.5774 25.4174 15.58 26ZM26.76 26C26.76 26.5809 26.5293 27.1379 26.1186 27.5486C25.7078 27.9593 25.1508 28.19 24.57 28.19C24.2816 28.1914 23.9957 28.1357 23.7288 28.0262C23.462 27.9168 23.2194 27.7556 23.015 27.5522C22.8105 27.3487 22.6483 27.1068 22.5376 26.8404C22.427 26.5741 22.37 26.2885 22.37 26C22.3726 25.4174 22.6053 24.8593 23.0173 24.4473C23.4293 24.0353 23.9873 23.8027 24.57 23.8C25.1517 23.8027 25.7087 24.0356 26.1192 24.4479C26.5296 24.8602 26.76 25.4183 26.76 26ZM37.94 26C37.94 26.2885 37.883 26.5741 37.7723 26.8404C37.6617 27.1068 37.4994 27.3487 37.295 27.5522C37.0906 27.7557 36.848 27.9168 36.5811 28.0262C36.3143 28.1357 36.0284 28.1914 35.74 28.19C35.1592 28.19 34.6021 27.9593 34.1914 27.5486C33.7807 27.1379 33.55 26.5809 33.55 26C33.55 25.4183 33.7804 24.8602 34.1908 24.4479C34.6012 24.0356 35.1582 23.8027 35.74 23.8C36.3235 23.8 36.883 24.0318 37.2956 24.4444C37.7082 24.857 37.94 25.4166 37.94 26ZM49.12 26C49.12 26.2885 49.063 26.5741 48.9523 26.8404C48.8417 27.1068 48.6794 27.3487 48.475 27.5522C48.2706 27.7557 48.028 27.9168 47.7611 28.0262C47.4943 28.1357 47.2084 28.1914 46.92 28.19C46.632 28.1914 46.3466 28.1356 46.0803 28.026C45.814 27.9165 45.5721 27.7552 45.3685 27.5516C45.1649 27.3479 45.0036 27.106 44.894 26.8397C44.7844 26.5734 44.7287 26.288 44.73 26C44.73 25.4183 44.9604 24.8602 45.3708 24.4479C45.7812 24.0356 46.3382 23.8027 46.92 23.8C47.5035 23.8 48.063 24.0318 48.4756 24.4444C48.8882 24.857 49.12 25.4166 49.12 26ZM60.3 26C60.3013 26.288 60.2456 26.5734 60.136 26.8397C60.0264 27.106 59.8651 27.3479 59.6615 27.5516C59.4579 27.7552 59.2159 27.9165 58.9496 28.026C58.6833 28.1356 58.398 28.1914 58.11 28.19C57.822 28.1914 57.5367 28.1356 57.2703 28.026C57.004 27.9165 56.7621 27.7552 56.5585 27.5516C56.3548 27.3479 56.1936 27.106 56.084 26.8397C55.9744 26.5734 55.9187 26.288 55.92 26C55.9187 25.7116 55.9743 25.4258 56.0838 25.1589C56.1933 24.892 56.3544 24.6494 56.5579 24.445C56.7614 24.2406 57.0032 24.0784 57.2696 23.9677C57.536 23.857 57.8216 23.8 58.11 23.8C58.6917 23.8027 59.2487 24.0356 59.6592 24.4479C60.0696 24.8602 60.3 25.4183 60.3 26ZM71.49 26C71.49 26.2885 71.433 26.5741 71.3223 26.8404C71.2117 27.1068 71.0494 27.3487 70.845 27.5522C70.6406 27.7557 70.398 27.9168 70.1311 28.0262C69.8643 28.1357 69.5784 28.1914 69.29 28.1901C69.002 28.1914 68.7167 28.1356 68.4503 28.026C68.184 27.9165 67.9421 27.7552 67.7385 27.5516C67.5348 27.3479 67.3736 27.106 67.264 26.8397C67.1544 26.5734 67.0987 26.288 67.1 26C67.1 25.4183 67.3304 24.8602 67.7408 24.4479C68.1512 24.0356 68.7082 23.8027 69.29 23.8C69.8727 23.8027 70.4307 24.0353 70.8427 24.4473C71.2547 24.8593 71.4874 25.4174 71.49 26V26Z" fill="#CFD3D6"/>
<path d="M2.19999 23.8C2.78185 23.8053 3.3384 24.0387 3.74986 24.4502C4.16131 24.8616 4.39478 25.4182 4.39999 26C4.39427 26.5848 4.16114 27.1443 3.74999 27.56C3.44176 27.8661 3.04985 28.074 2.62364 28.1576C2.19744 28.2413 1.75601 28.1969 1.35499 28.0301C0.953968 27.8632 0.611301 27.5814 0.37017 27.2202C0.12904 26.8589 0.00023878 26.4344 -7.72556e-06 26C-7.70006e-06 25.4166 0.231776 24.857 0.644356 24.4444C1.05694 24.0318 1.61651 23.8 2.19999 23.8Z" fill="#CFD3D6"/>
<path d="M15.58 14.29C15.5774 14.8727 15.3447 15.4307 14.9327 15.8427C14.5207 16.2547 13.9627 16.4874 13.38 16.49C13.0916 16.49 12.806 16.433 12.5396 16.3223C12.2732 16.2116 12.0314 16.0494 11.8279 15.845C11.6244 15.6406 11.4633 15.398 11.3538 15.1311C11.2444 14.8643 11.1887 14.5784 11.19 14.29C11.1887 14.0016 11.2444 13.7157 11.3538 13.4488C11.4633 13.182 11.6244 12.9394 11.8279 12.735C12.0314 12.5305 12.2732 12.3683 12.5396 12.2576C12.806 12.147 13.0916 12.09 13.38 12.09C13.9635 12.09 14.523 12.3218 14.9356 12.7344C15.3482 13.1469 15.58 13.7065 15.58 14.29ZM26.76 14.29C26.76 14.8717 26.5296 15.4298 26.1192 15.8421C25.7087 16.2544 25.1517 16.4873 24.57 16.49C23.9873 16.4874 23.4293 16.2547 23.0173 15.8427C22.6053 15.4307 22.3726 14.8727 22.37 14.29C22.37 13.7065 22.6018 13.1469 23.0144 12.7344C23.4269 12.3218 23.9865 12.09 24.57 12.09C25.1517 12.0926 25.7087 12.3256 26.1192 12.7379C26.5296 13.1502 26.76 13.7082 26.76 14.29ZM37.94 14.29C37.94 14.8735 37.7082 15.433 37.2956 15.8456C36.883 16.2582 36.3235 16.49 35.74 16.49C35.1582 16.4873 34.6012 16.2544 34.1908 15.8421C33.7804 15.4298 33.55 14.8717 33.55 14.29C33.55 13.7082 33.7804 13.1502 34.1908 12.7379C34.6012 12.3256 35.1582 12.0926 35.74 12.09C36.0293 12.0887 36.3159 12.1447 36.5835 12.2548C36.851 12.3648 37.094 12.5268 37.2986 12.7314C37.5031 12.936 37.6651 13.179 37.7752 13.4465C37.8853 13.714 37.9413 14.0007 37.94 14.29ZM49.12 14.29C49.12 14.8735 48.8882 15.433 48.4756 15.8456C48.063 16.2582 47.5035 16.49 46.92 16.49C46.3382 16.4873 45.7812 16.2544 45.3708 15.8421C44.9604 15.4298 44.73 14.8717 44.73 14.29C44.7287 14.0016 44.7843 13.7157 44.8938 13.4488C45.0033 13.182 45.1644 12.9394 45.3679 12.735C45.5714 12.5305 45.8132 12.3683 46.0796 12.2576C46.346 12.147 46.6316 12.09 46.92 12.09C47.2093 12.0887 47.4959 12.1447 47.7635 12.2548C48.031 12.3648 48.274 12.5268 48.4786 12.7314C48.6831 12.936 48.8451 13.179 48.9552 13.4465C49.0653 13.714 49.1213 14.0007 49.12 14.29ZM60.31 14.29C60.3074 14.8727 60.0747 15.4307 59.6627 15.8427C59.2507 16.2547 58.6927 16.4874 58.11 16.49C57.8216 16.49 57.536 16.433 57.2696 16.3223C57.0032 16.2116 56.7614 16.0494 56.5579 15.845C56.3544 15.6406 56.1933 15.398 56.0838 15.1311C55.9743 14.8643 55.9187 14.5784 55.92 14.29C55.9187 14.0016 55.9743 13.7157 56.0838 13.4488C56.1933 13.182 56.3544 12.9394 56.5579 12.735C56.7614 12.5305 57.0032 12.3683 57.2696 12.2576C57.536 12.147 57.8216 12.09 58.11 12.09C58.6935 12.09 59.253 12.3218 59.6656 12.7344C60.0782 13.1469 60.31 13.7065 60.31 14.29ZM71.49 14.29C71.4874 14.8727 71.2547 15.4307 70.8427 15.8427C70.4307 16.2547 69.8727 16.4874 69.29 16.49C68.7082 16.4873 68.1512 16.2544 67.7408 15.8421C67.3304 15.4298 67.1 14.8717 67.1 14.29C67.0987 14.0016 67.1543 13.7157 67.2638 13.4488C67.3733 13.182 67.5344 12.9394 67.7379 12.735C67.9414 12.5305 68.1832 12.3683 68.4496 12.2576C68.716 12.147 69.0016 12.09 69.29 12.09C69.8735 12.09 70.433 12.3218 70.8456 12.7344C71.2582 13.1469 71.49 13.7065 71.49 14.29V14.29Z" fill="#CFD3D6"/>
<path d="M2.19999 12.09C2.78089 12.0903 3.33808 12.3204 3.74999 12.73C4.16114 13.1457 4.39427 13.7053 4.39999 14.29C4.39485 14.8719 4.16143 15.4285 3.74999 15.84C3.32678 16.2314 2.77149 16.4489 2.19499 16.4489C1.61849 16.4489 1.0632 16.2314 0.639992 15.84C0.333983 15.5317 0.126059 15.1398 0.0424193 14.7136C-0.0412203 14.2874 0.00316612 13.846 0.16999 13.445C0.336815 13.0439 0.618607 12.7013 0.979858 12.4601C1.34111 12.219 1.76565 12.0902 2.19999 12.09Z" fill="#CFD3D6"/>
<path d="M15.58 2.2C15.58 2.48844 15.523 2.77403 15.4123 3.04039C15.3017 3.30675 15.1394 3.54862 14.935 3.75211C14.7306 3.9556 14.488 4.1167 14.2211 4.22617C13.9543 4.33564 13.6684 4.39131 13.38 4.39C13.092 4.39132 12.8066 4.33558 12.5403 4.22599C12.274 4.1164 12.0321 3.95514 11.8285 3.75151C11.6249 3.54789 11.4636 3.30594 11.354 3.03964C11.2444 2.77334 11.1887 2.48796 11.19 2.2C11.1887 1.91156 11.2444 1.62571 11.3538 1.35885C11.4633 1.09199 11.6244 0.849386 11.8279 0.644965C12.0314 0.440544 12.2732 0.278335 12.5396 0.167653C12.806 0.0569701 13.0916 -5.55958e-06 13.38 -2.53995e-06V-2.53995e-06C13.9627 0.00262807 14.5207 0.235258 14.9327 0.647269C15.3447 1.05928 15.5774 1.61733 15.58 2.2ZM26.76 2.2C26.7613 2.48796 26.7056 2.77334 26.596 3.03964C26.4864 3.30594 26.3251 3.54789 26.1215 3.75151C25.9179 3.95514 25.6759 4.1164 25.4096 4.22599C25.1433 4.33558 24.858 4.39132 24.57 4.39C24.2816 4.39131 23.9957 4.33564 23.7288 4.22617C23.462 4.11671 23.2194 3.9556 23.015 3.75211C22.8105 3.54862 22.6483 3.30675 22.5376 3.04039C22.427 2.77403 22.37 2.48844 22.37 2.2C22.3726 1.61733 22.6053 1.05928 23.0173 0.647269C23.4293 0.235258 23.9873 0.00262851 24.57 -2.05082e-06V-2.05082e-06C25.1517 0.00264228 25.7087 0.235594 26.1192 0.647888C26.5296 1.06018 26.76 1.61825 26.76 2.2ZM37.94 2.2C37.94 2.48844 37.883 2.77403 37.7723 3.04039C37.6617 3.30675 37.4994 3.54862 37.295 3.75211C37.0906 3.9556 36.848 4.11671 36.5811 4.22617C36.3143 4.33564 36.0284 4.39132 35.74 4.39C35.4524 4.39 35.1676 4.33335 34.9019 4.22329C34.6362 4.11324 34.3948 3.95192 34.1914 3.74856C33.9881 3.5452 33.8268 3.30378 33.7167 3.03807C33.6066 2.77237 33.55 2.48759 33.55 2.2C33.55 1.61825 33.7804 1.06018 34.1908 0.647888C34.6012 0.235595 35.1582 0.00264272 35.74 -1.56256e-06V-1.56256e-06C36.3235 -1.53706e-06 36.883 0.231784 37.2956 0.644364C37.7082 1.05694 37.94 1.61652 37.94 2.2ZM49.12 2.2C49.12 2.48844 49.063 2.77403 48.9523 3.04039C48.8417 3.30675 48.6794 3.54862 48.475 3.75211C48.2706 3.9556 48.028 4.11671 47.7611 4.22617C47.4943 4.33564 47.2084 4.39132 46.92 4.39C46.632 4.39132 46.3466 4.33558 46.0803 4.22599C45.814 4.1164 45.5721 3.95514 45.3685 3.75151C45.1649 3.54789 45.0036 3.30594 44.894 3.03964C44.7844 2.77334 44.7287 2.48796 44.73 2.2C44.73 1.61825 44.9604 1.06018 45.3708 0.647889C45.7812 0.235595 46.3382 0.00264321 46.92 -1.07387e-06V-1.07387e-06C47.5035 -1.04837e-06 48.063 0.231784 48.4756 0.644364C48.8882 1.05694 49.12 1.61652 49.12 2.2ZM60.31 2.2C60.31 2.48844 60.253 2.77404 60.1423 3.04039C60.0317 3.30675 59.8694 3.54862 59.665 3.75211C59.4606 3.9556 59.218 4.11671 58.9511 4.22617C58.6843 4.33564 58.3984 4.39132 58.11 4.39C57.8216 4.39132 57.5357 4.33564 57.2688 4.22617C57.002 4.11671 56.7594 3.9556 56.555 3.75211C56.3505 3.54862 56.1883 3.30675 56.0776 3.04039C55.967 2.77404 55.91 2.48844 55.91 2.2C55.91 1.91109 55.9669 1.62501 56.0775 1.3581C56.188 1.09118 56.3501 0.848653 56.5544 0.644364C56.9669 0.231784 57.5265 -6.10244e-07 58.11 -5.84739e-07V-5.84739e-07C58.6927 0.00263003 59.2507 0.23526 59.6627 0.647271C60.0747 1.05928 60.3074 1.61733 60.31 2.2ZM71.49 2.2C71.49 2.48844 71.433 2.77404 71.3223 3.04039C71.2117 3.30675 71.0494 3.54862 70.845 3.75211C70.6406 3.9556 70.398 4.11671 70.1311 4.22618C69.8643 4.33564 69.5784 4.39132 69.29 4.39C69.002 4.39132 68.7167 4.33558 68.4503 4.22599C68.184 4.1164 67.9421 3.95514 67.7385 3.75152C67.5348 3.54789 67.3736 3.30594 67.264 3.03964C67.1544 2.77334 67.0987 2.48797 67.1 2.2C67.1 1.61825 67.3304 1.06018 67.7408 0.64789C68.1512 0.235596 68.7082 0.00264419 69.29 -9.6046e-08V-9.6046e-08C69.8727 0.00263052 70.4307 0.23526 70.8427 0.647271C71.2547 1.05928 71.4874 1.61733 71.49 2.2V2.2Z" fill="#CFD3D6"/>
<path d="M2.19999 1.72069e-05C2.78089 0.000349379 3.33808 0.230415 3.74999 0.640017C4.16114 1.0558 4.39427 1.61531 4.39999 2.20002C4.39701 2.78235 4.16326 3.33974 3.74999 3.75002C3.32788 4.14367 2.77217 4.36257 2.19499 4.36257C1.61781 4.36257 1.06211 4.14367 0.639992 3.75002C0.236866 3.32979 0.00814855 2.77229 -7.72512e-06 2.19002C0.00458758 1.60997 0.234014 1.05433 0.639992 0.640017C0.845158 0.435996 1.08855 0.27445 1.35624 0.164629C1.62393 0.054808 1.91065 -0.00113031 2.19999 1.72069e-05Z" fill="#CFD3D6"/>
</g>
<defs>
<clipPath id="clip0">
<path d="M71.49 0L71.49 40.29L-9.39053e-06 40.29L-7.62939e-06 -3.12493e-06L71.49 0Z" fill="white"/>
</clipPath>
</defs>
</svg>
