<svg width="130" height="230" viewBox="0 0 130 230" fill="none" xmlns="http://www.w3.org/2000/svg">
<g clip-path="url(#clip0)">
<path d="M129.2 207.8C127.2 192.5 117.8 172.3 124.4 150.4C130.9 128.5 133.1 94.8 123.7 82.6C119.8 77.5 111 73.2 106.6 76.6C98.1 64 80.8 66.7 78 72.3C69.2 60.9 49 63.2 45.1 78.9C30.6 79.8 19.4 79 17.5 75.8C15.6 72.5 4.4 72.5 2.1 78.6C-0.199998 84.7 8.6 93.5 4.4 111.7C0.200002 129.9 -4.5 141.8 8 149.2C20.6 156.7 54.7 189.6 61.7 225.1C87 237.7 127.8 222.4 129.2 207.8Z" fill="#F3A269"/>
<path d="M112.8 185.8C122.4 164.8 114.7 166.2 121.2 144.3C127.7 122.4 130 97.1 124.2 87.6C117.8 77.2 110.9 78.4 107.3 82.4C103.5 74.3 79.4 65 83.5 80.7C68.4 61 49.1 68.7 56.6 87.7C42.1 88.6 20.5 111.8 18.6 108.5C12.3 85.8 4.30004 72.5 2.00004 78.5C-0.299957 84.6 10.5 92.5 6.40004 110.7C2.20004 128.9 1.70004 139.3 14.3 146.7C26.9 154.2 34.8 169.9 58.8 192.7C71.8 205.1 105.6 201.7 112.8 185.8Z" fill="#F9BA84"/>
<path d="M28.7 128C19.2 111.1 4.59997 41.4 9.99997 16.2C14.2 -3.39999 35.4 -5.89999 37.3 12.5C39.2 31 39.1 44.1 43.3 60.9C46.6 74 55.3 87 55.3 87L28.7 128Z" fill="#F9BA84"/>
<path d="M84.0999 82.2C83.7999 82.2 83.5 82 83.3 81.7C81.5 76.8 78.3 73.9 78.3 73.9C78 73.5 78 73 78.3 72.7C78.6 72.4 79.0999 72.3 79.3999 72.6C79.4999 72.7 82.9 75.8 84.8 81.1C84.9 81.5 84.7 82 84.3 82.1C84.2 82.2 84.0999 82.2 84.0999 82.2Z" fill="#DC7B42"/>
<path d="M1.9 80.7C2.7 77.2 10.5 84.7 12.2 93.8C12.2 97.5 5.2 98.9 5.2 98.9C5.2 98.9 -2.6226e-06 88.8 1.9 80.7Z" fill="#FDE8D8"/>
<path d="M14.8 22.7C14.8 22.7 31.4001 21.7 34.9001 21.7C34.9001 13.3 33.5 3.69998 25.6 4.09998C15 4.59998 14.8 22.7 14.8 22.7Z" fill="#FDE8D8"/>
</g>
<defs>
<clipPath id="clip0">
<path d="M0 0H129.9V229.8H0V0Z" fill="white"/>
</clipPath>
</defs>
</svg>
