<svg width="264" height="320" viewBox="0 0 264 320" fill="none" xmlns="http://www.w3.org/2000/svg">
<g clip-path="url(#clip0)">
<path d="M241.9 112.8C241.7 112.9 241.4 113 241.2 113.1C239.4 113.8 237.6 114.6 235.8 115.2C234.6 115.6 233.5 116.1 232.3 116.5C226.4 118.6 221.1 120.1 217.8 121.1C215.5 121.7 214.2 122.1 214.2 122.1C214.2 122.1 154 147.9 124.6 179.6C122.7 181.6 121 183.7 119.4 185.7C118.2 187.3 117 188.9 115.9 190.5C100.9 213.6 98.8 193.9 99.3 176.2C99.6 165.9 100.7 156.3 100.7 156.3C100.7 156.3 107.9 149.7 119.4 140.8C140.3 124.6 175.4 100.7 207.6 94.5C211.3 93.8 214.7 93.1 217.9 92.5C220.4 92 222.7 91.5 224.9 91C229 90.1 232.7 89.3 235.9 88.5C237.7 88.1 239.4 87.7 240.9 87.3C241.2 87.2 241.6 87.1 241.9 87.1C259.3 83 261.4 83 263.7 92.7C265.6 100.4 254.2 107.5 241.9 112.8Z" fill="#F9BA84"/>
<path d="M178.1 240.6C178.1 240.6 177.9 241 177.6 241.7C177.5 241.9 177.4 242.1 177.3 242.4C177.3 242.4 177.3 242.4 177.3 242.5C177.2 242.6 177.1 242.8 177.1 242.9C176.9 243.2 176.8 243.5 176.6 243.9C176.4 244.3 176.2 244.7 176 245.1C175.5 246.1 174.8 247.3 174.1 248.7C174 249 173.8 249.2 173.7 249.5C172.9 250.9 172.1 252.4 171.1 253.9C170.8 254.5 170.4 255.1 170 255.7C169.4 256.7 168.7 257.7 168.1 258.8C167.5 259.9 166.7 260.9 166 262C165.1 263.4 164.1 264.7 163.1 266.1C156.9 274.5 149 283.3 139.7 289.2C137 290.9 134.6 292.6 132.3 294.4C119.8 304 112.7 313.9 109.5 319.1H0L42.1 269.3L55.1 253.9C55.1 253.9 58.4 249 61.1 242.8C63 238.3 64.7 233.1 64.5 228.5V227.8C64.5 226.3 65 224.9 65.8 223.7L70.6 216.9L72.8 213.7L99.3 176L109.3 161.8L119.4 173.3L122.9 177.3L124.6 179.3L127.9 183.1L178.1 240.6Z" fill="#F9BA84"/>
<path opacity="0.6" d="M235.8 88.5V115.2C234.6 115.6 233.5 116.1 232.3 116.5C226.4 118.6 221.1 120.1 217.8 121.1C215.5 121.7 214.2 122.1 214.2 122.1C214.2 122.1 154 147.9 124.6 179.6L178.1 240.7C178.1 240.7 174.5 248.8 168 258.9H137.5C127.5 258.9 119.3 250.8 119.3 240.7V140.9C140.2 124.7 175.3 100.8 207.5 94.6C211.2 93.9 214.6 93.2 217.8 92.6C220.3 92.1 222.6 91.6 224.8 91.1C228.9 90.1 232.6 89.3 235.8 88.5Z" fill="#E89C85"/>
<path d="M259.6 147.1C257.1 152.5 249.9 152.5 241.9 150.3C233.5 148 224 143.4 217.8 140.1C213.7 137.9 211 136.2 211 136.2L217.8 131.2L237.1 117C237.1 117 239.1 118 241.9 119.8C249.9 124.9 264.8 136.2 259.6 147.1Z" fill="#F9BA84"/>
<path d="M254.1 190.9C250.9 194.5 246.6 194.6 241.9 192.8C233.9 189.7 224.8 180.9 217.8 173.1C211.4 165.9 206.8 159.6 206.8 159.6L217.8 157L234.3 153.2C234.3 153.2 237.7 155.5 241.9 159.1C250.9 166.8 263.5 180.5 254.1 190.9Z" fill="#F9BA84"/>
<path d="M252.4 223C249.9 226.5 246.1 227.2 241.8 226.1C233.7 224.1 223.8 216 217.7 210.4C214.2 207.2 212 204.8 212 204.8L217.7 202.4L232 196.4C232 196.4 236.7 198.3 241.8 201.5C249.7 206.4 258.6 214.4 252.4 223Z" fill="#F9BA84"/>
<path opacity="0.6" d="M241.9 87.1C242.7 95.3 242.6 103.9 241.9 112.8C241.7 112.9 241.4 113 241.2 113.1C238.2 114.3 235.2 115.5 232.3 116.5C226.4 118.6 221.1 120.1 217.8 121.1V92.5C220.3 92 222.6 91.5 224.8 91C231.2 89.6 236.5 88.3 240.9 87.3C241.2 87.3 241.5 87.2 241.9 87.1Z" fill="#E89C85"/>
<path opacity="0.6" d="M241.9 119.9C243.1 130.7 243.2 140.9 241.9 150.4C233.5 148.1 224 143.5 217.8 140.2V131.3L237.1 117.1C237.1 117.1 239.1 118.1 241.9 119.9Z" fill="#E89C85"/>
<path opacity="0.6" d="M241.9 159.1C243 171.4 243.3 182.9 241.9 192.8C233.9 189.7 224.8 180.9 217.8 173.1V157.1L234.3 153.3C234.3 153.2 237.7 155.5 241.9 159.1Z" fill="#E89C85"/>
<path opacity="0.6" d="M241.9 201.5C243.2 209.6 243.1 217.8 241.9 226.1C233.8 224.1 223.9 216 217.8 210.4V202.4L232.1 196.4C232.1 196.4 236.8 198.3 241.9 201.5Z" fill="#E89C85"/>
<path d="M116.034 25.4226V226.825H247V25.4226H116.034Z" fill="#EDEDED"/>
<path d="M124.132 25.4149V226.826H238.91V25.4149H124.132Z" fill="white"/>
<path d="M246.949 25.6086V19.9926C246.949 19.9926 246.949 0.0423753 221.919 0.0423753H141.03C141.03 0.0423753 116 -1.83243 116 19.9926V25.6086H246.949ZM116 227.011V243.977C116 243.977 116 258.984 141.03 258.984H221.919C221.919 258.984 246.949 260.118 246.949 238.327V227.003H116V227.011Z" fill="#254553"/>
<path d="M170.963 11.7196V15.3683H200.169V11.7196H170.963Z" fill="#EDEDED"/>
<path d="M162.899 11.7196V15.3683H167.776V11.7196H162.899Z" fill="#EDEDED"/>
<path d="M128.4 102.5C124 124.1 125.3 125.5 119.8 130.2C119.4 130.5 119 130.9 118.5 131.3C118.5 131.3 118.5 131.4 118.5 131.6C118.2 134.1 116.3 149.8 109.4 162C109.4 162 124.1 204.7 112.2 229.4L74.3 228.7L71.4 228.6L64.6 228.5V227.8L64.1 177C64.1 173.7 64.9 170.5 66.5 167.7L67.6 165.7L67.8 165.4L68.7 163.8L102.6 102.8C102.6 102.8 102.6 102.6 102.7 102.3C103.3 99.7 106.2 86.6 111.4 80.4C112 79.7 112.6 79.2 113.4 78.8C115.5 77.7 118.1 77.9 120.1 79.4C124.4 82.6 130.9 89.8 128.4 102.5Z" fill="#F9BA84"/>
<path opacity="0.6" d="M165.9 262.1C165 263.5 164 264.8 163 266.2C156.8 274.6 148.9 283.4 139.6 289.3C136.9 291 134.5 292.7 132.2 294.5C119.7 304.1 112.6 314 109.4 319.2H100.3C101.4 316.5 103.1 314 104.6 311.5C106.1 309.1 107.6 306.7 108.4 304C108.8 302.7 109.1 301.4 109.1 300C109.1 298.5 108.5 296.9 108.6 295.4C108.6 294.7 108.7 294 108.1 293.5C107.5 293 106.6 292.8 106.1 292.2C105.5 291.5 105.2 290.6 104.8 289.8C102.3 285.1 100.7 280 97.7 275.6C92.2 267.4 84.7 262.6 78.1 255.2C73.9 250.5 70.4 245.5 69.6 239.2C69.6 239.6 69.5 239.8 69.5 239.8L60.9 251.7L42 269.4L55 254C55 254 58.3 249.1 61 242.9C62.9 238.4 64.6 233.2 64.4 228.6V227.9L64.1 177C64.1 173.7 64.9 170.5 66.5 167.7L67.6 165.7L67.8 165.4C68.2 165 68.5 164.5 68.7 163.8C63.9 179.6 68.7 196.8 70.2 214C70.3 215.1 70.4 216.1 70.4 217.2C70.6 221.1 70.7 225 71.1 228.8C72 237.8 74.4 246.2 83.9 252.1C87.3 254.2 91.2 255.8 93.8 258.7C96.3 261.6 97.3 265.4 98.9 268.8C101.9 275 107.6 280 114.3 282.6C121.1 285.1 128.9 285.1 135.7 282.5C139.4 281.1 142.7 279 145.7 276.7C147.1 275.6 148.7 275 150.2 274.1C153.6 271.8 157.8 269.2 160.7 266.5C162.5 264.8 164.2 263.4 165.9 262.1Z" fill="#F3A269"/>
<path d="M112.6 89.8C111.6 92.2 110.4 94.4 109 96.6C107.8 98.5 106.5 100.4 104.5 101.5C103.9 101.8 103.3 102.1 102.6 102.2C103.2 99.6 106.1 86.5 111.3 80.3C111.9 79.6 112.5 79.1 113.3 78.7C115.1 82 113.9 86.8 112.6 89.8Z" fill="#FDE8D8"/>
<path opacity="0.6" d="M119.7 130.2C119.3 130.5 118.9 130.9 118.4 131.3C118.4 131.3 118.4 131.4 118.4 131.6C116.1 132.3 112.2 133 106.9 132.9C106.8 132.9 115.8 131.5 119.7 130.2Z" fill="#E89C85"/>
</g>
<defs>
<clipPath id="clip0">
<path d="M0 0H263.9V319.2H0V0Z" fill="white"/>
</clipPath>
</defs>
</svg>
