<svg width="195" height="222" viewBox="0 0 195 222" fill="none" xmlns="http://www.w3.org/2000/svg">
<g clip-path="url(#clip0)">
<path d="M90.5995 102.387L104.725 77.6842H133.626L147.752 101.737L133.789 126.602H104.725L90.5995 102.387ZM146.128 102.062L132.814 78.1718H105.537L91.7361 102.062L105.537 125.79H132.814L146.128 102.062Z" fill="#CFD3D6"/>
<path d="M17.6977 102.223L29.0632 82.396H52.119L63.4845 102.061L52.119 121.725H29.0632L17.6977 102.223ZM62.5104 102.223L51.6319 83.0461H29.7127L18.6719 102.061L29.7127 121.075H51.6319L62.5104 102.223Z" fill="#CFD3D6"/>
<path d="M64.9459 161.544L76.9609 140.741H101.316L113.655 160.894L101.478 182.021H76.9609L64.9459 161.544ZM112.356 161.544L100.828 141.066H77.6103L65.9201 161.219L77.6103 181.371H100.828L112.356 161.544Z" fill="#CFD3D6"/>
<path d="M100.829 209.974L107.81 197.948H121.774L128.593 209.974L121.611 222.001H107.648L100.829 209.974ZM128.106 209.974L121.449 198.436H107.973L101.316 209.974L107.973 221.676H121.449L128.106 209.974Z" fill="#CFD3D6"/>
<path d="M137.198 161.219L143.206 151.143H155.058L160.903 161.219L155.058 171.458H143.043L137.198 161.219ZM160.254 161.219L154.571 151.468H143.368L137.685 161.219L143.368 170.97H154.571L160.254 161.219Z" fill="#CFD3D6"/>
<path d="M23.7052 160.731L30.3622 149.193H44.0008L50.6578 160.731L44.0008 172.27H30.3622L23.7052 160.731ZM50.1707 160.731L43.6761 149.518H30.6869L24.3547 160.731L30.6869 171.945H43.6761L50.1707 160.731Z" fill="#CFD3D6"/>
<path d="M0 125.302L6.65695 113.763H20.2956L26.9525 125.464L20.2956 137.165H6.81932L0 125.302ZM26.4654 125.302L19.9709 113.763H7.14405L0 125.139L6.49459 136.353H19.3214L26.4654 125.302Z" fill="#CFD3D6"/>
<path d="M2.92257 48.7548L10.3913 35.9159H25.4913L32.4729 47.7797L25.0042 60.7812H10.3913L2.92257 48.7548ZM32.4729 48.7548L25.1665 36.4034H10.7161L3.57203 48.7548L10.7161 61.2687H25.1665L32.4729 48.7548Z" fill="#CFD3D6"/>
<path d="M86.0533 7.47584L90.2748 0H98.7178L102.939 7.31332L98.8801 14.6266H90.2748L86.0533 7.47584ZM102.29 7.47584L98.5554 0H90.4372L86.5404 7.31332L90.4372 14.3016H98.5554L102.29 7.47584Z" fill="#CFD3D6"/>
<path d="M139.958 43.0674L146.128 32.5037H158.305L164.313 42.9048L158.305 53.1435H146.128L139.958 43.0674ZM163.501 43.0674L157.656 32.5037H146.128L140.445 42.5798L146.128 52.981H157.656L163.501 43.0674Z" fill="#CFD3D6"/>
<path d="M168.697 77.3579L175.191 66.1442H188.505L195 77.5204L188.505 88.8967H175.191L168.697 77.3579ZM194.513 77.3579L188.181 66.4692H175.516L169.346 77.3579L175.516 88.4092H188.181L194.513 77.3579Z" fill="#CFD3D6"/>
<path d="M52.2815 48.7546L62.0233 31.6902H81.1824L91.0866 48.7546L81.9942 65.0065H62.0233L52.2815 48.7546ZM90.9242 48.7546L81.1824 31.5277H62.5104L53.0933 48.7546L62.5104 65.0065H81.1824L90.9242 48.7546Z" fill="#CFD3D6"/>
<path d="M133.139 78.4964L146.453 53.1435L145.804 52.8185L132.49 78.0088L133.139 78.4964Z" fill="#CFD3D6"/>
<path d="M81.6694 31.3658L90.7619 14.3014L90.2748 13.9763L81.1824 31.2033L81.6694 31.3658Z" fill="#CFD3D6"/>
<path d="M91.736 101.574H63.3221V102.387H91.736V101.574Z" fill="#CFD3D6"/>
<path d="M143.043 151.467L143.693 151.142L133.301 125.626L132.49 125.951L143.043 151.467Z" fill="#CFD3D6"/>
<path d="M137.685 160.731H112.843V161.543H137.685V160.731Z" fill="#CFD3D6"/>
<path d="M107.648 198.435L108.297 198.11L101.153 181.534L100.504 181.859L107.648 198.435Z" fill="#CFD3D6"/>
<path d="M51.9568 83.2089L62.6728 64.8443L62.0234 64.5193L51.3073 82.7213L51.9568 83.2089Z" fill="#CFD3D6"/>
<path d="M52.7686 47.4561H32.6353V48.2686H52.7686V47.4561Z" fill="#CFD3D6"/>
</g>
<defs>
<clipPath id="clip0">
<path d="M0 0H195V222H0V0Z" fill="white"/>
</clipPath>
</defs>
</svg>
