<svg width="1440" height="900" viewBox="0 0 1440 900" fill="none" xmlns="http://www.w3.org/2000/svg">
<path opacity="0.5" d="M183.36 98.448L65.088 -30H31.296L183.36 98.448ZM0 149.904V173.712L128.448 185.616L0 149.904ZM1202.69 99.6L1266.24 -30H1238.21L1202.69 99.6ZM0 894.48V930H14.592L225.408 689.616L0 894.48ZM204.288 52.944L181.632 -30H163.776L204.288 52.944ZM1385.09 -30L1223.62 145.104L1431.17 -30H1385.09ZM246.144 766.224L113.088 930H148.416L246.144 766.224ZM1440 873.168L1222.66 675.6L1440 923.472V873.168ZM1265.47 177.744L1440 89.808V55.824L1265.47 177.744ZM1161.79 800.784L1177.34 930H1208.83L1161.79 800.784ZM286.272 814.8L244.416 930H272.448L286.272 814.8ZM1201.92 752.208L1307.9 930H1346.3L1201.92 752.208Z" fill="#FF0000"/>
</svg>
