<?xml version="1.0" standalone="no"?>
<!DOCTYPE svg PUBLIC "-//W3C//DTD SVG 1.1//EN" "http://www.w3.org/Graphics/SVG/1.1/DTD/svg11.dtd" >
<svg>
<metadata>
Created by FontForge 20090622 at Mon Sep 24 16:04:18 2018
 By deploy user
Copyright &#194;&#169; 2012 by Ekke Wolf. All rights reserved.
</metadata>
<defs>
<font id="Barack-Medium" horiz-adv-x="310" >
  <font-face 
    font-family="Barack Medium"
    font-weight="500"
    font-stretch="normal"
    units-per-em="1000"
    panose-1="0 0 6 0 0 0 0 0 0 0"
    ascent="800"
    descent="-200"
    x-height="602.5"
    cap-height="802"
    bbox="-229 -241.333 1943 1063"
    underline-thickness="50"
    underline-position="-50"
    unicode-range="U+0020-U+FB02"
  />
<missing-glyph horiz-adv-x="500" 
 />
    <glyph glyph-name="fi" unicode="fi" horiz-adv-x="717" 
d="M114 73v-1q-7 75 -7 313q0 83 -4 94q-3 7 -23 5.5t-27 5.5q-3 4 -4 19t0 29.5t-1 25.5q0 32 5 35q2 2 22 3t22 -2q2 0 3.5 1t2.5 4t1.5 6t0.5 8.5v9v9v8.5q0 67 41.5 114t121.5 46q58 -1 93.5 -17.5t61.5 -59.5q27 -42 20 -49q-6 -7 -26 -7q-6 0 -58 -16q-1 0 -7 -2.5
t-8 -2.5h-6t-6 3.5t-4 8.5q-11 35 -52 35q-29 0 -38.5 -20t-9.5 -74q2 -5 20 -5q63 -5 262 -1h15q71 2 78 1q5 -1 20 0t20 -1q0 -15 -2 -85.5t0 -84.5v-312q0 -12 3 -39.5t2 -41.5l2 -34q-1 -7 -4 -7q-4 1 -26 1h-26h-2q-2 1 -4.5 1t-6.5 0.5t-8 0.5h-9q-1 0 -9.5 -1.5
t-15 -1.5h-14.5t-12.5 2t-4.5 7q0 4 1.5 10.5t1.5 9.5l2 41q0 61 -1 91q0 134 2 172q1 36 -4 162h-3h-231l-12 1q-11 1 -19.5 0.5t-11.5 -3.5q-2 -6 -1 -11.5t2.5 -23.5t1.5 -33l3 -81q1 -25 -1 -113q5 -60 7 -115q1 -11 1 -36.5t2 -39.5q0 -3 1 -8.5t1.5 -10t0.5 -8.5
q0 -11 -23 -11q-67 3 -91 2q-6 0 -9 1t-6.5 5.5t-3.5 13.5z" />
    <glyph glyph-name="fl" unicode="fl" horiz-adv-x="798" 
d="M114 74q-7 75 -7 312q0 86 -4 97q-3 7 -23 5.5t-27 5.5q-3 4 -4 19t0 29.5t-1 25.5q0 29 5 32q2 2 22 3t22 -2q2 0 3.5 1t2.5 4t1.5 6t0.5 8.5v9v9v8.5q0 67 41.5 114t121.5 46q56 -1 87 -17t58 -60q27 -42 20 -49q-6 -7 -26 -7q-6 0 -58 -16q-2 0 -6 -1.5t-6 -2
t-5.5 -1.5t-5.5 -0.5t-4 1.5t-3 4t-1 7q0 35 -42 35q-29 0 -38.5 -18t-9.5 -72q2 -5 20 -5q16 -1 35.5 0t31.5 -3q12 -2 9 -16q4 -7 3 -28t0 -30q4 -13 1 -23t-18 -9q-6 0 -18 -1t-18 -1l-12 1q-11 1 -19.5 0.5t-11.5 -3.5q-2 -6 -1 -12.5t2.5 -25.5t1.5 -34l3 -81
q1 -25 -1 -113q5 -60 7 -115q0 -4 0.5 -29t1.5 -46t4 -27t-6 -8.5t-17 -2.5h-91q-18 0 -19 22zM494 713q0 27 -1.5 47.5t-1.5 39.5q1 4 17.5 2t19.5 -1q45 5 59 1q33 0 43 -2q4 -6 0 -29q-4 -28 -4 -43q0 -27 0.5 -74.5t0.5 -82.5q0 -3 -3 -70t-3.5 -122.5t2.5 -116.5
q1 -17 0.5 -25t-2 -25t-1.5 -25q-3 -39 -1 -47q2 -9 11 -20.5t19 -11.5q16 0 27 12t11 26q7 0 22.5 -3.5t23.5 -2.5q41 0 57 -8q0 -29 -25 -67t-56 -57t-81 -19q-49 0 -91 30.5t-43 82.5v179q-1 17 -1 97.5t1 102.5v232z" />
    <glyph glyph-name=".notdef" horiz-adv-x="500" 
 />
    <glyph glyph-name=".null" horiz-adv-x="0" 
 />
    <glyph glyph-name="nonmarkingreturn" horiz-adv-x="333" 
 />
    <glyph glyph-name="space" unicode=" " horiz-adv-x="250" 
 />
    <glyph glyph-name="exclam" unicode="!" horiz-adv-x="396" 
d="M313 726q-20 -163 -25 -189l-11 -152q0 -22 -4.5 -67.5t-3.5 -69.5q0 -28 -4 -29q-5 -1 -31 2q-20 1 -42 -3t-56 7q-8 3 -6 13q0 28 -2 56l-5 67l-5 67q-6 109 -11 168q-3 25 -11 82t-11 86q0 1 -2.5 12t-2.5 15t3 11q4 3 7.5 4.5t5 1.5t6 -1.5t7.5 -1.5q7 0 21.5 -5
t20.5 -5q24 -3 69 3.5t52 6.5q32 0 41 -11q5 -7 2 -26zM192 182q12 2 36.5 -4t35.5 -17q33 -28 30 -76q-4 -65 -69 -93q-16 -7 -44 -3q-38 4 -60 31t-18 67q1 28 13 48.5t28 29.5t28.5 13t19.5 4z" />
    <glyph glyph-name="quotedbl" unicode="&#x22;" horiz-adv-x="378" 
d="M298 800q-11 -2 -30 2t-29 5t-21 -7q5 -33 6 -107.5t2 -84.5q32 2 46 4q14 128 26 188zM164 800q-20 -1 -76 4q-1 -1 -3.5 -5.5t-4.5 -6.5q5 -25 3.5 -87t4.5 -99q8 2 17 2t19 -1t14 -1q3 21 10.5 91.5t15.5 102.5z" />
    <glyph glyph-name="numbersign" unicode="#" horiz-adv-x="747" 
d="M222 39q-1 -38 -4 -45q7 0 35 0.5t39 -0.5q4 7 7 39q2 25 9.5 65t8.5 46q1 1 2 4.5t4 4.5q10 -2 43 -2t49 -3q3 -25 -2.5 -78.5t-4.5 -75.5q9 1 37 1t39 4q6 26 12.5 85.5t8.5 71.5q30 -3 81.5 0.5t67.5 3.5q4 28 4 82q-11 0 -55 -2t-60.5 -2t-36.5 2q1 52 20 135
q10 -6 47 -8q8 0 23 -0.5t24 -0.5t20 -1.5t17 -3.5q2 10 10 83q-27 -2 -75 -2t-67 -1q1 53 23 159q-10 1 -24 0.5t-30.5 0t-24.5 3.5q-1 -25 -9 -65.5t-9 -53.5q-1 -4 -1 -14.5t-1.5 -17.5t-5.5 -12q-9 0 -40 -3t-40 -3t-31 3q-2 35 3 93.5t5 70.5q-10 -5 -37.5 -0.5
t-38.5 2.5q-6 -92 -27 -177q-27 0 -60.5 1t-67.5 0q-2 -7 -4 -34t-9 -36q39 -2 146 1q1 -72 -11 -136q-12 -6 -75 -4.5t-71 1.5q3 -9 -1.5 -37t-2.5 -35q15 0 46 2t57 2t47 -6l5 -15l-11 -54v-23zM332 372q72 0 111 7q0 -24 -6.5 -71t-5.5 -76q-71 -9 -116 1q-6 25 5 75
t12 64z" />
    <glyph glyph-name="dollar" unicode="$" horiz-adv-x="645" 
d="M363 761l1 -1q61 -11 112 -52.5t56 -103.5q-2 -3 -27.5 -6.5t-50.5 -3.5q-7 0 -16.5 -1.5l-16 -2.5t-7.5 -1q-15 43 -28 56q-23 22 -71 22q-17 0 -46.5 -16t-36.5 -36q-21 -52 5 -87q12 -19 31 -31.5t53.5 -28.5t49.5 -25q12 -7 37.5 -20.5t35.5 -19.5l30 -18.5t28 -20
l21.5 -21t19 -25.5l12.5 -28.5t8.5 -35.5t1.5 -42q-1 -50 -38 -93.5t-86.5 -66t-94.5 -24.5l-25 -1l-6 -90h-61l8 91q-72 9 -114 43q-20 14 -44 57.5t-24 60.5q0 6 7 9t16.5 3.5t10.5 0.5q81 14 86 16q7 2 10 -7q29 -74 108 -75q46 -1 84.5 23t38.5 54q0 23 -6.5 40.5
t-24.5 32.5t-28.5 22t-38.5 23q-1 0 -37.5 19l-68 36.5t-66.5 43t-47 44.5q-28 59 -16.5 116.5t52.5 103.5q54 56 143 68l7 79l59 5z" />
    <glyph glyph-name="percent" unicode="%" horiz-adv-x="888" 
d="M227 808q-13 1 -27 0t-22 -3.5t-9 -3.5q-45 -14 -68 -61.5t-21 -104.5q5 -84 53 -140q10 -12 30.5 -24t40.5 -16q37 -8 67 13.5t45 57.5q25 58 24 109q-2 66 -33.5 117.5t-79.5 55.5zM785 800q-4 7 -44.5 4.5t-47.5 -2.5q-5 -13 -110.5 -148.5t-119.5 -151.5
q-11 -13 -19 -24q-1 -1 -67 -88l-131 -173t-63 -83q-47 -66 -52 -72q-15 -17 -28 -34q-2 -3 -6.5 -7.5t-7 -9t-2.5 -11.5h14q7 -1 33 -2t37 -4q10 15 48.5 58.5t50.5 69.5l237.5 309.5zM150 635q-3 38 15 73.5t45 38.5q24 4 43 -31t20 -76q1 -37 -14.5 -73.5t-34.5 -40.5
q-23 -4 -46.5 32.5t-27.5 76.5zM695 350q-13 1 -27 0t-22 -3.5t-9 -3.5q-45 -14 -68 -61.5t-21 -104.5q5 -84 53 -140q10 -12 30.5 -24t40.5 -16q37 -8 67 13.5t45 57.5q25 58 24 109q-2 66 -33.5 117.5t-79.5 55.5zM618 177q-3 38 15 73.5t45 38.5q24 4 43 -31t20 -76
q1 -37 -14.5 -73.5t-34.5 -40.5q-23 -4 -46.5 32.5t-27.5 76.5z" />
    <glyph glyph-name="ampersand" unicode="&#x26;" horiz-adv-x="827" 
d="M429 392q76 39 123 82t51 107q2 102 -67.5 161.5t-160.5 57.5q-48 -1 -94 -22.5t-79 -58t-46 -86.5t4 -109q4 -15 15 -31t19.5 -25t26.5 -26l22 -21q-62 -28 -102 -81.5t-44 -122.5q-3 -61 17 -101.5t59 -76.5q45 -42 146 -48q90 -5 142 22t99 86q11 -10 25 -27.5
t31.5 -41.5t29.5 -38q10 9 51.5 34t49.5 44l-21.5 18.5l-20.5 18l-16.5 14.5t-16 15t-12 12.5t-12.5 13.5t-9 13q12 8 30 28t24 32q2 3 14 16t18.5 22.5t7.5 17.5q-39 19 -91 56q-38 -70 -73 -95q-50 43 -140 140zM479 592q0 -12 -3 -23t-9 -20.5l-10.5 -17t-15 -15.5
t-15.5 -12.5t-18 -11.5t-17 -9.5t-18 -9t-15 -7.5q-23 14 -48.5 47t-27.5 77t29 75.5t79 30.5q37 -1 63.5 -32.5t25.5 -71.5zM323 342q131 -127 165 -165q-8 -22 -54.5 -44.5t-86.5 -22.5q-61 0 -94 38q-12 12 -18 36t-3.5 53.5t26 58.5t65.5 46z" />
    <glyph glyph-name="quotesingle" unicode="'" horiz-adv-x="244" 
d="M164 800q-20 -1 -76 4q-1 -1 -3.5 -5.5t-4.5 -6.5q5 -25 3.5 -87t4.5 -99q8 2 17 2t19 -1t14 -1q3 21 10.5 91.5t15.5 102.5z" />
    <glyph glyph-name="parenleft" unicode="(" horiz-adv-x="349" 
d="M203 801q5 -2 31.5 -15.5t38.5 -18.5q-103 -218 -88 -477q4 -70 36 -228q14 -72 41 -125q-8 -8 -33 -24q-1 -1 -47 -19q-59 118 -84 255q-16 94 -18 196q-4 133 30 253.5t93 202.5z" />
    <glyph glyph-name="parenright" unicode=")" horiz-adv-x="349" 
d="M150 -106q-5 2 -31.5 15.5t-38.5 18.5q103 218 88 477q-4 70 -36 228q-14 72 -41 125q8 8 33 24q5 4 14 7.5t19.5 7l13.5 4.5q59 -118 84 -255q16 -94 18 -196q4 -133 -30 -253.5t-93 -202.5z" />
    <glyph glyph-name="asterisk" unicode="*" horiz-adv-x="428" 
d="M191 804q-1 -12 3.5 -48t1.5 -51q-22 4 -53 15t-45 13q-3 -9 -9 -22.5t-9 -24.5q4 -1 43 -8t54 -12q-4 -6 -31.5 -26.5t-28.5 -32.5q0 -11 11 -17t13 -20q41 36 73 76q10 -11 26 -37.5t25 -37.5q4 3 12.5 7.5t10.5 6.5t5.5 7.5t7.5 14.5q-6 12 -25.5 36.5t-25.5 34.5
q91 14 98 16q-2 8 -3.5 22.5t-8.5 23.5q-30 -14 -105 -30q2 14 10 46t10 44q-20 -1 -23 -1.5t-18 2t-19 3.5z" />
    <glyph glyph-name="plus" unicode="+" horiz-adv-x="608" 
d="M354 564q-12 -3 -21.5 -4.5t-19.5 -0.5l-15 1.5t-18 3.5t-18 4q-4 -2 -6 -6q0 -15 4 -102t-2 -99q-90 11 -172 -6q-1 -36 -6 -78q6 0 80 -0.5t110 -7.5q4 -29 4.5 -64t0 -79t-0.5 -65l90 8q8 120 4 196q131 -3 160 2q-7 60 -2 96q-57 -6 -168 2q-8 125 -4 199z" />
    <glyph glyph-name="comma" unicode="," horiz-adv-x="280" 
d="M175 144q20 -9 32 -22q20 -20 22 -57q0 -96 -73 -134q-3 -4 -23.5 -11.5t-26.5 -9.5q-1 0 -18 -7t-28 -5q-7 3 -7 21q0 2 -1 6.5t-1 7t0.5 5.5t2.5 4t6 1h6h9t10.5 0.5t12.5 2.5t13.5 6t14.5 9q7 4 16.5 14l13.5 14q-3 0 -11.5 1t-12 1.5t-10.5 2t-11 3.5t-9 5.5t-8 7.5
q-31 33 -29 57q1 29 31 61q26 29 79 16z" />
    <glyph glyph-name="hyphen" unicode="-" horiz-adv-x="426" 
d="M307 422q4 -2 20 -1t17 0l-2 -105q-1 -10 -6.5 -11t-14.5 1q-21 4 -37 4.5t-55.5 -1t-79.5 -1.5q-4 0 -17 2t-18.5 2t-15.5 -2q-18 -12 -17 -4v47q1 13 0 28.5t-1 23.5t3.5 11.5t7.5 4t12.5 0.5h11.5q10 0 49 2.5t60 1.5q6 0 42.5 -1.5t40.5 -1.5z" />
    <glyph glyph-name="period" unicode="." horiz-adv-x="265" 
d="M134 148q43 1 61.5 -24t18.5 -57q0 -26 -23.5 -50.5t-58.5 -24.5q-34 0 -57.5 26t-23.5 51q0 24 17 47q12 19 27 25t39 7z" />
    <glyph glyph-name="slash" unicode="/" horiz-adv-x="366" 
d="M293 804q-10 -34 -27 -78t-27 -81q-5 -19 -24 -74.5t-24 -72.5q-1 -5 -36 -106q-77 -234 -106 -314q-7 -19 -22.5 -55.5t-21.5 -60.5q9 -1 42 2t42 -3q19 48 68 194l110 339q5 16 17 51.5l20 59.5l57 195q-13 0 -35 2t-33 2z" />
    <glyph glyph-name="zero" unicode="0" horiz-adv-x="590" 
d="M312 806q40 0 82 -25.5t80.5 -74t65 -131.5t30.5 -186q3 -63 -26 -171q-31 -113 -102 -174.5t-163 -53.5l-27 6q-74 10 -128 75q-101 120 -101 321q0 114 33 207t99.5 150t156.5 57zM295 694q-34 0 -60.5 -31t-40.5 -79.5t-21 -98t-7 -94.5q0 -61 14.5 -125.5t47 -114.5
t75.5 -49q121 2 121 284q0 42 -6 90t-19.5 99.5t-40.5 85t-63 33.5z" />
    <glyph glyph-name="one" unicode="1" horiz-adv-x="590" 
d="M332 48q2 39 -3 74q-1 5 1 59q2 11 2.5 26.5t0 29.5t-1 26.5t-1.5 20.5l-1 9q-3 27 -4 76t-2 67q-1 17 1 48t2 43q0 105 -6 110q-3 3 -21.5 -19t-37.5 -47.5t-21 -27.5q-3 -3 -22 1.5t-26 7.5q-12 4 -71 12q-16 2 -24 4q-14 4 2 15q7 6 9 8q18 23 61 60.5t55 49.5
q15 14 48 48.5l49 50.5q16 2 43 0q10 -2 56 0.5t56 -0.5q3 -1 4 -6.5t1 -13.5v-16t-0.5 -15.5t-0.5 -8.5v-85q0 -13 -1 -70.5t2 -70.5q9 -65 1 -120l4 -197l2 -74q1 -12 1 -79q0 -2 0.5 -8.5t1 -12t0 -11.5t-3 -9.5t-7.5 -3.5q-54 -4 -85 -4q-9 0 -26.5 0.5t-26.5 0.5
q-12 0 -12 12z" />
    <glyph glyph-name="two" unicode="2" horiz-adv-x="590" 
d="M551 610q3 -64 -16 -113t-66 -124q-34 -48 -142 -156q-10 -10 -55 -48t-52 -46q-4 -5 -5 -8t1 -3.5t5 -0.5t7.5 0.5t6.5 0.5q18 -1 90 2q25 1 47 1.5t39 0t47 0.5q77 3 90 1q10 -2 10.5 -24.5t-3.5 -28.5q-3 -9 -3.5 -20t0.5 -26.5t1 -20.5h-99h-216q-10 0 -54.5 0.5
t-72.5 1t-50 -0.5q-1 0 -8 -1.5t-12.5 -1t-6.5 3.5l2 111q0 2 -2 9t-2 9.5t2 6.5q9 7 35 25.5t29 20.5q107 79 178 152q79 82 108 126q32 49 43 97q3 16 -2 43t-15 40q-11 17 -35.5 33.5t-56.5 20.5q-116 13 -157 -149q-36 0 -79.5 6t-44.5 20q0 7 7 26q33 93 108.5 150.5
t161.5 55.5q87 -3 160 -61t77 -131z" />
    <glyph glyph-name="three" unicode="3" horiz-adv-x="590" 
d="M361 685q-7 2 -44 2.5t-76.5 0l-79.5 -1t-42 -0.5q-47 0 -69 -5q-4 19 -4 84q-3 34 9 36h4q22 -4 99 -2t89 1q103 -8 160 0q18 3 43.5 0.5t43.5 -0.5q3 -13 6 -51q-2 -9 0.5 -37.5t2.5 -32.5l-114 -102q-55 -48 -65 -64q7 -2 19 -2t18 -1q65 -4 114.5 -48t66.5 -104
q22 -74 3 -156q-13 -84 -75.5 -148t-166.5 -66q-105 -2 -185 45.5t-81 119.5q10 10 37 10q17 1 80 12q16 5 19 -6q10 -26 44 -42t82 -16q125 0 125 158q0 45 -12.5 76.5t-33 46.5t-46.5 24t-53 8.5t-53 -1.5q-28 -3 -29 -3q-7 1 -7 22q0 13 -3.5 37t-3.5 30t1 8t5 5t6 6
q99 90 102 94z" />
    <glyph glyph-name="four" unicode="4" horiz-adv-x="590" 
d="M438 803q6 0 18 -1t18.5 -2t12.5 0q0 -9 -10.5 -21t-11.5 -15l-108.5 -169l-126.5 -199q-1 -1 -5 -10t-8.5 -16.5t-5.5 -7.5q31 -5 60 -3q48 3 112.5 1.5t89.5 0.5h58q5 -2 5 -15l3 -84q-1 -10 -13.5 -11t-20.5 2h-5h-12h-14t-15 -0.5l-13.5 -1t-9.5 -2.5t-3 -4
q5 -60 5 -181q7 -63 4 -64t-18 -1q-6 -1 -43 -0.5t-45 1.5h-22q-6 2 -6 23q0 23 -3 77.5t-3 83.5q0 61 -4 63q-5 2 -37 2l-165 -1q-2 0 -16.5 -2t-24.5 -1.5t-10 5.5q0 12 -2.5 44t-1.5 54q9 15 126 183.5t167 246.5q1 2 4 7.5l5.5 10t5.5 6.5q2 1 31 1h58z" />
    <glyph glyph-name="five" unicode="5" horiz-adv-x="590" 
d="M500 688q-3 0 -21 0.5t-46 0.5q-102 0 -158 2q-21 4 -21 -6q0 -6 -3 -20t-3 -18q-6 -48 -10 -77q-8 -38 -6 -46q2 -2 4.5 -1.5t8.5 2.5t8 2q52 20 106 17q58 -3 102.5 -44.5t64.5 -91.5t21 -96q2 -74 -19 -135.5t-56.5 -99.5t-75.5 -60t-80 -28q-198 -23 -253 147
q0 1 -3 7.5t-3.5 10t1.5 7.5q3 3 17 3q28 -1 53 2q11 2 27 3t30 4q20 6 25 2q3 -2 4.5 -6t2 -9.5t1.5 -7.5q11 -32 46 -42.5t61 4.5q90 44 92 157q1 99 -38.5 133t-107.5 28q-36 -3 -86.5 -22t-80.5 -36q-8 -6 -16 -4.5t-6 15.5l29 241q4 30 15 96t17 78q8 3 35.5 1.5
t35.5 -1.5l198 1q36 -2 54 0q23 3 33 -1q1 -1 1 -14t-0.5 -25t0.5 -19v-54z" />
    <glyph glyph-name="six" unicode="6" horiz-adv-x="590" 
d="M485 749q65 -61 71 -130q-15 -1 -41 -5t-33 -5q-6 -1 -21.5 -6t-28.5 -3q-19 46 -30 61q-13 19 -34.5 29.5t-38.5 10.5q-70 0 -116 -87q-59 -112 -44 -225q24 21 64 37.5t80 19.5q50 3 91.5 -6.5t79 -34t59 -74t21.5 -120.5q0 -35 -6 -63t-21.5 -57t-47 -51t-78.5 -36
q-77 -22 -156 -12q-65 6 -113.5 47.5t-73.5 104t-35.5 129.5t-7.5 133q2 61 32 152q83 248 283 248q88 0 145 -57zM330 336q-53 0 -87.5 -12.5t-52.5 -55.5q-10 -50 21 -107.5t87 -57.5q63 0 97 24t38 86q4 61 -24 92t-79 31z" />
    <glyph glyph-name="seven" unicode="7" horiz-adv-x="590" 
d="M545 801q14 2 16.5 -11t-0.5 -25q-2 -28 0.5 -44.5t2.5 -38.5q-10 -31 -178 -327l-7 -12q-12 -23 -20.5 -37.5l-11.5 -19.5t-9 -18l-18 -39q-7 -16 -42 -80.5t-45 -91.5q-18 -48 -29 -57q-4 -3 -6.5 -4t-3.5 -0.5t-4.5 1.5t-7.5 1q-5 0 -68.5 -1t-68.5 1q-5 1 -5.5 4
t1.5 7t5 8l6 8t4 6q1 1 16 27l38 66l41 73q11 21 49.5 85.5t48.5 77.5l26 45l52.5 90.5t30.5 49.5q15 18 41.5 68t34.5 62q6 10 -12 10q-50 0 -101.5 2.5t-73.5 2.5q-11 0 -68.5 -1t-91.5 -0.5t-37 4.5q-4 5 -5.5 56t5.5 52q6 0 65 -2.5t65 1.5q16 2 106 2t173.5 -0.5
t85.5 -0.5z" />
    <glyph glyph-name="eight" unicode="8" horiz-adv-x="590" 
d="M287 805q100 3 167 -64t54 -197q-2 -24 -26 -60t-53 -57q50 -18 88.5 -70.5t38.5 -110.5q0 -107 -60 -178t-145 -75q-45 -3 -54 -2q-118 0 -192 63t-71 187q1 54 46 111q17 20 40 37.5t39 19.5q-49 38 -73 81t-23 110q1 61 40.5 109.5t88.5 71t95 24.5zM287 708
q-42 0 -70 -28.5t-28 -79.5q0 -19 3.5 -37.5t13 -42t32 -38t55.5 -14.5q50 0 74 38.5t24 85.5q0 53 -26.5 84.5t-77.5 31.5zM300 365q-65 0 -101 -50t-33 -89q10 -123 144 -123q60 0 88 36t28 91q0 54 -32.5 94.5t-93.5 40.5z" />
    <glyph glyph-name="nine" unicode="9" horiz-adv-x="590" 
d="M145 152q32 8 39 8q3 -3 6.5 -11t5.5 -11q15 -17 44 -27t58 -8q96 5 120 119q4 20 9 82t2 68l-23 -13q-22 -13 -36 -19t-43.5 -13.5t-60.5 -7.5q-37 0 -76 7.5t-54 14.5q-51 24 -80 79t-29 117q0 80 52.5 149.5t115.5 96.5q21 9 59.5 16t57.5 5q110 -10 187 -102
q31 -44 46 -115t15 -142q0 -231 -65.5 -343.5t-213.5 -112.5q-63 -2 -102.5 11t-92.5 55q-27 23 -36 44q-1 3 -6 12t-7.5 15.5t-1.5 12.5q2 8 12 9.5t25.5 0.5t17.5 -1zM289 695q-65 0 -98 -44t-33 -93q0 -133 124 -133q61 0 96 41t35 107q0 51 -37 86.5t-87 35.5z" />
    <glyph glyph-name="colon" unicode=":" horiz-adv-x="293" 
d="M152 543q43 1 61.5 -24t18.5 -57q0 -26 -23.5 -50.5t-58.5 -24.5q-34 0 -57.5 26t-23.5 51q0 24 17 47q12 19 27 25t39 7zM152 148q43 1 61.5 -24t18.5 -57q0 -26 -23.5 -50.5t-58.5 -24.5q-34 0 -57.5 26t-23.5 51q0 24 17 47q12 19 27 25t39 7z" />
    <glyph glyph-name="semicolon" unicode=";" horiz-adv-x="359" 
d="M178 543q43 1 61.5 -24t18.5 -57q0 -26 -23.5 -50.5t-58.5 -24.5q-34 0 -57.5 26t-23.5 51q0 24 17 47q12 19 27 25t39 7zM204 144q20 -9 32 -22q20 -20 22 -57q0 -96 -73 -134q-3 -4 -23.5 -11.5t-26.5 -9.5q-1 0 -18 -7t-28 -5q-7 3 -7 21q0 2 -1 6.5t-1 7t0.5 5.5
t2.5 4t6 1h6h9t10.5 0.5t12.5 2.5t13.5 6t14.5 9q7 4 16.5 14l13.5 14q-3 0 -11.5 1t-12 1.5t-10.5 2t-11 3.5t-9 5.5t-8 7.5q-31 33 -29 57q1 29 31 61q26 29 79 16z" />
    <glyph glyph-name="less" unicode="&#x3c;" horiz-adv-x="615" 
d="M87 237q20 -6 40.5 -14.5t32 -14.5l36.5 -19l34 -18q11 -6 46.5 -23t53.5 -27q115 -63 202 -104q0 1 1 3q2 1 1 3q-5 81 -3 124q-49 22 -161 81.5t-158 80.5q29 21 74.5 47t78 42.5l92 45.5l75.5 37q2 30 1.5 42.5t-4.5 36.5t-5 36q-21 -6 -58 -26t-52 -27
q-48 -22 -138 -73t-139 -73q-5 -2 -22 -8t-24.5 -11t-9.5 -11q-2 -8 -1.5 -11t2 -11t1.5 -12q1 -16 4 -96z" />
    <glyph glyph-name="equal" unicode="=" horiz-adv-x="629" 
d="M187 439v1q-15 4 -107 -4q3 24 3 76q0 10 3.5 12t12.5 1q2 0 17.5 -2t24.5 -2q65 0 84 2q37 4 62 3q112 -13 151 -8q14 2 55.5 3.5t50.5 -1.5q3 -1 4.5 -3.5t1 -5l-1 -5t-0.5 -3.5q-2 -14 -2 -62q0 -6 -2 -8t-4 -2t-6.5 2t-6.5 2q-14 2 -65.5 2.5t-55.5 0.5
q-41 4 -88.5 4t-85 -1.5t-45.5 -1.5zM80 436zM544 361v1q3 -1 4.5 -3.5t1 -5l-1 -5t-0.5 -3.5q-2 -14 -2 -62q0 -6 -2 -8t-4 -2t-6.5 2t-6.5 2q-14 2 -65.5 2.5t-55.5 0.5q-41 4 -88.5 4t-85 -1.5t-45.5 -1.5q-15 4 -107 -4q3 24 3 76q0 10 3.5 12t12.5 1q2 0 17.5 -2
t24.5 -2q65 0 84 2q37 4 62 3q112 -13 151 -8q14 2 55.5 3.5t50.5 -1.5zM80 277z" />
    <glyph glyph-name="greater" unicode="&#x3e;" horiz-adv-x="615" 
d="M527 380q-20 6 -40.5 14.5t-32 14.5l-36.5 19l-34 18q-11 6 -46.5 23t-53.5 27q-115 63 -202 104q0 -1 -1 -3q-2 -1 -1 -3q5 -81 3 -124q49 -22 161 -81.5t158 -80.5q-29 -21 -74.5 -47t-78 -42.5l-92 -45.5l-75.5 -37q-2 -30 -1.5 -42.5t4.5 -36.5t5 -36q21 6 58 26
t52 27q48 22 138 73.5t139 72.5q5 2 22 8t24.5 11t9.5 11q2 8 1.5 11t-2 11t-1.5 12q-1 16 -4 96z" />
    <glyph glyph-name="question" unicode="?" horiz-adv-x="660" 
d="M343 803q40 0 79 -12.5t77 -40t60.5 -82t20.5 -127.5q-2 -71 -93 -150q-4 -3 -23 -18.5t-24.5 -22t-15 -21.5t-13.5 -33q-1 -2 -1 -17t-1.5 -28t-4.5 -14l-40 4q-78 0 -92 3q-9 1 -9 14q0 84 30 119q25 30 57 52t59 52q35 40 35 98q0 43 -27.5 76t-66.5 33
q-35 0 -57.5 -20.5t-31.5 -45.5q-3 -8 -6 -19t-6.5 -25.5t-5.5 -21.5q-20 -10 -36 -5q-14 3 -42 3.5t-51 0t-25 -0.5q-20 5 -2 46q43 95 98.5 145t157.5 58zM330 182q12 2 36.5 -4t35.5 -17q33 -28 30 -76q-4 -65 -69 -93q-16 -7 -44 -3q-38 4 -60 31t-18 67q1 28 13 48.5
t28 29.5t28.5 13t19.5 4z" />
    <glyph glyph-name="at" unicode="@" horiz-adv-x="1049" 
d="M695 74q2 1 16.5 9l20 11l20 11t22 13l19.5 13.5t20 15t16 15t13 16.5q35 54 45.5 113t3 104.5t-25 87.5t-31 62.5t-21.5 29.5q-121 134 -322 112q-54 -5 -114.5 -32t-120.5 -75.5t-107 -128t-64 -176.5q-12 -40 -1.5 -136.5t42.5 -152.5q29 -51 69.5 -88.5t83.5 -56.5
t91 -31t90 -12t82 2q64 6 139 37t133 71t99.5 74.5t55.5 52.5q-19 23 -101 53q-29 -54 -125 -112.5t-213 -75.5q-41 -6 -89 3q-62 14 -120 55t-79 91q-32 74 -30.5 154.5t19 134t45.5 100.5q51 86 145 130q51 23 127.5 23.5t126.5 -23.5q52 -26 82 -91t24 -138
q-2 -22 -6 -46q-8 -37 -41.5 -76t-47.5 -45q-22 -10 -38 -5q-10 9 -6 37q7 50 24.5 138.5t17.5 89.5q-32 -11 -98 -4q2 -28 -6 -48q-30 42 -88.5 43.5t-91.5 -29.5q-41 -34 -55 -98q-15 -67 4 -116t54 -76q38 -22 90 -14t84 31q7 -18 11 -26t13 -18.5t21 -12.5q26 -6 73 10z
M460 231q-23 58 36 92q32 6 51 -10.5t20 -43.5q1 -20 -9.5 -37.5t-27.5 -23.5q-19 -5 -42 3t-28 20z" />
    <glyph glyph-name="A" unicode="A" horiz-adv-x="673" 
d="M265 768q2 14 13 32q7 2 22.5 2t24.5 -2h91q19 2 20 -13q0 -5 9 -39t10 -41l13 -63q4 -10 8 -23.5l13.5 -45l20.5 -67.5q0 -1 31 -95t39 -124q17 -62 47 -153q31 -105 38 -122q4 -10 2 -13t-12 -3q-4 0 -16.5 -1t-19.5 0q-66 4 -99 2q-16 0 -21 13l-34 107q-1 2 -3 8
t-4.5 10t-6.5 5q-10 1 -28.5 0.5t-47 -1t-38.5 -0.5h-81q-2 0 -16 -1.5t-21 -1.5q-12 -1 -14 -8l-26 -77q0 -1 -2 -8t-3.5 -14.5t-4 -15t-5 -12t-5.5 -3.5q-10 0 -55 -2t-73 2q-1 0 -7.5 -2t-10.5 -2t-6 4q-1 9 -1 11.5t6 12.5l6 10l91 299q2 14 17 54q1 3 28 78l55.5 153.5
t31.5 87.5zM344 639q-2 0 -4.5 -11t-4.5 -23t-3 -13q-2 -6 -14 -45.5l-24.5 -81.5t-20.5 -63l-17 -58q-2 -8 -8.5 -21t-8.5 -21q-10 -44 -11 -50q-1 -9 83.5 -11t119.5 1q10 0 13 5t2 10t-4 15l-6.5 23l-8 26.5t-6.5 22.5q-32 117 -43 154z" />
    <glyph glyph-name="B" unicode="B" horiz-adv-x="603" 
d="M84 801q3 0 9 -0.5t10 -0.5h32q37 1 47 1q23 0 62 1.5t61 -0.5q33 -3 74.5 -19t82.5 -52.5t49 -81.5q8 -46 5 -79q0 -29 -24.5 -66.5t-56.5 -56.5q-20 -12 -31 -21q8 -4 32 -13t39 -16.5t35 -26.5t33 -45q29 -56 15 -139q-12 -77 -65 -125t-121 -61q-13 -2 -27.5 -3
t-25 -0.5l-32 1.5t-35.5 2h-99q-5 0 -21.5 -1t-21.5 1q-9 2 -12 8t-2 19.5t1 15.5q-3 42 -3 81l-7 384q-10 255 -3 293zM228 505v-7v-7t0.5 -6t1.5 -5.5t3 -4t5 -4t7 -2.5q67 5 104.5 32t35.5 96q-1 52 -35 75.5t-78 23.5q-45 4 -45 -7q-2 -18 -2 -42.5t1 -39.5v-15z
M234 111q29 -9 107 2q88 11 77 140q-3 29 -24.5 62t-53.5 42q-26 7 -110 5q4 -92 4 -251z" />
    <glyph glyph-name="C" unicode="C" horiz-adv-x="697" 
d="M522 590q-19 46 -61 77t-97 30q-49 -1 -88.5 -30.5t-62 -74.5t-34 -96t-10.5 -101q1 -55 25 -118.5t75 -114.5t114 -51q61 0 94 29t42 69l105 -30l20 -4h5h3t3.5 -1t1.5 -3l-7 -15q-74 -165 -265 -165q-124 0 -212.5 79.5t-131.5 223.5q-25 114 14.5 235t124 200.5
t182.5 79.5q97 0 165.5 -36.5t115.5 -117.5l10 -24q2 -4 -17 -9z" />
    <glyph glyph-name="D" unicode="D" horiz-adv-x="634" 
d="M246 800q147 4 254 -110t102 -291q-3 -92 -25.5 -164t-56 -115t-78.5 -71t-86.5 -38.5t-85.5 -10.5h-137q-32 -3 -38 0q-7 2 -4 21l-2 202q0 27 -2.5 82t-2.5 82q2 108 0 162q0 38 -1 90t-2 91.5t-1 42.5q0 17 7.5 23.5t23.5 5.5q40 -4 135 -2zM231 137q0 -16 6 -22.5
t22 -4.5q103 12 155.5 84t57.5 185q5 137 -61 226t-186 82q-5 -1 -6.5 -12.5t-0.5 -27t1 -18.5q-1 -15 1 -40.5t2 -35.5q-1 -30 2.5 -84t3.5 -74l3 -195v-63z" />
    <glyph glyph-name="E" unicode="E" horiz-adv-x="565" 
d="M404 800q2 0 31.5 2.5t30.5 -1.5q3 -3 19.5 -1t20.5 2q10 0 10 -12q-5 -30 -5 -82q0 -3 -1 -4.5l-2 -3t-3.5 -2t-4 -0.5t-5 -0.5t-4.5 -0.5l-192 -2l-55 -4q-17 0 -18 -10q0 -5 0.5 -33.5t1 -62t0.5 -43.5v-40q0 -28 4 -32q7 -6 36 -3l49 3q15 2 62 2.5t50 0.5
q19 3 20 -4v-35q0 -8 1 -21l1.5 -20t-0.5 -14.5t-4.5 -11t-10.5 -3.5h-49.5h-40.5h-31.5h-24.5h-17.5t-13.5 -0.5t-8.5 -1t-5.5 -1.5l-4 -2q-5 -4 -6.5 -34.5t-0.5 -88.5l1 -58v-50q-1 -14 14.5 -16.5t90.5 -0.5l150 8q13 3 25.5 0.5t9.5 -18.5q-8 -37 -7 -53v-15.5t2 -18.5
q2 -5 1 -9.5t-7 -4.5h-37q-165 4 -328 -5q-1 0 -19 -2t-29 -0.5t-12 10.5q-1 10 0.5 30t1.5 26q2 2 2 154q3 1 0.5 17t-2.5 18q-3 80 -4 138.5t-1 85v33.5q-1 27 -1 176l-2 58q0 3 -2 17.5t-1.5 25t5.5 14.5q7 7 27 7q12 -2 112.5 -3.5t130.5 0.5h49z" />
    <glyph glyph-name="F" unicode="F" horiz-adv-x="545" 
d="M83 441q-1 48 2 167t0 150q-4 37 4 41q2 3 16.5 2t17.5 -1q64 4 198 4t185 -4q6 -9 1 -28l-3 -41v-14.5t-2 -14.5q-5 -7 -29 -4l-248 -5v-239q0 -6 9 -7h4q5 0 13 -0.5t18.5 -1t23.5 -0.5h27h30t31.5 0.5t32 1.5l31.5 2t19.5 -4.5t2.5 -20.5q-1 -8 -3 -16t-2 -10.5
t1 -16.5q4 -33 -4 -36q-2 -3 -69.5 -1t-72.5 1q-65 -6 -71 -5q-9 1 -13 -3.5t-3.5 -11t0.5 -14.5q1 -12 2 -123t2 -136q0 -2 1 -9.5t1.5 -13.5t0.5 -13t-2.5 -11.5t-7.5 -5.5q-9 -1 -34 -1t-34 2l-52 -5q-14 0 -16 4q-3 4 -3.5 13.5t1 21t1.5 14.5q0 57 1 86z" />
    <glyph glyph-name="G" unicode="G" horiz-adv-x="753" 
d="M675 631q2 -4 -3.5 -7.5t-19.5 -7t-34 -5.5q-61 -20 -74 -21q-49 121 -156 117q-96 -3 -158 -100t-60 -212q1 -40 16 -87.5t42 -92.5t71.5 -74.5t97.5 -29.5q146 0 160 98q6 30 5 38t-10 14q-9 3 -13.5 3t-15.5 -2t-14 -2h-6.5h-7h-7t-7.5 0.5t-7 1.5t-6 2.5l-4.5 3.5
t-3.5 5t-1 7q0 10 3 22.5t3 15.5t-3 14t-2.5 19t6.5 11t14 4.5t14.5 1.5t16.5 -0.5t14 -0.5q16 -1 78.5 0.5t75.5 2.5q2 0 8.5 1.5t10 1.5t7.5 -2t5 -8q10 -49 -6 -121q-14 -86 -63 -144.5t-110.5 -82.5t-131.5 -24q-126 0 -220.5 80.5t-136.5 222.5q-10 44 -10 95
q-1 108 51 206t134.5 156t168.5 58q196 0 279 -154z" />
    <glyph glyph-name="H" unicode="H" horiz-adv-x="730" 
d="M587 801q2 0 12.5 1t21 0.5t18.5 -2.5q2 -3 2 -9.5t-1 -15t-1 -10.5q0 -8 0.5 -23.5t0.5 -22.5q5 -132 3 -163q-4 -45 -2 -167.5t1 -166.5q-1 -26 1 -81q5 -27 5 -79q0 -2 1 -13t1 -19.5t-2 -17.5t-7 -12h-19q-108 -3 -112 -2q-4 13 -4 55q2 1 0.5 53t-1.5 66
q0 8 -1 31.5t-2 43.5q3 97 -2 108q-1 4 -5 6t-8 2.5t-10.5 1t-7.5 0.5q-89 3 -118 0q-48 -7 -64 -4q-28 6 -38 -4q0 -1 -1.5 -20t-3.5 -40t-2 -24v-149q0 -11 -1.5 -39t-1.5 -47q0 -3 2.5 -16t-0.5 -18t-15 -5q-20 1 -45.5 -1t-42.5 -4.5t-30.5 -1.5t-17.5 8l1 19
q2 21 2.5 125t-1.5 158q-3 23 -1.5 106t1.5 107q-1 38 -1 92.5t-1.5 87t-7.5 75.5q0 2 -1.5 10.5t-1 14.5t3.5 6q137 0 146 -1q5 -1 7 -8.5t1 -12.5q-2 -21 -2 -33t2 -41.5t2 -41.5q3 -163 10 -188q8 0 37.5 2.5t41.5 2.5q4 0 24 -0.5t41 -0.5h43.5t37.5 1t16 4q7 2 4.5 41
t-2.5 44l2 150v39q0 37 1 42q21 9 66 1h26z" />
    <glyph glyph-name="I" unicode="I" horiz-adv-x="307" 
d="M225 31q0 -2 1.5 -15t0.5 -16q-4 -3 -11 -1.5t-8 1.5q-14 -1 -59.5 -2t-60.5 2q-2 22 0 67q0 34 -2 167.5t0 180.5v23.5v23.5q1 27 0 77t-1 72l-3 153q0 1 -1 18t0 18q7 0 19.5 0.5t14.5 0.5q35 -1 106 1q0 -5 -1 -25.5t-1 -48.5l4 -84q0 -1 -0.5 -33.5t-0.5 -68.5v-69
v-34q3 -24 3 -213v-170v-25z" />
    <glyph glyph-name="J" unicode="J" horiz-adv-x="428" 
d="M216 245q-8 70 -3 116q0 12 0.5 70.5t1.5 70.5q1 23 0.5 110.5t-1.5 113.5q0 11 -2 31.5t-1 30.5q1 11 10.5 12.5t18.5 -0.5h57q30 3 46 0q0 -51 3 -87l2 -191q1 -27 -3 -187q-1 -71 0 -139q1 -61 -26.5 -115t-71.5 -73q-23 -10 -55.5 -14.5t-70.5 3.5q-44 16 -80.5 61.5
t-30.5 87.5q1 6 25 11q5 0 28.5 6l44.5 11l21 6l1 -10q2 -10 7 -23t14 -21q19 -19 43 -12q15 6 20 41.5t2 58.5v31z" />
    <glyph glyph-name="K" unicode="K" horiz-adv-x="681" 
d="M135 -1q-3 0 -15.5 -3t-19.5 -3t-13 5q-3 5 0 20q1 7 1.5 21t0.5 18q2 24 2 51t-1 59.5t-1 50.5q0 5 -1 90.5t-1.5 162.5t-0.5 71q-4 105 -3 159q0 12 -0.5 26.5t-1.5 31.5t-1 27q0 11 19 16q11 3 11 -1h79q6 -1 33 -1q9 -2 10 -3q1 -2 2 -6t-5 -53q-5 -48 -3 -64
q8 -70 8 -132q0 -5 -1.5 -17.5t-1.5 -22.5t3 -17l52 65q31 37 232 250q7 3 71 0h79q0 -4 -2.5 -7.5t-8 -8t-6.5 -5.5q-23 -20 -174.5 -173.5t-158.5 -159.5l-5 -5l-5.5 -5.5t-4.5 -5t-3.5 -6t-0.5 -6t2 -6.5q3 -5 68 -79l152.5 -169.5t135.5 -142.5l14 -14q6 -8 -8 -8
q-6 0 -9 1h-83q-36 0 -72 -3q-10 0 -18 6.5t-18 22.5l-10 15l-110 142.5t-62 80.5q-2 3 -11 18.5t-16 23.5t-16 12q-5 -17 -5 -166v-44t1 -44q0 -11 4 -33q9 -27 -2 -32q0 -2 -13 -0.5t-14 1.5q-21 2 -37 -1h-37z" />
    <glyph glyph-name="L" unicode="L" horiz-adv-x="557" 
d="M226 800q5 -20 5 -124q2 -58 2 -80q0 -9 -1.5 -37t-0.5 -43v-26.5t2 -33.5l5 -308q-4 -12 -2.5 -21t15.5 -12q6 -1 49 -1.5t91.5 -1.5t58.5 -1q31 -2 52 2q35 6 46 1q7 -12 3 -91q0 -2 0.5 -7.5t0 -9.5t-4.5 -6h-22h-25q-10 1 -92.5 1t-102.5 -1q-22 -1 -99 0.5t-83 -0.5
h-25q-6 0 -4 10q2 17 2 102l-1 348q-1 17 -4 75t-3 89q-1 18 -1 37t0.5 41t0.5 34q0 2 -1.5 20.5t-0.5 30.5t6 13q21 3 70 3t64 -3z" />
    <glyph glyph-name="M" unicode="M" horiz-adv-x="951" 
d="M493 238q9 11 47 107l79.5 204t50.5 128q4 8 11.5 29.5t12.5 31.5q8 29 32 62q28 5 82 0h29q14 1 24 -5q4 -3 5.5 -8.5t0.5 -15t-1 -10.5v-60l4 -135q1 -26 1 -149l-2 -329q0 -81 -2 -88q-6 -3 -16 -3t-26.5 1.5t-27.5 1.5q-52 -2 -66 0q-8 1 -8.5 24t3 56.5t3.5 39.5
l8 402q0 4 1 16t-1 16l-3 -2q-38 -132 -178 -457q-6 -13 -19 -36.5t-16 -30.5q-2 -3 -5 -9.5t-4.5 -9.5t-5 -6t-8.5 -3h-31q-3 -1 -9 7t-13 22l-18.5 40.5l-17.5 38.5q-46 92 -103.5 228.5t-84.5 219.5h-3q-5 -15 10 -511q0 -2 1 -9.5t1.5 -12.5t0 -11.5t-3 -10t-7.5 -4.5
q-18 -3 -92 3q-3 0 -13 -1.5t-18 -1.5t-12 3q-2 5 -2 80q-2 52 -1.5 187.5t0.5 145.5q-3 77 0 153l4 135q0 50 -1 60q0 35 2 39q15 3 48 0h99l142 -301l114 -259z" />
    <glyph glyph-name="N" unicode="N" horiz-adv-x="703" 
d="M558 801q5 1 17.5 1t25 -0.5t12.5 -1.5q1 -3 -1 -6t-2 -6q6 -60 6 -128q0 -29 -2 -85q-1 -29 1 -85t2 -79q0 -113 3 -289q-2 -43 1 -77q3 -30 0 -45h-38q-11 -2 -49.5 -2t-40.5 2q-7 22 -45 94l-80.5 148.5t-44.5 80.5q-3 4 -57 102t-59 110q-2 -9 -1 -19t1 -13
q-1 -32 -1 -61.5t1 -83.5t1 -75q0 -20 2 -96t3.5 -122.5t-0.5 -65.5q-14 -2 -66 0q-8 0 -20 1q-4 0 -14 -1t-18 -1t-12 2q-2 3 -1.5 17t0.5 17q-2 29 -1 44q5 97 1 329q-4 107 2 296v60l-1 11q-1 10 0.5 16.5t5.5 9.5q7 3 44.5 1.5t43.5 -1.5q31 1 40 0q18 -45 125.5 -246
t131.5 -250q1 -2 3.5 -9.5t5.5 -12.5t7 -5q1 6 0.5 22t-0.5 22l-3 187q-2 76 -2 190l3 73q0 5 -1 14.5t-1 14.5q12 -1 37 1h35z" />
    <glyph glyph-name="O" unicode="O" horiz-adv-x="827" 
d="M474 804q41 0 99.5 -28t84.5 -55q70 -64 100.5 -126.5t35.5 -151.5q5 -85 -18.5 -164.5t-71 -142.5t-124.5 -102t-171 -42q-53 -2 -101 12.5t-83 37.5t-65.5 56.5t-50 63.5t-35.5 63q-48 98 -41 212q5 72 39 141t62 101q39 40 96 73q77 37 126 48t118 4zM431 700
q-52 5 -95 -13t-70 -49.5t-45 -74t-25.5 -84t-6.5 -81.5q1 -64 31 -143q28 -72 88 -113t135 -39q55 2 97.5 37.5t65.5 88t32.5 109t4.5 103.5q-47 245 -212 259z" />
    <glyph glyph-name="P" unicode="P" horiz-adv-x="550" 
d="M81 732q-1 7 1.5 20t2.5 19q-3 24 1 29q3 1 8 0.5t18 -0.5h22h157q20 0 38 -2t33 -6t27.5 -8t23.5 -10t18.5 -10.5t15.5 -11.5l11.5 -10t9.5 -9l5 -6q37 -34 44 -130q1 -12 -0.5 -23.5t-6 -26.5t-5.5 -22q-11 -62 -57.5 -107.5t-117.5 -48.5l-94 -3q-22 -1 -14 -71
q2 -14 0.5 -59.5t-0.5 -66.5q1 -23 0 -74.5t1 -74.5q1 -15 -4 -19.5t-20 -2.5q-4 0 -12 0.5t-12 0.5q-20 2 -46 2t-36 -5q-6 0 -10 4.5t-2 10.5q1 3 1 36v84q0 112 -1 167q0 29 2 158t-2 158q-2 27 0 81v37zM226 689q-4 -23 -4.5 -61t0 -83.5t0.5 -60.5q-1 -16 44 -8
q60 0 84 21.5t34 75.5q3 17 0 34q-2 29 -25.5 55t-54.5 28q-42 3 -78 -1z" />
    <glyph glyph-name="Q" unicode="Q" horiz-adv-x="824" 
d="M567 23l5 -8q17 -33 66 -119q12 -23 33 -44q19 -19 11 -24q-9 -6 -22 -9.5t-28 -5.5t-19 -3q-40 -10 -65 -6q-10 8 -13 21q-4 13 -19 41t-19 37q-12 24 -31 83l-4 11l-39 -4q-8 0 -26 -2q-204 -8 -324 232q-47 97 -40 211q5 73 38.5 141t62.5 99q48 52 132 92.5t158 37.5
q60 0 125.5 -23.5t105.5 -63.5q68 -63 97 -124.5t38 -152.5q13 -137 -42.5 -243t-154.5 -161zM431 703q-52 5 -95 -13t-70 -50.5t-45 -75t-25.5 -84.5t-6.5 -82q1 -64 31 -143q28 -72 88 -113t135 -39q55 2 97.5 37.5t65.5 88t32.5 109t4.5 103.5q-48 248 -212 262z" />
    <glyph glyph-name="R" unicode="R" horiz-adv-x="570" 
d="M81 732q-1 7 1.5 20t2.5 19q-3 24 1 29h15q16 -1 33 0q133 5 155 4q98 -3 159 -60.5t61 -152.5q0 -42 -16 -83.5t-34 -64.5q-25 -27 -49 -40q4 -8 18.5 -18.5t16.5 -12.5q32 -34 53 -90t23 -111q1 -36 0 -72q-2 -60 3 -78q1 -4 6.5 -10.5t4.5 -9t-11 -3.5l-114 2
q-19 3 -24 45q-2 13 0.5 38t2.5 33q0 58 -15.5 128.5t-53.5 101.5q-14 12 -19 15.5t-15 8t-21 5.5t-31 1q-12 0 -13.5 -14.5t-0.5 -80.5q3 -135 1 -261q1 -15 -4 -19.5t-20 -2.5q-1 0 -11 1q-95 6 -93 -3q-6 0 -10 4.5t-2 10.5q2 7 0 36v251q0 29 2 158t-2 158q-2 27 0 81
v37zM224 689q-4 -23 -4.5 -61t0 -83.5t0.5 -60.5q0 -10 23 -10t48 5t36 10q52 28 55 74q5 57 -19.5 88t-60.5 35q-52 6 -78 3z" />
    <glyph glyph-name="S" unicode="S" horiz-adv-x="604" 
d="M311 806q45 -2 91.5 -21t84 -60.5t41.5 -94.5q-4 -7 -84 -7q-2 0 -22.5 -5t-22.5 -4q-7 21 -11.5 32t-16.5 26t-32 22t-49 7q-21 0 -53 -18t-40 -40q-21 -60 5 -95q14 -21 36 -35.5t58 -31t55 -28.5l37.5 -20t35.5 -19.5l30.5 -18t29.5 -19.5l23.5 -20t21.5 -23.5
l15.5 -26t12.5 -31t5.5 -35.5t2.5 -43q-1 -55 -42 -103.5t-96.5 -74t-105.5 -27.5q-68 -2 -80 -1q-84 7 -137 50q-21 17 -47.5 64t-26.5 68q0 6 7.5 9t19 3.5t12.5 0.5q2 0 21.5 5t45.5 7q22 2 26 4q9 4 13 -7q29 -81 118 -84q49 -1 91.5 26t42.5 60q0 25 -6.5 43.5
t-23.5 34.5t-29 24.5t-40 24.5q-7 4 -10 6l-40 20l-74 39t-73.5 47.5t-51.5 51.5q-32 63 -18.5 126.5t59.5 113.5q35 37 89.5 58.5t101.5 19.5z" />
    <glyph glyph-name="T" unicode="T" horiz-adv-x="627" 
d="M242 93q-1 29 0.5 83t1.5 75q0 27 1.5 83t1.5 83q1 55 1 166v28t-1 41t-5 26q-2 4 -6 6.5t-10.5 3t-11.5 0t-12 -1.5t-8 -1q-16 -1 -141 -1q-3 0 -10 -1t-12.5 -1t-9.5 2q-4 1 -4 16q2 22 -3 71q0 26 4 29q5 5 27 2q24 -4 36 -2q23 1 92 0t89 1q6 1 110.5 1t125.5 -1h29
t43.5 -0.5t34.5 -0.5q4 -1 4 -21q0 -10 2.5 -35t1.5 -39t-7 -14q-8 -1 -82.5 -2t-85.5 -1q-4 0 -18.5 1t-24.5 0.5t-14 -3.5q-2 0 -0.5 -6.5t0.5 -8.5q-1 -16 -1 -83t1 -89q4 -70 2 -168q0 -17 1 -52t0.5 -62t-2.5 -51v-70q1 -35 -4 -80v-16h-43q-13 0 -34.5 1t-28.5 -1
q-28 -2 -28 16z" />
    <glyph glyph-name="U" unicode="U" horiz-adv-x="734" 
d="M659 710l5 -467q0 -92 -35.5 -144t-120.5 -86q-59 -24 -149 -22q-39 0 -71 7q-77 18 -129 61.5t-67 102.5q-5 16 -7 80q-2 105 -1 159q0 27 -2 82t-2 83l4 199q4 29 0 35q5 6 11 2t20 -2q45 4 110 1q2 -1 5 -21q0 -1 -3 -29q-2 -13 1 -82q0 -28 1 -153t0 -168
q0 -122 15 -164q16 -46 59.5 -66t93.5 -12q44 4 83.5 26.5t44.5 63.5q4 41 4 173t-3 164q-6 73 -3 269q7 -3 16.5 -0.5t16.5 2.5q38 2 72 -4q3 0 14 0.5t15.5 -2.5t3.5 -13q-2 -17 -2 -75z" />
    <glyph glyph-name="V" unicode="V" horiz-adv-x="762" 
d="M46 700q-3 10 -14 34t-14 36q-1 5 -4.5 12t-4.5 10q-2 6 0 8t8.5 1.5t8.5 -0.5h114q34 0 38 -1q5 -38 23 -85l26 -65l117 -363q17 -54 25 -75l2 -7q2 -7 4 -9q2 -1 7.5 -17l11 -30.5t5.5 -13.5l23.5 77.5l36 113l55.5 177.5q2 10 25 73l40 128q0 2 3.5 13.5l7 23.5
l7.5 25.5t7.5 23t6.5 10.5q1 1 25.5 0.5t49.5 -0.5t40 1q26 0 29 -1q1 -1 -22 -76q-70 -192 -99 -280q-9 -29 -43 -127q-13 -44 -34.5 -108.5l-36 -108.5t-15.5 -48t-5 -13t-5 -14q0 -2 -1 -6.5t-1 -5.5t-1 -4t-1.5 -3.5l-2.5 -2.5t-4 -2t-5.5 -0.5t-7.5 -0.5h-69
q-15 -1 -43.5 -0.5t-32.5 0.5h-35q-5 1 -12 25q-1 4 -80 241l-51 151z" />
    <glyph glyph-name="W" unicode="W" horiz-adv-x="1053" 
d="M538 306l-5 -15l-33 -102.5l-31 -96t-13 -40.5t-5 -13t-5 -14q-3 -21 -8 -23.5t-16 -2.5q-9 0 -31.5 1t-37.5 0t-37.5 -0.5t-26.5 0.5h-35q-5 1 -12 25q-11 43 -71 241l-47 151q-1 5 -31 101.5l-54.5 178t-20.5 73.5q-1 5 -4.5 12t-4.5 10q-2 6 0.5 8t8.5 2t8 1h26l77 -3
q4 0 11.5 1t14 1t14.5 -2q6 -47 21 -85l105 -391q3 -10 17 -60.5l25.5 -90.5t12.5 -38q12 44 58 189.5t58 190.5l5 12l-8 23q-60 197 -60 220q0 6 -9 30q3 3 7.5 2.5t9.5 0.5h26l77 -3q2 0 10.5 1t14 0.5t11 -3t6.5 -8.5q5 -39 19 -75l100 -391q3 -10 17 -60.5l25.5 -90.5
t12.5 -38l34.5 118l44.5 152.5t26 97.5q4 17 23 89t26 112q1 2 6 27t11 46t10 23h20q8 2 38 0.5t48 0.5q1 0 8 1t12.5 1t7.5 -3q2 -2 -21 -76q-13 -35 -26 -77t-22.5 -77.5l-17.5 -65.5t-12 -48l-5 -19q-1 -2 -8.5 -29.5l-15.5 -54.5t-11 -36q-53 -181 -70 -265
q-1 -4 -5 -13t-5 -14q-3 -21 -8 -24t-16 -3t-33 1.5t-36 0.5q-15 -1 -37.5 -0.5t-26.5 0.5h-35q-5 1 -12 25q-11 43 -71 241l-8 26z" />
    <glyph glyph-name="X" unicode="X" horiz-adv-x="726" 
d="M76 742q-3 8 -14.5 27.5t-14.5 30.5h128q4 0 12.5 1t11.5 1t8 -2t9 -7q3 -11 56.5 -97t63.5 -99q7 -9 20 -33t16 -29q7 -10 14 -2q11 13 20 26q8 11 27.5 45.5t20.5 35.5l39 67t43.5 71t24.5 22q18 -1 69 1.5t67 0.5q3 -1 4.5 -3.5t0.5 -6t-2.5 -7.5t-4.5 -8.5l-5 -7.5
t-4 -7l-3 -4l-38 -61q-23 -41 -69 -114l-82 -128l-36 -55q-6 -6 -0.5 -18t10 -19t14 -18.5t11.5 -14.5l153 -236q22 -33 62 -85q6 -10 -13 -10h-2q-16 2 -60 2t-58 -1q-42 -5 -50 14l-120 207q-13 18 -21 30.5t-12 19.5t-6 10q-3 -2 -15 -20q-3 -2 -39 -59l-70.5 -113
t-31.5 -52q-3 -4 -6.5 -13.5t-8 -16t-11.5 -8.5h-125l-8 -1q-8 -1 -12 -1h-10.5t-8.5 3.5t-1 8.5q2 9 8 17.5t14.5 19l12.5 15.5q9 12 39 64t38 63q2 2 23.5 33l41.5 60l42.5 63t31.5 51q6 5 8 10.5t-0.5 12.5t-4.5 11.5t-7.5 13.5t-7.5 12q-7 12 -23.5 34.5t-23.5 34.5
l-50 83z" />
    <glyph glyph-name="Y" unicode="Y" horiz-adv-x="773" 
d="M588 734q3 11 15 37t18 29h19q8 2 40.5 0t48.5 0q1 0 10.5 1.5t17.5 1.5t10 -3q1 -1 -7 -17.5l-17 -36t-11 -24.5q-119 -206 -134 -248q-24 -34 -72.5 -130t-55.5 -117q3 -24 3 -94l2 -76v-26q0 -3 1.5 -13.5t0.5 -13.5q-1 -4 -3 -4.5t-5.5 0t-5.5 0.5q-19 -2 -28 -1
t-74 1q-23 -5 -23 2q-2 22 0 66q0 38 -1 76t-1.5 60t-0.5 29l-136 234q-10 13 -33 51.5l-48.5 83.5l-49.5 89l-40 73l-16 28q-2 6 1.5 7.5t9 0t9.5 0.5h106q2 0 10 1t12.5 0.5t9 -3t5.5 -8.5q32 -65 103.5 -191.5t85.5 -142.5l40 -73q3 14 58 113.5t59 109.5z" />
    <glyph glyph-name="Z" unicode="Z" horiz-adv-x="680" 
d="M79 -3h-26q-3 2 -4 9t-1 16v11q-9 68 -6 78q1 6 10 18.5l19.5 26t11.5 15.5l89 121q147 203 172 246q1 2 26.5 39.5t46 70.5t18.5 37q-1 2 -7 2.5t-15.5 0.5t-18 -1t-16 -1.5t-8.5 -0.5q-13 0 -37 2q-30 3 -44.5 2t-42.5 -4l-37 -4q-11 -1 -72 1t-64 2q-6 9 -6 44
q-5 74 1 75q11 1 32 0t30 -1q9 1 32 0.5t49 0t28 1.5q0 -4 205 -4q9 0 54.5 1t49.5 1q6 0 19.5 -1.5t20.5 -2t14 1.5q8 5 8 -19q0 -8 -1 -23q-1 -10 -1 -11q1 -5 1 -69q-4 -9 -11 -18.5t-19.5 -25t-20.5 -26.5q-14 -14 -36.5 -44.5t-40 -57.5l-45.5 -69.5l-38 -57.5
q-4 -7 -61 -88t-71 -98q-7 -7 -26 -33.5t-25 -41.5q23 -6 103.5 -1.5t100.5 3.5q64 -4 149 -4q2 0 56 6q4 -1 7.5 0t5 -1.5t2.5 -3t1 -5t-0.5 -6.5t-1.5 -7.5t-1 -7.5q-6 -31 -1 -66q0 -1 1 -9t-1 -11.5t-8 -4.5q-13 -2 -66 0h-202z" />
    <glyph glyph-name="bracketleft" unicode="[" horiz-adv-x="335" 
d="M250 747q4 5 4.5 18.5t-2 24t-5.5 10.5q-9 4 -19 3l-29 -3t-31 0q-7 0 -26 3t-30 2.5t-20 -5.5q0 -410 -2 -477q-1 -30 1 -87.5t2 -83.5q0 -134 -13 -240q27 -5 70 -3.5t73 -1.5q2 1 2 26v29q-8 1 -29 -3t-24 3q-3 97 13 282q4 76 1.5 255t3.5 246q26 -7 60 2z" />
    <glyph glyph-name="backslash" unicode="\" horiz-adv-x="366" 
d="M73 804q-11 0 -33 -2t-35 -2l57 -195l20 -59.5t17 -51.5l110 -339q49 -146 68 -194q9 6 42 3t42 -2q-6 24 -21.5 60.5t-22.5 55.5q-29 80 -106 314q-35 101 -36 106q-5 17 -24 72.5t-24 74.5q-10 37 -27 81t-27 78z" />
    <glyph glyph-name="bracketright" unicode="]" horiz-adv-x="335" 
d="M85 -34q-4 -5 -4.5 -18.5t2 -24t5.5 -10.5q9 -4 19 -3l29 3t31 0q7 0 26 -3t30 -2.5t20 5.5q0 410 2 477q1 30 -1 87.5t-2 83.5q0 134 13 240q-27 5 -70 3.5t-73 1.5q-2 -1 -2 -26v-29q8 -1 29 3t24 -3q3 -97 -13 -282q-4 -76 -1.5 -255t-3.5 -246q-26 7 -60 -2z" />
    <glyph glyph-name="underscore" unicode="_" horiz-adv-x="618" 
d="M533 -79q3 14 5 62q-24 7 -86.5 8.5t-191 -0.5t-179.5 -2q0 -66 1 -70q12 7 106 5.5t121 -0.5z" />
    <glyph glyph-name="grave" unicode="`" horiz-adv-x="398" 
d="M24 755l97 43q1 1 3 3.5t4.5 4.5t5.5 2q9 2 20 -12q150 -82 153 -84q11 -6 27.5 -13t27 -12.5t16.5 -11.5q0 -3 -0.5 -4.5t-2 -2.5t-3 -2.5t-5 -5.5t-7.5 -10l-11 -8q0 -1 -4 -5t-7 -8t-3 -7q-2 -1 -19 5.5t-20 8.5q-20 9 -48 18t-38 15l-46 19l-51 26z" />
    <glyph glyph-name="a" unicode="a" horiz-adv-x="574" 
d="M337 607q21 0 45 -6t52 -19.5t48 -42.5t24 -69q3 -38 3 -63q0 -226 1 -294q2 -34 11 -49q0 -2 7.5 -14t7.5 -22q-10 -6 -105 -32l-7 -3.5t-9 -3.5t-8 0q-11 4 -26 43q-3 5 -40 -5.5t-68 -22.5q-90 -20 -120 -14q-46 8 -89 60q-36 36 -36 93q0 69 45 119q19 21 38.5 32.5
t32.5 15t47 10.5q60 12 72 13q27 1 62.5 8.5t46.5 18.5q16 16 18.5 54t-11.5 58q-24 35 -59 37q-47 3 -87 -37q-2 -3 -17 -33.5t-22 -33.5q-5 -5 -7 -2.5t-3 2.5q-9 0 -79 31q-2 1 -8.5 2.5t-8 2.5t-4.5 3.5t-2 6t4 9.5q13 26 44.5 58.5t51.5 47.5q27 19 55 28.5t46 11
t54 1.5zM361 254q-11 -7 -48 -7q-24 -1 -69 -11q-27 -7 -52 -25t-26 -39q-2 -27 6 -50t25 -29q27 -8 81.5 3t86.5 33q14 9 16 14v43q2 8 2 59q0 8 -2 10t-9.5 0.5t-10.5 -1.5z" />
    <glyph glyph-name="b" unicode="b" horiz-adv-x="605" 
d="M76 -2h-5h-4t-3 1.5t-1 4.5q1 -2 2 46t1 64q2 43 2 56t-1.5 35t-2.5 50l1 156l2 183q3 39 -2 113t-5 93q22 10 52 4q17 -6 55 -4q2 0 12 2.5t13.5 2.5t10.5 -4q2 -3 -2 -26q-9 -57 -3 -129q1 -9 1 -13v-6.5t0.5 -14t1.5 -31.5q2 -2 3 -2t7 3.5t7 4.5q43 22 99 22
q116 0 191 -99t52 -250q-11 -69 -33.5 -120t-49.5 -79.5t-62.5 -45t-64.5 -21.5t-64 -5q-79 0 -106 35q-2 2 -8 11.5t-11 15t-8 3.5q-7 -5 -10.5 -22.5t-5.5 -21.5q-1 -1 -2 -5.5t-3 -5.5t-6 -1h-50zM313 500q-44 0 -76.5 -33t-46.5 -77.5t-13 -88.5q0 -30 6.5 -60t20.5 -61
t42 -50t67 -19q57 0 95.5 56t40.5 123q3 108 -38.5 159t-97.5 51z" />
    <glyph glyph-name="c" unicode="c" horiz-adv-x="584" 
d="M543 137q-42 -75 -102 -111t-166 -36q-118 0 -180.5 100.5t-51.5 238.5q9 119 88 198.5t187 79.5q10 0 21 -0.5t40.5 -7t55 -18.5t55 -39.5t48.5 -65.5q0 -1 5 -8t4 -11q0 -2 -5 -3.5t-12 -2.5t-8 -1l-77 -22q-26 -9 -28 -2q-13 45 -49 62.5t-76 15.5q-55 -2 -85 -65
t-30 -126q0 -57 11 -103t41 -78.5t75 -32.5q60 0 112 82q9 0 93 -29z" />
    <glyph glyph-name="d" unicode="d" horiz-adv-x="667" 
d="M441 755q0 2 -3 15.5t-3.5 20t5.5 10.5q17 -4 33.5 -4.5t35.5 2t24 2.5q7 1 17.5 0.5t14.5 -0.5q14 0 12 -23v-4v-146q-7 -128 -7 -156q0 -10 -1 -34t0 -36q2 -31 4 -112t3 -92q5 -130 7 -157q0 -3 2 -13.5t2 -15t-2 -12.5q-8 -5 -21 -4.5t-34.5 3t-27.5 1.5
q-2 0 -8.5 -1l-12.5 -2t-13 -1.5t-12 0.5t-6 4q-5 10 0 33.5t0 32.5q-22 -33 -74.5 -58t-110.5 -19q-98 9 -161 106.5t-63 205.5q0 45 17 104.5t41 96.5q34 53 99.5 81t132.5 22q29 -3 57 -20l51 -30q2 3 2 15v185zM174 264q7 -44 27.5 -85.5t50.5 -65.5q25 -16 69.5 -4.5
t67.5 32.5q63 55 63 145q0 92 -51 161q-16 20 -42 32.5t-49 14.5q-52 0 -87 -34.5t-46.5 -86t-2.5 -109.5z" />
    <glyph glyph-name="e" unicode="e" horiz-adv-x="622" 
d="M306 607q57 0 95 -11t79 -40q27 -27 39.5 -42t29 -50.5t27.5 -84.5l9 -82q-2 -2 -6 -3t-9.5 -1h-6.5q-75 -8 -308 -8q-77 6 -77 -13q0 -42 6 -62q27 -94 124 -106q97 -11 143 96q1 2 16 -4.5l34 -15t27 -10.5q1 0 6.5 -1l11.5 -2t12 -2.5t10.5 -3.5t4.5 -4
q1 -6 -2.5 -13.5t-11 -18.5t-8.5 -13q-18 -36 -50 -62.5t-68 -39t-65 -18t-53 -5.5q-51 0 -81 9.5t-74 40.5q-62 46 -84.5 89t-31.5 118q-13 106 29 195q34 71 92.5 118t140.5 50zM308 504q-24 0 -53.5 -15t-35.5 -28q0 -1 -6.5 -12l-11 -19t-11 -21.5t-6.5 -20.5t2 -15
q1 -1 161 -1q17 1 29 1l71 -1q-3 21 -19 50.5t-30 45.5q-36 36 -90 36z" />
    <glyph glyph-name="f" unicode="f" horiz-adv-x="426" 
d="M114 74q-7 75 -7 312q0 86 -4 97q-3 7 -23 5.5t-27 5.5q-3 4 -4 19t0 29.5t-1 25.5q0 29 5 32q2 2 22 3t22 -2q2 0 3.5 1t2.5 4t1.5 6t0.5 8.5v9v9v8.5q0 67 41.5 114t121.5 46q56 -1 87 -17t58 -60q27 -42 20 -49q-6 -7 -26 -7q-6 0 -58 -16q-2 0 -6 -1.5t-6 -2
t-5.5 -1.5t-5.5 -0.5t-4 1.5t-3 4t-1 7q0 35 -42 35q-29 0 -38.5 -18t-9.5 -72q2 -5 20 -5q16 -1 35.5 0t31.5 -3q12 -2 9 -16q4 -7 3 -28t0 -30q4 -13 1 -23t-18 -9q-6 0 -18 -1t-18 -1l-12 1q-11 1 -19.5 0.5t-11.5 -3.5q-2 -6 -1 -12.5t2.5 -25.5t1.5 -34l3 -81
q1 -25 -1 -113q5 -60 7 -115q0 -4 0.5 -29t1.5 -46t4 -27t-6 -8.5t-17 -2.5h-91q-18 0 -19 22z" />
    <glyph glyph-name="g" unicode="g" horiz-adv-x="689" 
d="M656 553q3 -5 3 -8.5t-5.5 -8.5t-10 -8.5t-11 -7t-7.5 -4.5q-57 -35 -114 -61q-9 -4 -10.5 -11.5t1.5 -19.5t3 -18q-6 -67 -55 -121.5t-116 -63.5q-2 0 -11.5 -1t-17.5 -2.5t-17.5 -3.5t-15.5 -5.5t-8 -8.5q-3 -9 1 -17t15 -14.5t22.5 -12t29 -11t27.5 -8l24.5 -6
t15.5 -3.5q120 -32 139 -45q32 -22 42 -57.5t1 -70t-31 -63.5q-38 -53 -104 -77q-53 -20 -129 -20q-78 -3 -161.5 32.5t-121.5 84.5q-15 23 -18 32q-7 20 25 25q3 0 33 4l52.5 7t20.5 3q10 0 15 -4.5t10 -13t10 -12.5q16 -15 30.5 -24t44.5 -16.5t70 -7.5q102 0 120 58
q0 9 1 16t-5.5 13.5t-11 11.5t-15.5 9.5l-18 7.5t-19 6.5t-18.5 5t-16.5 3.5t-13 3q-24 9 -75 21t-75 21q-3 1 -14 5t-16 6t-12 6t-12 9q-23 23 -2 64q3 5 10.5 13.5t13 15.5t11 15t5.5 12.5t-5 8.5q-10 6 -26 13.5t-22.5 13.5t-19.5 23q-58 70 -21 173q24 66 83.5 106.5
t121.5 42.5q70 2 126 -42l9.5 -9.5l10.5 -10.5t10.5 -7.5t12.5 -4.5q25 -2 58 31q3 3 9 10t8 9t9.5 5t13.5 -2q10 -4 21.5 -7t26 -6t22.5 -5q3 -1 13.5 -3t18 -5t11.5 -8zM279 314q35 0 67 25.5t31 76.5q0 34 -27.5 63.5t-67.5 26.5q-31 0 -60 -21.5t-34 -66.5
q-6 -50 17.5 -77t73.5 -27zM147 -17h-1h1z" />
    <glyph glyph-name="h" unicode="h" horiz-adv-x="624" 
d="M568 275q1 -29 -1 -134q-3 -78 -1 -94v-9.5v-12.5v-10q1 -15 -9 -17.5t-23 0.5h-33t-33 1q-4 0 -11.5 -1.5t-11.5 -1.5t-9 3q3 40 -2 168v161q0 43 -4 87q0 42 -23 65t-52 23q-13 0 -39.5 -9t-38.5 -16q-39 -23 -56 -63t-24 -99q-1 -9 -2 -24.5t-1 -32.5t0.5 -36t1 -33
t0.5 -24l1 -11q0 -13 -1 -39.5t-1 -48t2 -40.5q0 -1 0.5 -5t0.5 -7.5v-7.5t-1.5 -6.5t-4.5 -2.5q-7 -1 -20 0t-17 1q-41 -3 -52 -3q-3 0 -11 1.5t-10.5 1.5t-10.5 -2q-7 -2 -7 17q1 2 0.5 118t-0.5 141q0 5 -0.5 38.5t-0.5 51.5q0 7 1.5 47.5t-0.5 46.5q-3 27 -3.5 178
t3.5 165q2 0 11 0.5t16 0.5t10 -1q4 -1 12 0.5t12 1.5q51 2 66 -2q4 -1 4.5 -6.5t0 -13t-0.5 -9.5q2 -9 3.5 -128t2.5 -125q11 5 28 22l20 20q2 2 9.5 6.5t9 6t7.5 5t9 5t9.5 4.5t11.5 4.5t12.5 4t16 5t19.5 4.5q28 6 71 -3q137 -27 137 -139q0 -1 7 -188z" />
    <glyph glyph-name="i" unicode="i" horiz-adv-x="284" 
d="M227 777q7 -36 -9 -67q-8 -13 -28.5 -25.5t-35.5 -13.5q-39 -2 -69 22t-31 67q-2 34 23 63t59 29t60 -21.5t31 -53.5zM213 38l2 -33q-1 -8 -4 -8q-4 1 -22 0t-22 0l-7 1q-6 0 -15.5 1t-15.5 1q-2 0 -15.5 -2t-24.5 -2t-16 4q0 1 1 8.5t2 23.5t2 35q0 60 -1 90
q0 134 2 172q1 36 -4 162q-1 12 -0.5 41t-1.5 42q0 1 -1.5 6t-2 8.5t0 7.5t3.5 6t19 -1q19 -3 41.5 0.5t36.5 0.5q5 -1 20.5 -0.5t19.5 -1.5q0 -15 -2 -85.5t0 -84.5v-312q0 -12 3 -39t2 -41z" />
    <glyph glyph-name="j" unicode="j" horiz-adv-x="314" 
d="M256 779q7 -36 -9 -67q-8 -13 -28.5 -25.5t-35.5 -13.5q-39 -2 -69 22t-31 67q-2 34 23 63t59 29t60 -21.5t31 -53.5zM173 600q9 -1 55 2q10 1 11 -8.5t-1 -20.5q-1 -9 -1 -27q6 -113 -3 -204v-130q-2 -23 0 -96.5t1 -83.5q0 -2 -1 -16.5t-1 -20.5t-2 -21.5t-3.5 -24
t-5.5 -24t-8 -25t-11 -23t-15 -23t-18.5 -19.5t-23.5 -18q-24 -14 -64 -21t-56 -4q-6 1 -30.5 2.5t-38.5 6.5q-1 0 -9.5 2.5l-15 4.5t-12.5 5.5t-7 7.5q-1 3 3.5 7.5t5.5 6.5l5 19q5 11 10.5 29t14.5 32q0 1 1 3q2 6 7 5q4 0 38 -17q12 -6 38 -6t38 7q7 4 12 11.5t8 13
t6 17.5t3.5 16.5t2.5 19t2 15.5q1 11 -0.5 46t0.5 49q1 6 0 116t-3 216t-2 101q1 10 -2 35t-1 37q2 7 12 2q4 -1 15.5 -0.5t15.5 0.5z" />
    <glyph glyph-name="k" unicode="k" horiz-adv-x="570" 
d="M218 209h-1l-19 24q-4 -9 -4 -14.5t3 -20t3 -15.5q2 -8 5 -108q0 -6 2 -24t2 -27.5t-3 -23.5q-5 -3 -14.5 -3t-20 1.5t-13.5 1.5h-39q-43 -3 -49 0q-1 11 -0.5 36.5t1.5 63.5t1 45q-1 118 1 220q0 22 -4.5 115t-3.5 143v144q-2 34 15 34q15 0 28.5 1.5t44.5 0.5
q31 -3 42 -10l6 -298q0 -68 -2 -84q11 9 66 67t87 86q3 3 10.5 12l13.5 16.5t5 7.5h30q11 2 30.5 2t43 -1t31.5 -1l17 2q17 1 20 -2q-2 -3 -138.5 -131t-142.5 -141q-3 -1 -3.5 -3.5t1 -5.5t3 -5.5t3.5 -5.5l3 -2q12 -15 105.5 -118.5t107.5 -117.5q7 -7 27.5 -24.5
l28.5 -24.5q10 -11 5.5 -18.5t-18.5 -8.5q-16 -1 -45 2t-41 3q-23 0 -31 1h-31q-14 -1 -25 17q-6 10 -19.5 26l-17.5 21z" />
    <glyph glyph-name="l" unicode="l" horiz-adv-x="372" 
d="M102 801q45 5 59 1q33 0 43 -2q4 -6 0 -29q-4 -28 -4 -43q0 -27 0.5 -74.5t0.5 -82.5q0 -3 -3 -70t-3.5 -122.5t2.5 -116.5l-3 -75q-3 -39 -1 -47q2 -9 11 -20.5t19 -11.5q16 0 27 12t11 26q7 0 22.5 -3.5t23.5 -2.5q41 0 57 -8q0 -29 -25 -67t-56 -57t-81 -19
q-49 0 -91 30.5t-42 82.5l-1 179q-1 15 -1.5 98t0.5 102l1 232q0 27 -1.5 47.5t-1.5 39.5q1 4 17.5 2t19.5 -1z" />
    <glyph glyph-name="m" unicode="m" horiz-adv-x="900" 
d="M63 462q0 8 -1.5 28t-0.5 31q0 1 -0.5 25t-0.5 41t1 13q12 1 34 1q14 3 29 3t23 -1l8 -1q5 -2 27 -2q7 -1 7 -83q1 0 22 14q14 9 27 21.5t23 18.5q57 38 105 38q84 0 118 -62q2 -4 5.5 -12.5t7 -15t7.5 -10.5l34 31t43.5 36t40.5 19q46 12 61 12q72 -6 111.5 -46.5
t39.5 -96.5q0 -22 3.5 -91t2.5 -78q-2 -29 4 -260v-30q-2 -3 -19 -3h-93q-1 0 -5 -1t-6 -1t-4.5 2.5t-2.5 8.5v30v87.5t-1 90.5q-2 190 -7 225q-1 30 -19 48t-43 16q-30 -2 -62 -28t-47 -55q-5 -10 -8.5 -22t-5 -28t-2 -24.5t0 -29t0.5 -23.5v-211q0 -77 1 -87q0 -4 -27 -2
l-26 2q-2 0 -22 -1.5t-24 1.5h-8h-8.5t-6.5 0.5t-6 2.5t-3.5 6t-1.5 10q0 4 1 32t1 34v155q0 159 -1 172q-1 18 -14.5 50.5t-30.5 39.5q-46 17 -109 -46q-12 -21 -19 -38.5t-9 -25t-5 -32t-5 -34.5l-3 -65q1 -11 0.5 -42.5t-0.5 -92.5t1 -98q0 -2 1 -8t1 -9t-2 -6.5t-7 -4.5
q-8 -2 -29 -0.5t-47 -0.5q-3 0 -10 1t-13.5 1t-12.5 -2q-9 -3 -12 2t-2 17t1 13l4 72l-4 154q-2 13 -2 36.5v29.5z" />
    <glyph glyph-name="n" unicode="n" horiz-adv-x="622" 
d="M567 141q-3 -78 -1 -94v-9.5v-12.5v-10q1 -15 -9 -17.5t-23 0.5h-33t-33 1q-18 -2 -25 0.5t-6 10.5q2 27 -3 157v126t-4 140q0 24 -22.5 47t-52.5 23q-57 0 -101 -42.5t-53 -110.5q-4 -26 -4 -195q0 -13 -1 -39.5t-1 -48t2 -40.5q0 -1 0.5 -5t0.5 -7.5v-7.5t-1.5 -6.5
t-4.5 -2.5q-7 -1 -20 0t-17 1q-9 -1 -52 1q-19 2 -32 -3q-7 -2 -7 17q1 2 0.5 118t-0.5 141q0 4 -1.5 128t-1.5 150q0 45 2 49q5 2 18 1q37 0 44 -1q7 0 20.5 2t23 1.5t20.5 -3.5q4 -1 5 -7t1 -14.5v-9.5q2 -10 3.5 -28t2.5 -23q11 5 28 22l20 20q17 17 46 30.5t58 14.5
q40 2 86.5 -11.5t84 -48.5t37.5 -82q0 -80 3.5 -182t2.5 -140z" />
    <glyph glyph-name="o" unicode="o" horiz-adv-x="624" 
d="M303 606q5 1 38 -2.5t52 -9.5q70 -16 117.5 -72t64 -126.5t5.5 -139.5q-8 -50 -24 -91t-34 -67.5t-42.5 -47t-44 -31t-45 -18t-39 -9.5t-31.5 -4q-32 -3 -71.5 2.5t-62.5 19.5q-7 4 -29 20l-1 1l-1 1l-1 1l-1 1l-2 1q-41 39 -51 55q-3 5 -11 20l-15 28q-10 26 -16.5 45
t-9.5 34t-4 23t-1.5 24.5t-1.5 24.5q-8 91 31.5 162.5t110.5 115.5q59 39 120 39zM318 501q-31 0 -50.5 -7.5t-29 -16.5t-31.5 -36q-17 -20 -26.5 -64.5t-8.5 -77.5q0 -30 7.5 -62t23 -64.5t45 -53.5t69.5 -21q56 0 97 58.5t41 137.5q0 39 -7 73.5t-21.5 66t-42.5 49.5
t-66 18z" />
    <glyph glyph-name="p" unicode="p" horiz-adv-x="675" 
d="M154 -200q-6 1 -27.5 -0.5t-33.5 -0.5q-16 0 -12 15q2 30 2 45q0 85 -1 112l-11 315q0 8 -1 69l-2 117.5t-1 59.5t-0.5 13t-1 18.5t0 17.5t3.5 15t8 7q3 1 23 -2q6 -1 18 0.5t18 1.5q15 0 19.5 -1.5t17.5 -1.5h24q6 -3 6 -21q-6 -43 4 -41q1 0 2 1q52 39 87.5 54.5
t83.5 15.5q129 0 203 -112q24 -35 34 -75q21 -88 18 -155q-2 -65 -22.5 -108.5t-61.5 -87.5q-30 -30 -78 -55.5t-101 -25.5q-78 0 -146 52q-13 9 -14 -13q0 -7 1 -15q1 -10 2.5 -27.5t2.5 -30.5t1 -21v-101l-2 -34q-2 0 -7 -1t-7 -1h-24zM341 497q-65 -5 -102.5 -54
t-37.5 -138q0 -199 151 -199q70 0 112 49.5t42 133.5q0 110 -44 162t-121 46z" />
    <glyph glyph-name="q" unicode="q" horiz-adv-x="630" 
d="M433 -2v2q1 3 0 18t-1 19q-8 -6 -44.5 -20.5t-71.5 -23.5q-54 -14 -128 11q-55 19 -95 89q-39 74 -48 132.5t3 131.5q11 70 51 133q37 57 91.5 88t95.5 31q37 0 79 -15q18 -7 41.5 -19.5t40.5 -23t18 -10.5q15 -7 41 24q8 8 13 16t7 13l3 6h21q1 -4 1 -8t-1 -11t-1 -8
q-2 -32 4 -101q10 -177 13 -311q1 -31 1 -315q3 -35 2 -40q-3 -16 -74 -6q-19 -2 -29 -5q-18 -3 -23.5 -0.5t-5.5 20.5q0 6 -1 12q-1 7 -1.5 43t-1.5 44v84zM429 155q1 2 1 33q-1 10 -2 35.5t-2 37.5v36v36q0 97 -6 112q-9 22 -48 42.5t-62 19.5q-63 -2 -96 -61t-31 -148
q0 -32 5.5 -63t17 -63.5t34.5 -54t54 -24.5q21 -2 61.5 13.5t58.5 33.5z" />
    <glyph glyph-name="r" unicode="r" horiz-adv-x="463" 
d="M62 588q-1 5 1 13l55 -1q2 0 20.5 1t32 1.5t25.5 -0.5q10 -2 3 -29q-2 -9 -2.5 -27t0 -33.5t-0.5 -29.5q6 3 18 20q3 5 31 31.5t40 36.5q50 34 108 37q17 0 45 -8q-9 -40 -64 -174q-47 44 -74 43q-20 -1 -38.5 -17t-28.5 -31t-23 -41q-7 -15 -12 -58t-3 -56v-134
q0 -69 1 -86q0 -2 0.5 -14t-0.5 -21t-5 -12h-7q-6 0 -13 0.5t-10 0.5q-14 -5 -75 0q-4 0 -11.5 -2t-11.5 1q-1 1 -3 310q0 124 2 159v120z" />
    <glyph glyph-name="s" unicode="s" horiz-adv-x="515" 
d="M384 576q68 -43 76 -96q0 -8 -22 -17t-49 -15.5t-28 -7.5l-6 -3q-6 -3 -7.5 -3t-6.5 2q-5 32 -31.5 49t-51.5 17q-48 0 -61 -46q-7 -27 24 -50q5 -4 76 -46t88 -53q22 -14 39.5 -32.5t33.5 -47t16.5 -60t-13.5 -72.5q-21 -47 -75 -76.5t-122 -29.5q-62 0 -98.5 12
t-77.5 48l-8 9l-16.5 18.5t-16.5 21t-10.5 18.5t1.5 11q14 9 45 18.5t39 12.5q32 14 36 8q24 -38 44.5 -51t64.5 -13q21 0 40 11.5t27 30.5q7 17 -12 40t-43 35q-10 5 -39.5 23l-60.5 36.5l-36 21.5q-88 56 -84 143q2 40 23.5 77t60.5 57q52 27 104 29q75 4 137 -30z" />
    <glyph glyph-name="t" unicode="t" horiz-adv-x="433" 
d="M383 527q3 -24 1 -29q-5 -7 -19 -4q-43 0 -59 -2q-17 0 -20 -6q-9 -85 -4 -212q0 -36 3 -138q4 -92 -4 -136q-4 -2 -10.5 -2t-12.5 1l-7 1q-18 3 -42 -0.5t-38 -1.5q-2 1 -9.5 -1t-8.5 3q-1 4 -1.5 71t-1.5 156t-2 128q-7 133 -11 134q-12 3 -44.5 2.5t-36.5 -4.5
q-8 10 -5 31q-1 8 0 30.5t1 26.5q-8 23 0 26q6 2 18 0q58 0 70 1q16 1 11 26q-1 10 -1 30.5t-3 33.5q-2 11 5 14t17.5 1.5t18.5 1.5q8 0 28.5 1t34 0.5t18.5 -2.5q7 -3 4 -27v-6.5v-9.5v-11v-12v-12v-11v-8.5v-5.5v-2q2 -3 7.5 -4t13.5 0t9 1q12 -1 38 1h24q3 0 5 -1t3 -2
t2 -4l1.5 -4.5t1 -5.5t0.5 -6z" />
    <glyph glyph-name="u" unicode="u" horiz-adv-x="620" 
d="M412 488q0 47 -1 72l-1 16q-2 15 0.5 21t11.5 6q26 0 50 -3q8 0 25 2t29.5 2t19.5 -4q-3 -38 -4.5 -231.5t0.5 -226.5l2 -30q0 -9 3 -19t9.5 -23t8.5 -18q1 -3 -1.5 -5t-6.5 -3.5t-7.5 -2.5l-8.5 -2.5t-6 -1.5q-20 -7 -36.5 -21.5t-29.5 -22.5q-17 -13 -25 15
q-4 14 -4 21t-6.5 32.5t-8.5 29.5q-3 -1 -43 -28q-28 -28 -78.5 -51t-82.5 -23q-73 0 -109.5 35.5t-46.5 79.5q-2 8 -7 67q-3 41 -3 410q1 14 5 19t16 1q13 -4 32.5 -4t41 1.5t25.5 1.5q10 1 12 0t3 -9l-3 -61q0 -40 3 -171.5t3 -146.5q0 -81 41 -89q29 -9 85.5 11.5
t70.5 45.5q22 34 22 225v83z" />
    <glyph glyph-name="v" unicode="v" horiz-adv-x="632" 
d="M200 480l55 -167q6 -14 19.5 -60t19.5 -60q1 -3 8 -25.5t13 -34.5q7 7 23 56t17 50q6 12 32 96.5t35 107.5q8 21 26.5 80.5t18.5 65.5q0 4 1 6.5t3.5 3.5t3.5 1h4.5h4.5h50h71q4 0 5 -3t0 -7.5t-2.5 -8.5l-3.5 -9t-2 -6q-9 -27 -24.5 -68.5t-17.5 -48.5
q-13 -33 -76.5 -212l-74.5 -210q-6 -18 -13 -28q-3 -5 -8.5 -4.5t-14 2.5t-10.5 2h-56q-9 -2 -31.5 -2t-36.5 -4q-7 -2 -11 6.5t-6.5 21.5t-3.5 15q-40 97 -56 142l-23 67.5l-27 80.5q-4 13 -26.5 75l-41 114.5t-22.5 71.5q-3 14 8.5 15.5t20.5 -2.5q14 -2 30.5 -0.5
t28.5 0.5h6.5h10h11.5q16 4 26 0q2 -2 12 -37.5t11 -36.5z" />
    <glyph glyph-name="w" unicode="w" horiz-adv-x="890" 
d="M845 601v1l20 -1q3 -5 1.5 -11.5t-8 -21t-7.5 -16.5q-5 -18 -17 -54q-10 -34 -66 -205q-21 -73 -22 -78l-13 -44l-16 -56.5t-7 -26.5q-2 -7 -6.5 -21t-5.5 -18l-8 -26q-1 -3 -1.5 -8t-1.5 -8t-3.5 -5.5t-7.5 -2.5h-73q-37 -6 -39 6q-1 5 -6.5 18t-6.5 20q-7 24 -22 71
t-21 68q-46 157 -46 148q-1 6 -2.5 9.5t-3 5t-3.5 -0.5t-5 -8l-75 -269q-8 -26 -9 -42q0 -26 -15 -28l-70 3q-8 0 -24.5 -1t-24.5 -1q0 6 -8 30.5l-19.5 57.5t-13.5 40l-80 228.5t-68 195.5q-3 12 -16 33q-5 7 -5 9.5t6 7.5h87q6 -1 26.5 0t28.5 0q1 -1 59 -183t61 -187
q7 9 28 68t23 69q3 7 14.5 43l25.5 80.5l20 62.5q1 3 4 15.5t6.5 21.5t8.5 10h57q3 0 9 1t10.5 1t8.5 -2q3 -3 16 -49l12 -39q8 -30 26.5 -90t38.5 -118.5t24 -57.5t16 37.5t15 47.5q3 16 12.5 46t12.5 47q3 15 15.5 54t21.5 76q2 4 6 22t7 24q4 6 18 6.5t30.5 -2.5t17.5 -3
h53zM462 330v1v-1z" />
    <glyph glyph-name="x" unicode="x" horiz-adv-x="656" 
d="M437 540q4 5 14 21l18 28t12 14q12 0 34 -2.5t35 0.5q12 -1 34.5 0.5t34.5 2.5t19 -1q0 -6 -10 -18q-29 -41 -66.5 -88.5l-53.5 -68.5l-40 -53l-34 -43t-13 -19q1 -5 7 -17l7 -13l52 -70q30 -39 89 -124t58 -89q0 -2 -11.5 -1.5t-29.5 2t-38 -0.5q-8 0 -28.5 -1.5
t-36.5 -2.5t-19 -1q-3 1 -5.5 5t-4.5 9.5t-3 6.5q1 -1 -25.5 40l-59 89.5t-44.5 64.5q-6 2 -16 -15q-1 -1 -1 -2q-2 -3 -48.5 -66t-50.5 -74q-25 -36 -48 -54q-21 1 -66 -0.5t-60 0.5q-14 -3 -19 1.5t2 19.5q4 10 20 30.5l32 40t18 22.5l97 131q7 9 18.5 22t16.5 19.5t10 14
t6 12.5q-6 15 -19 31q-7 8 -35.5 49t-57.5 78l-74 100q-8 10 -14 20q-2 5 1.5 7.5t11.5 3t15.5 0.5t16.5 -0.5t12 -0.5h35h40h28q4 1 9 -4.5t11 -15t8 -11.5q31 -37 96 -136q0 -1 2.5 -5t3.5 -6t3.5 -4.5t5 -2t5.5 3.5z" />
    <glyph glyph-name="y" unicode="y" horiz-adv-x="640" 
d="M473 203q-26 -72 -72 -228q-2 -8 -7 -25.5l-7.5 -26.5t-7 -22.5t-10.5 -25.5t-13 -24q-17 -28 -54.5 -42.5t-68.5 -14.5q-60 2 -94.5 37.5t-54.5 103.5q-1 3 -4 9.5t-4.5 11t-0.5 8.5t3 5t4 1t6 -1t5 -1q10 -1 15.5 0l22 4t41.5 6q22 3 29 0q2 -2 2.5 -21t8.5 -35.5
t29 -16.5q10 0 17 7t10.5 18.5t5 21.5t2.5 21t1 13q4 29 -31 89l-110.5 250.5l-81.5 183.5t-29 68q-3 8 -2.5 13.5t2 8t6 3.5t9 1.5t11.5 0.5h12q4 0 49 -2t51 -2q14 2 19 -3q5 -7 12 -27l55 -149l35.5 -99l25.5 -73.5l15.5 -46.5l9 -27.5t3.5 -7.5q18 14 130 423
q8 15 56 15q23 -3 54.5 -3t40.5 -2q0 -1 -23 -71l-94 -254z" />
    <glyph glyph-name="z" unicode="z" horiz-adv-x="584" 
d="M419 -3q-35 1 -171 1q-110 2 -168 1q-21 -4 -31 1l1 9q0 7 -1.5 46t0.5 40q2 4 58.5 82.5l125 173t91.5 128.5q6 11 2 12q-3 1 -20 1q-201 4 -222 1l-10 -3q-9 -2 -14 -1q-7 2 -4 19q1 18 -1.5 37.5t-2.5 35.5q0 18 7 24q11 -2 50 -2q1 0 22 1t42.5 1.5t42 0t24.5 -2.5
l78 -3l183 5q0 -57 2 -83q0 -10 -1.5 -13.5t-7 -9.5t-10.5 -13q-10 -16 -49 -71l-73 -103.5t-38 -56.5q-86 -134 -86 -145q12 -1 40 0t64 2l36 2q19 0 51 -2.5t48.5 -3t44.5 4.5q15 5 16 0q1 -1 0 -3q-3 -7 -0.5 -56t1.5 -54q-2 -7 -39 -3h-81z" />
    <glyph glyph-name="braceleft" unicode="{" horiz-adv-x="384" 
d="M302 800q-107 7 -140 -20q-46 -36 -32 -217q1 -10 3 -32.5t2.5 -35t1 -31.5t-3 -30t-9 -22.5t-16.5 -16.5t-26 -5q1 -8 -0.5 -21.5t-1.5 -20.5q22 1 34 -10t14.5 -29.5t3 -42.5t-2 -49.5t0.5 -49.5q4 -51 2 -90t0 -80.5t11 -68.5q15 -9 38.5 -9.5t51 2t44.5 0.5
q-3 6 -2.5 24t-0.5 26q-4 1 -23.5 0t-23.5 5q-4 8 -4.5 19t1 19.5t4.5 22t4 18.5q2 10 2.5 35.5t1.5 39.5q9 129 2 173q-9 50 -36 74q28 14 32 65q2 24 -3 96.5t0.5 127t29.5 82.5q7 4 22.5 1t20.5 -1v27.5t-2 24.5z" />
    <glyph glyph-name="bar" unicode="|" horiz-adv-x="247" 
d="M159 806q-9 -1 -26.5 -0.5t-30 -0.5t-21.5 -5q-2 -128 4.5 -485.5t1.5 -520.5q15 3 41 2.5t39 3.5q0 51 -2.5 192.5t-1.5 198.5q0 64 -3 205t-3.5 214.5t2.5 195.5z" />
    <glyph glyph-name="braceright" unicode="}" horiz-adv-x="384" 
d="M82 800q-2 -1 -2 -24.5v-27.5q5 -2 20.5 1t22.5 -1q24 -28 29.5 -82.5t0.5 -127t-3 -96.5q4 -51 32 -65q-33 -30 -38.5 -97.5t3.5 -132.5q1 -11 1 -17q1 -14 1.5 -39.5t2.5 -35.5q1 -5 4 -18.5t4.5 -22t1 -19.5t-4.5 -19q-6 -6 -23.5 -5t-23.5 0q-1 -6 -0.5 -26t-2.5 -24
q17 2 44.5 -0.5t51 -2t38.5 9.5q12 36 11.5 107t1.5 132q3 24 0.5 49.5t-2 49.5t3 42.5t14.5 29.5t34 10q0 7 -1.5 20.5t-0.5 21.5q-15 0 -26 5t-16.5 16.5t-9 22.5t-3 30t1 31.5t2.5 35t3 32.5q14 181 -32 217q-33 27 -140 20z" />
    <glyph glyph-name="exclamdown" unicode="&#xa1;" horiz-adv-x="397" 
d="M209 411q-12 -2 -36.5 4t-35.5 17q-33 28 -30 76q4 65 69 93q16 7 44 3q38 -4 60 -31t18 -67q-1 -28 -13 -48.5t-28 -29.5t-28.5 -13t-19.5 -4zM88 -133q20 163 25 189l11 152q0 22 4.5 67.5t3.5 69.5q0 28 4 29q6 1 31 -2q20 -1 42 3t56 -7q8 -3 6 -13q0 -28 2 -56
l5 -67l5 -67q6 -109 11 -168q3 -25 11 -82t11 -86q0 -1 2.5 -12t2.5 -15t-3 -11q-4 -3 -7.5 -4.5t-5 -1.5t-6 1.5t-7.5 1.5q-7 0 -21.5 5t-20.5 5q-24 3 -69 -3.5t-52 -6.5q-32 0 -41 11q-5 7 -2 26z" />
    <glyph glyph-name="cent" unicode="&#xa2;" horiz-adv-x="666" 
d="M372 607v-1q20 -1 42 -6t53 -17.5t60 -40t49 -66.5q0 -1 5 -8t4 -11q0 -2 -5 -3.5t-12 -2.5t-8 -1l-77 -22q-26 -9 -28 -2q-13 45 -49 62.5t-76 15.5q-55 -2 -85 -65t-30 -126q0 -57 11 -103t41 -78.5t75 -32.5q60 0 112 82q9 0 93 -29l34 -15q-36 -64 -84.5 -99.5
t-126.5 -44.5l2 -78l-62 -5v80q-78 1 -134 50.5t-79 125t-16 163.5q8 105 71.5 180.5t155.5 92.5v96h61z" />
    <glyph glyph-name="sterling" unicode="&#xa3;" horiz-adv-x="760" 
d="M383 436q-1 -25 -1.5 -81.5t-1.5 -86.5t-8.5 -70.5t-21.5 -67.5q30 3 83 -13t57 -17q61 -11 112 20q4 2 10.5 8.5t13 10t14.5 3.5q4 -22 20 -63.5t20 -62.5q-83 -45 -192 -20q-254 56 -392 -12q-4 12 -7.5 43.5t-8.5 46.5q133 22 166 116q10 27 12 136q1 38 -3 112
q-9 0 -41.5 1.5t-46 2t-36 -0.5t-38.5 -4q-2 8 0 21.5t0.5 26.5t-8.5 14q89 2 167 8v14q0 15 0.5 28.5t3 27.5t4.5 23t7.5 23t7.5 20t8.5 22t8.5 20q48 117 130 118q44 0 116 -42q-10 -17 -21.5 -60t-16.5 -50q-30 28 -47 27q-27 -1 -47 -91q-1 -6 -2 -8q-6 -24 -14 -70
q5 -1 16 -1.5t16 -0.5q85 4 120 -6q-1 -34 -10 -72z" />
    <glyph glyph-name="currency" unicode="&#xa4;" horiz-adv-x="649" 
d="M553 69q-10 9 -17.5 19t-17.5 26t-18 27l13 16t14 16q8 12 18 51.5t11 55.5q5 79 -52 164q11 12 33 32.5t32 31.5q-26 37 -56 59q-10 -11 -32 -31.5l-34 -32.5q-84 43 -134 37q-15 -2 -32 -8.5t-28 -12t-28 -15.5l-24 -14q-12 10 -23 24t-23.5 33.5t-19.5 28.5
q-33 -20 -55 -55q9 -6 33 -35t30 -43q-29 -38 -41.5 -95t0.5 -118t54 -99q-9 -11 -33.5 -38.5l-37.5 -42.5q8 -8 19 -15.5t25.5 -16.5t21.5 -14q16 16 32 41t31 39q43 -27 111.5 -23.5t106.5 40.5q11 -17 35.5 -42t35.5 -44l23 22t27 32zM221 412q20 20 60 29q58 13 103 -12
t65 -70q13 -29 14.5 -66.5t-6.5 -58.5q-12 -37 -55 -59.5t-93.5 -21t-82.5 29.5q-12 12 -27 39.5t-16 47.5q-3 30 9 77.5t29 64.5z" />
    <glyph glyph-name="yen" unicode="&#xa5;" horiz-adv-x="911" 
d="M657 734v-1q3 10 17.5 37t20.5 30h18q8 2 43 1t53 1q22 0 29 -3q1 -1 -7.5 -17.5l-18 -36t-11.5 -24.5q-119 -206 -134 -248q-33 -48 -103 -192h122v-49l-115 -4h-31l-1 -2q4 -28 4 -58h143v-50l-119 4l-25 -3l2 -63v-29q0 -3 1.5 -14.5t0.5 -14.5t-42 -3q-15 2 -74 2
q-23 -5 -23 1q-2 23 0 69v53h-22l-135 -3l2 48l154 2q-2 60 -2 63h-25l-129 -3l5 53l66 3h54l-107 184q-30 39 -96.5 160.5t-71.5 142.5q-2 8 -7.5 18t-6.5 12q11 3 16.5 2.5t32.5 0.5l77 -4q3 0 9.5 1t10 1t7.5 -2.5t5 -8.5q32 -65 103.5 -191.5t85.5 -142.5l40 -73
q3 14 58 113.5t59 109.5z" />
    <glyph glyph-name="brokenbar" unicode="&#xa6;" horiz-adv-x="247" 
d="M84 424q-6 234 -3 376q9 4 21.5 5t30 0.5t26.5 0.5q-6 -131 0 -387h-74zM163 191v-13q-1 -57 1.5 -193t2.5 -185q-15 -4 -39 -3.5t-41 -2.5q5 143 1 395z" />
    <glyph glyph-name="section" unicode="&#xa7;" horiz-adv-x="510" 
d="M350 230q63 43 77 108q11 52 -15 99q-13 23 -91 86q-64 48 -81 78t-5 55q18 38 36 39q21 3 47 -15t36 -35l15 11.5t11 9.5t10 11.5t8.5 11t9.5 14t10 14.5q-20 36 -63 59.5t-89 24.5q-55 0 -91 -32q-41 -39 -52 -65q-19 -40 -13 -77q15 -66 36 -93q3 -3 17.5 -16
t15.5 -14q5 -6 -4 -12q-103 -76 -77 -165q10 -35 39.5 -66t77.5 -67t60 -47q35 -34 14.5 -67.5t-67.5 -26.5q-15 2 -35.5 22t-30.5 24q-6 -4 -13.5 -19t-10.5 -20l-17 -13.5t-20 -16.5t-15 -16q57 -44 145 -53q1 0 16 -1t19 0q45 8 68 21.5t51 43.5q40 61 22 135
q-5 20 -15.5 34t-35.5 36zM318 330q-26 -44 -32 -51q-76 43 -75 78q-8 51 48 85q34 -12 56 -46t3 -66z" />
    <glyph glyph-name="dieresis" unicode="&#xa8;" horiz-adv-x="468" 
d="M110 810q31 0 54.5 -19t27.5 -49q5 -32 -8 -59q-7 -12 -25.5 -23.5t-32.5 -12.5q-34 -1 -61.5 18.5t-28.5 53.5q-2 38 24 67q15 17 25 20q1 0 7.5 0.5t12 1.5t5.5 2zM349 810q30 0 53.5 -19t27.5 -49q6 -32 -8 -59q-7 -13 -25 -24t-32 -12q-35 -1 -62 18.5t-28 53.5
q-2 40 23 67q18 18 26 20q1 0 7 0.5t11.5 1.5t6.5 2z" />
    <glyph glyph-name="copyright" unicode="&#xa9;" horiz-adv-x="937" 
d="M432 -8q156 1 270.5 77t145.5 210q22 102 -7.5 215.5t-89.5 191.5q-63 69 -125.5 94t-154.5 25q-139 0 -235 -63q-54 -31 -94 -101q-65 -99 -62 -247q4 -115 44.5 -194.5t112.5 -143.5q66 -64 195 -64zM407 725q54 7 112.5 -2t91.5 -29q59 -36 97.5 -98t48.5 -132
t-0.5 -139t-49.5 -127t-99 -87q-59 -32 -148 -30t-147 45q-62 48 -97 116t-38 141q-18 310 229 342zM604 616q-86 57 -152 62q-61 4 -116 -47t-73 -121q-25 -94 6 -182t97 -139q17 -15 48 -27.5t57 -11.5q17 1 32.5 4.5t31 10.5l25.5 11.5t26.5 16l22 15.5t22.5 18t19 16
q-7 15 -16.5 27t-24.5 28l-20 21q-3 -3 -10.5 -11.5t-11 -12l-10.5 -10t-12 -9.5t-13 -6.5t-16 -5.5q-50 -14 -91 24t-49 88q-13 59 3 120.5t54 73.5q18 2 28 3.5t25 -3.5t23 -9l23 -12t24 -12q7 12 20.5 28t21 28t6.5 24z" />
    <glyph glyph-name="guillemotleft" unicode="&#xab;" horiz-adv-x="492" 
d="M196 544q-70 -122 -116 -180q18 -28 49.5 -94t52.5 -96q3 3 24 31q5 6 31 59q-15 17 -38 52.5t-32 47.5q9 12 38 43t44 57zM357 524l-19 -30.5l-17 -26t-20 -27.5l-18 -23.5l-21.5 -27l-20.5 -25.5q10 -15 44.5 -70.5t57.5 -89.5l14 10q14 11 18 15t13 14t14 21
q-4 4 -16 18.5l-18 21.5t-15 19t-14.5 22t-8.5 19q3 6 10.5 15.5t10.5 15.5q49 49 61 69q-15 11 -28 30.5t-27 29.5z" />
    <glyph glyph-name="registered" unicode="&#xae;" horiz-adv-x="617" 
d="M256 332q101 -8 178.5 37t97.5 129q12 64 -5 129.5t-53 111.5q-18 21 -51 40.5t-62 25.5q-17 3 -46 3.5t-43 -1.5q-61 -10 -94 -29.5t-63 -64.5q-38 -64 -35 -146q2 -67 25.5 -113.5t66.5 -86.5q35 -30 84 -35zM272 761q13 2 25.5 2t22.5 -1t20.5 -4.5l17.5 -6t17 -8.5
t15 -9.5t15 -12t13.5 -12t14.5 -13.5q54 -55 53 -142.5t-63 -131.5q-20 -17 -54.5 -28t-77.5 -8.5t-73 26.5q-58 45 -70.5 144t32.5 157l11.5 12t11.5 11.5t11 8t14.5 7.5t18 5t25.5 4zM338 593q19 5 32.5 24.5t16.5 42.5q5 40 -20 56q-18 14 -69.5 14.5t-68.5 5.5
q-5 -1 -7 -8q-2 -8 -2 -71q0 -14 -3 -109t1 -110q14 4 26 2t23.5 -0.5t16.5 9.5q1 5 0.5 10t-2 18.5t-1.5 20.5q-2 75 -4 82q36 -12 47.5 -47.5t11.5 -92.5q7 -1 23.5 -4.5t24 -3.5t22.5 4q1 8 -8 36q-2 9 -5 27.5l-4 24.5q-5 39 -51 69zM278 686q22 6 36.5 -3.5t17.5 -25.5
q3 -17 -11 -28.5t-44 -5.5q-9 34 1 63z" />
    <glyph glyph-name="macron" unicode="&#xaf;" horiz-adv-x="296" 
d="M270 744q-17 0 -110.5 -3.5t-137.5 -0.5q3 -10 3.5 -20t-0.5 -24t-1 -21q87 7 252 5q-8 44 -6 64z" />
    <glyph glyph-name="degree" unicode="&#xb0;" horiz-adv-x="448" 
d="M196 809q-88 -12 -108 -84q-18 -63 2.5 -127t61.5 -85q33 -15 76 -14t71 16q38 20 56 65.5t11.5 96t-33.5 88.5q-39 54 -137 44zM225 743q44 2 66 -48q21 -49 0 -90q-21 -42 -78 -32q-31 12 -46 40.5t-13 56.5t21 50t50 23z" />
    <glyph glyph-name="twosuperior" unicode="&#xb2;" 
d="M132 454h-33q-7 0 -19.5 -0.5t-17.5 -0.5q-11 0 -17 -1q-12 0 -13 1l2 7q1 6 1 8v37q-4 8 -3 12q11 6 23 14q10 9 27 21t24 18q99 70 108 123q5 28 -15 43t-40 13q-33 -2 -45 -18t-20 -52l-55 10q-7 0 -9 6q0 3 1 7t1 6q7 16 16 28q31 38 53 48q28 16 59 17q36 2 63 -12
q35 -17 54 -61q5 -17 5 -27q3 -20 -19 -59l-45 -52q-23 -26 -65 -63q-3 -3 -8 -6t-8 -6q-2 -4 -1 -4h4q34 0 109 3h31q10 -3 1 -26q-4 -19 -1 -29q0 -7 -16 -7l-26 2h-106z" />
    <glyph glyph-name="threesuperior" unicode="&#xb3;" 
d="M251 801q-185 0 -202 -1q0 -6 2 -22.5t1 -30.5q10 -1 61.5 2t54.5 -3q-49 -58 -88 -88q7 -16 2 -38q10 -3 30 6q48 21 82 -1t34 -59q0 -19 -14.5 -35t-42 -20.5t-66.5 17.5q-7 5 -11.5 9.5t-8.5 10t-6 8.5q-2 -2 -22.5 -12.5t-26.5 -20.5q10 -20 33 -38t44 -24
q77 -23 133.5 12t45.5 122q-6 46 -38.5 63.5t-84.5 20.5l86 72q0 4 3.5 26t-1.5 24z" />
    <glyph glyph-name="acute" unicode="&#xb4;" horiz-adv-x="398" 
d="M192 669q-10 -6 -38 -15t-48 -18q-3 -2 -20 -8.5t-19 -5.5q0 3 -3 7t-7 8t-4 5l-11 8q-4 6 -7.5 10t-5 5.5t-3 2.5t-2 2.5t-0.5 4.5q6 6 16.5 11.5t27 12.5t27.5 13l153 84q11 14 20 12q4 -1 8 -6l5 -4l97 -43l-89 -41l-51 -26z" />
    <glyph glyph-name="paragraph" unicode="&#xb6;" horiz-adv-x="654" 
d="M573 801q-7 0 -29 1.5t-29 0.5q-47 -8 -85.5 -9t-97 2t-87.5 4q-43 1 -82 -31t-55 -67q-24 -52 -26 -68q-9 -51 14 -124q13 -42 51 -69t85 -36.5t106 -7.5q8 -143 2 -604q79 7 93 4q5 76 0 331.5t-2 333.5q0 8 -16 8.5t-36 -2t-36 1.5q9 113 -4 268q135 8 152 4
q-5 -57 1.5 -156t6.5 -133q-3 -542 -10 -660q17 3 45 4t39 2q2 105 -2.5 500.5t2.5 501.5z" />
    <glyph glyph-name="periodcentered" unicode="&#xb7;" horiz-adv-x="323" 
d="M163 543q43 1 61.5 -24t18.5 -57q0 -26 -23.5 -50.5t-58.5 -24.5q-34 0 -57.5 26t-23.5 51q0 24 17 47q12 19 27 25t39 7z" />
    <glyph glyph-name="cedilla" unicode="&#xb8;" horiz-adv-x="224" 
d="M68 -1h32t38 -2q2 -3 0 -12t-2 -13q24 -5 39.5 -21.5t18.5 -38.5t-2 -43.5t-20.5 -38.5t-37.5 -21q-44 -8 -85 27q-28 28 -23 44q1 5 4 7t9 4.5t8 3.5q10 -18 36 -29.5t41 8.5q16 33 -8 52.5t-58 16.5q1 7 4.5 24.5t5.5 31.5z" />
    <glyph glyph-name="onesuperior" unicode="&#xb9;" 
d="M228 800q-12 -2 -25 -2t-29 1t-25 1q0 -2 -2 -6q-4 -5 -25 -23.5t-27 -32.5q-9 -10 -31 -44q7 -4 17.5 -7.5t24.5 -7t20 -5.5q15 24 27 39q1 -27 2 -128t3 -134q12 2 32.5 1t33.5 2q1 36 -1 174.5t5 171.5z" />
    <glyph glyph-name="guillemotright" unicode="&#xbb;" horiz-adv-x="500" 
d="M296 174q70 123 116 180q-18 28 -49.5 94t-52.5 96q-3 -3 -24 -31q-5 -6 -31 -59q15 -17 38 -52.5t32 -47.5q-9 -12 -38 -43t-44 -57zM135 194q30 53 116 160q-10 15 -44.5 70.5t-57.5 89.5l-14 -10q-14 -11 -18 -15t-13 -14t-14 -21q4 -4 16 -18.5l18 -21.5t15 -19
t14.5 -22t8.5 -19q-3 -6 -10.5 -16t-10.5 -15q-49 -49 -61 -69q15 -11 28 -30.5t27 -29.5z" />
    <glyph glyph-name="onequarter" unicode="&#xbc;" horiz-adv-x="851" 
d="M779 800q-4 7 -44.5 4.5t-47.5 -2.5q-5 -13 -110.5 -148.5t-119.5 -151.5q-11 -13 -19 -24q-1 -1 -67 -88l-131 -173t-63 -83q-47 -66 -52 -72q-15 -17 -28 -34q-2 -3 -6.5 -7.5t-7 -9t-2.5 -11.5h14q7 -1 33 -2t37 -4q10 15 48.5 58.5t50.5 69.5l237.5 309.5zM228 770
q-12 -2 -25 -2t-29 1t-25 1q0 -2 -2 -6q-4 -5 -25 -23.5t-27 -32.5q-9 -10 -31 -44q7 -4 17.5 -7.5t24.5 -7t20 -5.5q15 24 27 39q1 -27 2 -128t3 -134q12 2 32.5 1t33.5 2q1 36 -1 174.5t5 171.5zM771 2q0 11 -2 46t-2 46q3 1 21.5 1t24.5 1q1 8 0 29t0 33q-13 2 -40.5 2.5
t-62 -0.5t-42.5 -1q20 36 63.5 100.5t58.5 88.5q-15 2 -32.5 1.5t-32.5 0.5q-23 -26 -43 -53l-113 -152q-5 -27 3 -58q39 6 127 2q1 -19 -2.5 -53t-3.5 -38q12 1 38.5 2t39.5 2z" />
    <glyph glyph-name="onehalf" unicode="&#xbd;" horiz-adv-x="851" 
d="M779 800q-4 7 -44.5 4.5t-47.5 -2.5q-5 -13 -110.5 -148.5t-119.5 -151.5q-11 -13 -19 -24q-1 -1 -67 -88l-131 -173t-63 -83q-47 -66 -52 -72q-15 -17 -28 -34q-2 -3 -6.5 -7.5t-7 -9t-2.5 -11.5h14q7 -1 33 -2t37 -4q10 15 48.5 58.5t50.5 69.5l237.5 309.5zM228 770
q-12 -2 -25 -2t-29 1t-25 1q0 -2 -2 -6q-4 -5 -25 -23.5t-27 -32.5q-9 -10 -31 -44q7 -4 17.5 -7.5t24.5 -7t20 -5.5q15 24 27 39q1 -27 2 -128t3 -134q12 2 32.5 1t33.5 2q1 36 -1 174.5t5 171.5zM673 -11h-33q-7 0 -19.5 -0.5t-17.5 -0.5q-11 0 -17 -1q-12 0 -13 1l1 6
q2 7 2 9v37q-4 8 -3 12q11 6 23 14q10 9 27 21t24 18q99 70 108 123q5 28 -15 43t-40 13q-33 -2 -45 -18t-20 -52l-55 10q-8 0 -9 6q0 3 1 7t1 6q7 16 16 28q31 38 53 48q28 16 59 17q36 2 63 -12q35 -17 54 -61q5 -17 5 -27q3 -20 -19 -59l-45 -52q-23 -26 -65 -63
q-3 -3 -8 -6t-8 -6q-2 -4 -1 -4h4q34 0 109 3h9.5h12h9.5q10 -3 1 -26q-4 -19 -1 -29q0 -7 -16 -7l-26 2h-106z" />
    <glyph glyph-name="threequarters" unicode="&#xbe;" horiz-adv-x="851" 
d="M779 800q-4 7 -44.5 4.5t-47.5 -2.5q-5 -13 -110.5 -148.5t-119.5 -151.5q-11 -13 -19 -24q-1 -1 -67 -88l-131 -173t-63 -83q-47 -66 -52 -72q-15 -17 -28 -34q-2 -3 -6.5 -7.5t-7 -9t-2.5 -11.5h14q7 -1 33 -2t37 -4q10 15 48.5 58.5t50.5 69.5l237.5 309.5zM251 771
q-185 0 -202 -1q0 -6 2 -22.5t1 -30.5q10 -1 61.5 2t54.5 -3q-49 -58 -88 -88q7 -16 2 -38q10 -3 30 6q48 21 82 -1t34 -59q0 -19 -14.5 -35t-42 -20.5t-66.5 17.5q-7 5 -11.5 9.5t-8.5 10t-6 8.5q-2 -2 -22.5 -12.5t-26.5 -20.5q10 -20 33 -38t44 -24q77 -23 133.5 12
t45.5 122q-6 46 -38.5 63.5t-84.5 20.5l86 72q0 4 3.5 26t-1.5 24zM771 2q0 11 -2 46t-2 46q3 1 21.5 1t24.5 1q1 8 0 29t0 33q-13 2 -40.5 2.5t-62 -0.5t-42.5 -1q20 36 63.5 100.5t58.5 88.5q-15 2 -32.5 1.5t-32.5 0.5q-23 -26 -43 -53l-113 -152q-5 -27 3 -58
q39 6 127 2q1 -19 -2.5 -53t-3.5 -38q12 1 38.5 2t39.5 2z" />
    <glyph glyph-name="questiondown" unicode="&#xbf;" horiz-adv-x="660" 
d="M331 410q-12 -2 -36.5 4t-35.5 17q-33 28 -30 76q4 65 69 93q16 7 44 3q38 -4 60 -31t18 -67q-1 -28 -13 -48.5t-28 -29.5t-28.5 -13t-19.5 -4zM318 -211q-40 0 -79 12.5t-77 40t-60.5 82t-20.5 127.5q2 71 93 150q4 3 23 18.5t24.5 22t15 21.5t13.5 33q1 2 1 17t1.5 28
t4.5 14l40 -4q79 0 92 -3q9 -1 9 -14q0 -84 -30 -119q-25 -30 -57 -52t-59 -52q-35 -40 -35 -98q0 -43 27.5 -76t66.5 -33q35 0 57.5 20.5t31.5 45.5q3 8 6 19t6.5 25.5t5.5 21.5q20 10 36 5q14 -3 42 -3.5t51 0t25 0.5q20 -5 2 -46q-43 -95 -98.5 -145t-157.5 -58z" />
    <glyph glyph-name="Agrave" unicode="&#xc0;" horiz-adv-x="673" 
d="M151 975l97 43q1 1 3 3.5t4.5 4.5t5.5 2q9 2 20 -12q150 -82 153 -84q11 -6 27.5 -13t27 -12.5t16.5 -11.5q0 -3 -0.5 -4.5t-2 -2.5t-3 -2.5t-5 -5.5t-7.5 -10q-3 -4 -11 -8q0 -1 -4 -5t-7 -8t-3 -7q-2 -1 -19 5.5t-20 8.5q-20 9 -48 18t-38 15l-46 19l-51 26zM265 768
q2 14 13 32q7 2 22.5 2t24.5 -2h91q19 2 20 -13q0 -5 9 -39t10 -41l13 -63q4 -10 8 -23.5l13.5 -45l20.5 -67.5q0 -1 31 -95t39 -124q17 -62 47 -153q31 -105 38 -122q4 -10 2 -13t-12 -3q-4 0 -16.5 -1t-19.5 0q-66 4 -99 2q-16 0 -21 13l-34 107q-1 2 -3 8t-4.5 10t-6.5 5
q-10 1 -28.5 0.5t-47 -1t-38.5 -0.5h-81q-2 0 -16 -1.5t-21 -1.5q-12 -1 -14 -8l-26 -77q0 -1 -2 -8t-3.5 -14.5t-4 -15t-5 -12t-5.5 -3.5q-10 0 -55 -2t-73 2q-1 0 -7.5 -2t-10.5 -2t-6 4q-1 9 -1 11.5t6 12.5l6 10l91 299q2 14 17 54q1 3 28 78l55.5 153.5t31.5 87.5z
M344 639q-2 0 -4.5 -11t-4.5 -23t-3 -13q-2 -6 -14 -45.5l-24.5 -81.5t-20.5 -63l-17 -58q-2 -8 -8.5 -21t-8.5 -21q-10 -44 -11 -50q-1 -9 83.5 -11t119.5 1q10 0 13 5t2 10t-4 15l-6.5 23l-8 26.5t-6.5 22.5q-32 117 -43 154z" />
    <glyph glyph-name="Aacute" unicode="&#xc1;" horiz-adv-x="673" 
d="M375 889q-10 -6 -38 -15t-48 -18q-3 -2 -20 -8.5t-19 -5.5q0 3 -3 7t-7 8t-4 5q-7 4 -11 8q-4 6 -7.5 10t-5 5.5t-3 2.5t-2 2.5t-0.5 4.5q6 6 16.5 11.5t27 12.5t27.5 13l153 84q11 14 20 12q4 -1 9 -6l4 -4l97 -43l-89 -41l-51 -26zM265 768q2 14 13 32q7 2 22.5 2
t24.5 -2h91q19 2 20 -13q0 -5 9 -39t10 -41l13 -63q4 -10 8 -23.5l13.5 -45l20.5 -67.5q0 -1 31 -95t39 -124q17 -62 47 -153q31 -105 38 -122q4 -10 2 -13t-12 -3q-4 0 -16.5 -1t-19.5 0q-66 4 -99 2q-16 0 -21 13l-34 107q-1 2 -3 8t-4.5 10t-6.5 5q-10 1 -28.5 0.5
t-47 -1t-38.5 -0.5h-81q-2 0 -16 -1.5t-21 -1.5q-12 -1 -14 -8l-26 -77q0 -1 -2 -8t-3.5 -14.5t-4 -15t-5 -12t-5.5 -3.5q-10 0 -55 -2t-73 2q-1 0 -7.5 -2t-10.5 -2t-6 4q-1 9 -1 11.5t6 12.5l6 10l91 299q2 14 17 54q1 3 28 78l55.5 153.5t31.5 87.5zM344 639
q-2 0 -4.5 -11t-4.5 -23t-3 -13q-2 -6 -14 -45.5l-24.5 -81.5t-20.5 -63l-17 -58q-2 -8 -8.5 -21t-8.5 -21q-10 -44 -11 -50q-1 -9 83.5 -11t119.5 1q10 0 13 5t2 10t-4 15l-6.5 23l-8 26.5t-6.5 22.5q-32 117 -43 154z" />
    <glyph glyph-name="Acircumflex" unicode="&#xc2;" horiz-adv-x="673" 
d="M349 1029q1 0 8 -5l15 -11t9 -6q12 -7 49.5 -38.5l69.5 -60.5l32 -28q0 -1 -10.5 -10.5l-23.5 -20.5l-18 -15l-131 99l-130 -99l-52 46q124 112 151 127zM265 768q2 14 13 32q7 2 22.5 2t24.5 -2h91q19 2 20 -13q0 -5 9 -39t10 -41l13 -63q4 -10 8 -23.5l13.5 -45
l20.5 -67.5q0 -1 31 -95t39 -124q17 -62 47 -153q31 -105 38 -122q4 -10 2 -13t-12 -3q-4 0 -16.5 -1t-19.5 0q-66 4 -99 2q-16 0 -21 13l-34 107q-1 2 -3 8t-4.5 10t-6.5 5q-10 1 -28.5 0.5t-47 -1t-38.5 -0.5h-81q-2 0 -16 -1.5t-21 -1.5q-12 -1 -14 -8l-26 -77
q0 -1 -2 -8t-3.5 -14.5t-4 -15t-5 -12t-5.5 -3.5q-10 0 -55 -2t-73 2q-1 0 -7.5 -2t-10.5 -2t-6 4q-1 9 -1 11.5t6 12.5l6 10l91 299q2 14 17 54q1 3 28 78l55.5 153.5t31.5 87.5zM344 639q-2 0 -4.5 -11t-4.5 -23t-3 -13q-2 -6 -14 -45.5l-24.5 -81.5t-20.5 -63l-17 -58
q-2 -8 -8.5 -21t-8.5 -21q-10 -44 -11 -50q-1 -9 83.5 -11t119.5 1q10 0 13 5t2 10t-4 15l-6.5 23l-8 26.5t-6.5 22.5q-32 117 -43 154z" />
    <glyph glyph-name="Atilde" unicode="&#xc3;" horiz-adv-x="673" 
d="M471 968q-10 -21 -33.5 -37t-46.5 -9q-12 4 -30 22t-30 22q-101 38 -178 -78q31 -3 62 -20q2 4 7 13t9 14.5t10.5 11.5t13.5 7q29 6 69 -20.5t57 -29.5q33 -5 76 12q12 6 36.5 23t35.5 19q-9 10 -29.5 25.5t-28.5 24.5zM265 768q2 14 13 32q7 2 22.5 2t24.5 -2h91
q19 2 20 -13q0 -5 9 -39t10 -41l13 -63q4 -10 8 -23.5l13.5 -45l20.5 -67.5q0 -1 31 -95t39 -124q17 -62 47 -153q31 -105 38 -122q4 -10 2 -13t-12 -3q-4 0 -16.5 -1t-19.5 0q-66 4 -99 2q-16 0 -21 13l-34 107q-1 2 -3 8t-4.5 10t-6.5 5q-10 1 -28.5 0.5t-47 -1
t-38.5 -0.5h-81q-2 0 -16 -1.5t-21 -1.5q-12 -1 -14 -8l-26 -77q0 -1 -2 -8t-3.5 -14.5t-4 -15t-5 -12t-5.5 -3.5q-10 0 -55 -2t-73 2q-1 0 -7.5 -2t-10.5 -2t-6 4q-1 9 -1 11.5t6 12.5l6 10l91 299q2 14 17 54q1 3 28 78l55.5 153.5t31.5 87.5zM344 639q-2 0 -4.5 -11
t-4.5 -23t-3 -13q-2 -6 -14 -45.5l-24.5 -81.5t-20.5 -63l-17 -58q-2 -8 -8.5 -21t-8.5 -21q-10 -44 -11 -50q-1 -9 83.5 -11t119.5 1q10 0 13 5t2 10t-4 15l-6.5 23l-8 26.5t-6.5 22.5q-32 117 -43 154z" />
    <glyph glyph-name="Adieresis" unicode="&#xc4;" horiz-adv-x="673" 
d="M225 1020q31 0 54.5 -19t27.5 -49q5 -32 -8 -59q-7 -12 -25.5 -23.5t-32.5 -12.5q-34 -1 -61.5 18.5t-28.5 53.5q-2 38 24 67q15 17 25 20q1 0 7.5 0.5t12 1.5t5.5 2zM464 1020q30 0 53.5 -19t27.5 -49q6 -32 -8 -59q-7 -13 -25 -24t-32 -12q-35 -1 -62 18.5t-28 53.5
q-2 40 23 67q18 18 26 20q1 0 7 0.5t11.5 1.5t6.5 2zM265 768q2 14 13 32q7 2 22.5 2t24.5 -2h91q19 2 20 -13q0 -5 9 -39t10 -41l13 -63q4 -10 8 -23.5l13.5 -45l20.5 -67.5q0 -1 31 -95t39 -124q17 -62 47 -153q31 -105 38 -122q4 -10 2 -13t-12 -3q-4 0 -16.5 -1t-19.5 0
q-66 4 -99 2q-16 0 -21 13l-34 107q-1 2 -3 8t-4.5 10t-6.5 5q-10 1 -28.5 0.5t-47 -1t-38.5 -0.5h-81q-2 0 -16 -1.5t-21 -1.5q-12 -1 -14 -8l-26 -77q0 -1 -2 -8t-3.5 -14.5t-4 -15t-5 -12t-5.5 -3.5q-10 0 -55 -2t-73 2q-1 0 -7.5 -2t-10.5 -2t-6 4q-1 9 -1 11.5t6 12.5
l6 10l91 299q2 14 17 54q1 3 28 78l55.5 153.5t31.5 87.5zM344 639q-2 0 -4.5 -11t-4.5 -23t-3 -13q-2 -6 -14 -45.5l-24.5 -81.5t-20.5 -63l-17 -58q-2 -8 -8.5 -21t-8.5 -21q-10 -44 -11 -50q-1 -9 83.5 -11t119.5 1q10 0 13 5t2 10t-4 15l-6.5 23l-8 26.5t-6.5 22.5
q-32 117 -43 154z" />
    <glyph glyph-name="Aring" unicode="&#xc5;" horiz-adv-x="673" 
d="M352 1051q-64 1 -94.5 -30t-23.5 -89q6 -33 33.5 -57t61.5 -31t69 6t54 47q23 43 6 87q-10 28 -41.5 47t-64.5 20zM314 989q3 5 12 7.5t16 8.5q15 7 37 -9t26 -28q8 -22 -1.5 -42t-26.5 -29t-37 -5.5t-31 23.5q-8 10 -8 36t13 38zM265 768q2 14 13 32q7 2 22.5 2t24.5 -2
h91q19 2 20 -13q0 -5 9 -39t10 -41l13 -63q4 -10 8 -23.5l13.5 -45l20.5 -67.5q0 -1 31 -95t39 -124q17 -62 47 -153q31 -105 38 -122q4 -10 2 -13t-12 -3q-4 0 -16.5 -1t-19.5 0q-66 4 -99 2q-16 0 -21 13l-34 107q-1 2 -3 8t-4.5 10t-6.5 5q-10 1 -28.5 0.5t-47 -1
t-38.5 -0.5h-81q-2 0 -16 -1.5t-21 -1.5q-12 -1 -14 -8l-26 -77q0 -1 -2 -8t-3.5 -14.5t-4 -15t-5 -12t-5.5 -3.5q-10 0 -55 -2t-73 2q-1 0 -7.5 -2t-10.5 -2t-6 4q-1 9 -1 11.5t6 12.5l6 10l91 299q2 14 17 54q1 3 28 78l55.5 153.5t31.5 87.5zM344 639q-2 0 -4.5 -11
t-4.5 -23t-3 -13q-2 -6 -14 -45.5l-24.5 -81.5t-20.5 -63l-17 -58q-2 -8 -8.5 -21t-8.5 -21q-10 -44 -11 -50q-1 -9 83.5 -11t119.5 1q10 0 13 5t2 10t-4 15l-6.5 23l-8 26.5t-6.5 22.5q-32 117 -43 154z" />
    <glyph glyph-name="AE" unicode="&#xc6;" horiz-adv-x="970" 
d="M895 119q13 3 25.5 0.5t9.5 -18.5q-12 -62 -5 -87q-2 -13 -6 -14h-37q-16 1 -157.5 -0.5t-170.5 -3.5q-1 0 -13 -0.5t-19 -0.5t-16 2t-12 6q-1 10 0.5 30t1.5 26q-2 17 -3.5 33t-1.5 24t-0.5 14.5t-2 8.5t-4.5 3q-10 1 -28.5 0.5t-47 -1t-38.5 -0.5q-44 -1 -80 -2t-41 -1
q-12 -1 -14 -8l-44 -77q-2 -2 -8 -16.5t-12 -26t-9 -10.5q-10 0 -66 -1.5t-63 1.5q-1 0 -9 -2t-12 -1.5t-6 4.5t2 10.5t10 13t7 9.5l158 299q12 26 30 54q3 3 46.5 78l90 154t51.5 87l37 62q16 28 22 32q3 5 60 4.5t122 -2.5t118 1l49 -3l102 2q10 0 10 -12q-5 -30 -5 -82
q0 -3 -1 -4.5l-2 -3t-3.5 -2t-4 -0.5t-5 -0.5t-4.5 -0.5l-192 -2l-55 -4q-17 0 -18 -10q0 -5 0.5 -33.5t1 -62t0.5 -43.5v-40q0 -28 4 -32q7 -6 36 -3l49 3q15 2 62 2.5t50 0.5q19 3 20 -4v-35q0 -8 1 -21l1.5 -20t-0.5 -14.5t-4.5 -11t-10.5 -3.5h-49.5h-40.5h-31.5h-24.5
h-17.5t-13.5 -0.5t-8.5 -1t-5.5 -1.5l-4 -2q-5 -4 -6.5 -34.5t-0.5 -88.5l1 -58v-50q-1 -14 14.5 -16.5t90.5 -0.5zM333 344q-3 -8 -12.5 -21t-12.5 -21q-15 -29 -24 -50q-2 -9 77 -11t114 1q20 1 20 15q-4 65 -4 159v73q-1 41 -2 46v104q-2 0 -7 -11l-10 -23t-6 -13
l-23.5 -45l-44 -82.5t-35.5 -62.5z" />
    <glyph glyph-name="Ccedilla" unicode="&#xc7;" horiz-adv-x="697" 
d="M649 175h-1h3t3.5 -1t1.5 -3l-7 -15q-68 -152 -233 -164q0 -3 -1.5 -9t-1.5 -10q24 -5 39.5 -21.5t18.5 -38.5t-2 -43.5t-20.5 -38.5t-37.5 -21q-44 -8 -85 27q-28 28 -23 44q1 5 4 7t9 4.5t8 3.5q10 -18 36 -29.5t41 8.5q16 33 -8 52.5t-58 16.5q1 7 4.5 22.5t5.5 26.5
q-109 13 -187 91t-117 210q-25 114 14.5 235t124 200.5t182.5 79.5q97 0 165.5 -36.5t115.5 -117.5l10 -24q2 -4 -17 -9l-114 -32q-19 46 -61 77t-97 30q-49 -1 -88.5 -30.5t-62 -74.5t-34 -96t-10.5 -101q1 -55 25 -118.5t75 -114.5t114 -51q61 0 94 29t42 69l105 -30
l20 -4h5z" />
    <glyph glyph-name="Egrave" unicode="&#xc8;" horiz-adv-x="565" 
d="M92 975l97 43l5 4q4 5 8 6q9 2 20 -12q150 -82 153 -84q11 -6 27.5 -13t27 -12.5t16.5 -11.5q0 -3 -0.5 -4.5t-2 -2.5t-3 -2.5t-5 -5.5t-7.5 -10q-4 -4 -11 -8q0 -1 -4 -5t-7 -8t-3 -7q-2 -1 -19 5.5t-20 8.5q-20 9 -48 18t-38 15l-46 19l-51 26zM404 800q2 0 31.5 2.5
t30.5 -1.5q3 -3 19.5 -1t20.5 2q10 0 10 -12q-5 -30 -5 -82q0 -3 -1 -4.5l-2 -3t-3.5 -2t-4 -0.5t-5 -0.5t-4.5 -0.5l-192 -2l-55 -4q-17 0 -18 -10q0 -5 0.5 -33.5t1 -62t0.5 -43.5v-40q0 -28 4 -32q7 -6 36 -3l49 3q15 2 62 2.5t50 0.5q19 3 20 -4v-35q0 -8 1 -21l1.5 -20
t-0.5 -14.5t-4.5 -11t-10.5 -3.5h-49.5h-40.5h-31.5h-24.5h-17.5t-13.5 -0.5t-8.5 -1t-5.5 -1.5l-4 -2q-5 -4 -6.5 -34.5t-0.5 -88.5l1 -58v-50q-1 -14 14.5 -16.5t90.5 -0.5l150 8q13 3 25.5 0.5t9.5 -18.5q-8 -37 -7 -53v-15.5t2 -18.5q2 -5 1 -9.5t-7 -4.5h-37
q-165 4 -328 -5q-1 0 -19 -2t-29 -0.5t-12 10.5q-1 10 0.5 30t1.5 26q2 2 2 154q3 1 0.5 17t-2.5 18q-3 80 -4 138.5t-1 85v33.5q-1 27 -1 176l-2 58q0 3 -2 17.5t-1.5 25t5.5 14.5q7 7 27 7q12 -2 112.5 -3.5t130.5 0.5h49z" />
    <glyph glyph-name="Eacute" unicode="&#xc9;" horiz-adv-x="565" 
d="M316 889q-10 -6 -38 -15t-48 -18q-3 -2 -20 -8.5t-19 -5.5q0 3 -3 7t-7 8t-4 5q-8 4 -11 8q-4 6 -7.5 10t-5 5.5t-3 2.5t-2 2.5t-0.5 4.5q6 6 16.5 11.5t27 12.5t27.5 13l153 84q11 14 20 12q3 0 5.5 -2t4.5 -4.5t3 -3.5l97 -43l-89 -41l-51 -26zM404 800q2 0 31.5 2.5
t30.5 -1.5q3 -3 19.5 -1t20.5 2q10 0 10 -12q-5 -30 -5 -82q0 -3 -1 -4.5l-2 -3t-3.5 -2t-4 -0.5t-5 -0.5t-4.5 -0.5l-192 -2l-55 -4q-17 0 -18 -10q0 -5 0.5 -33.5t1 -62t0.5 -43.5v-40q0 -28 4 -32q7 -6 36 -3l49 3q15 2 62 2.5t50 0.5q19 3 20 -4v-35q0 -8 1 -21l1.5 -20
t-0.5 -14.5t-4.5 -11t-10.5 -3.5h-49.5h-40.5h-31.5h-24.5h-17.5t-13.5 -0.5t-8.5 -1t-5.5 -1.5l-4 -2q-5 -4 -6.5 -34.5t-0.5 -88.5l1 -58v-50q-1 -14 14.5 -16.5t90.5 -0.5l150 8q13 3 25.5 0.5t9.5 -18.5q-8 -37 -7 -53v-15.5t2 -18.5q2 -5 1 -9.5t-7 -4.5h-37
q-165 4 -328 -5q-1 0 -19 -2t-29 -0.5t-12 10.5q-1 10 0.5 30t1.5 26q2 2 2 154q3 1 0.5 17t-2.5 18q-3 80 -4 138.5t-1 85v33.5q-1 27 -1 176l-2 58q0 3 -2 17.5t-1.5 25t5.5 14.5q7 7 27 7q12 -2 112.5 -3.5t130.5 0.5h49z" />
    <glyph glyph-name="Ecircumflex" unicode="&#xca;" horiz-adv-x="565" 
d="M290 1029q1 0 8 -5l15 -11t9 -6q12 -7 50 -38.5l70 -60.5l31 -28q0 -1 -10.5 -10.5l-23.5 -20.5l-18 -15l-131 99l-130 -99l-52 46q124 112 151 127zM404 800q2 0 31.5 2.5t30.5 -1.5q3 -3 19.5 -1t20.5 2q10 0 10 -12q-5 -30 -5 -82q0 -3 -1 -4.5l-2 -3t-3.5 -2t-4 -0.5
t-5 -0.5t-4.5 -0.5l-192 -2l-55 -4q-17 0 -18 -10q0 -5 0.5 -33.5t1 -62t0.5 -43.5v-40q0 -28 4 -32q7 -6 36 -3l49 3q15 2 62 2.5t50 0.5q19 3 20 -4v-35q0 -8 1 -21l1.5 -20t-0.5 -14.5t-4.5 -11t-10.5 -3.5h-49.5h-40.5h-31.5h-24.5h-17.5t-13.5 -0.5t-8.5 -1t-5.5 -1.5
l-4 -2q-5 -4 -6.5 -34.5t-0.5 -88.5l1 -58v-50q-1 -14 14.5 -16.5t90.5 -0.5l150 8q13 3 25.5 0.5t9.5 -18.5q-8 -37 -7 -53v-15.5t2 -18.5q2 -5 1 -9.5t-7 -4.5h-37q-165 4 -328 -5q-1 0 -19 -2t-29 -0.5t-12 10.5q-1 10 0.5 30t1.5 26q2 2 2 154q3 1 0.5 17t-2.5 18
q-3 80 -4 138.5t-1 85v33.5q-1 27 -1 176l-2 58q0 3 -2 17.5t-1.5 25t5.5 14.5q7 7 27 7q12 -2 112.5 -3.5t130.5 0.5h49z" />
    <glyph glyph-name="Edieresis" unicode="&#xcb;" horiz-adv-x="565" 
d="M166 1020q31 0 54.5 -19t27.5 -49q5 -32 -8 -59q-7 -12 -25.5 -23.5t-32.5 -12.5q-34 -1 -61.5 18.5t-28.5 53.5q-2 38 24 67q15 17 25 20q1 0 7.5 0.5t12 1.5t5.5 2zM405 1020q30 0 53.5 -19t27.5 -49q6 -32 -8 -59q-7 -13 -25 -24t-32 -12q-35 -1 -62 18.5t-28 53.5
q-2 40 23 67q18 18 26 20q1 0 7 0.5t11.5 1.5t6.5 2zM404 800q2 0 31.5 2.5t30.5 -1.5q3 -3 19.5 -1t20.5 2q10 0 10 -12q-5 -30 -5 -82q0 -3 -1 -4.5l-2 -3t-3.5 -2t-4 -0.5t-5 -0.5t-4.5 -0.5l-192 -2l-55 -4q-17 0 -18 -10q0 -5 0.5 -33.5t1 -62t0.5 -43.5v-40
q0 -28 4 -32q7 -6 36 -3l49 3q15 2 62 2.5t50 0.5q19 3 20 -4v-35q0 -8 1 -21l1.5 -20t-0.5 -14.5t-4.5 -11t-10.5 -3.5h-49.5h-40.5h-31.5h-24.5h-17.5t-13.5 -0.5t-8.5 -1t-5.5 -1.5l-4 -2q-5 -4 -6.5 -34.5t-0.5 -88.5l1 -58v-50q-1 -14 14.5 -16.5t90.5 -0.5l150 8
q13 3 25.5 0.5t9.5 -18.5q-8 -37 -7 -53v-15.5t2 -18.5q2 -5 1 -9.5t-7 -4.5h-37q-165 4 -328 -5q-1 0 -19 -2t-29 -0.5t-12 10.5q-1 10 0.5 30t1.5 26q2 2 2 154q3 1 0.5 17t-2.5 18q-3 80 -4 138.5t-1 85v33.5q-1 27 -1 176l-2 58q0 3 -2 17.5t-1.5 25t5.5 14.5q7 7 27 7
q12 -2 112.5 -3.5t130.5 0.5h49z" />
    <glyph glyph-name="Igrave" unicode="&#xcc;" horiz-adv-x="307" 
d="M-48 977l97 43q1 1 3 3.5t4.5 4.5t5.5 2q9 2 20 -12q150 -82 153 -84q11 -6 27.5 -13t27 -12.5t16.5 -11.5q0 -3 -0.5 -4.5t-2 -2.5t-3 -2.5t-5 -5.5t-7.5 -10l-11 -8q0 -1 -4 -5t-7 -8t-3 -7q-2 -1 -19 5.5t-20 8.5q-20 9 -48 18t-38 15l-46 19l-51 26zM225 31
q0 -2 1.5 -15t0.5 -16q-4 -3 -11 -1.5t-8 1.5q-14 -1 -59.5 -2t-60.5 2q-2 22 0 67q0 34 -2 167.5t0 180.5v23.5v23.5q1 27 0 77t-1 72l-3 153q0 1 -1 18t0 18q7 0 19.5 0.5t14.5 0.5q35 -1 106 1q0 -5 -1 -25.5t-1 -48.5l4 -84q0 -1 -0.5 -33.5t-0.5 -68.5v-69v-34
q3 -24 3 -213v-170v-25z" />
    <glyph glyph-name="Iacute" unicode="&#xcd;" horiz-adv-x="307" 
d="M176 891q-10 -6 -38 -15t-48 -18q-3 -2 -20 -8.5t-19 -5.5q0 3 -3 7t-7 8t-4 5q-8 5 -11 8q-4 6 -7.5 10t-5 5.5t-3 2.5t-2 2.5t-0.5 4.5q6 6 16.5 11.5t27 12.5t27.5 13l153 84q11 14 20 12q3 0 5.5 -2t4.5 -4.5t3 -3.5l97 -43l-89 -41l-51 -26zM225 31q0 -2 1.5 -15
t0.5 -16q-4 -3 -11 -1.5t-8 1.5q-14 -1 -59.5 -2t-60.5 2q-2 22 0 67q0 34 -2 167.5t0 180.5v23.5v23.5q1 27 0 77t-1 72l-3 153q0 1 -1 18t0 18q7 0 19.5 0.5t14.5 0.5q35 -1 106 1q0 -5 -1 -25.5t-1 -48.5l4 -84q0 -1 -0.5 -33.5t-0.5 -68.5v-69v-34q3 -24 3 -213v-170
v-25z" />
    <glyph glyph-name="Icircumflex" unicode="&#xce;" horiz-adv-x="307" 
d="M150 1031q1 0 8 -5l15 -11t9 -6q12 -7 49.5 -38.5l69.5 -60.5l32 -28q0 -1 -10.5 -10.5l-23.5 -20.5l-18 -15l-131 99l-130 -99l-53 46q125 112 152 127zM225 31q0 -2 1.5 -15t0.5 -16q-4 -3 -11 -1.5t-8 1.5q-14 -1 -59.5 -2t-60.5 2q-2 22 0 67q0 34 -2 167.5t0 180.5
v23.5v23.5q1 27 0 77t-1 72l-3 153q0 1 -1 18t0 18q7 0 19.5 0.5t14.5 0.5q35 -1 106 1q0 -5 -1 -25.5t-1 -48.5l4 -84q0 -1 -0.5 -33.5t-0.5 -68.5v-69v-34q3 -24 3 -213v-170v-25z" />
    <glyph glyph-name="Idieresis" unicode="&#xcf;" horiz-adv-x="307" 
d="M26 1022q31 0 54.5 -19t27.5 -49q5 -32 -8 -59q-7 -12 -25.5 -23.5t-32.5 -12.5q-34 -1 -61.5 18.5t-28.5 53.5q-2 38 24 67q15 17 25 20q1 0 7.5 0.5t12 1.5t5.5 2zM265 1022q30 0 53.5 -19t27.5 -49q6 -32 -8 -59q-7 -13 -25 -24t-32 -12q-35 -1 -62 18.5t-28 53.5
q-2 40 23 67q18 18 26 20q1 0 7 0.5t11.5 1.5t6.5 2zM225 31q0 -2 1.5 -15t0.5 -16q-4 -3 -11 -1.5t-8 1.5q-14 -1 -59.5 -2t-60.5 2q-2 22 0 67q0 34 -2 167.5t0 180.5v23.5v23.5q1 27 0 77t-1 72l-3 153q0 1 -1 18t0 18q7 0 19.5 0.5t14.5 0.5q35 -1 106 1q0 -5 -1 -25.5
t-1 -48.5l4 -84q0 -1 -0.5 -33.5t-0.5 -68.5v-69v-34q3 -24 3 -213v-170v-25z" />
    <glyph glyph-name="Eth" unicode="&#xd0;" horiz-adv-x="634" 
d="M89 223l1 -1q0 28 -2.5 82t-2.5 82v4h-39q-8 1 -40.5 2t-44.5 -1q-3 0 -9 -2t-9 -1q2 51 3 58q0 1 -0.5 5t-0.5 6q0 7 3.5 8.5t13.5 0.5q81 -4 122 -1h1q0 56 -1 84q0 38 -1 90t-2 91.5t-1 42.5q0 17 7.5 23.5t23.5 5.5q40 -4 135 -2q147 4 254 -110t102 -291
q-3 -92 -25.5 -164t-56 -115t-78.5 -71t-86.5 -38.5t-85.5 -10.5h-137q-32 -3 -38 0q-3 1 -4.5 4.5t-1.5 9.5v7v202zM232 136v1q0 -16 6 -22.5t22 -4.5q103 12 155.5 84t57.5 185q5 137 -61 226t-186 82q-5 -1 -6.5 -12.5t-0.5 -27t1 -18.5q-1 -15 1 -40.5t2 -35.5
q-1 -30 3 -90q52 -4 70 -3q40 7 51 2q4 -1 5 -3t0 -7l-1 -4q-2 -11 -2 -57q0 -3 -1 -4.5t-2.5 -2t-3.5 -0.5t-4 0.5t-4.5 1.5t-4.5 1q-13 1 -35.5 1.5t-29.5 0.5l-35 2l3 -192v-63z" />
    <glyph glyph-name="Ntilde" unicode="&#xd1;" horiz-adv-x="703" 
d="M480 970q-10 -21 -33.5 -37t-46.5 -9q-12 4 -30 22t-30 22q-101 38 -178 -78q31 -3 62 -20q2 4 7 13t9 14.5t10.5 11.5t13.5 7q29 6 69 -20.5t57 -29.5q33 -5 76 12q12 6 36.5 23t35.5 19q-9 10 -29.5 25.5t-28.5 24.5zM558 801q5 1 17.5 1t25 -0.5t12.5 -1.5q1 -3 -1 -6
t-2 -6q6 -60 6 -128q0 -29 -2 -85q-1 -29 1 -85t2 -79q0 -113 3 -289q-2 -43 1 -77q3 -30 0 -45h-38q-11 -2 -49.5 -2t-40.5 2q-7 22 -45 94l-80.5 148.5t-44.5 80.5q-3 4 -57 102t-59 110q-2 -9 -1 -19t1 -13q-1 -32 -1 -61.5t1 -83.5t1 -75q0 -20 2 -96t3.5 -122.5
t-0.5 -65.5q-14 -2 -66 0q-8 0 -20 1q-4 0 -14 -1t-18 -1t-12 2q-2 3 -1.5 17t0.5 17q-2 29 -1 44q5 97 1 329q-4 107 2 296v60l-1 11q-1 10 0.5 16.5t5.5 9.5q7 3 44.5 1.5t43.5 -1.5q31 1 40 0q18 -45 125.5 -246t131.5 -250q1 -2 3.5 -9.5t5.5 -12.5t7 -5q1 6 0.5 22
t-0.5 22l-3 187q-2 76 -2 190l3 73q0 5 -1 14.5t-1 14.5q12 -1 37 1h35z" />
    <glyph glyph-name="Ograve" unicode="&#xd2;" horiz-adv-x="827" 
d="M219 975l97 43q1 1 3 3.5t4.5 4.5t5.5 2q9 2 20 -12q150 -82 153 -84q11 -6 27.5 -13t27 -12.5t16.5 -11.5q0 -3 -0.5 -4.5t-2 -2.5t-3 -2.5t-5 -5.5t-7.5 -10q-3 -4 -11 -8q0 -1 -4 -5t-7 -8t-3 -7q-2 -1 -19 5.5t-20 8.5q-20 9 -48 18t-38 15l-46 19l-51 26zM474 804
q41 0 99.5 -28t84.5 -55q70 -64 100.5 -126.5t35.5 -151.5q5 -85 -18.5 -164.5t-71 -142.5t-124.5 -102t-171 -42q-53 -2 -101 12.5t-83 37.5t-65.5 56.5t-50 63.5t-35.5 63q-48 98 -41 212q5 72 39 141t62 101q39 40 96 73q77 37 126 48t118 4zM431 700q-52 5 -95 -13
t-70 -49.5t-45 -74t-25.5 -84t-6.5 -81.5q1 -64 31 -143q28 -72 88 -113t135 -39q55 2 97.5 37.5t65.5 88t32.5 109t4.5 103.5q-47 245 -212 259z" />
    <glyph glyph-name="Oacute" unicode="&#xd3;" horiz-adv-x="827" 
d="M443 889q-10 -6 -38 -15t-48 -18q-3 -2 -20 -8.5t-19 -5.5q0 3 -3 7t-7 8t-4 5q-8 4 -11 8q-4 6 -7.5 10t-5 5.5t-3 2.5t-2 2.5t-0.5 4.5q6 6 16.5 11.5t27 12.5t27.5 13l153 84q11 14 20 12q4 -1 9 -6l4 -4l97 -43l-89 -41l-51 -26zM474 804q41 0 99.5 -28t84.5 -55
q70 -64 100.5 -126.5t35.5 -151.5q5 -85 -18.5 -164.5t-71 -142.5t-124.5 -102t-171 -42q-53 -2 -101 12.5t-83 37.5t-65.5 56.5t-50 63.5t-35.5 63q-48 98 -41 212q5 72 39 141t62 101q39 40 96 73q77 37 126 48t118 4zM431 700q-52 5 -95 -13t-70 -49.5t-45 -74t-25.5 -84
t-6.5 -81.5q1 -64 31 -143q28 -72 88 -113t135 -39q55 2 97.5 37.5t65.5 88t32.5 109t4.5 103.5q-47 245 -212 259z" />
    <glyph glyph-name="Ocircumflex" unicode="&#xd4;" horiz-adv-x="827" 
d="M417 1029q1 0 8 -5l15 -11t9 -6q12 -7 49.5 -38.5l69.5 -60.5l32 -28q0 -1 -10.5 -10.5l-23.5 -20.5l-18 -15l-131 99l-130 -99l-52 46q124 112 151 127zM474 804q41 0 99.5 -28t84.5 -55q70 -64 100.5 -126.5t35.5 -151.5q5 -85 -18.5 -164.5t-71 -142.5t-124.5 -102
t-171 -42q-53 -2 -101 12.5t-83 37.5t-65.5 56.5t-50 63.5t-35.5 63q-48 98 -41 212q5 72 39 141t62 101q39 40 96 73q77 37 126 48t118 4zM431 700q-52 5 -95 -13t-70 -49.5t-45 -74t-25.5 -84t-6.5 -81.5q1 -64 31 -143q28 -72 88 -113t135 -39q55 2 97.5 37.5t65.5 88
t32.5 109t4.5 103.5q-47 245 -212 259z" />
    <glyph glyph-name="Otilde" unicode="&#xd5;" horiz-adv-x="827" 
d="M539 968q-10 -21 -33.5 -37t-46.5 -9q-12 4 -30 22t-30 22q-101 38 -178 -78q31 -3 62 -20q2 4 7 13t9 14.5t10.5 11.5t13.5 7q29 6 69 -20.5t57 -29.5q33 -5 76 12q12 6 36.5 23t35.5 19q-9 10 -29.5 25.5t-28.5 24.5zM474 804q41 0 99.5 -28t84.5 -55
q70 -64 100.5 -126.5t35.5 -151.5q5 -85 -18.5 -164.5t-71 -142.5t-124.5 -102t-171 -42q-53 -2 -101 12.5t-83 37.5t-65.5 56.5t-50 63.5t-35.5 63q-48 98 -41 212q5 72 39 141t62 101q39 40 96 73q77 37 126 48t118 4zM431 700q-52 5 -95 -13t-70 -49.5t-45 -74t-25.5 -84
t-6.5 -81.5q1 -64 31 -143q28 -72 88 -113t135 -39q55 2 97.5 37.5t65.5 88t32.5 109t4.5 103.5q-47 245 -212 259z" />
    <glyph glyph-name="Odieresis" unicode="&#xd6;" horiz-adv-x="827" 
d="M293 1020q31 0 54.5 -19t27.5 -49q5 -32 -8 -59q-7 -12 -25.5 -23.5t-32.5 -12.5q-34 -1 -61.5 18.5t-28.5 53.5q-2 38 24 67q15 17 25 20q1 0 7.5 0.5t12 1.5t5.5 2zM532 1020q30 0 53.5 -19t27.5 -49q6 -32 -8 -59q-7 -13 -25 -24t-32 -12q-35 -1 -62 18.5t-28 53.5
q-2 40 23 67q18 18 26 20q1 0 7 0.5t11.5 1.5t6.5 2zM474 804q41 0 99.5 -28t84.5 -55q70 -64 100.5 -126.5t35.5 -151.5q5 -85 -18.5 -164.5t-71 -142.5t-124.5 -102t-171 -42q-53 -2 -101 12.5t-83 37.5t-65.5 56.5t-50 63.5t-35.5 63q-48 98 -41 212q5 72 39 141t62 101
q39 40 96 73q77 37 126 48t118 4zM431 700q-52 5 -95 -13t-70 -49.5t-45 -74t-25.5 -84t-6.5 -81.5q1 -64 31 -143q28 -72 88 -113t135 -39q55 2 97.5 37.5t65.5 88t32.5 109t4.5 103.5q-47 245 -212 259z" />
    <glyph glyph-name="multiply" unicode="&#xd7;" horiz-adv-x="504" 
d="M152 507q-7 -12 -16 -21t-21 -18t-20 -17q1 -4 4 -8t7.5 -8.5l6.5 -6.5q77 -86 81 -91q-16 -18 -55.5 -51.5t-54.5 -49.5q14 -9 35 -27t36 -28q35 50 98 101q8 -8 44.5 -49t56.5 -60q14 11 32 33t32 34l-23 22.5t-26 26t-20.5 23.5t-20.5 28q11 15 43.5 47.5t44.5 50.5
q-16 11 -33.5 32t-24.5 28q-2 -5 -9.5 -11.5l-16.5 -14t-12 -10.5t-15.5 -18t-24.5 -28t-18 -16l-11 11l-13.5 14t-7.5 8q-6 6 -24 21.5t-32 29t-22 23.5z" />
    <glyph glyph-name="Oslash" unicode="&#xd8;" horiz-adv-x="827" 
d="M696 785l1 1q5 -1 -10.5 -24.5t-28.5 -38.5l1 -1q70 -64 100.5 -126.5t35.5 -151.5q5 -85 -18.5 -164.5t-71 -142.5t-124.5 -102t-171 -42q-93 -4 -168 40l-18 -31q-2 -4 -11 -18l-72 17l-7 7l29 40l19 29q-63 58 -107 148q-48 98 -41 212q5 72 39 141t62 101
q39 40 96 73q77 37 126 48t118 4q53 0 130 -45l27 45zM542 657h-1q-46 38 -110 44q-52 5 -95 -13t-70 -49.5t-45 -74t-25.5 -84t-6.5 -81.5q1 -64 31 -143q13 -34 35 -62l3 4l47 75l200 323zM443 104l1 -1q55 2 97.5 37.5t65.5 88t32.5 109t4.5 103.5q-19 100 -56 160
l-9 -16q-6 -13 -96.5 -155.5t-97.5 -155.5l-78 -131q61 -42 136 -39z" />
    <glyph glyph-name="Ugrave" unicode="&#xd9;" horiz-adv-x="734" 
d="M171 977l97 43q1 1 3 3.5t4.5 4.5t5.5 2q9 2 20 -12q150 -82 153 -84q11 -6 27.5 -13t27 -12.5t16.5 -11.5q0 -3 -0.5 -4.5t-2 -2.5t-3 -2.5t-5 -5.5t-7.5 -10q-3 -3 -11 -8q0 -1 -4 -5t-7 -8t-3 -7q-2 -1 -19 5.5t-20 8.5q-20 9 -48 18t-38 15l-46 19l-51 26zM664 243
q0 -92 -35.5 -144t-120.5 -86q-59 -24 -149 -22q-39 0 -71 7q-77 18 -129 61.5t-67 102.5q-5 16 -7 80q-2 105 -1 159q0 27 -2 82t-2 83l4 199q4 29 0 35q5 6 11 2t20 -2q45 4 110 1q2 -1 5 -21q0 -1 -3 -29q-2 -13 1 -82q0 -28 1 -153t0 -168q0 -122 15 -164
q16 -46 59.5 -66t93.5 -12q44 4 83.5 26.5t44.5 63.5q4 41 4 173t-3 164q-6 73 -3 269q7 -3 16.5 -0.5t16.5 2.5q38 2 72 -4q3 0 14 0.5t15.5 -2.5t3.5 -13q-2 -17 -2 -75z" />
    <glyph glyph-name="Uacute" unicode="&#xda;" horiz-adv-x="734" 
d="M395 891q-10 -6 -38 -15t-48 -18q-3 -2 -20 -8.5t-19 -5.5q0 3 -3 7t-7 8t-4 5l-11 8q-4 6 -7.5 10t-5 5.5t-3 2.5t-2 2.5t-0.5 4.5q6 6 16.5 11.5t27 12.5t27.5 13l153 84q11 14 20 12q4 -1 9 -6l4 -4l97 -43l-89 -41l-51 -26zM664 243q0 -92 -35.5 -144t-120.5 -86
q-59 -24 -149 -22q-39 0 -71 7q-77 18 -129 61.5t-67 102.5q-5 16 -7 80q-2 105 -1 159q0 27 -2 82t-2 83l4 199q4 29 0 35q5 6 11 2t20 -2q45 4 110 1q2 -1 5 -21q0 -1 -3 -29q-2 -13 1 -82q0 -28 1 -153t0 -168q0 -122 15 -164q16 -46 59.5 -66t93.5 -12q44 4 83.5 26.5
t44.5 63.5q4 41 4 173t-3 164q-6 73 -3 269q7 -3 16.5 -0.5t16.5 2.5q38 2 72 -4q3 0 14 0.5t15.5 -2.5t3.5 -13q-2 -17 -2 -75z" />
    <glyph glyph-name="Ucircumflex" unicode="&#xdb;" horiz-adv-x="734" 
d="M369 1031q1 0 8 -5l15 -11t9 -6q12 -7 50 -38.5t69 -60.5l32 -28q0 -1 -10.5 -10.5l-23.5 -20.5l-18 -15l-131 99l-130 -99l-52 46q124 112 151 127zM664 243q0 -92 -35.5 -144t-120.5 -86q-59 -24 -149 -22q-39 0 -71 7q-77 18 -129 61.5t-67 102.5q-5 16 -7 80
q-2 105 -1 159q0 27 -2 82t-2 83l4 199q4 29 0 35q5 6 11 2t20 -2q45 4 110 1q2 -1 5 -21q0 -1 -3 -29q-2 -13 1 -82q0 -28 1 -153t0 -168q0 -122 15 -164q16 -46 59.5 -66t93.5 -12q44 4 83.5 26.5t44.5 63.5q4 41 4 173t-3 164q-6 73 -3 269q7 -3 16.5 -0.5t16.5 2.5
q38 2 72 -4q3 0 14 0.5t15.5 -2.5t3.5 -13q-2 -17 -2 -75z" />
    <glyph glyph-name="Udieresis" unicode="&#xdc;" horiz-adv-x="734" 
d="M245 1022q31 0 54.5 -19t27.5 -49q5 -32 -8 -59q-7 -12 -25.5 -23.5t-32.5 -12.5q-34 -1 -61.5 18.5t-28.5 53.5q-2 38 24 67q15 17 25 20q1 0 7.5 0.5t12 1.5t5.5 2zM484 1022q30 0 53.5 -19t27.5 -49q6 -32 -8 -59q-7 -13 -25 -24t-32 -12q-35 -1 -62 18.5t-28 53.5
q-2 40 23 67q18 18 26 20q1 0 7 0.5t11.5 1.5t6.5 2zM664 243q0 -92 -35.5 -144t-120.5 -86q-59 -24 -149 -22q-39 0 -71 7q-77 18 -129 61.5t-67 102.5q-5 16 -7 80q-2 105 -1 159q0 27 -2 82t-2 83l4 199q4 29 0 35q5 6 11 2t20 -2q45 4 110 1q2 -1 5 -21q0 -1 -3 -29
q-2 -13 1 -82q0 -28 1 -153t0 -168q0 -122 15 -164q16 -46 59.5 -66t93.5 -12q44 4 83.5 26.5t44.5 63.5q4 41 4 173t-3 164q-6 73 -3 269q7 -3 16.5 -0.5t16.5 2.5q38 2 72 -4q3 0 14 0.5t15.5 -2.5t3.5 -13q-2 -17 -2 -75z" />
    <glyph glyph-name="Yacute" unicode="&#xdd;" horiz-adv-x="773" 
d="M418 889q-10 -6 -38 -15t-48 -18q-3 -2 -20 -8.5t-19 -5.5q0 3 -3 7t-7 8t-4 5q-8 4 -11 8q-4 6 -7.5 10t-5 5.5t-3 2.5t-2 2.5t-0.5 4.5q6 6 16.5 11.5t27 12.5t27.5 13l153 84q11 14 20 12q3 0 5.5 -2t4.5 -4.5t3 -3.5l97 -43l-89 -41l-51 -26zM588 734q3 11 15 37
t18 29h19q8 2 40.5 0t48.5 0q1 0 10.5 1.5t17.5 1.5t10 -3q1 -1 -7 -17.5l-17 -36t-11 -24.5q-119 -206 -134 -248q-24 -34 -72.5 -130t-55.5 -117q3 -24 3 -94l2 -76v-26q0 -3 1.5 -13.5t0.5 -13.5q-1 -4 -3 -4.5t-5.5 0t-5.5 0.5q-19 -2 -28 -1t-74 1q-23 -5 -23 2
q-2 22 0 66q0 38 -1 76t-1.5 60t-0.5 29l-136 234q-10 13 -33 51.5l-48.5 83.5l-49.5 89l-40 73l-16 28q-2 6 1.5 7.5t9 0t9.5 0.5h106q2 0 10 1t12.5 0.5t9 -3t5.5 -8.5q32 -65 103.5 -191.5t85.5 -142.5l40 -73q3 14 58 113.5t59 109.5z" />
    <glyph glyph-name="Thorn" unicode="&#xde;" horiz-adv-x="550" 
d="M222 522q22 -1 69 -1q20 0 38 -2t33 -6t27.5 -8t23.5 -10t18.5 -10.5t15.5 -11.5l11.5 -10t9.5 -9l5 -6q37 -34 44 -130q3 -30 -6.5 -67t-31 -72.5t-60.5 -61t-89 -27.5l-94 -3q-5 0 -8 3l-6 -3q0 -44 1 -67q1 -15 -4 -19.5t-20 -2.5q-4 0 -12 0.5t-12 0.5q-20 2 -46 2
t-36 -5q-6 0 -10 4.5t-2 10.5q1 3 1 36v84q0 112 -1 167v198q0 17 2 60.5t3 44.5q3 1 8 0.5t18 -0.5h22q54 2 88 2v-81zM226 410q-4 -23 -4.5 -61t0 -83.5t0.5 -60.5q-1 -16 44 -8q60 0 84 21.5t34 75.5q3 17 0 34q-2 29 -25.5 55t-54.5 28q-42 3 -78 -1z" />
    <glyph glyph-name="germandbls" unicode="&#xdf;" horiz-adv-x="577" 
d="M514 279q29 -55 29 -108q-2 -59 -37 -96q-15 -15 -27 -25.5t-23 -17.5l-10 -7q-4 -4 -43.5 -33t-56.5 -45q-15 22 -28.5 67t-20.5 60q11 11 56.5 38.5t54.5 48.5q8 29 -0.5 50.5t-33.5 48.5t-32 37q-10 14 -28.5 34.5t-25 36.5t-6.5 47q-2 23 3 42t18.5 46l15.5 31
q26 71 14 115t-57 46q-21 1 -39 -17.5t-26 -39.5q-10 -43 -9.5 -78.5t5 -97t3.5 -84.5q-2 -61 7 -182t4 -197q-97 -8 -150 0q-1 9 1 35.5t2 35.5q0 22 -5 181q0 21 0.5 64.5t-0.5 78t-4 67.5q-8 88 -5 126q0 51 20 93t51.5 67.5t67 40.5t69.5 17q43 0 82.5 -15.5t70 -46.5
t40.5 -78.5t-5 -110.5q-5 -17 -18 -45.5t-19 -51t-1 -42.5q1 -6 5 -12t10 -13t9 -13q9 -15 35.5 -46.5t36.5 -51.5z" />
    <glyph glyph-name="agrave" unicode="&#xe0;" horiz-adv-x="574" 
d="M116 775l97 43l5 4q4 5 8 6q9 2 20 -12q150 -82 153 -84q11 -6 27.5 -13t27 -12.5t16.5 -11.5q0 -3 -0.5 -4.5t-2 -2.5t-3 -2.5t-5 -5.5t-7.5 -10q-4 -4 -11 -8q0 -1 -4 -5t-7 -8t-3 -7q-2 -1 -19 5.5t-20 8.5q-20 9 -48 18t-38 15l-46 19l-51 26zM337 607q21 0 45 -6
t52 -19.5t48 -42.5t24 -69q3 -38 3 -63q0 -226 1 -294q2 -34 11 -49q0 -2 7.5 -14t7.5 -22q-10 -6 -105 -32l-7 -3.5t-9 -3.5t-8 0q-11 4 -26 43q-3 5 -40 -5.5t-68 -22.5q-90 -20 -120 -14q-46 8 -89 60q-36 36 -36 93q0 69 45 119q19 21 38.5 32.5t32.5 15t47 10.5
q60 12 72 13q27 1 62.5 8.5t46.5 18.5q16 16 18.5 54t-11.5 58q-24 35 -59 37q-47 3 -87 -37q-2 -3 -17 -33.5t-22 -33.5q-5 -5 -7 -2.5t-3 2.5q-9 0 -79 31q-2 1 -8.5 2.5t-8 2.5t-4.5 3.5t-2 6t4 9.5q13 26 44.5 58.5t51.5 47.5q27 19 55 28.5t46 11t54 1.5zM361 254
q-11 -7 -48 -7q-24 -1 -69 -11q-27 -7 -52 -25t-26 -39q-2 -27 6 -50t25 -29q27 -8 81.5 3t86.5 33q14 9 16 14v43q2 8 2 59q0 8 -2 10t-9.5 0.5t-10.5 -1.5z" />
    <glyph glyph-name="aacute" unicode="&#xe1;" horiz-adv-x="574" 
d="M340 689q-10 -6 -38 -15t-48 -18q-3 -2 -20 -8.5t-19 -5.5q0 3 -3 7t-7 8t-4 5q-7 4 -11 8q-4 6 -7.5 10t-5 5.5t-3 2.5t-2 2.5t-0.5 4.5q6 6 16.5 11.5t27 12.5t27.5 13l153 84q11 14 20 12q3 0 5.5 -2t4.5 -4.5t3 -3.5l97 -43l-89 -41l-51 -26zM337 607q21 0 45 -6
t52 -19.5t48 -42.5t24 -69q3 -38 3 -63q0 -226 1 -294q2 -34 11 -49q0 -2 7.5 -14t7.5 -22q-10 -6 -105 -32l-7 -3.5t-9 -3.5t-8 0q-11 4 -26 43q-3 5 -40 -5.5t-68 -22.5q-90 -20 -120 -14q-46 8 -89 60q-36 36 -36 93q0 69 45 119q19 21 38.5 32.5t32.5 15t47 10.5
q60 12 72 13q27 1 62.5 8.5t46.5 18.5q16 16 18.5 54t-11.5 58q-24 35 -59 37q-47 3 -87 -37q-2 -3 -17 -33.5t-22 -33.5q-5 -5 -7 -2.5t-3 2.5q-9 0 -79 31q-2 1 -8.5 2.5t-8 2.5t-4.5 3.5t-2 6t4 9.5q13 26 44.5 58.5t51.5 47.5q27 19 55 28.5t46 11t54 1.5zM361 254
q-11 -7 -48 -7q-24 -1 -69 -11q-27 -7 -52 -25t-26 -39q-2 -27 6 -50t25 -29q27 -8 81.5 3t86.5 33q14 9 16 14v43q2 8 2 59q0 8 -2 10t-9.5 0.5t-10.5 -1.5z" />
    <glyph glyph-name="acircumflex" unicode="&#xe2;" horiz-adv-x="574" 
d="M314 829q1 0 8 -5l15 -11t9 -6q12 -7 49.5 -38.5l69.5 -60.5l32 -28q0 -1 -10.5 -10.5l-23.5 -20.5l-18 -15l-131 99l-130 -99l-52 46q124 112 151 127zM337 607q21 0 45 -6t52 -19.5t48 -42.5t24 -69q3 -38 3 -63q0 -226 1 -294q2 -34 11 -49q0 -2 7.5 -14t7.5 -22
q-10 -6 -105 -32l-7 -3.5t-9 -3.5t-8 0q-11 4 -26 43q-3 5 -40 -5.5t-68 -22.5q-90 -20 -120 -14q-46 8 -89 60q-36 36 -36 93q0 69 45 119q19 21 38.5 32.5t32.5 15t47 10.5q60 12 72 13q27 1 62.5 8.5t46.5 18.5q16 16 18.5 54t-11.5 58q-24 35 -59 37q-47 3 -87 -37
q-2 -3 -17 -33.5t-22 -33.5q-5 -5 -7 -2.5t-3 2.5q-9 0 -79 31q-2 1 -8.5 2.5t-8 2.5t-4.5 3.5t-2 6t4 9.5q13 26 44.5 58.5t51.5 47.5q27 19 55 28.5t46 11t54 1.5zM361 254q-11 -7 -48 -7q-24 -1 -69 -11q-27 -7 -52 -25t-26 -39q-2 -27 6 -50t25 -29q27 -8 81.5 3
t86.5 33q14 9 16 14v43q2 8 2 59q0 8 -2 10t-9.5 0.5t-10.5 -1.5z" />
    <glyph glyph-name="atilde" unicode="&#xe3;" horiz-adv-x="574" 
d="M436 768q-10 -21 -33.5 -37t-46.5 -9q-12 4 -30 22t-30 22q-101 38 -178 -78q31 -3 62 -20q2 4 7 13t9 14.5t10.5 11.5t13.5 7q29 6 69 -20.5t57 -29.5q33 -5 76 12q12 6 36.5 23t35.5 19q-9 10 -29.5 25.5t-28.5 24.5zM337 607q21 0 45 -6t52 -19.5t48 -42.5t24 -69
q3 -38 3 -63q0 -226 1 -294q2 -34 11 -49q0 -2 7.5 -14t7.5 -22q-10 -6 -105 -32l-7 -3.5t-9 -3.5t-8 0q-11 4 -26 43q-3 5 -40 -5.5t-68 -22.5q-90 -20 -120 -14q-46 8 -89 60q-36 36 -36 93q0 69 45 119q19 21 38.5 32.5t32.5 15t47 10.5q60 12 72 13q27 1 62.5 8.5
t46.5 18.5q16 16 18.5 54t-11.5 58q-24 35 -59 37q-47 3 -87 -37q-2 -3 -17 -33.5t-22 -33.5q-5 -5 -7 -2.5t-3 2.5q-9 0 -79 31q-2 1 -8.5 2.5t-8 2.5t-4.5 3.5t-2 6t4 9.5q13 26 44.5 58.5t51.5 47.5q27 19 55 28.5t46 11t54 1.5zM361 254q-11 -7 -48 -7q-24 -1 -69 -11
q-27 -7 -52 -25t-26 -39q-2 -27 6 -50t25 -29q27 -8 81.5 3t86.5 33q14 9 16 14v43q2 8 2 59q0 8 -2 10t-9.5 0.5t-10.5 -1.5z" />
    <glyph glyph-name="adieresis" unicode="&#xe4;" horiz-adv-x="574" 
d="M190 820q31 0 54.5 -19t27.5 -49q5 -32 -8 -59q-7 -12 -25.5 -23.5t-32.5 -12.5q-34 -1 -61.5 18.5t-28.5 53.5q-2 38 24 67q15 17 25 20q1 0 7.5 0.5t12 1.5t5.5 2zM429 820q30 0 53.5 -19t27.5 -49q6 -32 -8 -59q-7 -13 -25 -24t-32 -12q-35 -1 -62 18.5t-28 53.5
q-2 40 23 67q18 18 26 20q1 0 7 0.5t11.5 1.5t6.5 2zM337 607q21 0 45 -6t52 -19.5t48 -42.5t24 -69q3 -38 3 -63q0 -226 1 -294q2 -34 11 -49q0 -2 7.5 -14t7.5 -22q-10 -6 -105 -32l-7 -3.5t-9 -3.5t-8 0q-11 4 -26 43q-3 5 -40 -5.5t-68 -22.5q-90 -20 -120 -14
q-46 8 -89 60q-36 36 -36 93q0 69 45 119q19 21 38.5 32.5t32.5 15t47 10.5q60 12 72 13q27 1 62.5 8.5t46.5 18.5q16 16 18.5 54t-11.5 58q-24 35 -59 37q-47 3 -87 -37q-2 -3 -17 -33.5t-22 -33.5q-5 -5 -7 -2.5t-3 2.5q-9 0 -79 31q-2 1 -8.5 2.5t-8 2.5t-4.5 3.5t-2 6
t4 9.5q13 26 44.5 58.5t51.5 47.5q27 19 55 28.5t46 11t54 1.5zM361 254q-11 -7 -48 -7q-24 -1 -69 -11q-27 -7 -52 -25t-26 -39q-2 -27 6 -50t25 -29q27 -8 81.5 3t86.5 33q14 9 16 14v43q2 8 2 59q0 8 -2 10t-9.5 0.5t-10.5 -1.5z" />
    <glyph glyph-name="aring" unicode="&#xe5;" horiz-adv-x="574" 
d="M317 851q-64 1 -94.5 -30t-23.5 -89q6 -33 33.5 -57t61.5 -31t69 6t54 47q23 43 6 87q-10 28 -41.5 47t-64.5 20zM279 789q3 5 12 7.5t16 8.5q15 7 37 -9t26 -28q8 -22 -1.5 -42t-26.5 -29t-37 -5.5t-31 23.5q-8 10 -8 36t13 38zM337 607q21 0 45 -6t52 -19.5t48 -42.5
t24 -69q3 -38 3 -63q0 -226 1 -294q2 -34 11 -49q0 -2 7.5 -14t7.5 -22q-10 -6 -105 -32l-7 -3.5t-9 -3.5t-8 0q-11 4 -26 43q-3 5 -40 -5.5t-68 -22.5q-90 -20 -120 -14q-46 8 -89 60q-36 36 -36 93q0 69 45 119q19 21 38.5 32.5t32.5 15t47 10.5q60 12 72 13
q27 1 62.5 8.5t46.5 18.5q16 16 18.5 54t-11.5 58q-24 35 -59 37q-47 3 -87 -37q-2 -3 -17 -33.5t-22 -33.5q-5 -5 -7 -2.5t-3 2.5q-9 0 -79 31q-2 1 -8.5 2.5t-8 2.5t-4.5 3.5t-2 6t4 9.5q13 26 44.5 58.5t51.5 47.5q27 19 55 28.5t46 11t54 1.5zM361 254q-11 -7 -48 -7
q-24 -1 -69 -11q-27 -7 -52 -25t-26 -39q-2 -27 6 -50t25 -29q27 -8 81.5 3t86.5 33q14 9 16 14v43q2 8 2 59q0 8 -2 10t-9.5 0.5t-10.5 -1.5z" />
    <glyph glyph-name="ae" unicode="&#xe6;" horiz-adv-x="952" 
d="M478 542l2 -1q69 62 157 66q57 0 95 -11t79 -40q27 -27 39.5 -42t29 -50.5t27.5 -84.5l9 -82q-2 -2 -6 -3t-9.5 -1h-6.5q-75 -8 -308 -8q-66 6 -76 -9q0 -50 5 -66q27 -94 124 -106q31 -4 64.5 10.5t56.5 38.5q3 3 14 21.5t14 21.5q1 1 14.5 -4.5l31 -12.5t25.5 -9
q1 0 6.5 -1l11.5 -2t12 -2.5t10.5 -3.5t4.5 -4q1 -6 -2.5 -13.5t-11 -18.5t-8.5 -13q-27 -55 -87 -87t-107 -36q-25 -1 -73 3t-68 13q-50 24 -76 48q-15 -2 -57 -12.5t-76 -20.5l-35 -9q-5 0 -14.5 -3t-15.5 -4q-16 -3 -37 -6.5l-29.5 -5t-20 -3t-18.5 -1t-15 1.5
q-13 2 -32 12q-7 4 -12.5 6.5t-10.5 6.5t-7.5 5.5t-7 6.5t-5.5 6t-6.5 8t-7.5 9q-36 36 -36 93q0 69 45 119q19 21 38.5 32.5t32.5 15t47 10.5q60 12 72 13q27 1 62.5 8.5t46.5 18.5q16 16 18.5 54t-11.5 58q-24 35 -59 37q-47 3 -87 -37q-7 -8 -20 -39q-2 -5 -8.5 -15.5
t-10.5 -12.5q-5 -5 -5 -2.5t-5 2.5q0 2 -17 8.5l-38 14t-24 8.5q-2 1 -8.5 2.5t-8 2.5t-4.5 3.5t-2 6t4 9.5q13 26 44.5 58.5t51.5 47.5q39 28 72 35t83 7q90 0 141 -66zM548 460q-15 -17 -28.5 -46.5t-5.5 -41.5q1 -1 165 -1q18 1 38 1t43 -0.5t34 -0.5q-3 22 -18.5 52.5
t-28.5 45.5q-34 34 -107 34q-22 0 -51.5 -15.5t-40.5 -27.5zM385 244q0 8 -2 10t-9.5 0.5t-10.5 -1.5q-11 -7 -48 -7q-24 -1 -69 -11q-27 -7 -52 -25t-26 -39q-2 -27 6 -50t25 -29q27 -8 81.5 3t86.5 33q1 1 8.5 4.5t13.5 7t7 6.5z" />
    <glyph glyph-name="ccedilla" unicode="&#xe7;" horiz-adv-x="584" 
d="M543 137v-1q-37 -67 -87.5 -102.5t-134.5 -42.5q-3 -15 -3 -16q24 -5 39.5 -21.5t18.5 -38.5t-2 -43.5t-20.5 -38.5t-37.5 -21q-44 -8 -85 27q-28 28 -23 44q1 5 4 7t9 4.5t8 3.5q10 -18 36 -29.5t41 8.5q16 33 -8 52.5t-58 16.5q1 7 3.5 21.5t3.5 24.5
q-105 12 -159.5 110t-44.5 227q9 119 88 198.5t187 79.5q10 0 21 -0.5t40.5 -7t55 -18.5t55 -39.5t48.5 -65.5q0 -1 5 -8t4 -11q0 -2 -5 -3.5t-12 -2.5t-8 -1l-77 -22q-26 -9 -28 -2q-13 45 -49 62.5t-76 15.5q-55 -2 -85 -65t-30 -126q0 -57 11 -103t41 -78.5t75 -32.5
q60 0 112 82q9 0 93 -29z" />
    <glyph glyph-name="egrave" unicode="&#xe8;" horiz-adv-x="622" 
d="M122 775l97 43l5 4q4 5 8 6q9 2 20 -12q150 -82 153 -84q11 -6 27.5 -13t27 -12.5t16.5 -11.5q0 -3 -0.5 -4.5t-2 -2.5t-3 -2.5t-5 -5.5t-7.5 -10q-4 -4 -11 -8q0 -1 -4 -5t-7 -8t-3 -7q-2 -1 -19 5.5t-20 8.5q-20 9 -48 18t-38 15l-46 19l-51 26zM306 607q57 0 95 -11
t79 -40q27 -27 39.5 -42t29 -50.5t27.5 -84.5l9 -82q-2 -2 -6 -3t-9.5 -1h-6.5q-75 -8 -308 -8q-77 6 -77 -13q0 -42 6 -62q27 -94 124 -106q97 -11 143 96q1 2 16 -4.5l34 -15t27 -10.5q1 0 6.5 -1l11.5 -2t12 -2.5t10.5 -3.5t4.5 -4q1 -6 -2.5 -13.5t-11 -18.5t-8.5 -13
q-18 -36 -50 -62.5t-68 -39t-65 -18t-53 -5.5q-51 0 -81 9.5t-74 40.5q-62 46 -84.5 89t-31.5 118q-13 106 29 195q34 71 92.5 118t140.5 50zM447 372q-3 21 -19 50.5t-30 45.5q-36 36 -90 36q-24 0 -53.5 -15t-35.5 -28q0 -1 -6.5 -12l-11 -19t-11 -21.5t-6.5 -20.5t2 -15
q1 -1 161 -1q19 1 29 0h71z" />
    <glyph glyph-name="eacute" unicode="&#xe9;" horiz-adv-x="622" 
d="M346 689q-10 -6 -38 -15t-48 -18q-3 -2 -20 -8.5t-19 -5.5q0 3 -3 7t-7 8t-4 5q-8 4 -11 8q-4 6 -7.5 10t-5 5.5t-3 2.5t-2 2.5t-0.5 4.5q6 6 16.5 11.5t27 12.5t27.5 13l153 84q11 14 20 12q3 0 5.5 -2t4.5 -4.5t3 -3.5l97 -43l-89 -41l-51 -26zM306 607q57 0 95 -11
t79 -40q27 -27 39.5 -42t29 -50.5t27.5 -84.5l9 -82q-2 -2 -6 -3t-9.5 -1h-6.5q-75 -8 -308 -8q-77 6 -77 -13q0 -42 6 -62q27 -94 124 -106q97 -11 143 96q1 2 16 -4.5l34 -15t27 -10.5q1 0 6.5 -1l11.5 -2t12 -2.5t10.5 -3.5t4.5 -4q1 -6 -2.5 -13.5t-11 -18.5t-8.5 -13
q-18 -36 -50 -62.5t-68 -39t-65 -18t-53 -5.5q-51 0 -81 9.5t-74 40.5q-62 46 -84.5 89t-31.5 118q-13 106 29 195q34 71 92.5 118t140.5 50zM447 372q-3 21 -19 50.5t-30 45.5q-36 36 -90 36q-24 0 -53.5 -15t-35.5 -28q0 -1 -6.5 -12l-11 -19t-11 -21.5t-6.5 -20.5t2 -15
q1 -1 161 -1q19 1 29 0h71z" />
    <glyph glyph-name="ecircumflex" unicode="&#xea;" horiz-adv-x="622" 
d="M320 829q1 0 8 -5l15 -11t9 -6q12 -7 49.5 -38.5l69.5 -60.5l32 -28q0 -1 -10.5 -10.5l-23.5 -20.5l-18 -15l-131 99l-130 -99l-52 46q124 112 151 127zM306 607q57 0 95 -11t79 -40q27 -27 39.5 -42t29 -50.5t27.5 -84.5l9 -82q-2 -2 -6 -3t-9.5 -1h-6.5q-75 -8 -308 -8
q-77 6 -77 -13q0 -42 6 -62q27 -94 124 -106q97 -11 143 96q1 2 16 -4.5l34 -15t27 -10.5q1 0 6.5 -1l11.5 -2t12 -2.5t10.5 -3.5t4.5 -4q1 -6 -2.5 -13.5t-11 -18.5t-8.5 -13q-18 -36 -50 -62.5t-68 -39t-65 -18t-53 -5.5q-51 0 -81 9.5t-74 40.5q-62 46 -84.5 89
t-31.5 118q-13 106 29 195q34 71 92.5 118t140.5 50zM447 372q-3 21 -19 50.5t-30 45.5q-36 36 -90 36q-24 0 -53.5 -15t-35.5 -28q0 -1 -6.5 -12l-11 -19t-11 -21.5t-6.5 -20.5t2 -15q1 -1 161 -1q19 1 29 0h71z" />
    <glyph glyph-name="edieresis" unicode="&#xeb;" horiz-adv-x="622" 
d="M196 820q31 0 54.5 -19t27.5 -49q5 -32 -8 -59q-7 -12 -25.5 -23.5t-32.5 -12.5q-34 -1 -61.5 18.5t-28.5 53.5q-2 38 24 67q15 17 25 20q1 0 7.5 0.5t12 1.5t5.5 2zM435 820q30 0 53.5 -19t27.5 -49q6 -32 -8 -59q-7 -13 -25 -24t-32 -12q-35 -1 -62 18.5t-28 53.5
q-2 40 23 67q18 18 26 20q1 0 7 0.5t11.5 1.5t6.5 2zM306 607q57 0 95 -11t79 -40q27 -27 39.5 -42t29 -50.5t27.5 -84.5l9 -82q-2 -2 -6 -3t-9.5 -1h-6.5q-75 -8 -308 -8q-77 6 -77 -13q0 -42 6 -62q27 -94 124 -106q97 -11 143 96q1 2 16 -4.5l34 -15t27 -10.5q1 0 6.5 -1
l11.5 -2t12 -2.5t10.5 -3.5t4.5 -4q1 -6 -2.5 -13.5t-11 -18.5t-8.5 -13q-18 -36 -50 -62.5t-68 -39t-65 -18t-53 -5.5q-51 0 -81 9.5t-74 40.5q-62 46 -84.5 89t-31.5 118q-13 106 29 195q34 71 92.5 118t140.5 50zM447 372q-3 21 -19 50.5t-30 45.5q-36 36 -90 36
q-24 0 -53.5 -15t-35.5 -28q0 -1 -6.5 -12l-11 -19t-11 -21.5t-6.5 -20.5t2 -15q1 -1 161 -1q19 1 29 0h71z" />
    <glyph glyph-name="igrave" unicode="&#xec;" horiz-adv-x="284" 
d="M-57 777l97 43q1 1 3 3.5t4.5 4.5t5.5 2q9 2 20 -12q150 -82 153 -84q11 -6 27.5 -13t27 -12.5t16.5 -11.5q0 -3 -0.5 -4.5t-2 -2.5t-3 -2.5t-5 -5.5t-7.5 -10q-3 -4 -11 -8q0 -1 -4 -5t-7 -8t-3 -7q-2 -1 -19 5.5t-20 8.5q-20 9 -48 18t-38 15l-46 19l-51 26zM213 38
l2 -34q-1 -7 -4 -7q-4 1 -22 0t-22 0l-7 1q-6 0 -15.5 1t-15.5 1q-2 0 -15.5 -2t-24.5 -2t-16 4q0 1 1 8.5t2 23.5t2 35q0 60 -1 90q0 134 2 172q1 36 -4 162q-1 12 -0.5 41t-1.5 42q0 1 -1.5 6t-2 8.5t0 7.5t3.5 6t19 -1q19 -3 41.5 0.5t36.5 0.5q5 -1 20.5 -0.5t19.5 -1.5
q0 -15 -2 -85.5t0 -84.5v-312q0 -12 3 -39t2 -41z" />
    <glyph glyph-name="iacute" unicode="&#xed;" horiz-adv-x="284" 
d="M167 691q-10 -6 -38 -15t-48 -18q-3 -2 -20 -8.5t-19 -5.5q0 3 -3 7t-7 8t-4 5q-7 4 -11 8q-4 6 -7.5 10t-5 5.5t-3 2.5t-2 2.5t-0.5 4.5q6 6 16.5 11.5t27 12.5t27.5 13l153 84q11 14 20 12q4 -1 9 -6l4 -4l97 -43l-89 -41l-51 -26zM213 38l2 -34q-1 -7 -4 -7
q-4 1 -22 0t-22 0l-7 1q-6 0 -15.5 1t-15.5 1q-2 0 -15.5 -2t-24.5 -2t-16 4q0 1 1 8.5t2 23.5t2 35q0 60 -1 90q0 134 2 172q1 36 -4 162q-1 12 -0.5 41t-1.5 42q0 1 -1.5 6t-2 8.5t0 7.5t3.5 6t19 -1q19 -3 41.5 0.5t36.5 0.5q5 -1 20.5 -0.5t19.5 -1.5q0 -15 -2 -85.5
t0 -84.5v-312q0 -12 3 -39t2 -41z" />
    <glyph glyph-name="icircumflex" unicode="&#xee;" horiz-adv-x="284" 
d="M141 831q1 0 8 -5l15 -11t9 -6q12 -7 49.5 -38.5l69.5 -60.5l32 -28q0 -1 -10.5 -10.5l-23.5 -20.5l-18 -15l-131 99l-130 -99l-53 46q125 112 152 127zM213 38l2 -34q-1 -7 -4 -7q-4 1 -22 0t-22 0l-7 1q-6 0 -15.5 1t-15.5 1q-2 0 -15.5 -2t-24.5 -2t-16 4q0 1 1 8.5
t2 23.5t2 35q0 60 -1 90q0 134 2 172q1 36 -4 162q-1 12 -0.5 41t-1.5 42q0 1 -1.5 6t-2 8.5t0 7.5t3.5 6t19 -1q19 -3 41.5 0.5t36.5 0.5q5 -1 20.5 -0.5t19.5 -1.5q0 -15 -2 -85.5t0 -84.5v-312q0 -12 3 -39t2 -41z" />
    <glyph glyph-name="idieresis" unicode="&#xef;" horiz-adv-x="284" 
d="M91 695q-7 -12 -25.5 -23.5t-32.5 -12.5q-34 -1 -61.5 18.5t-28.5 53.5q-2 38 24 67q15 17 25 20q1 0 7.5 0.5t12 1.5t5.5 2q31 0 54.5 -19t27.5 -49q5 -32 -8 -59zM337 754q6 -32 -8 -59q-7 -13 -25 -24t-32 -12q-35 -1 -62 18.5t-28 53.5q-2 40 23 67q18 18 26 20
q1 0 7 0.5t11.5 1.5t6.5 2q30 0 53.5 -19t27.5 -49zM213 38l2 -34q-1 -7 -4 -7q-4 1 -22 0t-22 0l-7 1q-6 0 -15.5 1t-15.5 1q-2 0 -15.5 -2t-24.5 -2t-16 4q0 1 1 8.5t2 23.5t2 35q0 60 -1 90q0 134 2 172q1 36 -4 162q-1 12 -0.5 41t-1.5 42q0 1 -1.5 6t-2 8.5t0 7.5
t3.5 6t19 -1q19 -3 41.5 0.5t36.5 0.5q5 -1 20.5 -0.5t19.5 -1.5q0 -15 -2 -85.5t0 -84.5v-312q0 -12 3 -39t2 -41z" />
    <glyph glyph-name="eth" unicode="&#xf0;" horiz-adv-x="623" 
d="M464 725q53 -43 76 -95q28 -64 38 -192.5t2 -181.5q-8 -50 -24 -91t-34 -67.5t-42.5 -47t-44 -31t-45 -18t-39 -9.5t-31.5 -4q-32 -3 -71.5 2.5t-62.5 19.5q-7 4 -29 20l-1 1l-1 1l-1 1l-1 1l-2 1q-41 39 -51 55q-3 5 -11 20l-15 28q-10 26 -16.5 45t-9.5 34t-4 23
t-1.5 24.5t-1.5 24.5q-8 91 31.5 162.5t110.5 115.5q59 39 120 39q5 1 38 -2.5t52 -9.5q25 -6 47 -17q2 34 -30 73q-6 8 -39 31l-104 -48l-26 55q25 16 61 33q-45 20 -79 26l41 63q72 -10 138 -45q70 30 94 42l43 -47zM318 501q-31 0 -50.5 -7.5t-29 -16.5t-31.5 -36
q-17 -20 -26.5 -64.5t-8.5 -77.5q0 -30 7.5 -62t23 -64.5t45 -53.5t69.5 -21q56 0 97 58.5t41 137.5q0 39 -7 73.5t-21.5 66t-42.5 49.5t-66 18z" />
    <glyph glyph-name="ntilde" unicode="&#xf1;" horiz-adv-x="622" 
d="M459 770q-10 -21 -33.5 -37t-46.5 -9q-12 4 -30 22t-30 22q-101 38 -178 -78q31 -3 62 -20q2 4 7 13t9 14.5t10.5 11.5t13.5 7q29 6 69 -20.5t57 -29.5q33 -5 76 12q12 6 36.5 23t35.5 19q-9 10 -29.5 25.5t-28.5 24.5zM567 141q-3 -78 -1 -94v-9.5v-12.5v-10
q1 -15 -9 -17.5t-23 0.5h-33t-33 1q-18 -2 -25 0.5t-6 10.5q2 27 -3 157v126t-4 140q0 24 -22.5 47t-52.5 23q-57 0 -101 -42.5t-53 -110.5q-4 -26 -4 -195q0 -13 -1 -39.5t-1 -48t2 -40.5q0 -1 0.5 -5t0.5 -7.5v-7.5t-1.5 -6.5t-4.5 -2.5q-7 -1 -20 0t-17 1q-9 -1 -52 1
q-19 2 -32 -3q-7 -2 -7 17q1 2 0.5 118t-0.5 141q0 4 -1.5 128t-1.5 150q0 45 2 49q5 2 18 1q37 0 44 -1q7 0 20.5 2t23 1.5t20.5 -3.5q4 -1 5 -7t1 -14.5v-9.5q2 -10 3.5 -28t2.5 -23q11 5 28 22l20 20q17 17 46 30.5t58 14.5q40 2 86.5 -11.5t84 -48.5t37.5 -82
q0 -80 3.5 -182t2.5 -140z" />
    <glyph glyph-name="ograve" unicode="&#xf2;" horiz-adv-x="624" 
d="M116 775l97 43l5 4q4 5 8 6q9 2 20 -12q150 -82 153 -84q11 -6 27.5 -13t27 -12.5t16.5 -11.5q0 -3 -0.5 -4.5t-2 -2.5t-3 -2.5t-5 -5.5t-7.5 -10q-4 -4 -11 -8q0 -1 -4 -5t-7 -8t-3 -7q-2 -1 -19 5.5t-20 8.5q-20 9 -48 18t-38 15l-46 19l-51 26zM303 606q5 1 38 -2.5
t52 -9.5q70 -16 117.5 -72t64 -126.5t5.5 -139.5q-8 -50 -24 -91t-34 -67.5t-42.5 -47t-44 -31t-45 -18t-39 -9.5t-31.5 -4q-32 -3 -71.5 2.5t-62.5 19.5q-7 4 -29 20l-1 1l-1 1l-1 1l-1 1l-2 1q-41 39 -51 55q-3 5 -11 20l-15 28q-10 26 -16.5 45t-9.5 34t-4 23t-1.5 24.5
t-1.5 24.5q-8 91 31.5 162.5t110.5 115.5q59 39 120 39zM318 501q-31 0 -50.5 -7.5t-29 -16.5t-31.5 -36q-17 -20 -26.5 -64.5t-8.5 -77.5q0 -30 7.5 -62t23 -64.5t45 -53.5t69.5 -21q56 0 97 58.5t41 137.5q0 39 -7 73.5t-21.5 66t-42.5 49.5t-66 18z" />
    <glyph glyph-name="oacute" unicode="&#xf3;" horiz-adv-x="624" 
d="M340 689q-10 -6 -38 -15t-48 -18q-3 -2 -20 -8.5t-19 -5.5q0 3 -3 7t-7 8t-4 5q-7 4 -11 8q-4 6 -7.5 10t-5 5.5t-3 2.5t-2 2.5t-0.5 4.5q6 6 16.5 11.5t27 12.5t27.5 13l153 84q11 14 20 12q3 0 5.5 -2t4.5 -4.5t3 -3.5l97 -43l-89 -41l-51 -26zM303 606q5 1 38 -2.5
t52 -9.5q70 -16 117.5 -72t64 -126.5t5.5 -139.5q-8 -50 -24 -91t-34 -67.5t-42.5 -47t-44 -31t-45 -18t-39 -9.5t-31.5 -4q-32 -3 -71.5 2.5t-62.5 19.5q-7 4 -29 20l-1 1l-1 1l-1 1l-1 1l-2 1q-41 39 -51 55q-3 5 -11 20l-15 28q-10 26 -16.5 45t-9.5 34t-4 23t-1.5 24.5
t-1.5 24.5q-8 91 31.5 162.5t110.5 115.5q59 39 120 39zM318 501q-31 0 -50.5 -7.5t-29 -16.5t-31.5 -36q-17 -20 -26.5 -64.5t-8.5 -77.5q0 -30 7.5 -62t23 -64.5t45 -53.5t69.5 -21q56 0 97 58.5t41 137.5q0 39 -7 73.5t-21.5 66t-42.5 49.5t-66 18z" />
    <glyph glyph-name="ocircumflex" unicode="&#xf4;" horiz-adv-x="624" 
d="M314 829q1 0 8 -5l15 -11t9 -6q12 -7 49.5 -38.5l69.5 -60.5l32 -28q0 -1 -10.5 -10.5l-23.5 -20.5l-18 -15l-131 99l-130 -99l-52 46q124 112 151 127zM303 606q5 1 38 -2.5t52 -9.5q70 -16 117.5 -72t64 -126.5t5.5 -139.5q-8 -50 -24 -91t-34 -67.5t-42.5 -47t-44 -31
t-45 -18t-39 -9.5t-31.5 -4q-32 -3 -71.5 2.5t-62.5 19.5q-7 4 -29 20l-1 1l-1 1l-1 1l-1 1l-2 1q-41 39 -51 55q-3 5 -11 20l-15 28q-10 26 -16.5 45t-9.5 34t-4 23t-1.5 24.5t-1.5 24.5q-8 91 31.5 162.5t110.5 115.5q59 39 120 39zM318 501q-31 0 -50.5 -7.5t-29 -16.5
t-31.5 -36q-17 -20 -26.5 -64.5t-8.5 -77.5q0 -30 7.5 -62t23 -64.5t45 -53.5t69.5 -21q56 0 97 58.5t41 137.5q0 39 -7 73.5t-21.5 66t-42.5 49.5t-66 18z" />
    <glyph glyph-name="otilde" unicode="&#xf5;" horiz-adv-x="624" 
d="M436 768q-10 -21 -33.5 -37t-46.5 -9q-12 4 -30 22t-30 22q-101 38 -178 -78q31 -3 62 -20q2 4 7 13t9 14.5t10.5 11.5t13.5 7q29 6 69 -20.5t57 -29.5q33 -5 76 12q12 6 36.5 23t35.5 19q-9 10 -29.5 25.5t-28.5 24.5zM303 606q5 1 38 -2.5t52 -9.5q70 -16 117.5 -72
t64 -126.5t5.5 -139.5q-8 -50 -24 -91t-34 -67.5t-42.5 -47t-44 -31t-45 -18t-39 -9.5t-31.5 -4q-32 -3 -71.5 2.5t-62.5 19.5q-7 4 -29 20l-1 1l-1 1l-1 1l-1 1l-2 1q-41 39 -51 55q-3 5 -11 20l-15 28q-10 26 -16.5 45t-9.5 34t-4 23t-1.5 24.5t-1.5 24.5
q-8 91 31.5 162.5t110.5 115.5q59 39 120 39zM318 501q-31 0 -50.5 -7.5t-29 -16.5t-31.5 -36q-17 -20 -26.5 -64.5t-8.5 -77.5q0 -30 7.5 -62t23 -64.5t45 -53.5t69.5 -21q56 0 97 58.5t41 137.5q0 39 -7 73.5t-21.5 66t-42.5 49.5t-66 18z" />
    <glyph glyph-name="odieresis" unicode="&#xf6;" horiz-adv-x="624" 
d="M190 820q31 0 54.5 -19t27.5 -49q5 -32 -8 -59q-7 -12 -25.5 -23.5t-32.5 -12.5q-34 -1 -61.5 18.5t-28.5 53.5q-2 38 24 67q15 17 25 20q1 0 7.5 0.5t12 1.5t5.5 2zM429 820q30 0 53.5 -19t27.5 -49q6 -32 -8 -59q-7 -13 -25 -24t-32 -12q-35 -1 -62 18.5t-28 53.5
q-2 40 23 67q18 18 26 20q1 0 7 0.5t11.5 1.5t6.5 2zM303 606q5 1 38 -2.5t52 -9.5q70 -16 117.5 -72t64 -126.5t5.5 -139.5q-8 -50 -24 -91t-34 -67.5t-42.5 -47t-44 -31t-45 -18t-39 -9.5t-31.5 -4q-32 -3 -71.5 2.5t-62.5 19.5q-7 4 -29 20l-1 1l-1 1l-1 1l-1 1l-2 1
q-41 39 -51 55q-3 5 -11 20l-15 28q-10 26 -16.5 45t-9.5 34t-4 23t-1.5 24.5t-1.5 24.5q-8 91 31.5 162.5t110.5 115.5q59 39 120 39zM318 501q-31 0 -50.5 -7.5t-29 -16.5t-31.5 -36q-17 -20 -26.5 -64.5t-8.5 -77.5q0 -30 7.5 -62t23 -64.5t45 -53.5t69.5 -21
q56 0 97 58.5t41 137.5q0 39 -7 73.5t-21.5 66t-42.5 49.5t-66 18z" />
    <glyph glyph-name="divide" unicode="&#xf7;" horiz-adv-x="689" 
d="M346 434q-34 0 -57.5 26t-23.5 51q0 24 17 47q12 19 27 25t39 7q43 1 61.5 -24t18.5 -57q0 -26 -23.5 -50.5t-58.5 -24.5zM604 354q4 -1 5 -4.5t0 -9.5t-1 -7q-2 -15 -2 -70q0 -6 -2.5 -8t-5 -2t-8 2t-7.5 2q-15 2 -73 2.5t-62 0.5q-46 4 -99.5 4t-96.5 -1.5t-53 -1.5
q-14 4 -119 -4q3 27 3 89q0 10 3.5 12t15.5 1q5 0 21 -2t25 -2q74 0 95 2q44 4 68 3q137 -12 174 -8q15 2 62 3.5t57 -1.5zM80 257v-1v1zM348 194q43 1 61.5 -24t18.5 -57q0 -26 -23.5 -50.5t-58.5 -24.5q-34 0 -57.5 26t-23.5 51q0 24 17 47q12 19 27 25t39 7z" />
    <glyph glyph-name="oslash" unicode="&#xf8;" horiz-adv-x="614" 
d="M509 575v1q-4 -2 -19 -33q55 -50 78.5 -129.5t11.5 -157.5q-8 -50 -24 -91t-34 -67.5t-42.5 -47t-44 -31t-45 -18t-39 -9.5t-31.5 -4q-32 -3 -71.5 2.5t-62.5 19.5l-6 4q-18 -29 -22 -37q-2 -4 -9.5 -9.5t-9.5 -7.5l-41 21l-13 9q-1 3 2 9.5t8 15.5t7 13l21 34
q-9 8 -14.5 15.5t-8 11.5t-11 20.5t-15.5 28.5q-10 26 -16.5 45t-9.5 34t-4 23t-1.5 24.5t-1.5 24.5q-8 91 31.5 162.5t110.5 115.5q59 39 120 39q5 1 38 -2.5t52 -9.5q25 -6 46 -16l31 53l60 -21zM303 352l1 -1q12 15 80 132q-28 19 -66 19q-31 0 -50.5 -7.5t-29 -16.5
t-31.5 -36q-17 -20 -26.5 -64.5t-8.5 -77.5q0 -63 25 -117l1 1zM321 246q-5 -11 -75 -125q31 -23 72 -23q56 0 97 58.5t41 137.5q0 83 -27 136l-20 -37z" />
    <glyph glyph-name="ugrave" unicode="&#xf9;" horiz-adv-x="620" 
d="M105 781l97 43q1 1 3 3.5t4.5 4.5t5.5 2q9 2 20 -12q150 -82 153 -84q11 -6 27.5 -13t27 -12.5t16.5 -11.5q0 -3 -0.5 -4.5t-2 -2.5t-3 -2.5t-5 -5.5t-7.5 -10q-3 -4 -11 -8q0 -1 -4 -5t-7 -8t-3 -7q-2 -1 -19 5.5t-20 8.5q-20 9 -48 18t-38 15l-46 19l-51 26zM412 488
q0 47 -1 72l-1 16q-2 15 0.5 21t11.5 6q26 0 50 -3q8 0 25 2t29.5 2t19.5 -4q-3 -38 -4.5 -231.5t0.5 -226.5l2 -30q0 -9 3 -19t9.5 -23t8.5 -18q1 -3 -1.5 -5t-6.5 -3.5t-7.5 -2.5l-8.5 -2.5t-6 -1.5q-20 -7 -36.5 -21.5t-29.5 -22.5q-17 -13 -25 15q-4 14 -4 21t-6.5 32.5
t-8.5 29.5q-3 -1 -43 -28q-28 -28 -78.5 -51t-82.5 -23q-73 0 -109.5 35.5t-46.5 79.5q-2 8 -7 67q-3 41 -3 410q1 14 5 19t16 1q13 -4 32.5 -4t41 1.5t25.5 1.5q10 1 12 0t3 -9l-3 -61q0 -40 3 -171.5t3 -146.5q0 -81 41 -89q29 -9 85.5 11.5t70.5 45.5q22 34 22 225v83z
" />
    <glyph glyph-name="uacute" unicode="&#xfa;" horiz-adv-x="620" 
d="M329 695q-10 -6 -38 -15t-48 -18q-3 -2 -20 -8.5t-19 -5.5q0 3 -3 7t-7 8t-4 5q-7 4 -11 8q-4 6 -7.5 10t-5 5.5t-3 2.5t-2 2.5t-0.5 4.5q6 6 16.5 11.5t27 12.5t27.5 13l153 84q11 14 20 12q4 -1 9 -6l4 -4l97 -43l-89 -41l-51 -26zM412 488q0 47 -1 72l-1 16
q-2 15 0.5 21t11.5 6q26 0 50 -3q8 0 25 2t29.5 2t19.5 -4q-3 -38 -4.5 -231.5t0.5 -226.5l2 -30q0 -9 3 -19t9.5 -23t8.5 -18q1 -3 -1.5 -5t-6.5 -3.5t-7.5 -2.5l-8.5 -2.5t-6 -1.5q-20 -7 -36.5 -21.5t-29.5 -22.5q-17 -13 -25 15q-4 14 -4 21t-6.5 32.5t-8.5 29.5
q-3 -1 -43 -28q-28 -28 -78.5 -51t-82.5 -23q-73 0 -109.5 35.5t-46.5 79.5q-2 8 -7 67q-3 41 -3 410q1 14 5 19t16 1q13 -4 32.5 -4t41 1.5t25.5 1.5q10 1 12 0t3 -9l-3 -61q0 -40 3 -171.5t3 -146.5q0 -81 41 -89q29 -9 85.5 11.5t70.5 45.5q22 34 22 225v83z" />
    <glyph glyph-name="ucircumflex" unicode="&#xfb;" horiz-adv-x="620" 
d="M303 835q1 0 8 -5l15 -11t9 -6q12 -7 49.5 -38.5l69.5 -60.5l32 -28q0 -1 -10.5 -10.5l-23.5 -20.5l-18 -15l-131 99l-130 -99l-52 46q124 112 151 127zM412 488q0 47 -1 72l-1 16q-2 15 0.5 21t11.5 6q26 0 50 -3q8 0 25 2t29.5 2t19.5 -4q-3 -38 -4.5 -231.5
t0.5 -226.5l2 -30q0 -9 3 -19t9.5 -23t8.5 -18q1 -3 -1.5 -5t-6.5 -3.5t-7.5 -2.5l-8.5 -2.5t-6 -1.5q-20 -7 -36.5 -21.5t-29.5 -22.5q-17 -13 -25 15q-4 14 -4 21t-6.5 32.5t-8.5 29.5q-3 -1 -43 -28q-28 -28 -78.5 -51t-82.5 -23q-73 0 -109.5 35.5t-46.5 79.5
q-2 8 -7 67q-3 41 -3 410q1 14 5 19t16 1q13 -4 32.5 -4t41 1.5t25.5 1.5q10 1 12 0t3 -9l-3 -61q0 -40 3 -171.5t3 -146.5q0 -81 41 -89q29 -9 85.5 11.5t70.5 45.5q22 34 22 225v83z" />
    <glyph glyph-name="udieresis" unicode="&#xfc;" horiz-adv-x="620" 
d="M179 826q31 0 54.5 -19t27.5 -49q5 -32 -8 -59q-7 -12 -25.5 -23.5t-32.5 -12.5q-34 -1 -61.5 18.5t-28.5 53.5q-2 38 24 67q15 17 25 20q1 0 7.5 0.5t12 1.5t5.5 2zM418 826q30 0 53.5 -19t27.5 -49q6 -32 -8 -59q-7 -13 -25 -24t-32 -12q-35 -1 -62 18.5t-28 53.5
q-2 40 23 67q18 18 26 20q1 0 7 0.5t11.5 1.5t6.5 2zM412 488q0 47 -1 72l-1 16q-2 15 0.5 21t11.5 6q26 0 50 -3q8 0 25 2t29.5 2t19.5 -4q-3 -38 -4.5 -231.5t0.5 -226.5l2 -30q0 -9 3 -19t9.5 -23t8.5 -18q1 -3 -1.5 -5t-6.5 -3.5t-7.5 -2.5l-8.5 -2.5t-6 -1.5
q-20 -7 -36.5 -21.5t-29.5 -22.5q-17 -13 -25 15q-4 14 -4 21t-6.5 32.5t-8.5 29.5q-3 -1 -43 -28q-28 -28 -78.5 -51t-82.5 -23q-73 0 -109.5 35.5t-46.5 79.5q-2 8 -7 67q-3 41 -3 410q1 14 5 19t16 1q13 -4 32.5 -4t41 1.5t25.5 1.5q10 1 12 0t3 -9l-3 -61
q0 -40 3 -171.5t3 -146.5q0 -81 41 -89q29 -9 85.5 11.5t70.5 45.5q22 34 22 225v83z" />
    <glyph glyph-name="yacute" unicode="&#xfd;" horiz-adv-x="640" 
d="M353 689q-10 -6 -38 -15t-48 -18q-3 -2 -20 -8.5t-19 -5.5q0 3 -3 7t-7 8t-4 5q-8 4 -11 8q-4 6 -7.5 10t-5 5.5t-3 2.5t-2 2.5t-0.5 4.5q6 6 16.5 11.5t27 12.5t27.5 13l153 84q11 14 20 12q4 -1 9 -6l4 -4l97 -43l-89 -41l-51 -26zM473 203q-26 -72 -72 -228
q-2 -8 -7 -25.5l-7.5 -26.5t-7 -22.5t-10.5 -25.5t-13 -24q-17 -28 -54.5 -42.5t-68.5 -14.5q-60 2 -94.5 37.5t-54.5 103.5q-1 3 -4 9.5t-4.5 11t-0.5 8.5t3 5t4 1t6 -1t5 -1q10 -1 15.5 0l22 4t41.5 6q22 3 29 0q2 -2 2.5 -21t8.5 -35.5t29 -16.5q10 0 17 7t10.5 18.5
t5 21.5t2.5 21t1 13q4 29 -31 89l-110.5 250.5l-81.5 183.5t-29 68q-3 8 -2.5 13.5t2 8t6 3.5t9 1.5t11.5 0.5h12q4 0 49 -2t51 -2q14 2 19 -3q5 -7 12 -27l55 -149l35.5 -99l25.5 -73.5l15.5 -46.5l9 -27.5t3.5 -7.5q18 14 130 423q8 15 56 15q23 -3 54.5 -3t40.5 -2
q0 -1 -23 -71l-94 -254z" />
    <glyph glyph-name="thorn" unicode="&#xfe;" horiz-adv-x="675" 
d="M154 -200q-6 1 -27.5 -0.5t-33.5 -0.5q-16 0 -12 15q2 30 2 45q0 85 -1 112l-11 315q0 8 -1 69l-2 117.5t-1 59.5l-2 243q2 26 12 28q3 1 23 -2q6 -1 18 0.5t18 1.5q15 0 19.5 -1.5t17.5 -1.5h24q6 -3 6 -21q-2 -6 -2 -126t8 -114q52 39 87.5 54.5t83.5 15.5
q129 0 203 -112q24 -35 34 -75q21 -88 18 -155q-2 -65 -22.5 -108.5t-61.5 -87.5q-30 -30 -78 -55.5t-101 -25.5q-78 0 -146 52q-13 9 -14 -13q0 -7 1 -15q1 -10 2.5 -27.5t2.5 -30.5t1 -21v-101l-2 -34q-2 0 -7 -1t-7 -1h-24zM341 497q-65 -5 -102.5 -54t-37.5 -138
q0 -199 151 -199q70 0 112 49.5t42 133.5q0 110 -44 162t-121 46z" />
    <glyph glyph-name="ydieresis" unicode="&#xff;" horiz-adv-x="640" 
d="M203 820q31 0 54.5 -19t27.5 -49q5 -32 -8 -59q-7 -12 -25.5 -23.5t-32.5 -12.5q-34 -1 -61.5 18.5t-28.5 53.5q-2 38 24 67q15 17 25 20q1 0 7.5 0.5t12 1.5t5.5 2zM442 820q30 0 53.5 -19t27.5 -49q6 -32 -8 -59q-7 -13 -25 -24t-32 -12q-35 -1 -62 18.5t-28 53.5
q-2 40 23 67q18 18 26 20q1 0 7 0.5t11.5 1.5t6.5 2zM473 203q-26 -72 -72 -228q-2 -8 -7 -25.5l-7.5 -26.5t-7 -22.5t-10.5 -25.5t-13 -24q-17 -28 -54.5 -42.5t-68.5 -14.5q-60 2 -94.5 37.5t-54.5 103.5q-1 3 -4 9.5t-4.5 11t-0.5 8.5t3 5t4 1t6 -1t5 -1q10 -1 15.5 0
l22 4t41.5 6q22 3 29 0q2 -2 2.5 -21t8.5 -35.5t29 -16.5q10 0 17 7t10.5 18.5t5 21.5t2.5 21t1 13q4 29 -31 89l-110.5 250.5l-81.5 183.5t-29 68q-3 8 -2.5 13.5t2 8t6 3.5t9 1.5t11.5 0.5h12q4 0 49 -2t51 -2q14 2 19 -3q5 -7 12 -27l55 -149l35.5 -99l25.5 -73.5
l15.5 -46.5l9 -27.5t3.5 -7.5q18 14 130 423q8 15 56 15q23 -3 54.5 -3t40.5 -2q0 -1 -23 -71l-94 -254z" />
    <glyph glyph-name="Amacron" unicode="&#x100;" horiz-adv-x="673" 
d="M470 964q-18 0 -111 -3.5t-137 -0.5q3 -10 3.5 -20t-0.5 -24t-1 -21q87 7 252 5q-8 44 -6 64zM265 768q2 14 13 32q7 2 22.5 2t24.5 -2h91q19 2 20 -13q0 -5 9 -39t10 -41l13 -63q4 -10 8 -23.5l13.5 -45l20.5 -67.5q0 -1 31 -95t39 -124q17 -62 47 -153q31 -105 38 -122
q4 -10 2 -13t-12 -3q-4 0 -16.5 -1t-19.5 0q-66 4 -99 2q-16 0 -21 13l-34 107q-1 2 -3 8t-4.5 10t-6.5 5q-10 1 -28.5 0.5t-47 -1t-38.5 -0.5h-81q-2 0 -16 -1.5t-21 -1.5q-12 -1 -14 -8l-26 -77q0 -1 -2 -8t-3.5 -14.5t-4 -15t-5 -12t-5.5 -3.5q-10 0 -55 -2t-73 2
q-1 0 -7.5 -2t-10.5 -2t-6 4q-1 9 -1 11.5t6 12.5l6 10l91 299q2 14 17 54q1 3 28 78l55.5 153.5t31.5 87.5zM344 639q-2 0 -4.5 -11t-4.5 -23t-3 -13q-2 -6 -14 -45.5l-24.5 -81.5t-20.5 -63l-17 -58q-2 -8 -8.5 -21t-8.5 -21q-10 -44 -11 -50q-1 -9 83.5 -11t119.5 1
q10 0 13 5t2 10t-4 15l-6.5 23l-8 26.5t-6.5 22.5q-32 117 -43 154z" />
    <glyph glyph-name="amacron" unicode="&#x101;" horiz-adv-x="574" 
d="M435 764q-17 0 -110.5 -3.5t-137.5 -0.5q3 -10 3.5 -20t-0.5 -24t-1 -21q87 7 252 5q-8 44 -6 64zM337 607q21 0 45 -6t52 -19.5t48 -42.5t24 -69q3 -38 3 -63q0 -226 1 -294q2 -34 11 -49q0 -2 7.5 -14t7.5 -22q-10 -6 -105 -32l-7 -3.5t-9 -3.5t-8 0q-11 4 -26 43
q-3 5 -40 -5.5t-68 -22.5q-90 -20 -120 -14q-46 8 -89 60q-36 36 -36 93q0 69 45 119q19 21 38.5 32.5t32.5 15t47 10.5q60 12 72 13q27 1 62.5 8.5t46.5 18.5q16 16 18.5 54t-11.5 58q-24 35 -59 37q-47 3 -87 -37q-2 -3 -17 -33.5t-22 -33.5q-5 -5 -7 -2.5t-3 2.5
q-9 0 -79 31q-2 1 -8.5 2.5t-8 2.5t-4.5 3.5t-2 6t4 9.5q13 26 44.5 58.5t51.5 47.5q27 19 55 28.5t46 11t54 1.5zM361 254q-11 -7 -48 -7q-24 -1 -69 -11q-27 -7 -52 -25t-26 -39q-2 -27 6 -50t25 -29q27 -8 81.5 3t86.5 33q14 9 16 14v43q2 8 2 59q0 8 -2 10t-9.5 0.5
t-10.5 -1.5z" />
    <glyph glyph-name="Abreve" unicode="&#x102;" horiz-adv-x="673" 
d="M470 1027q-7 -31 -29 -57.5t-48 -37.5q-51 -21 -93 11.5t-59 83.5q-59 -22 -75 -35q52 -74 79 -98q34 -30 71 -39q30 -10 59.5 -3t52 18.5t44.5 32.5t36.5 39.5t27.5 39.5q-36 28 -66 45zM265 768q2 14 13 32q7 2 22.5 2t24.5 -2h91q19 2 20 -13q0 -5 9 -39t10 -41
l13 -63q4 -10 8 -23.5l13.5 -45l20.5 -67.5q0 -1 31 -95t39 -124q17 -62 47 -153q31 -105 38 -122q4 -10 2 -13t-12 -3q-4 0 -16.5 -1t-19.5 0q-66 4 -99 2q-16 0 -21 13l-34 107q-1 2 -3 8t-4.5 10t-6.5 5q-10 1 -28.5 0.5t-47 -1t-38.5 -0.5h-81q-2 0 -16 -1.5t-21 -1.5
q-12 -1 -14 -8l-26 -77q0 -1 -2 -8t-3.5 -14.5t-4 -15t-5 -12t-5.5 -3.5q-10 0 -55 -2t-73 2q-1 0 -7.5 -2t-10.5 -2t-6 4q-1 9 -1 11.5t6 12.5l6 10l91 299q2 14 17 54q1 3 28 78l55.5 153.5t31.5 87.5zM344 639q-2 0 -4.5 -11t-4.5 -23t-3 -13q-2 -6 -14 -45.5
l-24.5 -81.5t-20.5 -63l-17 -58q-2 -8 -8.5 -21t-8.5 -21q-10 -44 -11 -50q-1 -9 83.5 -11t119.5 1q10 0 13 5t2 10t-4 15l-6.5 23l-8 26.5t-6.5 22.5q-32 117 -43 154z" />
    <glyph glyph-name="abreve" unicode="&#x103;" horiz-adv-x="574" 
d="M435 827q-7 -31 -29 -57.5t-48 -37.5q-51 -21 -93 11.5t-59 83.5q-59 -22 -75 -35q52 -74 79 -98q34 -30 71 -39q30 -10 59.5 -3t52 18.5t44.5 32.5t36.5 39.5t27.5 39.5q-36 28 -66 45zM337 607q21 0 45 -6t52 -19.5t48 -42.5t24 -69q3 -38 3 -63q0 -226 1 -294
q2 -34 11 -49q0 -2 7.5 -14t7.5 -22q-10 -6 -105 -32l-7 -3.5t-9 -3.5t-8 0q-11 4 -26 43q-3 5 -40 -5.5t-68 -22.5q-90 -20 -120 -14q-46 8 -89 60q-36 36 -36 93q0 69 45 119q19 21 38.5 32.5t32.5 15t47 10.5q60 12 72 13q27 1 62.5 8.5t46.5 18.5q16 16 18.5 54
t-11.5 58q-24 35 -59 37q-47 3 -87 -37q-2 -3 -17 -33.5t-22 -33.5q-5 -5 -7 -2.5t-3 2.5q-9 0 -79 31q-2 1 -8.5 2.5t-8 2.5t-4.5 3.5t-2 6t4 9.5q13 26 44.5 58.5t51.5 47.5q27 19 55 28.5t46 11t54 1.5zM361 254q-11 -7 -48 -7q-24 -1 -69 -11q-27 -7 -52 -25t-26 -39
q-2 -27 6 -50t25 -29q27 -8 81.5 3t86.5 33q14 9 16 14v43q2 8 2 59q0 8 -2 10t-9.5 0.5t-10.5 -1.5z" />
    <glyph glyph-name="Aogonek" unicode="&#x104;" horiz-adv-x="673" 
d="M265 768q2 14 13 32q7 2 22.5 2t24.5 -2h91q19 2 20 -13q0 -5 9 -39t10 -41l13 -63q4 -10 8 -23.5l13.5 -45l20.5 -67.5q0 -1 31 -95t39 -124q17 -62 47 -153q31 -105 38 -122q4 -10 2 -13t-12 -3q-4 0 -16.5 -1t-19.5 0q-66 4 -99 2q-16 0 -21 13l-34 107q-1 2 -3 8
t-4.5 10t-6.5 5q-10 1 -28.5 0.5t-47 -1t-38.5 -0.5h-81q-2 0 -16 -1.5t-21 -1.5q-12 -1 -14 -8l-26 -77q0 -1 -2 -8t-3.5 -14.5t-4 -15t-5 -12t-5.5 -3.5q-10 0 -55 -2t-73 2q-1 0 -7.5 -2t-10.5 -2t-6 4q-1 9 -1 11.5t6 12.5l6 10l91 299q2 14 17 54q1 3 28 78l55.5 153.5
t31.5 87.5zM344 639q-2 0 -4.5 -11t-4.5 -23t-3 -13q-2 -6 -14 -45.5l-24.5 -81.5t-20.5 -63l-17 -58q-2 -8 -8.5 -21t-8.5 -21q-10 -44 -11 -50q-1 -9 83.5 -11t119.5 1q10 0 13 5t2 10t-4 15l-6.5 23l-8 26.5t-6.5 22.5q-32 117 -43 154zM536 -10q41 0 70 -41
q-43 7 -69.5 -24.5t-7.5 -58.5q10 -16 36.5 -15t48.5 18q3 -4 3.5 -10.5t0 -15t-0.5 -12.5q-67 -50 -114 -27q-36 16 -44.5 62t13.5 85.5t64 38.5z" />
    <glyph glyph-name="aogonek" unicode="&#x105;" horiz-adv-x="574" 
d="M337 607q21 0 45 -6t52 -19.5t48 -42.5t24 -69q3 -38 3 -63q0 -226 1 -294q2 -34 11 -49q0 -2 7.5 -14t7.5 -22q-10 -6 -105 -32l-7 -3.5t-9 -3.5t-8 0q-11 4 -26 43q-3 5 -40 -5.5t-68 -22.5q-90 -20 -120 -14q-46 8 -89 60q-36 36 -36 93q0 69 45 119q19 21 38.5 32.5
t32.5 15t47 10.5q60 12 72 13q27 1 62.5 8.5t46.5 18.5q16 16 18.5 54t-11.5 58q-24 35 -59 37q-47 3 -87 -37q-2 -3 -17 -33.5t-22 -33.5q-5 -5 -7 -2.5t-3 2.5q-9 0 -79 31q-2 1 -8.5 2.5t-8 2.5t-4.5 3.5t-2 6t4 9.5q13 26 44.5 58.5t51.5 47.5q27 19 55 28.5t46 11
t54 1.5zM361 254q-11 -7 -48 -7q-24 -1 -69 -11q-27 -7 -52 -25t-26 -39q-2 -27 6 -50t25 -29q27 -8 81.5 3t86.5 33q14 9 16 14v43q2 8 2 59q0 8 -2 10t-9.5 0.5t-10.5 -1.5zM483 -7q41 0 70 -41q-43 7 -69.5 -24.5t-7.5 -58.5q10 -16 36.5 -15t48.5 18q3 -4 3.5 -10.5
t0 -15t-0.5 -12.5q-67 -50 -114 -27q-36 16 -44.5 62t13.5 85.5t64 38.5z" />
    <glyph glyph-name="Cacute" unicode="&#x106;" horiz-adv-x="697" 
d="M391 893q-10 -6 -38 -15t-48 -18q-3 -2 -20 -8.5t-19 -5.5q0 3 -3 7t-7 8t-4 5q-8 4 -11 8q-4 6 -7.5 10t-5 5.5t-3 2.5t-2 2.5t-0.5 4.5q6 6 16.5 11.5t27 12.5t27.5 13l153 84q11 14 20 12q3 0 5.5 -2t4.5 -4.5t3 -3.5l97 -43l-89 -41l-51 -26zM522 590q-19 46 -61 77
t-97 30q-49 -1 -88.5 -30.5t-62 -74.5t-34 -96t-10.5 -101q1 -55 25 -118.5t75 -114.5t114 -51q61 0 94 29t42 69l105 -30l20 -4h5h3t3.5 -1t1.5 -3l-7 -15q-74 -165 -265 -165q-124 0 -212.5 79.5t-131.5 223.5q-25 114 14.5 235t124 200.5t182.5 79.5q97 0 165.5 -36.5
t115.5 -117.5l10 -24q2 -4 -17 -9z" />
    <glyph glyph-name="cacute" unicode="&#x107;" horiz-adv-x="584" 
d="M330 689q-10 -6 -38 -15t-48 -18q-3 -2 -20 -8.5t-19 -5.5q0 3 -3 7t-7 8t-4 5q-7 4 -11 8q-4 6 -7.5 10t-5 5.5t-3 2.5t-2 2.5t-0.5 4.5q6 6 16.5 11.5t27 12.5t27.5 13l153 84q11 14 20 12q4 -1 8 -6l5 -4l97 -43l-89 -41l-51 -26zM543 137q-42 -75 -102 -111t-166 -36
q-118 0 -180.5 100.5t-51.5 238.5q9 119 88 198.5t187 79.5q10 0 21 -0.5t40.5 -7t55 -18.5t55 -39.5t48.5 -65.5q0 -1 5 -8t4 -11q0 -2 -5 -3.5t-12 -2.5t-8 -1l-77 -22q-26 -9 -28 -2q-13 45 -49 62.5t-76 15.5q-55 -2 -85 -65t-30 -126q0 -57 11 -103t41 -78.5t75 -32.5
q60 0 112 82q9 0 93 -29z" />
    <glyph glyph-name="Cdotaccent" unicode="&#x10a;" horiz-adv-x="697" 
d="M360 1054q34 0 60 -21.5t31 -53.5q7 -36 -9 -67q-8 -13 -28.5 -25.5t-35.5 -13.5q-39 -2 -69 22t-31 67q-2 34 23 63t59 29zM522 590q-19 46 -61 77t-97 30q-49 -1 -88.5 -30.5t-62 -74.5t-34 -96t-10.5 -101q1 -55 25 -118.5t75 -114.5t114 -51q61 0 94 29t42 69
l105 -30l20 -4h5h3t3.5 -1t1.5 -3l-7 -15q-74 -165 -265 -165q-124 0 -212.5 79.5t-131.5 223.5q-25 114 14.5 235t124 200.5t182.5 79.5q97 0 165.5 -36.5t115.5 -117.5l10 -24q2 -4 -17 -9z" />
    <glyph glyph-name="cdotaccent" unicode="&#x10b;" horiz-adv-x="584" 
d="M299 850q34 0 60 -21.5t31 -53.5q7 -36 -9 -67q-8 -13 -28.5 -25.5t-35.5 -13.5q-39 -2 -69 22t-31 67q-2 34 23 63t59 29zM543 137q-42 -75 -102 -111t-166 -36q-118 0 -180.5 100.5t-51.5 238.5q9 119 88 198.5t187 79.5q10 0 21 -0.5t40.5 -7t55 -18.5t55 -39.5
t48.5 -65.5q0 -1 5 -8t4 -11q0 -2 -5 -3.5t-12 -2.5t-8 -1l-77 -22q-26 -9 -28 -2q-13 45 -49 62.5t-76 15.5q-55 -2 -85 -65t-30 -126q0 -57 11 -103t41 -78.5t75 -32.5q60 0 112 82q9 0 93 -29z" />
    <glyph glyph-name="Ccaron" unicode="&#x10c;" horiz-adv-x="697" 
d="M366 838q-1 0 -8 5l-15 11t-9 6q-12 7 -50 38.5l-70 59.5l-31 29q0 1 10.5 10.5l23.5 20.5l18 15l131 -99l130 99l52 -46q-124 -112 -151 -127zM522 590q-19 46 -61 77t-97 30q-49 -1 -88.5 -30.5t-62 -74.5t-34 -96t-10.5 -101q1 -55 25 -118.5t75 -114.5t114 -51
q61 0 94 29t42 69l105 -30l20 -4h5h3t3.5 -1t1.5 -3l-7 -15q-74 -165 -265 -165q-124 0 -212.5 79.5t-131.5 223.5q-25 114 14.5 235t124 200.5t182.5 79.5q97 0 165.5 -36.5t115.5 -117.5l10 -24q2 -4 -17 -9z" />
    <glyph glyph-name="ccaron" unicode="&#x10d;" horiz-adv-x="584" 
d="M305 634q-1 0 -8 5l-15 11t-9 6q-12 7 -49.5 38.5l-69.5 59.5l-32 29q0 1 10.5 10.5l23.5 20.5l18 15l131 -99l130 99l52 -46q-124 -112 -151 -127zM543 137q-42 -75 -102 -111t-166 -36q-118 0 -180.5 100.5t-51.5 238.5q9 119 88 198.5t187 79.5q10 0 21 -0.5t40.5 -7
t55 -18.5t55 -39.5t48.5 -65.5q0 -1 5 -8t4 -11q0 -2 -5 -3.5t-12 -2.5t-8 -1l-77 -22q-26 -9 -28 -2q-13 45 -49 62.5t-76 15.5q-55 -2 -85 -65t-30 -126q0 -57 11 -103t41 -78.5t75 -32.5q60 0 112 82q9 0 93 -29z" />
    <glyph glyph-name="Dcaron" unicode="&#x10e;" horiz-adv-x="634" 
d="M261 834q-1 0 -8 5l-15 11t-9 6q-12 7 -49.5 38.5l-69.5 59.5l-32 29q0 1 10.5 10.5l23.5 20.5l18 15l131 -99l130 99l52 -46q-124 -112 -151 -127zM89 223q0 27 -2.5 82t-2.5 82q2 108 0 162q0 38 -1 90t-2 91.5t-1 42.5q0 17 7.5 23.5t23.5 5.5q40 -4 135 -2
q147 4 254 -110t102 -291q-3 -92 -25.5 -164t-56 -115t-78.5 -71t-86.5 -38.5t-85.5 -10.5h-137q-32 -3 -38 0q-3 1 -4.5 4.5t-1.5 9.5v7v202zM231 137q0 -16 6 -22.5t22 -4.5q103 12 155.5 84t57.5 185q5 137 -61 226t-186 82q-5 -1 -6.5 -12.5t-0.5 -27t1 -18.5
q-1 -15 1 -40.5t2 -35.5q-1 -30 2.5 -84t3.5 -74l3 -195v-63z" />
    <glyph glyph-name="dcaron" unicode="&#x10f;" horiz-adv-x="667" 
d="M441 755q0 2 -3 15.5t-3.5 20t5.5 10.5q17 -4 33.5 -4.5t35.5 2t24 2.5q7 1 17.5 0.5t14.5 -0.5q14 0 12 -23v-4v-146q-7 -128 -7 -156q0 -10 -1 -34t0 -36q2 -31 4 -112t3 -92q5 -130 7 -157q0 -3 2 -13.5t2 -15t-2 -12.5q-8 -5 -21 -4.5t-34.5 3t-27.5 1.5
q-2 0 -8.5 -1l-12.5 -2t-13 -1.5t-12 0.5t-6 4q-5 10 0 33.5t0 32.5q-22 -33 -74.5 -58t-110.5 -19q-98 9 -161 106.5t-63 205.5q0 45 17 104.5t41 96.5q34 53 99.5 81t132.5 22q29 -3 57 -20l51 -30q2 3 2 15v185zM700 792q36 0 56 -22t22 -58q0 -45 -12 -66
q-17 -35 -50 -57q-17 -12 -48 -24q-28 -12 -50 -7q-6 3 -6 18q0 2 -1 6.5t-1 6.5t0.5 5t2.5 4t5 1q31 0 45 5q30 12 46 40q-3 0 -12 1.5t-14 2t-12 2.5t-12 5t-10 7q-27 31 -25 55q0 28 29 55q20 20 47 20zM174 264q7 -44 27.5 -85.5t50.5 -65.5q25 -16 69.5 -4.5t67.5 32.5
q63 55 63 145q0 92 -51 161q-16 20 -42 32.5t-49 14.5q-52 0 -87 -34.5t-46.5 -86t-2.5 -109.5z" />
    <glyph glyph-name="Dcroat" unicode="&#x110;" horiz-adv-x="634" 
d="M89 223l1 -1q0 28 -2.5 82t-2.5 82v4h-39q-8 1 -40.5 2t-44.5 -1q-3 0 -9 -2t-9 -1q2 51 3 58q0 1 -0.5 5t-0.5 6q0 7 3.5 8.5t13.5 0.5q81 -4 122 -1h1q0 56 -1 84q0 38 -1 90t-2 91.5t-1 42.5q0 17 7.5 23.5t23.5 5.5q40 -4 135 -2q147 4 254 -110t102 -291
q-3 -92 -25.5 -164t-56 -115t-78.5 -71t-86.5 -38.5t-85.5 -10.5h-137q-32 -3 -38 0q-3 1 -4.5 4.5t-1.5 9.5v7v202zM232 136v1q0 -16 6 -22.5t22 -4.5q103 12 155.5 84t57.5 185q5 137 -61 226t-186 82q-5 -1 -6.5 -12.5t-0.5 -27t1 -18.5q-1 -15 1 -40.5t2 -35.5
q-1 -30 3 -90q52 -4 70 -3q40 7 51 2q4 -1 5 -3t0 -7l-1 -4q-2 -11 -2 -57q0 -3 -1 -4.5t-2.5 -2t-3.5 -0.5t-4 0.5t-4.5 1.5t-4.5 1q-13 1 -35.5 1.5t-29.5 0.5l-35 2l3 -192v-63z" />
    <glyph glyph-name="dcroat" unicode="&#x111;" horiz-adv-x="667" 
d="M441 755l-1 2q0 2 -3 15.5t-3.5 20t5.5 10.5q17 -4 33.5 -4.5t35.5 2t24 2.5q7 1 17.5 0.5t14.5 -0.5q14 0 12 -23v-4v-46q70 -4 89 -3q47 4 54 1q4 -1 4.5 -3t-0.5 -5.5t-1 -4.5q-2 -9 -2 -52q0 -3 -1.5 -4.5t-3.5 -1.5h-4.5t-6 1t-5.5 1q-13 1 -36.5 1.5t-31.5 0.5
l-54 3v-36q-7 -128 -7 -156q0 -10 -1 -34t0 -36q2 -31 4 -112t3 -92q5 -130 7 -157q0 -3 2 -13.5t2 -15t-2 -12.5q-8 -5 -21 -4.5t-34.5 3t-27.5 1.5q-2 0 -8.5 -1l-12.5 -2t-13 -1.5t-12 0.5t-6 4q-5 10 0 33.5t0 32.5q-22 -33 -74.5 -58t-110.5 -19q-98 9 -161 106.5
t-63 205.5q0 45 17 104.5t41 96.5q34 53 99.5 81t132.5 22q29 -3 57 -20l51 -30q2 3 2 15v91l-36 -1q-8 1 -42 2t-47 -1q-3 0 -9.5 -2t-9.5 -1q2 47 3 54l-1 10q0 6 3.5 7.5t14.5 0.5q98 -3 124 -1v26zM388 143q63 55 63 145q0 92 -51 161q-16 20 -42 32.5t-49 14.5
q-52 0 -87 -34.5t-46.5 -86t-2.5 -109.5q7 -44 27.5 -85.5t50.5 -65.5q25 -16 69.5 -4.5t67.5 32.5z" />
    <glyph glyph-name="Emacron" unicode="&#x112;" horiz-adv-x="565" 
d="M411 964q-17 0 -110.5 -3.5t-137.5 -0.5q3 -10 3.5 -20t-0.5 -24t-1 -21q87 7 252 5q-8 44 -6 64zM404 800q2 0 31.5 2.5t30.5 -1.5q3 -3 19.5 -1t20.5 2q10 0 10 -12q-5 -30 -5 -82q0 -3 -1 -4.5l-2 -3t-3.5 -2t-4 -0.5t-5 -0.5t-4.5 -0.5l-192 -2l-55 -4q-17 0 -18 -10
q0 -5 0.5 -33.5t1 -62t0.5 -43.5v-40q0 -28 4 -32q7 -6 36 -3l49 3q15 2 62 2.5t50 0.5q19 3 20 -4v-35q0 -8 1 -21l1.5 -20t-0.5 -14.5t-4.5 -11t-10.5 -3.5h-49.5h-40.5h-31.5h-24.5h-17.5t-13.5 -0.5t-8.5 -1t-5.5 -1.5l-4 -2q-5 -4 -6.5 -34.5t-0.5 -88.5l1 -58v-50
q-1 -14 14.5 -16.5t90.5 -0.5l150 8q13 3 25.5 0.5t9.5 -18.5q-8 -37 -7 -53v-15.5t2 -18.5q2 -5 1 -9.5t-7 -4.5h-37q-165 4 -328 -5q-1 0 -19 -2t-29 -0.5t-12 10.5q-1 10 0.5 30t1.5 26q2 2 2 154q3 1 0.5 17t-2.5 18q-3 80 -4 138.5t-1 85v33.5q-1 27 -1 176l-2 58
q0 3 -2 17.5t-1.5 25t5.5 14.5q7 7 27 7q12 -2 112.5 -3.5t130.5 0.5h49z" />
    <glyph glyph-name="emacron" unicode="&#x113;" horiz-adv-x="622" 
d="M441 764q-17 0 -110.5 -3.5t-137.5 -0.5q3 -10 3.5 -20t-0.5 -24t-1 -21q87 7 252 5q-8 44 -6 64zM306 607q57 0 95 -11t79 -40q27 -27 39.5 -42t29 -50.5t27.5 -84.5l9 -82q-2 -2 -6 -3t-9.5 -1h-6.5q-75 -8 -308 -8q-77 6 -77 -13q0 -42 6 -62q27 -94 124 -106
q97 -11 143 96q1 2 16 -4.5l34 -15t27 -10.5q1 0 6.5 -1l11.5 -2t12 -2.5t10.5 -3.5t4.5 -4q1 -6 -2.5 -13.5t-11 -18.5t-8.5 -13q-18 -36 -50 -62.5t-68 -39t-65 -18t-53 -5.5q-51 0 -81 9.5t-74 40.5q-62 46 -84.5 89t-31.5 118q-13 106 29 195q34 71 92.5 118t140.5 50z
M447 372q-3 21 -19 50.5t-30 45.5q-36 36 -90 36q-24 0 -53.5 -15t-35.5 -28q0 -1 -6.5 -12l-11 -19t-11 -21.5t-6.5 -20.5t2 -15q1 -1 161 -1q19 1 29 0h71z" />
    <glyph glyph-name="Edotaccent" unicode="&#x116;" horiz-adv-x="565" 
d="M285 1050q34 0 60 -21.5t31 -53.5q7 -36 -9 -67q-8 -13 -28.5 -25.5t-35.5 -13.5q-39 -2 -69 22t-31 67q-2 34 23 63t59 29zM404 800q2 0 31.5 2.5t30.5 -1.5q3 -3 19.5 -1t20.5 2q10 0 10 -12q-5 -30 -5 -82q0 -3 -1 -4.5l-2 -3t-3.5 -2t-4 -0.5t-5 -0.5t-4.5 -0.5
l-192 -2l-55 -4q-17 0 -18 -10q0 -5 0.5 -33.5t1 -62t0.5 -43.5v-40q0 -28 4 -32q7 -6 36 -3l49 3q15 2 62 2.5t50 0.5q19 3 20 -4v-35q0 -8 1 -21l1.5 -20t-0.5 -14.5t-4.5 -11t-10.5 -3.5h-49.5h-40.5h-31.5h-24.5h-17.5t-13.5 -0.5t-8.5 -1t-5.5 -1.5l-4 -2
q-5 -4 -6.5 -34.5t-0.5 -88.5l1 -58v-50q-1 -14 14.5 -16.5t90.5 -0.5l150 8q13 3 25.5 0.5t9.5 -18.5q-8 -37 -7 -53v-15.5t2 -18.5q2 -5 1 -9.5t-7 -4.5h-37q-165 4 -328 -5q-1 0 -19 -2t-29 -0.5t-12 10.5q-1 10 0.5 30t1.5 26q2 2 2 154q3 1 0.5 17t-2.5 18
q-3 80 -4 138.5t-1 85v33.5q-1 27 -1 176l-2 58q0 3 -2 17.5t-1.5 25t5.5 14.5q7 7 27 7q12 -2 112.5 -3.5t130.5 0.5h49z" />
    <glyph glyph-name="edotaccent" unicode="&#x117;" horiz-adv-x="622" 
d="M315 850q34 0 60 -21.5t31 -53.5q7 -36 -9 -67q-8 -13 -28.5 -25.5t-35.5 -13.5q-39 -2 -69 22t-31 67q-2 34 23 63t59 29zM306 607q57 0 95 -11t79 -40q27 -27 39.5 -42t29 -50.5t27.5 -84.5l9 -82q-2 -2 -6 -3t-9.5 -1h-6.5q-75 -8 -308 -8q-77 6 -77 -13q0 -42 6 -62
q27 -94 124 -106q97 -11 143 96q1 2 16 -4.5l34 -15t27 -10.5q1 0 6.5 -1l11.5 -2t12 -2.5t10.5 -3.5t4.5 -4q1 -6 -2.5 -13.5t-11 -18.5t-8.5 -13q-18 -36 -50 -62.5t-68 -39t-65 -18t-53 -5.5q-51 0 -81 9.5t-74 40.5q-62 46 -84.5 89t-31.5 118q-13 106 29 195
q34 71 92.5 118t140.5 50zM447 372q-3 21 -19 50.5t-30 45.5q-36 36 -90 36q-24 0 -53.5 -15t-35.5 -28q0 -1 -6.5 -12l-11 -19t-11 -21.5t-6.5 -20.5t2 -15q1 -1 161 -1q19 1 29 0h71z" />
    <glyph glyph-name="Eogonek" unicode="&#x118;" horiz-adv-x="565" 
d="M404 800q2 0 31.5 2.5t30.5 -1.5q3 -3 19.5 -1t20.5 2q10 0 10 -12q-5 -30 -5 -82q0 -3 -1 -4.5l-2 -3t-3.5 -2t-4 -0.5t-5 -0.5t-4.5 -0.5l-192 -2l-55 -4q-17 0 -18 -10q0 -5 0.5 -33.5t1 -62t0.5 -43.5v-40q0 -28 4 -32q7 -6 36 -3l49 3q15 2 62 2.5t50 0.5
q19 3 20 -4v-35q0 -8 1 -21l1.5 -20t-0.5 -14.5t-4.5 -11t-10.5 -3.5h-49.5h-40.5h-31.5h-24.5h-17.5t-13.5 -0.5t-8.5 -1t-5.5 -1.5l-4 -2q-5 -4 -6.5 -34.5t-0.5 -88.5l1 -58v-50q-1 -14 14.5 -16.5t90.5 -0.5l150 8q13 3 25.5 0.5t9.5 -18.5q-8 -37 -7 -53v-15.5t2 -18.5
q2 -5 1 -9.5t-7 -4.5h-37q-165 4 -328 -5q-1 0 -19 -2t-29 -0.5t-12 10.5q-1 10 0.5 30t1.5 26q2 2 2 154q3 1 0.5 17t-2.5 18q-3 80 -4 138.5t-1 85v33.5q-1 27 -1 176l-2 58q0 3 -2 17.5t-1.5 25t5.5 14.5q7 7 27 7q12 -2 112.5 -3.5t130.5 0.5h49zM450 -5q41 0 70 -41
q-43 7 -69.5 -24.5t-7.5 -58.5q10 -16 36.5 -15t48.5 18q3 -4 3.5 -10.5t0 -15t-0.5 -12.5q-67 -50 -114 -27q-36 16 -44.5 62t13.5 85.5t64 38.5z" />
    <glyph glyph-name="eogonek" unicode="&#x119;" horiz-adv-x="622" 
d="M306 607q57 0 95 -11t79 -40q27 -27 39.5 -42t29 -50.5t27.5 -84.5l9 -82q-2 -2 -6 -3t-9.5 -1h-6.5q-75 -8 -308 -8q-77 6 -77 -13q0 -42 6 -62q27 -94 124 -106q97 -11 143 96q1 2 16 -4.5l34 -15t27 -10.5q1 0 6.5 -1l11.5 -2t12 -2.5t10.5 -3.5t4.5 -4
q1 -6 -2.5 -13.5t-11 -18.5t-8.5 -13q-18 -36 -50 -62.5t-68 -39t-65 -18t-53 -5.5q-51 0 -81 9.5t-74 40.5q-62 46 -84.5 89t-31.5 118q-13 106 29 195q34 71 92.5 118t140.5 50zM447 372q-3 21 -19 50.5t-30 45.5q-36 36 -90 36q-24 0 -53.5 -15t-35.5 -28q0 -1 -6.5 -12
l-11 -19t-11 -21.5t-6.5 -20.5t2 -15q1 -1 161 -1q19 1 29 0h71zM454 0q41 0 70 -41q-43 7 -69.5 -24.5t-7.5 -58.5q10 -16 36.5 -15t48.5 18q3 -4 3.5 -10.5t0 -15t-0.5 -12.5q-67 -50 -114 -27q-36 16 -44.5 62t13.5 85.5t64 38.5z" />
    <glyph glyph-name="Ecaron" unicode="&#x11a;" horiz-adv-x="565" 
d="M291 834q-1 0 -8 5l-15 11t-9 6q-12 7 -49.5 38.5l-69.5 59.5l-32 29q0 1 10.5 10.5l23.5 20.5l18 15l131 -99l130 99l52 -46q-124 -112 -151 -127zM404 800q2 0 31.5 2.5t30.5 -1.5q3 -3 19.5 -1t20.5 2q10 0 10 -12q-5 -30 -5 -82q0 -3 -1 -4.5l-2 -3t-3.5 -2t-4 -0.5
t-5 -0.5t-4.5 -0.5l-192 -2l-55 -4q-17 0 -18 -10q0 -5 0.5 -33.5t1 -62t0.5 -43.5v-40q0 -28 4 -32q7 -6 36 -3l49 3q15 2 62 2.5t50 0.5q19 3 20 -4v-35q0 -8 1 -21l1.5 -20t-0.5 -14.5t-4.5 -11t-10.5 -3.5h-49.5h-40.5h-31.5h-24.5h-17.5t-13.5 -0.5t-8.5 -1t-5.5 -1.5
l-4 -2q-5 -4 -6.5 -34.5t-0.5 -88.5l1 -58v-50q-1 -14 14.5 -16.5t90.5 -0.5l150 8q13 3 25.5 0.5t9.5 -18.5q-8 -37 -7 -53v-15.5t2 -18.5q2 -5 1 -9.5t-7 -4.5h-37q-165 4 -328 -5q-1 0 -19 -2t-29 -0.5t-12 10.5q-1 10 0.5 30t1.5 26q2 2 2 154q3 1 0.5 17t-2.5 18
q-3 80 -4 138.5t-1 85v33.5q-1 27 -1 176l-2 58q0 3 -2 17.5t-1.5 25t5.5 14.5q7 7 27 7q12 -2 112.5 -3.5t130.5 0.5h49z" />
    <glyph glyph-name="ecaron" unicode="&#x11b;" horiz-adv-x="622" 
d="M321 634q-1 0 -8 5l-15 11t-9 6q-12 7 -50 38.5l-69 59.5l-32 29q0 1 10.5 10.5l23.5 20.5l18 15l131 -99l130 99l52 -46q-124 -112 -151 -127zM306 607q57 0 95 -11t79 -40q27 -27 39.5 -42t29 -50.5t27.5 -84.5l9 -82q-2 -2 -6 -3t-9.5 -1h-6.5q-75 -8 -308 -8
q-77 6 -77 -13q0 -42 6 -62q27 -94 124 -106q97 -11 143 96q1 2 16 -4.5l34 -15t27 -10.5q1 0 6.5 -1l11.5 -2t12 -2.5t10.5 -3.5t4.5 -4q1 -6 -2.5 -13.5t-11 -18.5t-8.5 -13q-18 -36 -50 -62.5t-68 -39t-65 -18t-53 -5.5q-51 0 -81 9.5t-74 40.5q-62 46 -84.5 89
t-31.5 118q-13 106 29 195q34 71 92.5 118t140.5 50zM447 372q-3 21 -19 50.5t-30 45.5q-36 36 -90 36q-24 0 -53.5 -15t-35.5 -28q0 -1 -6.5 -12l-11 -19t-11 -21.5t-6.5 -20.5t2 -15q1 -1 161 -1q19 1 29 0h71z" />
    <glyph glyph-name="Gbreve" unicode="&#x11e;" horiz-adv-x="753" 
d="M499 1036q-7 -31 -29 -57.5t-48 -37.5q-51 -21 -93 11.5t-59 83.5q-59 -22 -75 -35q52 -74 79 -98q34 -30 71 -39q30 -10 59.5 -3t52 18.5t44.5 32.5t36.5 39.5t27.5 39.5q-36 28 -66 45zM675 631q2 -4 -3.5 -7.5t-19.5 -7t-34 -5.5q-61 -20 -74 -21q-49 121 -156 117
q-96 -3 -158 -100t-60 -212q1 -40 16 -87.5t42 -92.5t71.5 -74.5t97.5 -29.5q146 0 160 98q6 30 5 38t-10 14q-9 3 -13.5 3t-15.5 -2t-14 -2h-6.5h-7h-7t-7.5 0.5t-7 1.5t-6 2.5l-4.5 3.5t-3.5 5t-1 7q0 10 3 22.5t3 15.5t-3 14t-2.5 19t6.5 11t14 4.5t14.5 1.5t16.5 -0.5
t14 -0.5q16 -1 78.5 0.5t75.5 2.5q2 0 8.5 1.5t10 1.5t7.5 -2t5 -8q10 -49 -6 -121q-14 -86 -63 -144.5t-110.5 -82.5t-131.5 -24q-126 0 -220.5 80.5t-136.5 222.5q-10 44 -10 95q-1 108 51 206t134.5 156t168.5 58q196 0 279 -154z" />
    <glyph glyph-name="gbreve" unicode="&#x11f;" horiz-adv-x="689" 
d="M256 655q-30 7 -59.5 30.5t-43 40.5t-39.5 55q-6 7 -8 11q16 13 75 35q17 -51 59 -83.5t93 -11.5q26 11 48 37.5t29 57.5q30 -17 66 -45q-13 -21 -27.5 -39.5t-36.5 -39.5t-44.5 -32.5t-52 -18.5t-59.5 3zM656 553q3 -5 3 -8.5t-5.5 -8.5t-10 -8.5t-11 -7t-7.5 -4.5
q-57 -35 -114 -61q-9 -4 -10.5 -11.5t1.5 -19.5t3 -18q-6 -67 -55 -121.5t-116 -63.5q-2 0 -11.5 -1t-17.5 -2.5t-17.5 -3.5t-15.5 -5.5t-8 -8.5q-3 -9 1 -17t15 -14.5t22.5 -12t29 -11t27.5 -8l24.5 -6t15.5 -3.5q120 -32 139 -45q32 -22 42 -57.5t1 -70t-31 -63.5
q-38 -53 -104 -77q-53 -20 -129 -20q-78 -3 -161.5 32.5t-121.5 84.5q-15 23 -18 32q-7 20 25 25q3 0 33 4l52.5 7t20.5 3q10 -1 15 -5t10 -12.5t10 -12.5q16 -15 30.5 -24t44.5 -16.5t70 -7.5q102 0 120 58q0 9 1 16t-5.5 13.5t-11 11.5t-15.5 9.5l-18 7.5t-19 6.5t-18.5 5
t-16.5 3.5t-13 3q-24 9 -75 21t-75 21q-3 1 -14 5t-16 6t-12 6t-12 9q-23 23 -2 64q3 5 10.5 13.5t13 15.5t11 15t5.5 12.5t-5 8.5q-10 6 -26 13.5t-22.5 13.5t-19.5 23q-58 70 -21 173q24 66 83.5 106.5t121.5 42.5q70 2 126 -42l9.5 -9.5l10.5 -10.5t10.5 -7.5t12.5 -4.5
q25 -2 58 31q3 3 9 10t8 9t9.5 5t13.5 -2q10 -4 21.5 -7t26 -6t22.5 -5q3 -1 13.5 -3t18 -5t11.5 -8zM279 314q35 0 67 25.5t31 76.5q0 34 -27.5 63.5t-67.5 26.5q-31 0 -60 -21.5t-34 -66.5q-6 -50 17.5 -77t73.5 -27z" />
    <glyph glyph-name="Gdotaccent" unicode="&#x120;" horiz-adv-x="753" 
d="M373 1059q34 0 60 -21.5t31 -53.5q7 -36 -9 -67q-8 -13 -28.5 -25.5t-35.5 -13.5q-39 -2 -69 22t-31 67q-2 34 23 63t59 29zM675 631q2 -4 -3.5 -7.5t-19.5 -7t-34 -5.5q-61 -20 -74 -21q-49 121 -156 117q-96 -3 -158 -100t-60 -212q1 -40 16 -87.5t42 -92.5t71.5 -74.5
t97.5 -29.5q146 0 160 98q6 30 5 38t-10 14q-9 3 -13.5 3t-15.5 -2t-14 -2h-6.5h-7h-7t-7.5 0.5t-7 1.5t-6 2.5l-4.5 3.5t-3.5 5t-1 7q0 10 3 22.5t3 15.5t-3 14t-2.5 19t6.5 11t14 4.5t14.5 1.5t16.5 -0.5t14 -0.5q16 -1 78.5 0.5t75.5 2.5q2 0 8.5 1.5t10 1.5t7.5 -2t5 -8
q10 -49 -6 -121q-14 -86 -63 -144.5t-110.5 -82.5t-131.5 -24q-126 0 -220.5 80.5t-136.5 222.5q-10 44 -10 95q-1 108 51 206t134.5 156t168.5 58q196 0 279 -154z" />
    <glyph glyph-name="gdotaccent" unicode="&#x121;" horiz-adv-x="689" 
d="M302 669q-39 -2 -69 22t-31 67q-2 34 23 63t59 29t60 -21.5t31 -53.5q7 -36 -9 -67q-8 -13 -28.5 -25.5t-35.5 -13.5zM656 553q3 -5 3 -8.5t-5.5 -8.5t-10 -8.5t-11 -7t-7.5 -4.5q-57 -35 -114 -61q-9 -4 -10.5 -11.5t1.5 -19.5t3 -18q-6 -67 -55 -121.5t-116 -63.5
q-2 0 -11.5 -1t-17.5 -2.5t-17.5 -3.5t-15.5 -5.5t-8 -8.5q-3 -9 1 -17t15 -14.5t22.5 -12t29 -11t27.5 -8l24.5 -6t15.5 -3.5q120 -32 139 -45q32 -22 42 -57.5t1 -70t-31 -63.5q-38 -53 -104 -77q-53 -20 -129 -20q-78 -3 -161.5 32.5t-121.5 84.5q-15 23 -18 32
q-7 20 25 25q3 0 33 4l52.5 7t20.5 3q10 -1 15 -5t10 -12.5t10 -12.5q16 -15 30.5 -24t44.5 -16.5t70 -7.5q102 0 120 58q0 9 1 16t-5.5 13.5t-11 11.5t-15.5 9.5l-18 7.5t-19 6.5t-18.5 5t-16.5 3.5t-13 3q-24 9 -75 21t-75 21q-3 1 -14 5t-16 6t-12 6t-12 9q-23 23 -2 64
q3 5 10.5 13.5t13 15.5t11 15t5.5 12.5t-5 8.5q-10 6 -26 13.5t-22.5 13.5t-19.5 23q-58 70 -21 173q24 66 83.5 106.5t121.5 42.5q70 2 126 -42l9.5 -9.5l10.5 -10.5t10.5 -7.5t12.5 -4.5q25 -2 58 31q3 3 9 10t8 9t9.5 5t13.5 -2q10 -4 21.5 -7t26 -6t22.5 -5
q3 -1 13.5 -3t18 -5t11.5 -8zM279 314q35 0 67 25.5t31 76.5q0 34 -27.5 63.5t-67.5 26.5q-31 0 -60 -21.5t-34 -66.5q-6 -50 17.5 -77t73.5 -27z" />
    <glyph glyph-name="Gcommaaccent" unicode="&#x122;" horiz-adv-x="753" 
d="M675 631q2 -4 -3.5 -7.5t-19.5 -7t-34 -5.5q-61 -20 -74 -21q-49 121 -156 117q-96 -3 -158 -100t-60 -212q1 -40 16 -87.5t42 -92.5t71.5 -74.5t97.5 -29.5q146 0 160 98q6 30 5 38t-10 14q-9 3 -13.5 3t-15.5 -2t-14 -2h-6.5h-7h-7t-7.5 0.5t-7 1.5t-6 2.5l-4.5 3.5
t-3.5 5t-1 7q0 10 3 22.5t3 15.5t-3 14t-2.5 19t6.5 11t14 4.5t14.5 1.5t16.5 -0.5t14 -0.5q16 -1 78.5 0.5t75.5 2.5q2 0 8.5 1.5t10 1.5t7.5 -2t5 -8q10 -49 -6 -121q-14 -86 -63 -144.5t-110.5 -82.5t-131.5 -24q-126 0 -220.5 80.5t-136.5 222.5q-10 44 -10 95
q-1 108 51 206t134.5 156t168.5 58q196 0 279 -154zM406 -21q39 -13 41 -61q0 -25 -16 -56.5t-37 -38.5q-46 -25 -69 -25q-3 1 -7 15q-2 7 -1 13t7 5q22 0 33 4q19 10 36 31q-31 2 -49.5 16.5t-17.5 40.5q1 23 20 42q18 18 60 14z" />
    <glyph glyph-name="gcommaaccent" unicode="&#x123;" horiz-adv-x="689" 
d="M272 633q-39 13 -41 61q0 25 16 56.5t37 38.5q46 25 69 25q3 -1 7 -15q2 -7 1 -13t-7 -5q-22 0 -33 -4q-19 -10 -36 -31q31 -2 49.5 -16.5t17.5 -40.5q-1 -23 -20 -42q-18 -18 -60 -14zM656 553q3 -5 3 -8.5t-5.5 -8.5t-10 -8.5t-11 -7t-7.5 -4.5q-57 -35 -114 -61
q-9 -4 -10.5 -11.5t1.5 -19.5t3 -18q-6 -67 -55 -121.5t-116 -63.5q-2 0 -11.5 -1t-17.5 -2.5t-17.5 -3.5t-15.5 -5.5t-8 -8.5q-3 -9 1 -17t15 -14.5t22.5 -12t29 -11t27.5 -8l24.5 -6t15.5 -3.5q120 -32 139 -45q32 -22 42 -57.5t1 -70t-31 -63.5q-38 -53 -104 -77
q-53 -20 -129 -20q-78 -3 -161.5 32.5t-121.5 84.5q-15 23 -18 32q-7 20 25 25q3 0 33 4l52.5 7t20.5 3q10 -1 15 -5t10 -12.5t10 -12.5q16 -15 30.5 -24t44.5 -16.5t70 -7.5q102 0 120 58q0 9 1 16t-5.5 13.5t-11 11.5t-15.5 9.5l-18 7.5t-19 6.5t-18.5 5t-16.5 3.5t-13 3
q-24 9 -75 21t-75 21q-3 1 -14 5t-16 6t-12 6t-12 9q-23 23 -2 64q3 5 10.5 13.5t13 15.5t11 15t5.5 12.5t-5 8.5q-10 6 -26 13.5t-22.5 13.5t-19.5 23q-58 70 -21 173q24 66 83.5 106.5t121.5 42.5q70 2 126 -42l9.5 -9.5l10.5 -10.5t10.5 -7.5t12.5 -4.5q25 -2 58 31
q3 3 9 10t8 9t9.5 5t13.5 -2q10 -4 21.5 -7t26 -6t22.5 -5q3 -1 13.5 -3t18 -5t11.5 -8zM279 314q35 0 67 25.5t31 76.5q0 34 -27.5 63.5t-67.5 26.5q-31 0 -60 -21.5t-34 -66.5q-6 -50 17.5 -77t73.5 -27z" />
    <glyph glyph-name="Hbar" unicode="&#x126;" horiz-adv-x="730" 
d="M587 801l4 1q2 0 12.5 1t21 0.5t18.5 -2.5q2 -3 2 -9.5t-1 -15t-1 -10.5q0 -8 0.5 -23.5t0.5 -22.5l3 -67h5q34 7 44 2q3 -1 4 -3t0 -6t-1 -5q-1 -6 -1 -53q0 -4 -2 -5t-4 -1t-6 1t-6 1q-11 1 -33 1l-1 -28q-4 -45 -2 -167.5t1 -166.5q-1 -26 1 -81q5 -27 5 -79
q0 -2 1 -13t1 -19.5t-2 -17.5t-7 -12h-19q-108 -3 -112 -2q-4 13 -4 55q2 1 0.5 53t-1.5 66q0 7 -1 31t-2 44q3 97 -2 108q-1 4 -5 6t-8 2.5t-10.5 1t-7.5 0.5q-89 3 -118 0q-48 -7 -64 -4q-28 6 -38 -4q0 -1 -1.5 -20t-3.5 -40t-2 -24q-1 -7 -1 -16.5v-21.5t0.5 -43
t0.5 -68q0 -11 -1.5 -39t-1.5 -47q0 -3 2.5 -16t-0.5 -18t-15 -5q-20 1 -45.5 -1t-42.5 -4.5t-30.5 -1.5t-17.5 8l1 19q2 21 2.5 125t-1.5 158q-3 23 -1.5 106t1.5 107q-1 28 -1 73q-46 4 -47 -2q-3 0 -8 -2t-8 -1q2 16 2 66q0 8 14 8l46 -3q-2 58 -9 115q0 2 -1.5 10.5
t-1 14.5t3.5 6q137 0 146 -1q5 -1 7 -8.5t1 -12.5q-2 -21 -2 -33t2 -41.5t2 -41.5v-7q226 -2 239 0q4 -3 14 -3v105q0 37 1 42q21 9 66 1h26zM496 590h1h-4q-4 -1 -11 0t-9 1q-10 1 -228 -3q2 -90 8 -112q8 0 37.5 2.5t41.5 2.5q4 0 24 -0.5t41 -0.5h43.5t37.5 1t16 4
q7 2 4.5 41t-2.5 44v20z" />
    <glyph glyph-name="hbar" unicode="&#x127;" horiz-adv-x="624" 
d="M568 275h1q1 -29 -1 -134q-3 -78 -1 -94v-9.5v-12.5v-10q1 -15 -9 -17.5t-23 0.5h-33t-33 1q-4 0 -11.5 -1.5t-11.5 -1.5t-9 3q3 40 -2 168v161q0 43 -4 87q0 42 -23 65t-52 23q-13 0 -39.5 -9t-38.5 -16q-39 -23 -56 -63t-24 -99q-1 -9 -2 -24.5t-1 -32.5t0.5 -36t1 -33
t1.5 -24v-11q0 -13 -1 -39.5t-1 -48t2 -40.5q0 -1 0.5 -5t0.5 -7.5v-7.5t-1.5 -6.5t-4.5 -2.5q-7 -1 -20 0t-17 1q-41 -3 -52 -3q-3 0 -11 1.5t-10.5 1.5t-10.5 -2q-7 -2 -7 17q1 2 0.5 118t-0.5 141q0 5 -0.5 38.5t-0.5 51.5q0 7 1.5 47.5t-0.5 46.5q-4 34 -4 203h-22
q-8 1 -42 2t-47 -1q-3 0 -9.5 -2t-9.5 -1q2 47 3 54l-1 10q0 6 3.5 7.5t14.5 0.5q85 -3 109 -2q0 66 3 72q2 0 11 0.5t16 0.5t10 -1q4 -1 12 0.5t12 1.5q52 2 66 -2q4 -1 4.5 -6.5t0 -13t-0.5 -9.5q1 -5 3 -43h3q80 -4 99 -3q47 4 54 1q4 -1 4.5 -3t-0.5 -5.5t-1 -4.5
q-2 -9 -2 -52q0 -3 -1.5 -4.5t-3.5 -1.5h-4.5t-6 1t-5.5 1q-13 1 -36.5 1.5t-31.5 0.5l-67 4q2 -138 3 -145q11 5 28 22l20 20q2 2 9.5 6.5t9 6t7.5 5t9 5t9.5 4.5t11.5 4.5t12.5 4t16 5t19.5 4.5q28 6 71 -3q137 -27 137 -139q0 -1 7 -188z" />
    <glyph glyph-name="Imacron" unicode="&#x12a;" horiz-adv-x="307" 
d="M271 966q-17 0 -110.5 -3.5t-137.5 -0.5q3 -10 3.5 -20t-0.5 -24t-1 -21q87 7 252 5q-8 44 -6 64zM225 31q0 -2 1.5 -15t0.5 -16q-4 -3 -11 -1.5t-8 1.5q-14 -1 -59.5 -2t-60.5 2q-2 22 0 67q0 34 -2 167.5t0 180.5v23.5v23.5q1 27 0 77t-1 72l-3 153q0 1 -1 18t0 18
q7 0 19.5 0.5t14.5 0.5q35 -1 106 1q0 -5 -1 -25.5t-1 -48.5l4 -84q0 -1 -0.5 -33.5t-0.5 -68.5v-69v-34q3 -24 3 -213v-170v-25z" />
    <glyph glyph-name="imacron" unicode="&#x12b;" horiz-adv-x="284" 
d="M268 702q-165 2 -252 -5q0 7 1 21t0.5 24t-3.5 20q44 -3 137 0.5t111 3.5q-2 -20 6 -64zM213 38l2 -34q-1 -7 -4 -7q-4 1 -22 0t-22 0l-7 1q-6 0 -15.5 1t-15.5 1q-2 0 -15.5 -2t-24.5 -2t-16 4q0 1 1 8.5t2 23.5t2 35q0 60 -1 90q0 134 2 172q1 36 -4 162q-1 12 -0.5 41
t-1.5 42q0 1 -1.5 6t-2 8.5t0 7.5t3.5 6t19 -1q19 -3 41.5 0.5t36.5 0.5q5 -1 20.5 -0.5t19.5 -1.5q0 -15 -2 -85.5t0 -84.5v-312q0 -12 3 -39t2 -41z" />
    <glyph glyph-name="Iogonek" unicode="&#x12e;" horiz-adv-x="307" 
d="M225 31q0 -2 1.5 -15t0.5 -16q-4 -3 -11 -1.5t-8 1.5q-14 -1 -59.5 -2t-60.5 2q-2 22 0 67q0 34 -2 167.5t0 180.5v23.5v23.5q1 27 0 77t-1 72l-3 153q0 1 -1 18t0 18q7 0 19.5 0.5t14.5 0.5q35 -1 106 1q0 -5 -1 -25.5t-1 -48.5l4 -84q0 -1 -0.5 -33.5t-0.5 -68.5v-69
v-34q3 -24 3 -213v-170v-25zM152 -8q41 0 70 -41q-43 7 -69.5 -24.5t-7.5 -58.5q10 -16 36.5 -15t48.5 18q3 -4 3.5 -10.5t0 -15t-0.5 -12.5q-67 -50 -114 -27q-36 16 -44.5 62t13.5 85.5t64 38.5z" />
    <glyph glyph-name="iogonek" unicode="&#x12f;" horiz-adv-x="284" 
d="M154 671q-39 -2 -69 22t-31 67q-2 34 23 63t59 29t60 -21.5t31 -53.5q7 -36 -9 -67q-8 -13 -28.5 -25.5t-35.5 -13.5zM167 -3l-7 1q-6 0 -15.5 1t-15.5 1q-2 0 -15.5 -2t-24.5 -2t-16 4q0 1 1 8.5t2 23.5t2 35q0 60 -1 90q0 134 2 172q1 36 -4 162q-1 12 -0.5 41t-1.5 42
q0 1 -1.5 6t-2 8.5t0 7.5t3.5 6t19 -1q19 -3 41.5 0.5t36.5 0.5q5 -1 20.5 -0.5t19.5 -1.5q0 -15 -2 -85.5t0 -84.5v-312q0 -12 3 -39t2 -41l2 -34q-1 -7 -4 -7q-4 1 -22 0t-22 0zM279 -133q3 -4 3.5 -10.5t0 -15t-0.5 -12.5q-67 -50 -114 -27q-36 16 -44.5 62t13.5 85.5
t64 38.5q41 0 70 -41q-43 7 -69.5 -24.5t-7.5 -58.5q10 -16 36.5 -15t48.5 18z" />
    <glyph glyph-name="Idotaccent" unicode="&#x130;" horiz-adv-x="307" 
d="M145 1052q34 0 60 -21.5t31 -53.5q7 -36 -9 -67q-8 -13 -28.5 -25.5t-35.5 -13.5q-39 -2 -69 22t-31 67q-2 34 23 63t59 29zM225 31q0 -2 1.5 -15t0.5 -16q-4 -3 -11 -1.5t-8 1.5q-14 -1 -59.5 -2t-60.5 2q-2 22 0 67q0 34 -2 167.5t0 180.5v23.5v23.5q1 27 0 77t-1 72
l-3 153q0 1 -1 18t0 18q7 0 19.5 0.5t14.5 0.5q35 -1 106 1q0 -5 -1 -25.5t-1 -48.5l4 -84q0 -1 -0.5 -33.5t-0.5 -68.5v-69v-34q3 -24 3 -213v-170v-25z" />
    <glyph glyph-name="dotlessi" unicode="&#x131;" horiz-adv-x="284" 
d="M213 38l2 -33q-1 -8 -4 -8q-4 1 -22 0t-22 0l-7 1q-6 0 -15.5 1t-15.5 1q-2 0 -15.5 -2t-24.5 -2t-16 4q0 1 1 8.5t2 23.5t2 35q0 60 -1 90q0 134 2 172q1 36 -4 162q-1 12 -0.5 41t-1.5 42q0 1 -1.5 6t-2 8.5t0 7.5t3.5 6t19 -1q19 -3 41.5 0.5t36.5 0.5q5 -1 20.5 -0.5
t19.5 -1.5q0 -15 -2 -85.5t0 -84.5v-312q0 -12 3 -39t2 -41z" />
    <glyph glyph-name="IJ" unicode="&#x132;" horiz-adv-x="635" 
d="M225 31q0 -2 1.5 -15t0.5 -16q-4 -3 -11 -1.5t-8 1.5q-14 -1 -59.5 -2t-60.5 2q-2 22 0 67q0 34 -2 167.5t0 180.5v23.5v23.5q1 27 0 77t-1 72l-3 153q0 1 -1 18t0 18q7 0 19.5 0.5t14.5 0.5q35 -1 106 1q0 -5 -1 -25.5t-1 -48.5l4 -84q0 -1 -0.5 -33.5t-0.5 -68.5v-69
v-34q3 -24 3 -213v-170v-25zM555 522q3 -113 -3 -373q-2 -77 0 -150q1 -61 -26.5 -115t-71.5 -73q-36 -16 -80 -17q-29 0 -46 6q-30 11 -59.5 38.5t-43.5 59.5q9 13 45 44q2 1 11 9t19 14.5t22 11.5l5 -9q5 -8 13.5 -19.5t17.5 -19.5q19 -19 43 -12q15 6 22 42.5t4 57.5
q-6 122 -6 418q0 43 1 67q1 23 0.5 110.5t-1.5 113.5q0 11 -2 31.5t-1 30.5q1 11 10.5 12.5t18.5 -0.5h57q30 3 46 0q0 -51 3 -87z" />
    <glyph glyph-name="ij" unicode="&#x133;" horiz-adv-x="598" 
d="M540 779q7 -36 -9 -67q-8 -13 -28.5 -25.5t-35.5 -13.5q-39 -2 -69 22t-31 67q-2 34 23 63t59 29t60 -21.5t31 -53.5zM154 671q-39 -2 -69 22t-31 67q-2 34 23 63t59 29t60 -21.5t31 -53.5q7 -36 -9 -67q-8 -13 -28.5 -25.5t-35.5 -13.5zM211 -3q-4 1 -22 0t-22 0l-7 1
q-6 0 -15.5 1t-15.5 1q-2 0 -15.5 -2t-24.5 -2t-16 4q0 1 1 8.5t2 23.5t2 35q0 60 -1 90q0 134 2 172q1 36 -4 162q-1 12 -0.5 41t-1.5 42q0 1 -1.5 6t-2 8.5t0 7.5t3.5 6t19 -1q19 -3 41.5 0.5t36.5 0.5q5 -1 20.5 -0.5t19.5 -1.5q0 -15 -2 -85.5t0 -84.5v-312q0 -12 3 -39
t2 -41l2 -34q-1 -7 -4 -7zM457 600q10 -1 55 2q10 1 11 -8.5t-1 -20.5q-1 -9 -1 -27q6 -113 -3 -204v-130q-2 -23 0 -96.5t1 -83.5q0 -2 -1 -16.5t-1 -20.5t-2 -21.5t-3.5 -24t-5.5 -24t-8 -25t-11 -23t-15 -23t-18.5 -19.5t-23.5 -18q-24 -14 -64 -21t-56 -4
q-6 1 -30.5 2.5t-38.5 6.5q-1 0 -9.5 2.5l-15 4.5t-12.5 5.5t-7 7.5q-1 3 3.5 7.5t5.5 6.5l5 19q5 11 10.5 29t14.5 32q0 1 1 3q2 6 7 5q4 0 38 -17q12 -6 38 -6t38 7q7 4 12 11.5t8 13t6 17.5t3.5 16.5t2.5 19t2 15.5q1 11 -0.5 46t0.5 49q1 6 0 116t-3 216t-2 101
q1 10 -2 35t-1 37q2 7 12 2q4 -1 15.5 -0.5t15.5 0.5z" />
    <glyph glyph-name="Kcommaaccent" unicode="&#x136;" horiz-adv-x="681" 
d="M135 -1q-3 0 -15.5 -3t-19.5 -3t-13 5q-3 5 0 20q1 7 1.5 21t0.5 18q2 24 2 51t-1 59.5t-1 50.5q0 5 -1 90.5t-1.5 162.5t-0.5 71q-4 105 -3 159q0 12 -0.5 26.5t-1.5 31.5t-1 27q0 11 19 16q11 3 11 -1h79q6 -1 33 -1q9 -2 10 -3q1 -2 2 -6t-5 -53q-5 -48 -3 -64
q8 -70 8 -132q0 -5 -1.5 -17.5t-1.5 -22.5t3 -17l52 65q31 37 232 250q7 3 71 0h79q0 -4 -2.5 -7.5t-8 -8t-6.5 -5.5q-23 -20 -174.5 -173.5t-158.5 -159.5l-5 -5l-5.5 -5.5t-4.5 -5t-3.5 -6t-0.5 -6t2 -6.5q3 -5 68 -79l152.5 -169.5t135.5 -142.5l14 -14q6 -8 -8 -8
q-6 0 -9 1h-83q-36 0 -72 -3q-10 0 -18 6.5t-18 22.5l-10 15l-110 142.5t-62 80.5q-2 3 -11 18.5t-16 23.5t-16 12q-5 -17 -5 -166v-44t1 -44q0 -11 4 -33q9 -27 -2 -32q0 -2 -13 -0.5t-14 1.5q-21 2 -37 -1h-37zM361 -12q39 -13 41 -61q0 -25 -16 -56.5t-37 -38.5
q-46 -25 -69 -25q-3 1 -7 15q-2 7 -1 13t7 5q22 0 33 4q19 10 36 31q-31 2 -49.5 16.5t-17.5 40.5q1 23 20 42q18 18 60 14z" />
    <glyph glyph-name="kcommaaccent" unicode="&#x137;" horiz-adv-x="570" 
d="M218 209l-19 24q-4 -9 -4 -14.5t3 -20t3 -15.5q2 -8 5 -108q0 -6 2 -24t2 -27.5t-3 -23.5q-5 -3 -14.5 -3t-20 1.5t-13.5 1.5h-39q-43 -3 -49 0q-1 11 -0.5 36.5t1.5 63.5t1 45q-1 118 1 220q0 22 -4.5 115t-3.5 143v144q-2 34 15 34q15 0 28.5 1.5t44.5 0.5
q31 -3 42 -10l6 -298q0 -68 -2 -84q11 9 66 67t87 86q3 3 10 12l13 16.5t5 7.5h30q11 2 30.5 2t43 -1t31.5 -1l17 2q17 1 20 -2q-2 -3 -138.5 -131t-142.5 -141q-3 -1 -3.5 -3.5t1 -5.5t3 -5.5t3.5 -5.5l3 -2q12 -15 105.5 -118.5t107.5 -117.5q7 -7 27.5 -24.5l28.5 -24.5
q10 -11 5.5 -18.5t-18.5 -8.5q-16 -1 -45 2t-41 3q-23 0 -31 1h-31q-14 -1 -25 17q-6 10 -19.5 26l-17.5 21zM300 -21q39 -13 41 -61q0 -25 -16 -56.5t-37 -38.5q-46 -25 -69 -25q-3 1 -7 15q-2 7 -1 13t7 5q22 0 33 4q19 10 36 31q-31 2 -49.5 16.5t-17.5 40.5q1 23 20 42
q18 18 60 14z" />
    <glyph glyph-name="Lacute" unicode="&#x139;" horiz-adv-x="557" 
d="M330 889q-10 -6 -38 -15t-48 -18q-3 -2 -20 -8.5t-19 -5.5q0 3 -3 7t-7 8t-4 5q-7 4 -11 8q-4 6 -7.5 10t-5 5.5t-3 2.5t-2 2.5t-0.5 4.5q6 6 16.5 11.5t27 12.5t27.5 13l153 84q11 14 20 12q4 -1 8 -6l5 -4l97 -43l-89 -41l-51 -26zM95 460q-1 17 -4 75t-3 89
q-1 18 -1 37t0.5 41t0.5 34q0 2 -1.5 20.5t-0.5 30.5t6 13q21 3 70 3t64 -3q5 -20 5 -124q2 -58 2 -80q0 -9 -1.5 -37t-0.5 -43v-26.5t2 -33.5l5 -308q-4 -12 -2.5 -21t15.5 -12q6 -1 49 -1.5t91.5 -1.5t58.5 -1q31 -2 52 2q35 6 46 1q7 -12 3 -91q0 -2 0.5 -7.5t0 -9.5
t-4.5 -6h-22h-25q-10 1 -92.5 1t-102.5 -1q-22 -1 -99 0.5t-83 -0.5h-25q-6 0 -4 10q1 12 1.5 52t-0.5 50v348z" />
    <glyph glyph-name="lacute" unicode="&#x13a;" horiz-adv-x="372" 
d="M163 889q-10 -6 -38 -15t-48 -18q-3 -2 -20 -8.5t-19 -5.5q0 3 -3 7t-7 8t-4 5q-8 4 -11 8q-4 6 -7.5 10t-5 5.5t-3 2.5t-2 2.5t-0.5 4.5q6 6 16.5 11.5t27 12.5t27.5 13l153 84q11 14 20 12q3 0 5.5 -2t4.5 -4.5t3 -3.5l97 -43l-89 -41l-51 -26zM68 713q0 27 -1.5 47.5
t-1.5 39.5q1 4 17.5 2t19.5 -1q45 5 59 1q33 0 43 -2q4 -6 0 -29q-4 -28 -4 -43q0 -27 0.5 -74.5t0.5 -82.5q0 -3 -3 -70t-3.5 -122.5t2.5 -116.5l-3 -75q-3 -39 -1 -47q2 -9 11 -20.5t19 -11.5q16 0 27 12t11 26q7 0 22.5 -3.5t23.5 -2.5q41 0 57 -8q0 -29 -25 -67t-56 -57
t-81 -19q-49 0 -91 30.5t-43 82.5v179q-1 17 -1 97.5t1 102.5v232z" />
    <glyph glyph-name="Lcommaaccent" unicode="&#x13b;" horiz-adv-x="557" 
d="M95 460q-1 17 -4 75t-3 89q-1 18 -1 37t0.5 41t0.5 34q0 2 -1.5 20.5t-0.5 30.5t6 13q21 3 70 3t64 -3q5 -20 5 -124q2 -58 2 -80q0 -9 -1.5 -37t-0.5 -43v-26.5t2 -33.5l5 -308q-4 -12 -2.5 -21t15.5 -12q6 -1 49 -1.5t91.5 -1.5t58.5 -1q31 -2 52 2q35 6 46 1
q7 -12 3 -91q0 -2 0.5 -7.5t0 -9.5t-4.5 -6h-22h-25q-10 1 -92.5 1t-102.5 -1q-22 -1 -99 0.5t-83 -0.5h-25q-6 0 -4 10q1 12 1.5 52t-0.5 50v348zM324 -31q39 -13 41 -61q0 -25 -16 -56.5t-37 -38.5q-46 -25 -69 -25q-3 1 -7 15q-2 7 -1 13t7 5q22 0 33 4q19 10 36 31
q-31 2 -49.5 16.5t-17.5 40.5q1 23 20 42q18 18 60 14z" />
    <glyph glyph-name="lcommaaccent" unicode="&#x13c;" horiz-adv-x="372" 
d="M68 713q0 27 -1.5 47.5t-1.5 39.5q1 4 17.5 2t19.5 -1q45 5 59 1q33 0 43 -2q4 -6 0 -29q-4 -28 -4 -43q0 -27 0.5 -74.5t0.5 -82.5q0 -3 -3 -70t-3.5 -122.5t2.5 -116.5l-3 -75q-3 -39 -1 -47q2 -9 11 -20.5t19 -11.5q16 0 27 12t11 26q7 0 22.5 -3.5t23.5 -2.5
q41 0 57 -8q0 -29 -25 -67t-56 -57t-81 -19q-49 0 -91 30.5t-43 82.5v179q-1 17 -1 97.5t1 102.5v232zM215 -21q39 -13 41 -61q0 -25 -16 -56.5t-37 -38.5q-46 -25 -69 -25q-3 1 -7 15q-2 7 -1 13t7 5q22 0 33 4q19 10 36 31q-31 2 -49.5 16.5t-17.5 40.5q1 23 20 42
q18 18 60 14z" />
    <glyph glyph-name="Lcaron" unicode="&#x13d;" horiz-adv-x="557" 
d="M95 460q-1 17 -4 75t-3 89q-1 18 -1 37t0.5 41t0.5 34q0 2 -1.5 20.5t-0.5 30.5t6 13q21 3 70 3t64 -3q5 -20 5 -124q2 -58 2 -80q0 -9 -1.5 -37t-0.5 -43v-26.5t2 -33.5l5 -308q-4 -12 -2.5 -21t15.5 -12q6 -1 49 -1.5t91.5 -1.5t58.5 -1q31 -2 52 2q35 6 46 1
q7 -12 3 -91q0 -2 0.5 -7.5t0 -9.5t-4.5 -6h-22h-25q-10 1 -92.5 1t-102.5 -1q-22 -1 -99 0.5t-83 -0.5h-25q-6 0 -4 10q1 12 1.5 52t-0.5 50v348zM427 792q36 0 56 -22t22 -58q0 -45 -12 -66q-17 -35 -50 -57q-17 -12 -48 -24q-28 -12 -50 -7q-6 3 -6 18q0 2 -1 6.5t-1 6.5
t0.5 5t2.5 4t5 1q31 0 45 5q30 12 46 40q-3 0 -12 1.5t-14 2t-12 2.5t-12 5t-10 7q-27 31 -25 55q0 28 29 55q20 20 47 20z" />
    <glyph glyph-name="lcaron" unicode="&#x13e;" horiz-adv-x="372" 
d="M68 713q0 27 -1.5 47.5t-1.5 39.5q1 4 17.5 2t19.5 -1q45 5 59 1q33 0 43 -2q4 -6 0 -29q-4 -28 -4 -43q0 -27 0.5 -74.5t0.5 -82.5q0 -3 -3 -70t-3.5 -122.5t2.5 -116.5l-3 -75q-3 -39 -1 -47q2 -9 11 -20.5t19 -11.5q16 0 27 12t11 26q7 0 22.5 -3.5t23.5 -2.5
q41 0 57 -8q0 -29 -25 -67t-56 -57t-81 -19q-49 0 -91 30.5t-43 82.5v179q-1 17 -1 97.5t1 102.5v232zM337 792q36 0 56 -22t22 -58q0 -45 -12 -66q-17 -35 -50 -57q-17 -12 -48 -24q-28 -12 -50 -7q-6 3 -6 18q0 2 -1 6.5t-1 6.5t0.5 5t2.5 4t5 1q31 0 45 5q30 12 46 40
q-3 0 -12 1.5t-14 2t-12 2.5t-12 5t-10 7q-27 31 -25 55q0 28 29 55q20 20 47 20z" />
    <glyph glyph-name="Ldot" unicode="&#x13f;" horiz-adv-x="557" 
d="M95 460q-1 17 -4 75t-3 89q-1 18 -1 37t0.5 41t0.5 34q0 2 -1.5 20.5t-0.5 30.5t6 13q21 3 70 3t64 -3q5 -20 5 -124q2 -58 2 -80q0 -9 -1.5 -37t-0.5 -43v-26.5t2 -33.5l5 -308q-4 -12 -2.5 -21t15.5 -12q6 -1 49 -1.5t91.5 -1.5t58.5 -1q31 -2 52 2q35 6 46 1
q7 -12 3 -91q0 -2 0.5 -7.5t0 -9.5t-4.5 -6h-22h-25q-10 1 -92.5 1t-102.5 -1q-22 -1 -99 0.5t-83 -0.5h-25q-6 0 -4 10q1 12 1.5 52t-0.5 50v348zM459 553q43 1 61.5 -24t18.5 -57q0 -26 -23.5 -50.5t-58.5 -24.5q-34 0 -57.5 26t-23.5 51q0 24 17 47q12 19 27 25t39 7z
" />
    <glyph glyph-name="ldot" unicode="&#x140;" horiz-adv-x="372" 
d="M68 713q0 27 -1.5 47.5t-1.5 39.5q1 4 17.5 2t19.5 -1q45 5 59 1q33 0 43 -2q4 -6 0 -29q-4 -28 -4 -43q0 -27 0.5 -74.5t0.5 -82.5q0 -3 -3 -70t-3.5 -122.5t2.5 -116.5l-3 -75q-3 -39 -1 -47q2 -9 11 -20.5t19 -11.5q16 0 27 12t11 26q7 0 22.5 -3.5t23.5 -2.5
q41 0 57 -8q0 -29 -25 -67t-56 -57t-81 -19q-49 0 -91 30.5t-43 82.5v179q-1 17 -1 97.5t1 102.5v232zM349 543q43 1 61.5 -24t18.5 -57q0 -26 -23.5 -50.5t-58.5 -24.5q-34 0 -57.5 26t-23.5 51q0 24 17 47q12 19 27 25t39 7z" />
    <glyph glyph-name="Lslash" unicode="&#x141;" horiz-adv-x="547" 
d="M225 371h-1q5 -196 3 -223q-4 -12 -2.5 -21t15.5 -12q6 -1 49 -1.5t91.5 -1.5t58.5 -1q31 -2 52 2q35 6 46 1q7 -12 3 -91q0 -2 0.5 -7.5t0 -9.5t-4.5 -6h-22h-25q-10 1 -92.5 1t-102.5 -1q-22 -1 -99 0.5t-83 -0.5h-25q-6 0 -4 10q2 17 2 102v150l-107 -81l-16 94l65 51
l57 50v84q-1 17 -4 75t-3 89q-1 18 -1 37t0.5 41t0.5 34q0 2 -1.5 20.5t-0.5 30.5t6 13q21 3 70 3t64 -3q5 -20 5 -124q2 -58 2 -80q0 -9 -1.5 -37t-0.5 -43q1 -12 1 -31l16 12l93 74q9 -15 9 -66l3 -37l-8 -7z" />
    <glyph glyph-name="lslash" unicode="&#x142;" horiz-adv-x="461" 
d="M271 362h-1q0 -60 3 -100q1 -17 0.5 -25t-2 -25t-1.5 -25q-3 -39 -1 -47q2 -9 11 -20.5t19 -11.5q16 0 27 12t11 26q7 0 22.5 -3.5t23.5 -2.5q41 0 57 -8q0 -29 -25 -67t-56 -57t-81 -19q-49 0 -91 30.5t-43 82.5v162l-109 -83l-16 94l65 51l59 51q0 91 2 104v232
q0 27 -1.5 47.5t-1.5 39.5q1 4 17.5 2t19.5 -1q45 5 59 1q34 0 43 -2q4 -6 0 -29q-4 -28 -4 -43q0 -27 0.5 -74.5t0.5 -82.5q0 -4 -0.5 -15.5l-1.5 -34t-2 -39.5l20 15l93 74q9 -15 9 -66l3 -37l-8 -7z" />
    <glyph glyph-name="Nacute" unicode="&#x143;" horiz-adv-x="703" 
d="M384 891q-10 -6 -38 -15t-48 -18q-3 -2 -20 -8.5t-19 -5.5q0 3 -3 7t-7 8t-4 5l-11 8q-4 6 -7.5 10t-5 5.5t-3 2.5t-2 2.5t-0.5 4.5q6 6 16.5 11.5t27 12.5t27.5 13l153 84q11 14 20 12q4 -1 8 -6l5 -4l97 -43l-89 -41l-51 -26zM558 801q5 1 17.5 1t25 -0.5t12.5 -1.5
q1 -3 -1 -6t-2 -6q6 -60 6 -128q0 -29 -2 -85q-1 -29 1 -85t2 -79q0 -113 3 -289q-2 -43 1 -77q3 -30 0 -45h-38q-11 -2 -49.5 -2t-40.5 2q-7 22 -45 94l-80.5 148.5t-44.5 80.5q-3 4 -57 102t-59 110q-2 -9 -1 -19t1 -13q-1 -32 -1 -61.5t1 -83.5t1 -75q0 -20 2 -96
t3.5 -122.5t-0.5 -65.5q-14 -2 -66 0q-8 0 -20 1q-4 0 -14 -1t-18 -1t-12 2q-2 3 -1.5 17t0.5 17q-2 29 -1 44q5 97 1 329q-4 107 2 296v60l-1 11q-1 10 0.5 16.5t5.5 9.5q7 3 44.5 1.5t43.5 -1.5q31 1 40 0q18 -45 125.5 -246t131.5 -250q1 -2 3.5 -9.5t5.5 -12.5t7 -5
q1 6 0.5 22t-0.5 22l-3 187q-2 76 -2 190l3 73q0 5 -1 14.5t-1 14.5q12 -1 37 1h35z" />
    <glyph glyph-name="nacute" unicode="&#x144;" horiz-adv-x="622" 
d="M363 691q-10 -6 -38 -15t-48 -18q-3 -2 -20 -8.5t-19 -5.5q0 3 -3 7t-7 8t-4 5q-8 4 -11 8q-4 6 -7.5 10t-5 5.5t-3 2.5t-2 2.5t-0.5 4.5q6 6 16.5 11.5t27 12.5t27.5 13l153 84q11 14 20 12q4 -1 9 -6l4 -4l97 -43l-89 -41l-51 -26zM567 141q-3 -78 -1 -94v-9.5v-12.5
v-10q1 -15 -9 -17.5t-23 0.5h-33t-33 1q-18 -2 -25 0.5t-6 10.5q2 27 -3 157v126t-4 140q0 24 -22.5 47t-52.5 23q-57 0 -101 -42.5t-53 -110.5q-4 -26 -4 -195q0 -13 -1 -39.5t-1 -48t2 -40.5q0 -1 0.5 -5t0.5 -7.5v-7.5t-1.5 -6.5t-4.5 -2.5q-7 -1 -20 0t-17 1
q-9 -1 -52 1q-19 2 -32 -3q-7 -2 -7 17q1 2 0.5 118t-0.5 141q0 4 -1.5 128t-1.5 150q0 45 2 49q5 2 18 1q37 0 44 -1q7 0 20.5 2t23 1.5t20.5 -3.5q4 -1 5 -7t1 -14.5v-9.5q2 -10 3.5 -28t2.5 -23q11 5 28 22l20 20q17 17 46 30.5t58 14.5q40 2 86.5 -11.5t84 -48.5
t37.5 -82q0 -80 3.5 -182t2.5 -140z" />
    <glyph glyph-name="Ncommaaccent" unicode="&#x145;" horiz-adv-x="703" 
d="M558 801q5 1 17.5 1t25 -0.5t12.5 -1.5q1 -3 -1 -6t-2 -6q6 -60 6 -128q0 -29 -2 -85q-1 -29 1 -85t2 -79q0 -113 3 -289q-2 -43 1 -77q3 -30 0 -45h-38q-11 -2 -49.5 -2t-40.5 2q-7 22 -45 94l-80.5 148.5t-44.5 80.5q-3 4 -57 102t-59 110q-2 -9 -1 -19t1 -13
q-1 -32 -1 -61.5t1 -83.5t1 -75q0 -20 2 -96t3.5 -122.5t-0.5 -65.5q-14 -2 -66 0q-8 0 -20 1q-4 0 -14 -1t-18 -1t-12 2q-2 3 -1.5 17t0.5 17q-2 29 -1 44q5 97 1 329q-4 107 2 296v60l-1 11q-1 10 0.5 16.5t5.5 9.5q7 3 44.5 1.5t43.5 -1.5q31 1 40 0q18 -45 125.5 -246
t131.5 -250q1 -2 3.5 -9.5t5.5 -12.5t7 -5q1 6 0.5 22t-0.5 22l-3 187q-2 76 -2 190l3 73q0 5 -1 14.5t-1 14.5q12 -1 37 1h35zM374 -23q39 -13 41 -61q0 -25 -16 -56.5t-37 -38.5q-46 -25 -69 -25q-3 1 -7 15q-2 7 -1 13t7 5q22 0 33 4q19 10 36 31q-31 2 -49.5 16.5
t-17.5 40.5q1 23 20 42q18 18 60 14z" />
    <glyph glyph-name="ncommaaccent" unicode="&#x146;" horiz-adv-x="622" 
d="M567 141q-3 -78 -1 -94v-9.5v-12.5v-10q1 -15 -9 -17.5t-23 0.5h-33t-33 1q-18 -2 -25 0.5t-6 10.5q2 27 -3 157v126t-4 140q0 24 -22.5 47t-52.5 23q-57 0 -101 -42.5t-53 -110.5q-4 -26 -4 -195q0 -13 -1 -39.5t-1 -48t2 -40.5q0 -1 0.5 -5t0.5 -7.5v-7.5t-1.5 -6.5
t-4.5 -2.5q-7 -1 -20 0t-17 1q-9 -1 -52 1q-19 2 -32 -3q-7 -2 -7 17q1 2 0.5 118t-0.5 141q0 4 -1.5 128t-1.5 150q0 45 2 49q5 2 18 1q37 0 44 -1q7 0 20.5 2t23 1.5t20.5 -3.5q4 -1 5 -7t1 -14.5v-9.5q2 -10 3.5 -28t2.5 -23q11 5 28 22l20 20q17 17 46 30.5t58 14.5
q40 2 86.5 -11.5t84 -48.5t37.5 -82q0 -80 3.5 -182t2.5 -140zM339 -23q39 -13 41 -61q0 -25 -16 -56.5t-37 -38.5q-46 -25 -69 -25q-3 1 -7 15q-2 7 -1 13t7 5q22 0 33 4q19 10 36 31q-31 2 -49.5 16.5t-17.5 40.5q1 23 20 42q18 18 60 14z" />
    <glyph glyph-name="Ncaron" unicode="&#x147;" horiz-adv-x="703" 
d="M359 836q-1 0 -8 5l-15 11t-9 6q-12 7 -50 38.5l-69 59.5l-32 29q0 1 10.5 10.5l23.5 20.5l18 15l131 -99l130 99l52 -46q-124 -112 -151 -127zM558 801q5 1 17.5 1t25 -0.5t12.5 -1.5q1 -3 -1 -6t-2 -6q6 -60 6 -128q0 -29 -2 -85q-1 -29 1 -85t2 -79q0 -113 3 -289
q-2 -43 1 -77q3 -30 0 -45h-38q-11 -2 -49.5 -2t-40.5 2q-7 22 -45 94l-80.5 148.5t-44.5 80.5q-3 4 -57 102t-59 110q-2 -9 -1 -19t1 -13q-1 -32 -1 -61.5t1 -83.5t1 -75q0 -20 2 -96t3.5 -122.5t-0.5 -65.5q-14 -2 -66 0q-8 0 -20 1q-4 0 -14 -1t-18 -1t-12 2
q-2 3 -1.5 17t0.5 17q-2 29 -1 44q5 97 1 329q-4 107 2 296v60l-1 11q-1 10 0.5 16.5t5.5 9.5q7 3 44.5 1.5t43.5 -1.5q31 1 40 0q18 -45 125.5 -246t131.5 -250q1 -2 3.5 -9.5t5.5 -12.5t7 -5q1 6 0.5 22t-0.5 22l-3 187q-2 76 -2 190l3 73q0 5 -1 14.5t-1 14.5q12 -1 37 1
h35z" />
    <glyph glyph-name="ncaron" unicode="&#x148;" horiz-adv-x="622" 
d="M338 636q-1 0 -8 5l-15 11t-9 6q-12 7 -50 38.5l-70 59.5l-31 29q0 1 10.5 10.5l23.5 20.5l18 15l131 -99l130 99l52 -46q-124 -112 -151 -127zM567 141q-3 -78 -1 -94v-9.5v-12.5v-10q1 -15 -9 -17.5t-23 0.5h-33t-33 1q-18 -2 -25 0.5t-6 10.5q2 27 -3 157v126t-4 140
q0 24 -22.5 47t-52.5 23q-57 0 -101 -42.5t-53 -110.5q-4 -26 -4 -195q0 -13 -1 -39.5t-1 -48t2 -40.5q0 -1 0.5 -5t0.5 -7.5v-7.5t-1.5 -6.5t-4.5 -2.5q-7 -1 -20 0t-17 1q-9 -1 -52 1q-19 2 -32 -3q-7 -2 -7 17q1 2 0.5 118t-0.5 141q0 4 -1.5 128t-1.5 150q0 45 2 49
q5 2 18 1q37 0 44 -1q7 0 20.5 2t23 1.5t20.5 -3.5q4 -1 5 -7t1 -14.5v-9.5q2 -10 3.5 -28t2.5 -23q11 5 28 22l20 20q17 17 46 30.5t58 14.5q40 2 86.5 -11.5t84 -48.5t37.5 -82q0 -80 3.5 -182t2.5 -140z" />
    <glyph glyph-name="Omacron" unicode="&#x14c;" horiz-adv-x="827" 
d="M538 964q-18 0 -111 -3.5t-137 -0.5q3 -10 3.5 -20t-0.5 -24t-1 -21q87 7 252 5q-8 44 -6 64zM474 804q41 0 99.5 -28t84.5 -55q70 -64 100.5 -126.5t35.5 -151.5q5 -85 -18.5 -164.5t-71 -142.5t-124.5 -102t-171 -42q-53 -2 -101 12.5t-83 37.5t-65.5 56.5t-50 63.5
t-35.5 63q-48 98 -41 212q5 72 39 141t62 101q39 40 96 73q77 37 126 48t118 4zM431 700q-52 5 -95 -13t-70 -49.5t-45 -74t-25.5 -84t-6.5 -81.5q1 -64 31 -143q28 -72 88 -113t135 -39q55 2 97.5 37.5t65.5 88t32.5 109t4.5 103.5q-47 245 -212 259z" />
    <glyph glyph-name="omacron" unicode="&#x14d;" horiz-adv-x="624" 
d="M435 764q-17 0 -110.5 -3.5t-137.5 -0.5q3 -10 3.5 -20t-0.5 -24t-1 -21q87 7 252 5q-8 44 -6 64zM303 606q5 1 38 -2.5t52 -9.5q70 -16 117.5 -72t64 -126.5t5.5 -139.5q-8 -50 -24 -91t-34 -67.5t-42.5 -47t-44 -31t-45 -18t-39 -9.5t-31.5 -4q-32 -3 -71.5 2.5
t-62.5 19.5q-7 4 -29 20l-1 1l-1 1l-1 1l-1 1l-2 1q-41 39 -51 55q-3 5 -11 20l-15 28q-10 26 -16.5 45t-9.5 34t-4 23t-1.5 24.5t-1.5 24.5q-8 91 31.5 162.5t110.5 115.5q59 39 120 39zM318 501q-31 0 -50.5 -7.5t-29 -16.5t-31.5 -36q-17 -20 -26.5 -64.5t-8.5 -77.5
q0 -30 7.5 -62t23 -64.5t45 -53.5t69.5 -21q56 0 97 58.5t41 137.5q0 39 -7 73.5t-21.5 66t-42.5 49.5t-66 18z" />
    <glyph glyph-name="Ohungarumlaut" unicode="&#x150;" horiz-adv-x="827" 
d="M358 951q10 8 14.5 12t6.5 7t15 16t35 33q0 5 4 10.5t10 5.5q3 1 6.5 -2t5.5 -3l21 -2q20 -2 40.5 -5t24.5 -7l-64 -55q-7 -7 -18.5 -17.5t-17.5 -16.5l-34 -26q-7 -8 -22.5 -18t-31.5 -22l-8 -6q-23 -20 -27 -19q-6 3 -9 5t-4 3t-2 1.5t-3.5 1.5l-7.5 3q-7 6 -12.5 8
t-7 3t-1.5 5l50 49zM541 951q10 8 14.5 12t6.5 7t15 16t35 33q0 5 4 10.5t10 5.5q3 1 6.5 -2t5.5 -3l20 -2q21 -2 41.5 -5t24.5 -7l-64 -55q-7 -7 -18.5 -17.5t-17.5 -16.5l-34 -26q-7 -8 -22.5 -18t-31.5 -22l-8 -6q-23 -20 -27 -19q-6 3 -9 5t-4 3t-2 1.5t-3.5 1.5l-7.5 3
q-7 6 -12.5 8t-7 3t-1.5 5l50 49zM474 804q41 0 99.5 -28t84.5 -55q70 -64 100.5 -126.5t35.5 -151.5q5 -85 -18.5 -164.5t-71 -142.5t-124.5 -102t-171 -42q-53 -2 -101 12.5t-83 37.5t-65.5 56.5t-50 63.5t-35.5 63q-48 98 -41 212q5 72 39 141t62 101q39 40 96 73
q77 37 126 48t118 4zM431 700q-52 5 -95 -13t-70 -49.5t-45 -74t-25.5 -84t-6.5 -81.5q1 -64 31 -143q28 -72 88 -113t135 -39q55 2 97.5 37.5t65.5 88t32.5 109t4.5 103.5q-47 245 -212 259z" />
    <glyph glyph-name="ohungarumlaut" unicode="&#x151;" horiz-adv-x="624" 
d="M255 751q10 8 14.5 12t6.5 7t15 16t35 33q0 5 4 10.5t10 5.5q3 1 6.5 -2t5.5 -3l20 -2q21 -2 41.5 -5t24.5 -7l-64 -55q-7 -7 -18.5 -17.5t-17.5 -16.5l-34 -26q-7 -8 -22.5 -18t-31.5 -22l-8 -6q-23 -20 -27 -19q-6 3 -9 5t-4 3t-2 1.5t-3.5 1.5l-7.5 3q-7 6 -12.5 8
t-7 3t-1.5 5l50 49zM438 751q10 8 14.5 12t6.5 7t15 16t35 33q0 5 4 10.5t10 5.5q3 1 6.5 -2t5.5 -3l21 -2q20 -2 40.5 -5t24.5 -7l-64 -55q-7 -7 -18.5 -17.5t-17.5 -16.5l-34 -26q-7 -8 -22.5 -18t-31.5 -22l-8 -6q-23 -20 -27 -19q-6 3 -9 5t-4 3t-2 1.5t-3.5 1.5l-7.5 3
q-7 6 -12.5 8t-7 3t-1.5 5l50 49zM303 606q5 1 38 -2.5t52 -9.5q70 -16 117.5 -72t64 -126.5t5.5 -139.5q-8 -50 -24 -91t-34 -67.5t-42.5 -47t-44 -31t-45 -18t-39 -9.5t-31.5 -4q-32 -3 -71.5 2.5t-62.5 19.5q-7 4 -29 20l-1 1l-1 1l-1 1l-1 1l-2 1q-41 39 -51 55
q-3 5 -11 20l-15 28q-10 26 -16.5 45t-9.5 34t-4 23t-1.5 24.5t-1.5 24.5q-8 91 31.5 162.5t110.5 115.5q59 39 120 39zM318 501q-31 0 -50.5 -7.5t-29 -16.5t-31.5 -36q-17 -20 -26.5 -64.5t-8.5 -77.5q0 -30 7.5 -62t23 -64.5t45 -53.5t69.5 -21q56 0 97 58.5t41 137.5
q0 39 -7 73.5t-21.5 66t-42.5 49.5t-66 18z" />
    <glyph glyph-name="OE" unicode="&#x152;" horiz-adv-x="964" 
d="M889 119q13 3 25.5 0.5t9.5 -18.5q-8 -37 -7 -53v-14.5t2 -17.5q2 -16 -6 -16h-37q-165 4 -328 -5q-2 0 -19 -2.5t-28 -1.5t-13 9q-50 -12 -79 -13q-66 -2 -122.5 19.5t-97.5 60.5t-67.5 77t-47.5 81q-48 98 -41 212q5 72 39 141t62 101q39 40 96 73q77 37 126 48t118 4
q4 0 16.5 -2t20.5 -2q10 -2 113 -0.5t130 3.5l49 -3q2 0 31.5 2.5t30.5 -1.5q3 -3 19.5 -1t20.5 2q10 0 10 -18q-5 -30 -5 -76q0 -3 -1 -4.5l-2 -3t-3.5 -2t-4 -0.5t-5 -0.5t-4.5 -0.5l-192 -2l-55 -4q-17 0 -18 -10q0 -5 0.5 -33.5t1 -62t0.5 -43.5v-40q0 -28 4 -32
q7 -6 36 -3l49 3q15 2 62 2.5t50 0.5q19 3 20 -4v-35q0 -8 1 -21l1.5 -20t-0.5 -14.5t-4.5 -11t-10.5 -3.5h-49.5h-40.5h-31.5h-24.5h-17.5t-13.5 -0.5t-8.5 -1t-5.5 -1.5l-4 -2q-5 -4 -6.5 -34.5t-0.5 -88.5l1 -58v-50q-1 -14 14.5 -16.5t90.5 -0.5zM484 689l-1 -1
q-24 9 -52 12q-52 5 -95 -13t-70 -49.5t-45 -74t-25.5 -84t-6.5 -81.5q1 -64 31 -143q28 -72 88 -113t135 -39q25 1 48 9l1 101q3 1 0.5 17t-2.5 18q-3 80 -4 138.5t-1 85v33.5q-1 27 -1 176v8z" />
    <glyph glyph-name="oe" unicode="&#x153;" horiz-adv-x="1024" 
d="M649 282q-77 6 -77 -13q0 -44 6 -64q28 -96 126 -108q31 -4 65.5 11t57.5 40q3 3 14 21.5t14 21.5q1 1 15 -4.5l32 -12.5t26 -9q1 0 6.5 -1t12 -2t13 -2.5t11 -3.5t4.5 -4q1 -7 -3 -15t-11.5 -18.5t-9.5 -13.5q-27 -56 -87.5 -86t-110.5 -34q-21 -1 -74.5 2.5t-68.5 8.5
q-50 18 -108 76q-64 -72 -182 -84q-32 -3 -71.5 2.5t-62.5 19.5q-21 10 -52.5 44t-59.5 84q-10 26 -16.5 45t-9.5 34t-4 23t-1.5 24.5t-1.5 24.5q-8 90 32 162.5t110 115.5q59 39 120 39q5 1 38 -2.5t52 -9.5q73 -17 122 -78q73 88 187 92q59 0 97.5 -10.5t80.5 -38.5
q28 -29 40 -44t29 -51t29 -86l9 -84q-2 -2 -6.5 -3t-10 -1h-7.5q-75 -8 -314 -8zM610 462q-1 -1 -7.5 -11.5t-11 -19.5l-11 -22.5t-7 -21t2.5 -15.5q1 -1 167 -1q8 1 16.5 1h14.5q8 2 22 1.5t37.5 -1.5t26.5 -1q-3 21 -19.5 51.5t-29.5 46.5q-36 36 -107 36q-24 0 -56 -15
t-38 -28zM317 98q56 0 97 58.5t41 137.5q0 39 -7 73.5t-21.5 66t-42.5 49.5t-66 18q-31 0 -50.5 -7.5t-29 -16.5t-31.5 -36q-17 -20 -26.5 -64.5t-8.5 -77.5q0 -30 7.5 -62t23 -64.5t45 -53.5t69.5 -21z" />
    <glyph glyph-name="Racute" unicode="&#x154;" horiz-adv-x="570" 
d="M304 889q-10 -6 -38 -15t-48 -18q-3 -2 -20 -8.5t-19 -5.5q0 3 -3 7t-7 8t-4 5q-7 4 -11 8q-4 6 -7.5 10t-5 5.5t-3 2.5t-2 2.5t-0.5 4.5q6 6 16.5 11.5t27 12.5t27.5 13l153 84q11 14 20 12q3 0 5.5 -2t4.5 -4.5t3 -3.5l97 -43l-89 -41l-51 -26zM81 732q-1 7 1.5 20
t2.5 19q-3 24 1 29h15q16 -1 33 0q133 5 155 4q98 -3 159 -60.5t61 -152.5q0 -42 -16 -83.5t-34 -64.5q-25 -27 -49 -40q4 -8 18.5 -18.5t16.5 -12.5q32 -34 53 -90t23 -111q1 -36 0 -72q-2 -60 3 -78q1 -4 6.5 -10.5t4.5 -9t-11 -3.5l-114 2q-19 3 -24 45q-2 13 0.5 38
t2.5 33q0 58 -15.5 128.5t-53.5 101.5q-14 12 -19 15.5t-15 8t-21 5.5t-31 1q-12 0 -13.5 -14.5t-0.5 -80.5q3 -135 1 -261q1 -15 -4 -19.5t-20 -2.5q-1 0 -11 1q-95 6 -93 -3q-6 0 -10 4.5t-2 10.5q2 7 0 36v251q0 29 2 158t-2 158q-2 27 0 81v37zM224 689q-4 -23 -4.5 -61
t0 -83.5t0.5 -60.5q0 -10 23 -10t48 5t36 10q52 28 55 74q5 57 -19.5 88t-60.5 35q-52 6 -78 3z" />
    <glyph glyph-name="racute" unicode="&#x155;" horiz-adv-x="463" 
d="M253 689q-10 -6 -38 -15t-48 -18q-3 -2 -20 -8.5t-19 -5.5q0 3 -3 7t-7 8t-4 5q-8 4 -11 8q-4 6 -7.5 10t-5 5.5t-3 2.5t-2 2.5t-0.5 4.5q6 6 16.5 11.5t27 12.5t27.5 13l153 84q11 14 20 12q3 0 5.5 -2t4.5 -4.5t3 -3.5l97 -43l-89 -41l-51 -26zM62 588q-1 5 1 13l55 -1
q2 0 20.5 1t32 1.5t25.5 -0.5q10 -2 3 -29q-2 -9 -2.5 -27t0 -33.5t-0.5 -29.5q6 3 18 20q3 5 31 31.5t40 36.5q50 34 108 37q17 0 45 -8q-9 -40 -64 -174q-47 44 -74 43q-20 -1 -38.5 -17t-28.5 -31t-23 -41q-7 -15 -12 -58t-3 -56v-134q0 -69 1 -86q0 -2 0.5 -14t-0.5 -21
t-5 -12h-7q-6 0 -13 0.5t-10 0.5q-14 -5 -75 0q-4 0 -11.5 -2t-11.5 1q-1 1 -3 310q0 124 2 159v120z" />
    <glyph glyph-name="Rcommaaccent" unicode="&#x156;" horiz-adv-x="570" 
d="M81 732q-1 7 1.5 20t2.5 19q-3 24 1 29h15q16 -1 33 0q133 5 155 4q98 -3 159 -60.5t61 -152.5q0 -42 -16 -83.5t-34 -64.5q-25 -27 -49 -40q4 -8 18.5 -18.5t16.5 -12.5q32 -34 53 -90t23 -111q1 -36 0 -72q-2 -60 3 -78q1 -4 6.5 -10.5t4.5 -9t-11 -3.5l-114 2
q-19 3 -24 45q-2 13 0.5 38t2.5 33q0 58 -15.5 128.5t-53.5 101.5q-14 12 -19 15.5t-15 8t-21 5.5t-31 1q-12 0 -13.5 -14.5t-0.5 -80.5q3 -135 1 -261q1 -15 -4 -19.5t-20 -2.5q-1 0 -11 1q-95 6 -93 -3q-6 0 -10 4.5t-2 10.5q2 7 0 36v251q0 29 2 158t-2 158q-2 27 0 81
v37zM224 689q-4 -23 -4.5 -61t0 -83.5t0.5 -60.5q0 -10 23 -10t48 5t36 10q52 28 55 74q5 57 -19.5 88t-60.5 35q-52 6 -78 3zM323 -21q39 -13 41 -61q0 -25 -16 -56.5t-37 -38.5q-46 -25 -69 -25q-3 1 -7 15q-2 7 -1 13t7 5q22 0 33 4q19 10 36 31q-31 2 -49.5 16.5
t-17.5 40.5q1 23 20 42q18 18 60 14z" />
    <glyph glyph-name="rcommaaccent" unicode="&#x157;" horiz-adv-x="463" 
d="M62 588q-1 5 1 13l55 -1q2 0 20.5 1t32 1.5t25.5 -0.5q10 -2 3 -29q-2 -9 -2.5 -27t0 -33.5t-0.5 -29.5q6 3 18 20q3 5 31 31.5t40 36.5q50 34 108 37q17 0 45 -8q-9 -40 -64 -174q-47 44 -74 43q-20 -1 -38.5 -17t-28.5 -31t-23 -41q-7 -15 -12 -58t-3 -56v-134
q0 -69 1 -86q0 -2 0.5 -14t-0.5 -21t-5 -12h-7q-6 0 -13 0.5t-10 0.5q-14 -5 -75 0q-4 0 -11.5 -2t-11.5 1q-1 1 -3 310q0 124 2 159v120zM147 -21q39 -13 41 -61q0 -25 -16 -56.5t-37 -38.5q-46 -25 -69 -25q-3 1 -7 15q-2 7 -1 13t7 5q22 0 33 4q19 10 36 31
q-31 2 -49.5 16.5t-17.5 40.5q1 23 20 42q18 18 60 14z" />
    <glyph glyph-name="Rcaron" unicode="&#x158;" horiz-adv-x="570" 
d="M279 834q-1 0 -8 5l-15 11t-9 6q-12 7 -49.5 38.5l-69.5 59.5l-32 29q0 1 10.5 10.5l23.5 20.5l18 15l131 -99l130 99l52 -46q-124 -112 -151 -127zM81 732q-1 7 1.5 20t2.5 19q-3 24 1 29h15q16 -1 33 0q133 5 155 4q98 -3 159 -60.5t61 -152.5q0 -42 -16 -83.5
t-34 -64.5q-25 -27 -49 -40q4 -8 18.5 -18.5t16.5 -12.5q32 -34 53 -90t23 -111q1 -36 0 -72q-2 -60 3 -78q1 -4 6.5 -10.5t4.5 -9t-11 -3.5l-114 2q-19 3 -24 45q-2 13 0.5 38t2.5 33q0 58 -15.5 128.5t-53.5 101.5q-14 12 -19 15.5t-15 8t-21 5.5t-31 1q-12 0 -13.5 -14.5
t-0.5 -80.5q3 -135 1 -261q1 -15 -4 -19.5t-20 -2.5q-1 0 -11 1q-95 6 -93 -3q-6 0 -10 4.5t-2 10.5q2 7 0 36v251q0 29 2 158t-2 158q-2 27 0 81v37zM224 689q-4 -23 -4.5 -61t0 -83.5t0.5 -60.5q0 -10 23 -10t48 5t36 10q52 28 55 74q5 57 -19.5 88t-60.5 35q-52 6 -78 3z
" />
    <glyph glyph-name="rcaron" unicode="&#x159;" horiz-adv-x="463" 
d="M228 634q-1 0 -8 5l-15 11t-9 6q-12 7 -49.5 38.5l-69.5 59.5l-32 29q0 1 10.5 10.5l23.5 20.5l18 15l131 -99l130 99l52 -46q-124 -112 -151 -127zM62 588q-1 5 1 13l55 -1q2 0 20.5 1t32 1.5t25.5 -0.5q10 -2 3 -29q-2 -9 -2.5 -27t0 -33.5t-0.5 -29.5q6 3 18 20
q3 5 31 31.5t40 36.5q50 34 108 37q17 0 45 -8q-9 -40 -64 -174q-47 44 -74 43q-20 -1 -38.5 -17t-28.5 -31t-23 -41q-7 -15 -12 -58t-3 -56v-134q0 -69 1 -86q0 -2 0.5 -14t-0.5 -21t-5 -12h-7q-6 0 -13 0.5t-10 0.5q-14 -5 -75 0q-4 0 -11.5 -2t-11.5 1q-1 1 -3 310
q0 124 2 159v120z" />
    <glyph glyph-name="Sacute" unicode="&#x15a;" horiz-adv-x="604" 
d="M337 889q-10 -6 -38 -15t-48 -18q-3 -2 -20 -8.5t-19 -5.5q0 3 -3 7t-7 8t-4 5q-7 4 -11 8q-4 6 -7.5 10t-5 5.5t-3 2.5t-2 2.5t-0.5 4.5q6 6 16.5 11.5t27 12.5t27.5 13l153 84q11 14 20 12q3 0 5.5 -2t4.5 -4.5t3 -3.5l97 -43l-89 -41l-51 -26zM311 806q45 -2 91.5 -21
t84 -60.5t41.5 -94.5q-4 -7 -84 -7q-2 0 -22.5 -5t-22.5 -4q-7 21 -11.5 32t-16.5 26t-32 22t-49 7q-21 0 -53 -18t-40 -40q-21 -60 5 -95q14 -21 36 -35.5t58 -31t55 -28.5l37.5 -20t35.5 -19.5l30.5 -18t29.5 -19.5l23.5 -20t21.5 -23.5l15.5 -26t12.5 -31t5.5 -35.5
t2.5 -43q-1 -55 -42 -103.5t-96.5 -74t-105.5 -27.5q-68 -2 -80 -1q-84 7 -137 50q-21 17 -47.5 64t-26.5 68q0 6 7.5 9t19 3.5t12.5 0.5q2 0 21.5 5t45.5 7q22 2 26 4q9 4 13 -7q29 -81 118 -84q49 -1 91.5 26t42.5 60q0 25 -6.5 43.5t-23.5 34.5t-29 24.5t-40 24.5
q-7 4 -10 6l-40 20l-74 39t-73.5 47.5t-51.5 51.5q-32 63 -18.5 126.5t59.5 113.5q35 37 89.5 58.5t101.5 19.5z" />
    <glyph glyph-name="sacute" unicode="&#x15b;" horiz-adv-x="515" 
d="M286 698q-10 -6 -38 -15t-48 -18q-3 -2 -20 -8.5t-19 -5.5q0 3 -3 7t-7 8t-4 5q-8 4 -11 8q-4 6 -7.5 10t-5 5.5t-3 2.5t-2 2.5t-0.5 4.5q6 6 16.5 11.5t27 12.5t27.5 13l153 84q11 14 20 12q3 0 5.5 -2t4.5 -4.5t3 -3.5l97 -43l-89 -41l-51 -26zM384 576q68 -43 76 -96
q0 -8 -22 -17t-49 -15.5t-28 -7.5l-6 -3q-6 -3 -7.5 -3t-6.5 2q-5 32 -31.5 49t-51.5 17q-48 0 -61 -46q-7 -27 24 -50q5 -4 76 -46t88 -53q22 -14 39.5 -32.5t33.5 -47t16.5 -60t-13.5 -72.5q-21 -47 -75 -76.5t-122 -29.5q-62 0 -98.5 12t-77.5 48l-8 9l-16.5 18.5
t-16.5 21t-10.5 18.5t1.5 11q14 9 45 18.5t39 12.5q32 14 36 8q24 -38 44.5 -51t64.5 -13q21 0 40 11.5t27 30.5q7 17 -12 40t-43 35q-10 5 -39.5 23l-60.5 36.5l-36 21.5q-88 56 -84 143q2 40 23.5 77t60.5 57q52 27 104 29q75 4 137 -30z" />
    <glyph glyph-name="Scedilla" unicode="&#x15e;" horiz-adv-x="604" 
d="M351 453h-1l37.5 -20t35.5 -19.5l30.5 -18t29.5 -19.5l23.5 -20t21.5 -23.5l15.5 -26t12.5 -31t5.5 -35.5t2.5 -43q-1 -78 -75.5 -137t-154.5 -67q0 -3 -1.5 -9t-1.5 -11q24 -5 39.5 -21.5t18.5 -38.5t-2 -43.5t-20.5 -38.5t-37.5 -21q-44 -8 -85 27q-28 28 -23 44
q1 5 4 7t9 4.5t8 3.5q10 -18 36 -29.5t41 8.5q16 33 -8 52.5t-58 16.5l4 20.5l5 25.5q-14 0 -21 1q-84 7 -137 50q-21 17 -47.5 64t-26.5 68q0 6 7.5 9t19 3.5t12.5 0.5q2 0 21.5 5t45.5 7q22 2 26 4q9 4 13 -7q29 -81 118 -84q49 -1 91.5 26t42.5 60q0 25 -6.5 43.5
t-23.5 34.5t-29 24.5t-40 24.5q-7 4 -10 6l-40 20l-74 39t-73.5 47.5t-51.5 51.5q-32 63 -18.5 126.5t59.5 113.5q35 37 89.5 58.5t101.5 19.5q45 -2 91.5 -21t84 -60.5t41.5 -94.5q-4 -7 -84 -7q-2 0 -22.5 -5t-22.5 -4q-7 21 -11.5 32t-16.5 26t-32 22t-49 7
q-21 0 -53 -18t-40 -40q-21 -60 5 -95q14 -21 36 -35.5t58 -31t55 -28.5z" />
    <glyph glyph-name="scedilla" unicode="&#x15f;" horiz-adv-x="515" 
d="M385 307h-1q22 -14 39.5 -32.5t33.5 -47t16.5 -60t-13.5 -72.5q-20 -43 -67.5 -72t-108.5 -33q0 -3 -1.5 -9t-1.5 -10q24 -5 39.5 -21.5t18.5 -38.5t-2 -43.5t-20.5 -38.5t-37.5 -21q-44 -8 -85 27q-28 28 -23 44q1 5 4 7t9 4.5t8 3.5q10 -18 36 -29.5t41 8.5
q16 33 -8 52.5t-58 16.5q1 7 4.5 22.5t5.5 26.5q-65 7 -125 58l-8 9l-16.5 18.5t-16.5 21t-10.5 18.5t1.5 11q14 9 45 18.5t39 12.5q32 14 36 8q24 -38 44.5 -51t64.5 -13q21 0 40 11.5t27 30.5q7 17 -12 40t-43 35q-10 5 -39.5 23l-60.5 36.5l-36 21.5q-88 56 -84 143
q2 40 23.5 77t60.5 57q52 27 104 29q75 4 137 -30q68 -43 76 -96q0 -8 -22 -17t-49 -15.5t-28 -7.5l-6 -3q-6 -3 -7.5 -3t-6.5 2q-5 32 -31.5 49t-51.5 17q-48 0 -61 -46q-7 -27 24 -50q5 -4 76 -46t88 -53z" />
    <glyph glyph-name="Scaron" unicode="&#x160;" horiz-adv-x="604" 
d="M312 834q-1 0 -8 5l-15 11t-9 6q-12 7 -50 38.5l-70 59.5l-31 29q0 1 10.5 10.5l23.5 20.5l18 15l131 -99l130 99l52 -46q-124 -112 -151 -127zM311 806q45 -2 91.5 -21t84 -60.5t41.5 -94.5q-4 -7 -84 -7q-2 0 -22.5 -5t-22.5 -4q-7 21 -11.5 32t-16.5 26t-32 22t-49 7
q-21 0 -53 -18t-40 -40q-21 -60 5 -95q14 -21 36 -35.5t58 -31t55 -28.5l37.5 -20t35.5 -19.5l30.5 -18t29.5 -19.5l23.5 -20t21.5 -23.5l15.5 -26t12.5 -31t5.5 -35.5t2.5 -43q-1 -55 -42 -103.5t-96.5 -74t-105.5 -27.5q-68 -2 -80 -1q-84 7 -137 50q-21 17 -47.5 64
t-26.5 68q0 6 7.5 9t19 3.5t12.5 0.5q2 0 21.5 5t45.5 7q22 2 26 4q9 4 13 -7q29 -81 118 -84q49 -1 91.5 26t42.5 60q0 25 -6.5 43.5t-23.5 34.5t-29 24.5t-40 24.5q-7 4 -10 6l-40 20l-74 39t-73.5 47.5t-51.5 51.5q-32 63 -18.5 126.5t59.5 113.5q35 37 89.5 58.5
t101.5 19.5z" />
    <glyph glyph-name="scaron" unicode="&#x161;" horiz-adv-x="515" 
d="M261 643q-1 0 -8 5l-15 11t-9 6q-12 7 -49.5 38.5l-69.5 60.5l-32 28q0 1 10.5 10.5l23.5 20.5l18 15l131 -99l130 99l52 -46q-124 -112 -151 -127zM384 576q68 -43 76 -96q0 -8 -22 -17t-49 -15.5t-28 -7.5l-6 -3q-6 -3 -7.5 -3t-6.5 2q-5 32 -31.5 49t-51.5 17
q-48 0 -61 -46q-7 -27 24 -50q5 -4 76 -46t88 -53q22 -14 39.5 -32.5t33.5 -47t16.5 -60t-13.5 -72.5q-21 -47 -75 -76.5t-122 -29.5q-62 0 -98.5 12t-77.5 48l-8 9l-16.5 18.5t-16.5 21t-10.5 18.5t1.5 11q14 9 45 18.5t39 12.5q32 14 36 8q24 -38 44.5 -51t64.5 -13
q21 0 40 11.5t27 30.5q7 17 -12 40t-43 35q-10 5 -39.5 23l-60.5 36.5l-36 21.5q-88 56 -84 143q2 40 23.5 77t60.5 57q52 27 104 29q75 4 137 -30z" />
    <glyph glyph-name="Tcedilla" unicode="&#x162;" horiz-adv-x="627" 
d="M242 93l1 -1q-1 29 0.5 83t1.5 75q0 28 1.5 83t1.5 83q1 55 1 166v28t-1 41t-5 26q-2 4 -6 6.5t-10.5 3t-11.5 0t-12 -1.5t-8 -1q-16 -1 -141 -1q-3 0 -10 -1t-12.5 -1t-9.5 2q-4 1 -4 16q2 22 -3 71q0 26 4 29q5 5 27 2q24 -4 36 -2q23 1 92 0t89 1q6 1 110.5 1
t125.5 -1h29t43.5 -0.5t34.5 -0.5q4 -1 4 -21q0 -10 2.5 -35t1.5 -39t-7 -14q-8 -1 -82.5 -2t-85.5 -1q-4 0 -18.5 1t-24.5 0.5t-14 -3.5q-2 0 -0.5 -6.5t0.5 -8.5q-1 -16 -1 -83t1 -89q4 -70 2 -168q0 -17 1 -52t0.5 -62t-2.5 -51v-70q1 -35 -4 -80v-5v-6v-5q-11 -2 -30 0
q1 -4 -1 -10.5t-2 -11.5q24 -5 39.5 -21.5t18.5 -38.5t-2 -43.5t-20.5 -38.5t-37.5 -21q-44 -8 -85 27q-28 28 -23 44q1 5 4 7t9 4.5t8 3.5q10 -18 36 -29.5t41 8.5q16 33 -8 52.5t-58 16.5q0 2 4 21t5 32l-5 -1q-28 -2 -28 16z" />
    <glyph glyph-name="tcedilla" unicode="&#x163;" horiz-adv-x="433" 
d="M383 527h-1q3 -24 1 -29q-5 -7 -19 -4q-42 0 -59 -2q-17 0 -20 -6q-9 -85 -4 -212q0 -36 3 -138q4 -92 -4 -136q-6 -3 -27 0q1 -4 -0.5 -10.5t-1.5 -10.5q24 -5 39.5 -21.5t18.5 -38.5t-2 -43.5t-20.5 -38.5t-37.5 -21q-44 -8 -85 27q-28 28 -23 44q1 5 4 7t9 4.5t8 3.5
q10 -18 36 -29.5t41 8.5q16 33 -8 52.5t-58 16.5q1 8 4 22.5l5 24.5l-11 1q-2 1 -9.5 -1t-8.5 3q-1 4 -1.5 71t-1.5 156t-2 128q-7 133 -11 134q-12 3 -44.5 2.5t-36.5 -4.5q-8 10 -5 31q-1 8 0 30.5t1 26.5q-8 23 0 26q6 2 18 0q58 0 70 1q16 1 11 26q-1 10 -1 30.5
t-3 33.5q-2 11 5 14t17.5 1.5t18.5 1.5q8 0 28.5 1t34 0.5t18.5 -2.5q7 -3 4 -27v-6.5v-9.5v-11v-12v-12v-11v-8.5v-5.5v-2q2 -3 7.5 -4t13.5 0t9 1q12 -1 38 1h24q3 0 5 -1t3 -2t2 -4l1.5 -4.5t1 -5.5t0.5 -6z" />
    <glyph glyph-name="Tcaron" unicode="&#x164;" horiz-adv-x="627" 
d="M317 818q-1 0 -8 5l-15 11t-9 6q-12 7 -49.5 38.5l-69.5 59.5l-32 29q0 1 10.5 10.5l23.5 20.5l18 15l131 -99l130 99l52 -46q-124 -112 -151 -127zM242 93q-1 29 0.5 83t1.5 75q0 27 1.5 83t1.5 83q1 55 1 166v28t-1 41t-5 26q-2 4 -6 6.5t-10.5 3t-11.5 0t-12 -1.5
t-8 -1q-16 -1 -141 -1q-3 0 -10 -1t-12.5 -1t-9.5 2q-4 1 -4 16q2 22 -3 71q0 26 4 29q5 5 27 2q24 -4 36 -2q23 1 92 0t89 1q6 1 110.5 1t125.5 -1h29t43.5 -0.5t34.5 -0.5q4 -1 4 -21q0 -10 2.5 -35t1.5 -39t-7 -14q-8 -1 -82.5 -2t-85.5 -1q-4 0 -18.5 1t-24.5 0.5
t-14 -3.5q-2 0 -0.5 -6.5t0.5 -8.5q-1 -16 -1 -83t1 -89q4 -70 2 -168q0 -17 1 -52t0.5 -62t-2.5 -51v-70q1 -35 -4 -80v-16h-43q-13 0 -34.5 1t-28.5 -1q-28 -2 -28 16z" />
    <glyph glyph-name="tcaron" unicode="&#x165;" horiz-adv-x="433" 
d="M491 792q36 0 56 -22t22 -58q0 -45 -12 -66q-17 -35 -50 -57q-17 -12 -48 -24q-28 -12 -50 -7q-6 3 -6 18q0 2 -1 6.5t-1 6.5t0.5 5t2.5 4t5 1q31 0 45 5q30 12 46 40q-3 0 -12 1.5t-14 2t-12 2.5t-12 5t-10 7q-27 31 -25 55q0 28 29 55q20 20 47 20zM383 527
q3 -24 1 -29q-5 -7 -19 -4q-43 0 -59 -2q-17 0 -20 -6q-9 -85 -4 -212q0 -36 3 -138q4 -92 -4 -136q-4 -2 -10.5 -2t-12.5 1l-7 1q-18 3 -42 -0.5t-38 -1.5q-2 1 -9.5 -1t-8.5 3q-1 4 -1.5 71t-1.5 156t-2 128q-7 133 -11 134q-12 3 -44.5 2.5t-36.5 -4.5q-8 10 -5 31
q-1 8 0 30.5t1 26.5q-8 23 0 26q6 2 18 0q58 0 70 1q16 1 11 26q-1 10 -1 30.5t-3 33.5q-2 11 5 14t17.5 1.5t18.5 1.5q8 0 28.5 1t34 0.5t18.5 -2.5q7 -3 4 -27v-6.5v-9.5v-11v-12v-12v-11v-8.5v-5.5v-2q2 -3 7.5 -4t13.5 0t9 1q12 -1 38 1h24q3 0 5 -1t3 -2t2 -4l1.5 -4.5
t1 -5.5t0.5 -6z" />
    <glyph glyph-name="Tbar" unicode="&#x166;" horiz-adv-x="627" 
d="M242 93l-2 -1q-1 29 0.5 83t1.5 75q0 20 0.5 42.5t1.5 50t1 42.5h-38q-7 1 -42 2t-47 -1q-3 0 -9.5 -2t-9.5 -1q2 43 3 49q0 1 -0.5 4.5t-0.5 5.5q0 7 18 7q78 -4 127 -1q1 45 1 134v28t-1 41t-5 26q-2 4 -6 6.5t-10.5 3t-11.5 0t-12 -1.5t-8 -1q-16 -1 -141 -1
q-3 0 -10 -1t-12.5 -1t-9.5 2q-4 1 -4 16q2 22 -3 71q0 26 4 29q5 5 27 2q24 -4 36 -2q23 1 92 0t89 1q6 1 110.5 1t125.5 -1h29t43.5 -0.5t34.5 -0.5q4 -1 4 -21q0 -10 2.5 -35t1.5 -39t-7 -14q-8 -1 -82.5 -2t-85.5 -1q-4 0 -18.5 1t-24.5 0.5t-14 -3.5q-2 0 -0.5 -6.5
t0.5 -8.5q-1 -16 -1 -83t1 -89l2 -51q71 -3 86 -2q47 4 54 1q4 -1 4.5 -3t-0.5 -5t-1 -4q-2 -9 -2 -48q0 -3 -1.5 -4t-3.5 -1h-4.5t-6 1t-5.5 1q-13 1 -36.5 1.5t-31.5 0.5l-51 3v-57q0 -17 1 -52t0.5 -62t-2.5 -51v-70q1 -35 -4 -80v-16h-43q-13 0 -34.5 1t-28.5 -1
q-28 -2 -28 16z" />
    <glyph glyph-name="tbar" unicode="&#x167;" horiz-adv-x="433" 
d="M383 527h1q3 -24 1 -29q-5 -7 -19 -4q-42 0 -59 -2q-17 0 -20 -6q-6 -51 -6 -111q46 -3 58 -2q37 4 42 1q3 -1 3 -13q-2 -14 -2 -52q0 -3 -1 -4.5t-2.5 -1.5h-3t-4.5 1t-5 1q-10 1 -28.5 1.5t-24.5 0.5l-30 2v-36q0 -36 3 -138q4 -92 -4 -136q-4 -2 -10.5 -2t-13.5 1
l-6 1q-18 3 -42 -0.5t-38 -1.5q-2 1 -9.5 -1t-8.5 3q-1 4 -2 53.5t-1.5 131.5t-1.5 122h-15q-7 1 -33 2t-36 -1q-3 0 -7.5 -2t-7.5 -1q2 47 3 54l-1 10q0 6 2.5 7.5t10.5 0.5q65 -3 82 -2q-3 113 -10 115q-12 3 -44.5 2.5t-36.5 -4.5q-8 10 -5 31q-1 8 0 30.5t1 26.5
q-8 23 0 26q6 2 18 0q58 0 70 1q16 1 11 26q-1 10 -1 30.5t-3 33.5q-2 11 5 14t17.5 1.5t18.5 1.5q8 0 28.5 1t34 0.5t18.5 -2.5q7 -3 4 -27v-6.5v-9.5v-11v-12v-12v-11v-8.5v-5.5v-2q2 -3 7.5 -4t13.5 0t9 1q12 -1 38 1h24q3 0 5 -1t3 -2t2 -4l1.5 -4.5t1 -5.5t0.5 -6z" />
    <glyph glyph-name="Umacron" unicode="&#x16a;" horiz-adv-x="734" 
d="M490 966q-18 0 -111 -3.5t-137 -0.5q3 -10 3.5 -20t-0.5 -24t-1 -21q87 7 252 5q-8 44 -6 64zM664 243q0 -92 -35.5 -144t-120.5 -86q-59 -24 -149 -22q-39 0 -71 7q-77 18 -129 61.5t-67 102.5q-5 16 -7 80q-2 105 -1 159q0 27 -2 82t-2 83l4 199q4 29 0 35q5 6 11 2
t20 -2q45 4 110 1q2 -1 5 -21q0 -1 -3 -29q-2 -13 1 -82q0 -28 1 -153t0 -168q0 -122 15 -164q16 -46 59.5 -66t93.5 -12q44 4 83.5 26.5t44.5 63.5q4 41 4 173t-3 164q-6 73 -3 269q7 -3 16.5 -0.5t16.5 2.5q38 2 72 -4q3 0 14 0.5t15.5 -2.5t3.5 -13q-2 -17 -2 -75z" />
    <glyph glyph-name="umacron" unicode="&#x16b;" horiz-adv-x="620" 
d="M424 770q-18 0 -111 -3.5t-137 -0.5q3 -10 3.5 -20t-0.5 -24t-1 -21q87 7 252 5q-8 44 -6 64zM412 488q0 47 -1 72l-1 16q-2 15 0.5 21t11.5 6q26 0 50 -3q8 0 25 2t29.5 2t19.5 -4q-3 -38 -4.5 -231.5t0.5 -226.5l2 -30q0 -9 3 -19t9.5 -23t8.5 -18q1 -3 -1.5 -5
t-6.5 -3.5t-7.5 -2.5l-8.5 -2.5t-6 -1.5q-20 -7 -36.5 -21.5t-29.5 -22.5q-17 -13 -25 15q-4 14 -4 21t-6.5 32.5t-8.5 29.5q-3 -1 -43 -28q-28 -28 -78.5 -51t-82.5 -23q-73 0 -109.5 35.5t-46.5 79.5q-2 8 -7 67q-3 41 -3 410q1 14 5 19t16 1q13 -4 32.5 -4t41 1.5
t25.5 1.5q10 1 12 0t3 -9l-3 -61q0 -40 3 -171.5t3 -146.5q0 -81 41 -89q29 -9 85.5 11.5t70.5 45.5q22 34 22 225v83z" />
    <glyph glyph-name="Uring" unicode="&#x16e;" horiz-adv-x="734" 
d="M372 1053q-64 1 -94.5 -30t-23.5 -89q6 -33 33.5 -57t61.5 -31t69 6t54 47q23 43 6 87q-10 28 -41.5 47t-64.5 20zM334 991q3 5 12 7.5t16 8.5q15 7 37 -9t26 -28q8 -22 -1.5 -42t-26.5 -29t-37 -5.5t-31 23.5q-8 10 -8 36t13 38zM664 243q0 -92 -35.5 -144t-120.5 -86
q-59 -24 -149 -22q-39 0 -71 7q-77 18 -129 61.5t-67 102.5q-5 16 -7 80q-2 105 -1 159q0 27 -2 82t-2 83l4 199q4 29 0 35q5 6 11 2t20 -2q45 4 110 1q2 -1 5 -21q0 -1 -3 -29q-2 -13 1 -82q0 -28 1 -153t0 -168q0 -122 15 -164q16 -46 59.5 -66t93.5 -12q44 4 83.5 26.5
t44.5 63.5q4 41 4 173t-3 164q-6 73 -3 269q7 -3 16.5 -0.5t16.5 2.5q38 2 72 -4q3 0 14 0.5t15.5 -2.5t3.5 -13q-2 -17 -2 -75z" />
    <glyph glyph-name="uring" unicode="&#x16f;" horiz-adv-x="620" 
d="M306 857q-64 1 -94.5 -30t-23.5 -89q6 -33 33.5 -57t61.5 -31t69 6t54 47q23 43 6 87q-10 28 -41.5 47t-64.5 20zM268 795q3 5 12 7.5t16 8.5q15 7 37 -9t26 -28q8 -22 -1.5 -42t-26.5 -29t-37 -5.5t-31 23.5q-8 10 -8 36t13 38zM412 488q0 47 -1 72l-1 16q-2 15 0.5 21
t11.5 6q26 0 50 -3q8 0 25 2t29.5 2t19.5 -4q-3 -38 -4.5 -231.5t0.5 -226.5l2 -30q0 -9 3 -19t9.5 -23t8.5 -18q1 -3 -1.5 -5t-6.5 -3.5t-7.5 -2.5l-8.5 -2.5t-6 -1.5q-20 -7 -36.5 -21.5t-29.5 -22.5q-17 -13 -25 15q-4 14 -4 21t-6.5 32.5t-8.5 29.5q-3 -1 -43 -28
q-28 -28 -78.5 -51t-82.5 -23q-73 0 -109.5 35.5t-46.5 79.5q-2 8 -7 67q-3 41 -3 410q1 14 5 19t16 1q13 -4 32.5 -4t41 1.5t25.5 1.5q10 1 12 0t3 -9l-3 -61q0 -40 3 -171.5t3 -146.5q0 -81 41 -89q29 -9 85.5 11.5t70.5 45.5q22 34 22 225v83z" />
    <glyph glyph-name="Uhungarumlaut" unicode="&#x170;" horiz-adv-x="734" 
d="M310 953q10 8 14.5 12t6.5 7t15 16t35 33q0 5 4 10.5t10 5.5q3 1 6.5 -2t5.5 -3l21 -2q20 -2 40.5 -5t24.5 -7l-64 -55q-7 -7 -18.5 -17.5t-17.5 -16.5l-34 -26q-7 -8 -22.5 -18t-31.5 -22l-8 -6q-23 -20 -27 -19q-6 3 -9 5t-4 3t-2 1.5t-3.5 1.5l-7.5 3q-7 6 -12.5 8
t-7 3t-1.5 5l50 49zM493 953q10 8 14.5 12t6.5 7t15 16t35 33q0 5 4 10.5t10 5.5q3 1 6.5 -2t5.5 -3l20 -2q21 -2 41.5 -5t24.5 -7l-64 -55q-7 -7 -18.5 -17.5t-17.5 -16.5l-34 -26q-7 -8 -22.5 -18t-31.5 -22l-8 -6q-23 -20 -27 -19q-6 3 -9 5t-4 3t-2 1.5t-3.5 1.5l-7.5 3
q-7 6 -12.5 8t-7 3t-1.5 5l50 49zM664 243q0 -92 -35.5 -144t-120.5 -86q-59 -24 -149 -22q-39 0 -71 7q-77 18 -129 61.5t-67 102.5q-5 16 -7 80q-2 105 -1 159q0 27 -2 82t-2 83l4 199q4 29 0 35q5 6 11 2t20 -2q45 4 110 1q2 -1 5 -21q0 -1 -3 -29q-2 -13 1 -82
q0 -28 1 -153t0 -168q0 -122 15 -164q16 -46 59.5 -66t93.5 -12q44 4 83.5 26.5t44.5 63.5q4 41 4 173t-3 164q-6 73 -3 269q7 -3 16.5 -0.5t16.5 2.5q38 2 72 -4q3 0 14 0.5t15.5 -2.5t3.5 -13q-2 -17 -2 -75z" />
    <glyph glyph-name="uhungarumlaut" unicode="&#x171;" horiz-adv-x="620" 
d="M244 757q10 8 14.5 12t6.5 7t15 16t35 33q0 5 4 10.5t10 5.5q3 1 6.5 -2t5.5 -3l21 -2q20 -2 40.5 -5t24.5 -7l-64 -55q-7 -7 -18.5 -17.5t-17.5 -16.5l-34 -26q-7 -8 -22.5 -18t-31.5 -22l-8 -6q-23 -20 -27 -19q-6 3 -9 5t-4 3t-2 1.5t-3.5 1.5l-7.5 3q-7 6 -12.5 8
t-7 3t-1.5 5l50 49zM427 757q10 8 14.5 12t6.5 7t15 16t35 33q0 5 4 10.5t10 5.5q3 1 6.5 -2t5.5 -3l20 -2q21 -2 41.5 -5t24.5 -7l-64 -55q-7 -7 -18.5 -17.5t-17.5 -16.5l-34 -26q-7 -8 -22.5 -18t-31.5 -22l-8 -6q-23 -20 -27 -19q-6 3 -9 5t-4 3t-2 1.5t-3.5 1.5l-7.5 3
q-7 6 -12.5 8t-7 3t-1.5 5l50 49zM412 488q0 47 -1 72l-1 16q-2 15 0.5 21t11.5 6q26 0 50 -3q8 0 25 2t29.5 2t19.5 -4q-3 -38 -4.5 -231.5t0.5 -226.5l2 -30q0 -9 3 -19t9.5 -23t8.5 -18q1 -3 -1.5 -5t-6.5 -3.5t-7.5 -2.5l-8.5 -2.5t-6 -1.5q-20 -7 -36.5 -21.5
t-29.5 -22.5q-17 -13 -25 15q-4 14 -4 21t-6.5 32.5t-8.5 29.5q-3 -1 -43 -28q-28 -28 -78.5 -51t-82.5 -23q-73 0 -109.5 35.5t-46.5 79.5q-2 8 -7 67q-3 41 -3 410q1 14 5 19t16 1q13 -4 32.5 -4t41 1.5t25.5 1.5q10 1 12 0t3 -9l-3 -61q0 -40 3 -171.5t3 -146.5
q0 -81 41 -89q29 -9 85.5 11.5t70.5 45.5q22 34 22 225v83z" />
    <glyph glyph-name="Uogonek" unicode="&#x172;" horiz-adv-x="734" 
d="M664 243q0 -92 -35.5 -144t-120.5 -86q-59 -24 -149 -22q-39 0 -71 7q-77 18 -129 61.5t-67 102.5q-5 16 -7 80q-2 105 -1 159q0 27 -2 82t-2 83l4 199q4 29 0 35q5 6 11 2t20 -2q45 4 110 1q2 -1 5 -21q0 -1 -3 -29q-2 -13 1 -82q0 -28 1 -153t0 -168q0 -122 15 -164
q16 -46 59.5 -66t93.5 -12q44 4 83.5 26.5t44.5 63.5q4 41 4 173t-3 164q-6 73 -3 269q7 -3 16.5 -0.5t16.5 2.5q38 2 72 -4q3 0 14 0.5t15.5 -2.5t3.5 -13q-2 -17 -2 -75zM521 -2q41 0 70 -41q-43 7 -69.5 -24.5t-7.5 -58.5q10 -16 36.5 -15t48.5 18q3 -4 3.5 -10.5t0 -15
t-0.5 -12.5q-67 -50 -114 -27q-36 16 -44.5 62t13.5 85.5t64 38.5z" />
    <glyph glyph-name="uogonek" unicode="&#x173;" horiz-adv-x="620" 
d="M412 488q0 47 -1 72l-1 16q-2 15 0.5 21t11.5 6q26 0 50 -3q8 0 25 2t29.5 2t19.5 -4q-3 -38 -4.5 -231.5t0.5 -226.5l2 -30q0 -9 3 -19t9.5 -23t8.5 -18q1 -3 -1.5 -5t-6.5 -3.5t-7.5 -2.5l-8.5 -2.5t-6 -1.5q-20 -7 -36.5 -21.5t-29.5 -22.5q-17 -13 -25 15
q-4 14 -4 21t-6.5 32.5t-8.5 29.5q-3 -1 -43 -28q-28 -28 -78.5 -51t-82.5 -23q-73 0 -109.5 35.5t-46.5 79.5q-2 8 -7 67q-3 41 -3 410q1 14 5 19t16 1q13 -4 32.5 -4t41 1.5t25.5 1.5q10 1 12 0t3 -9l-3 -61q0 -40 3 -171.5t3 -146.5q0 -81 41 -89q29 -9 85.5 11.5
t70.5 45.5q22 34 22 225v83zM404 -5q41 0 70 -41q-43 7 -69.5 -24.5t-7.5 -58.5q10 -16 36.5 -15t48.5 18q3 -4 3.5 -10.5t0 -15t-0.5 -12.5q-67 -50 -114 -27q-36 16 -44.5 62t13.5 85.5t64 38.5z" />
    <glyph glyph-name="Wcircumflex" unicode="&#x174;" horiz-adv-x="1053" 
d="M525 1029q1 0 8 -5l15 -11t9 -6q12 -7 49.5 -38.5l69.5 -60.5l32 -28q0 -1 -10.5 -10.5l-23.5 -20.5l-18 -15l-131 99l-130 -99l-52 46q124 112 151 127zM538 306l-5 -15l-33 -102.5l-31 -96t-13 -40.5t-5 -13t-5 -14q-3 -21 -8 -23.5t-16 -2.5q-9 0 -31.5 1t-37.5 0
t-37.5 -0.5t-26.5 0.5h-35q-5 1 -12 25q-11 43 -71 241l-47 151q-1 5 -31 101.5l-54.5 178t-20.5 73.5q-1 5 -4.5 12t-4.5 10q-2 6 0.5 8t8.5 2t8 1h26l77 -3q4 0 11.5 1t14 1t14.5 -2q6 -47 21 -85l105 -391q3 -10 17 -60.5l25.5 -90.5t12.5 -38q12 44 58 189.5t58 190.5
l5 12l-8 23q-60 197 -60 220q0 6 -9 30q3 3 7.5 2.5t9.5 0.5h26l77 -3q2 0 10.5 1t14 0.5t11 -3t6.5 -8.5q5 -39 19 -75l100 -391q3 -10 17 -60.5l25.5 -90.5t12.5 -38l34.5 118l44.5 152.5t26 97.5q4 17 23 89t26 112q1 2 6 27t11 46t10 23h20q8 2 38 0.5t48 0.5q1 0 8 1
t12.5 1t7.5 -3q2 -2 -21 -76q-13 -35 -26 -77t-22.5 -77.5l-17.5 -65.5t-12 -48l-5 -19q-1 -2 -8.5 -29.5l-15.5 -54.5t-11 -36q-53 -181 -70 -265q-1 -4 -5 -13t-5 -14q-3 -21 -8 -24t-16 -3t-33 1.5t-36 0.5q-15 -1 -37.5 -0.5t-26.5 0.5h-35q-5 1 -12 25q-11 43 -71 241
l-8 26z" />
    <glyph glyph-name="wcircumflex" unicode="&#x175;" horiz-adv-x="890" 
d="M331 634l-52 46q124 112 151 127l31 22q1 0 8 -5l15 -11t9 -6q12 -7 50 -38.5t69 -60.5l32 -28q0 -1 -10.5 -10.5l-23.5 -20.5l-18 -15l-131 99zM865 600q3 -5 1.5 -11.5t-8 -21t-7.5 -16.5q-5 -18 -17 -54q-10 -34 -66 -205q-21 -73 -22 -78l-13 -44l-16 -56.5t-7 -26.5
q-2 -7 -6.5 -21t-5.5 -18l-8 -26q-1 -3 -1.5 -8t-1.5 -8t-3.5 -5.5t-7.5 -2.5h-73q-37 -6 -39 6q-1 5 -6.5 18t-6.5 20q-7 24 -22 71t-21 68q-46 157 -46 148q-3 12 -5.5 15t-8.5 -8l-75 -269q-8 -26 -9 -42q0 -26 -15 -28l-70 3q-8 0 -24.5 -1t-24.5 -1q0 6 -8 30.5
l-19.5 57.5t-13.5 40l-80 228.5t-68 195.5q-3 12 -16 33q-5 7 -5 9.5t6 7.5h87q6 -1 26.5 0t28.5 0q1 -1 59 -183t61 -187q7 9 28 68t23 69q3 7 14.5 43l25.5 80.5l20 62.5q1 3 4 15.5t6.5 21.5t8.5 10h57q3 0 9 1t10.5 1t8.5 -2q3 -3 16 -49l12 -39q8 -30 26.5 -90
t38.5 -118.5t24 -57.5t16 37.5t15 47.5q3 16 12.5 46t12.5 47q3 15 15.5 54t21.5 76q2 4 6 22t7 24q3 5 13 6t19.5 -0.5t21 -3.5t12.5 -2h73z" />
    <glyph glyph-name="Ycircumflex" unicode="&#x176;" horiz-adv-x="773" 
d="M392 1029q1 0 8 -5l15 -11t9 -6q12 -7 49.5 -38.5l69.5 -60.5l32 -28q0 -1 -10.5 -10.5l-23.5 -20.5l-18 -15l-131 99l-130 -99l-52 46q124 112 151 127zM588 734q3 11 15 37t18 29h19q8 2 40.5 0t48.5 0q1 0 10.5 1.5t17.5 1.5t10 -3q1 -1 -7 -17.5l-17 -36t-11 -24.5
q-119 -206 -134 -248q-24 -34 -72.5 -130t-55.5 -117q3 -24 3 -94l2 -76v-26q0 -3 1.5 -13.5t0.5 -13.5q-1 -4 -3 -4.5t-5.5 0t-5.5 0.5q-19 -2 -28 -1t-74 1q-23 -5 -23 2q-2 22 0 66q0 38 -1 76t-1.5 60t-0.5 29l-136 234q-10 13 -33 51.5l-48.5 83.5l-49.5 89l-40 73
l-16 28q-2 6 1.5 7.5t9 0t9.5 0.5h106q2 0 10 1t12.5 0.5t9 -3t5.5 -8.5q32 -65 103.5 -191.5t85.5 -142.5l40 -73q3 14 58 113.5t59 109.5z" />
    <glyph glyph-name="ycircumflex" unicode="&#x177;" horiz-adv-x="640" 
d="M327 829q1 0 8 -5l15 -11t9 -6q12 -7 49.5 -38.5l69.5 -60.5l32 -28q0 -1 -10.5 -10.5l-23.5 -20.5l-18 -15l-131 99l-130 -99l-52 46q124 112 151 127zM473 203q-26 -72 -72 -228q-2 -8 -7 -25.5l-7.5 -26.5t-7 -22.5t-10.5 -25.5t-13 -24q-17 -28 -54.5 -42.5
t-68.5 -14.5q-60 2 -94.5 37.5t-54.5 103.5q-1 3 -4 9.5t-4.5 11t-0.5 8.5t3 5t4 1t6 -1t5 -1q10 -1 15.5 0l22 4t41.5 6q22 3 29 0q2 -2 2.5 -21t8.5 -35.5t29 -16.5q10 0 17 7t10.5 18.5t5 21.5t2.5 21t1 13q4 29 -31 89l-110.5 250.5l-81.5 183.5t-29 68q-3 8 -2.5 13.5
t2 8t6 3.5t9 1.5t11.5 0.5h12q4 0 49 -2t51 -2q14 2 19 -3q5 -7 12 -27l55 -149l35.5 -99l25.5 -73.5l15.5 -46.5l9 -27.5t3.5 -7.5q18 14 130 423q8 15 56 15q23 -3 54.5 -3t40.5 -2q0 -1 -23 -71l-94 -254z" />
    <glyph glyph-name="Ydieresis" unicode="&#x178;" horiz-adv-x="773" 
d="M268 1020q31 0 54.5 -19t27.5 -49q5 -32 -8 -59q-7 -12 -25.5 -23.5t-32.5 -12.5q-34 -1 -61.5 18.5t-28.5 53.5q-2 38 24 67q15 17 25 20q1 0 7.5 0.5t12 1.5t5.5 2zM507 1020q30 0 53.5 -19t27.5 -49q6 -32 -8 -59q-7 -13 -25 -24t-32 -12q-35 -1 -62 18.5t-28 53.5
q-2 40 23 67q18 18 26 20q1 0 7 0.5t11.5 1.5t6.5 2zM588 734q3 11 15 37t18 29h19q8 2 40.5 0t48.5 0q1 0 10.5 1.5t17.5 1.5t10 -3q1 -1 -7 -17.5l-17 -36t-11 -24.5q-119 -206 -134 -248q-24 -34 -72.5 -130t-55.5 -117q3 -24 3 -94l2 -76v-26q0 -3 1.5 -13.5t0.5 -13.5
q-1 -4 -3 -4.5t-5.5 0t-5.5 0.5q-19 -2 -28 -1t-74 1q-23 -5 -23 2q-2 22 0 66q0 38 -1 76t-1.5 60t-0.5 29l-136 234q-10 13 -33 51.5l-48.5 83.5l-49.5 89l-40 73l-16 28q-2 6 1.5 7.5t9 0t9.5 0.5h106q2 0 10 1t12.5 0.5t9 -3t5.5 -8.5q32 -65 103.5 -191.5t85.5 -142.5
l40 -73q3 14 58 113.5t59 109.5z" />
    <glyph glyph-name="Zacute" unicode="&#x179;" horiz-adv-x="680" 
d="M380 889q-10 -6 -38 -15t-48 -18q-3 -2 -20 -8.5t-19 -5.5q0 3 -3 7t-7 8t-4 5q-7 4 -11 8q-4 6 -7.5 10t-5 5.5t-3 2.5t-2 2.5t-0.5 4.5q6 6 16.5 11.5t27 12.5t27.5 13l153 84q11 14 20 12q4 -1 8 -6l5 -4l97 -43l-89 -41l-51 -26zM79 -3h-26q-3 2 -4 9t-1 16v11
q-9 68 -6 78q1 6 10 18.5l19.5 26t11.5 15.5l89 121q147 203 172 246q1 2 26.5 39.5t46 70.5t18.5 37q-1 2 -7 2.5t-15.5 0.5t-18 -1t-16 -1.5t-8.5 -0.5q-13 0 -37 2q-30 3 -44.5 2t-42.5 -4l-37 -4q-11 -1 -72 1t-64 2q-6 9 -6 44q-5 74 1 75q11 1 32 0t30 -1q9 1 32 0.5
t49 0t28 1.5q0 -4 205 -4q9 0 54.5 1t49.5 1q6 0 19.5 -1.5t20.5 -2t14 1.5q8 5 8 -19q0 -8 -1 -23q-1 -10 -1 -11q1 -5 1 -69q-4 -9 -11 -18.5t-19.5 -25t-20.5 -26.5q-14 -14 -36.5 -44.5t-40 -57.5l-45.5 -69.5l-38 -57.5q-4 -7 -61 -88t-71 -98q-7 -7 -26 -33.5
t-25 -41.5q23 -6 103.5 -1.5t100.5 3.5q64 -4 149 -4q2 0 56 6q4 -1 7.5 0t5 -1.5t2.5 -3t1 -5t-0.5 -6.5t-1.5 -7.5t-1 -7.5q-6 -31 -1 -66q0 -1 1 -9t-1 -11.5t-8 -4.5q-13 -2 -66 0h-202z" />
    <glyph glyph-name="zacute" unicode="&#x17a;" horiz-adv-x="584" 
d="M310 700q-10 -6 -38 -15t-48 -18q-3 -2 -20 -8.5t-19 -5.5q0 3 -3 7t-7 8t-4 5l-11 8q-4 6 -7.5 10t-5 5.5t-3 2.5t-2 2.5t-0.5 4.5q6 6 16.5 11.5t27 12.5t27.5 13l153 84q11 14 20 12q3 0 5.5 -2t4.5 -4.5t3 -3.5l97 -43l-89 -41l-51 -26zM419 -3q-35 1 -171 1
q-110 2 -168 1q-21 -4 -31 1l1 9q0 7 -1.5 46t0.5 40q2 4 58.5 82.5l125 173t91.5 128.5q6 11 2 12q-3 1 -20 1q-201 4 -222 1l-10 -3q-9 -2 -14 -1q-7 2 -4 19q1 18 -1.5 37.5t-2.5 35.5q0 18 7 24q11 -2 50 -2q1 0 22 1t42.5 1.5t42 0t24.5 -2.5l78 -3l183 5q0 -57 2 -83
q0 -10 -1.5 -13.5t-7 -9.5t-10.5 -13q-10 -16 -49 -71l-73 -103.5t-38 -56.5q-86 -134 -86 -145q12 -1 40 0t64 2l36 2q19 0 51 -2.5t48.5 -3t44.5 4.5q15 5 16 0q1 -1 0 -3q-3 -7 -0.5 -56t1.5 -54q-2 -7 -39 -3h-81z" />
    <glyph glyph-name="Zdotaccent" unicode="&#x17b;" horiz-adv-x="680" 
d="M349 1050q34 0 60 -21.5t31 -53.5q7 -36 -9 -67q-8 -13 -28.5 -25.5t-35.5 -13.5q-39 -2 -69 22t-31 67q-2 34 23 63t59 29zM79 -3h-26q-3 2 -4 9t-1 16v11q-9 68 -6 78q1 6 10 18.5l19.5 26t11.5 15.5l89 121q147 203 172 246q1 2 26.5 39.5t46 70.5t18.5 37
q-1 2 -7 2.5t-15.5 0.5t-18 -1t-16 -1.5t-8.5 -0.5q-13 0 -37 2q-30 3 -44.5 2t-42.5 -4l-37 -4q-11 -1 -72 1t-64 2q-6 9 -6 44q-5 74 1 75q11 1 32 0t30 -1q9 1 32 0.5t49 0t28 1.5q0 -4 205 -4q9 0 54.5 1t49.5 1q6 0 19.5 -1.5t20.5 -2t14 1.5q8 5 8 -19q0 -8 -1 -23
q-1 -10 -1 -11q1 -5 1 -69q-4 -9 -11 -18.5t-19.5 -25t-20.5 -26.5q-14 -14 -36.5 -44.5t-40 -57.5l-45.5 -69.5l-38 -57.5q-4 -7 -61 -88t-71 -98q-7 -7 -26 -33.5t-25 -41.5q23 -6 103.5 -1.5t100.5 3.5q64 -4 149 -4q2 0 56 6q4 -1 7.5 0t5 -1.5t2.5 -3t1 -5t-0.5 -6.5
t-1.5 -7.5t-1 -7.5q-6 -31 -1 -66q0 -1 1 -9t-1 -11.5t-8 -4.5q-13 -2 -66 0h-202z" />
    <glyph glyph-name="zdotaccent" unicode="&#x17c;" horiz-adv-x="584" 
d="M279 861q34 0 60 -21.5t31 -53.5q7 -36 -9 -67q-8 -13 -28.5 -25.5t-35.5 -13.5q-39 -2 -69 22t-31 67q-2 34 23 63t59 29zM419 -3q-35 1 -171 1q-110 2 -168 1q-21 -4 -31 1l1 9q0 7 -1.5 46t0.5 40q2 4 58.5 82.5l125 173t91.5 128.5q6 11 2 12q-3 1 -20 1
q-201 4 -222 1l-10 -3q-9 -2 -14 -1q-7 2 -4 19q1 18 -1.5 37.5t-2.5 35.5q0 18 7 24q11 -2 50 -2q1 0 22 1t42.5 1.5t42 0t24.5 -2.5l78 -3l183 5q0 -57 2 -83q0 -10 -1.5 -13.5t-7 -9.5t-10.5 -13q-10 -16 -49 -71l-73 -103.5t-38 -56.5q-86 -134 -86 -145q12 -1 40 0
t64 2l36 2q19 0 51 -2.5t48.5 -3t44.5 4.5q15 5 16 0q1 -1 0 -3q-3 -7 -0.5 -56t1.5 -54q-2 -7 -39 -3h-81z" />
    <glyph glyph-name="Zcaron" unicode="&#x17d;" horiz-adv-x="680" 
d="M355 834q-1 0 -8 5l-15 11t-9 6q-12 7 -49.5 38.5l-69.5 59.5l-32 29q0 1 10.5 10.5l23.5 20.5l18 15l131 -99l130 99l52 -46q-124 -112 -151 -127zM79 -3h-26q-3 2 -4 9t-1 16v11q-9 68 -6 78q1 6 10 18.5l19.5 26t11.5 15.5l89 121q147 203 172 246q1 2 26.5 39.5
t46 70.5t18.5 37q-1 2 -7 2.5t-15.5 0.5t-18 -1t-16 -1.5t-8.5 -0.5q-13 0 -37 2q-30 3 -44.5 2t-42.5 -4l-37 -4q-11 -1 -72 1t-64 2q-6 9 -6 44q-5 74 1 75q11 1 32 0t30 -1q9 1 32 0.5t49 0t28 1.5q0 -4 205 -4q9 0 54.5 1t49.5 1q6 0 19.5 -1.5t20.5 -2t14 1.5
q8 5 8 -19q0 -8 -1 -23q-1 -10 -1 -11q1 -5 1 -69q-4 -9 -11 -18.5t-19.5 -25t-20.5 -26.5q-14 -14 -36.5 -44.5t-40 -57.5l-45.5 -69.5l-38 -57.5q-4 -7 -61 -88t-71 -98q-7 -7 -26 -33.5t-25 -41.5q23 -6 103.5 -1.5t100.5 3.5q64 -4 149 -4q2 0 56 6q4 -1 7.5 0t5 -1.5
t2.5 -3t1 -5t-0.5 -6.5t-1.5 -7.5t-1 -7.5q-6 -31 -1 -66q0 -1 1 -9t-1 -11.5t-8 -4.5q-13 -2 -66 0h-202z" />
    <glyph glyph-name="zcaron" unicode="&#x17e;" horiz-adv-x="584" 
d="M285 645q-1 0 -8 5l-15 11t-9 6q-12 7 -50 38.5t-69 60.5l-32 28q0 1 10.5 10.5l23.5 20.5l18 15l131 -99l130 99l52 -46q-124 -112 -151 -127zM419 -3q-35 1 -171 1q-110 2 -168 1q-21 -4 -31 1l1 9q0 7 -1.5 46t0.5 40q2 4 58.5 82.5l125 173t91.5 128.5q6 11 2 12
q-3 1 -20 1q-201 4 -222 1l-10 -3q-9 -2 -14 -1q-7 2 -4 19q1 18 -1.5 37.5t-2.5 35.5q0 18 7 24q11 -2 50 -2q1 0 22 1t42.5 1.5t42 0t24.5 -2.5l78 -3l183 5q0 -57 2 -83q0 -10 -1.5 -13.5t-7 -9.5t-10.5 -13q-10 -16 -49 -71l-73 -103.5t-38 -56.5q-86 -134 -86 -145
q12 -1 40 0t64 2l36 2q19 0 51 -2.5t48.5 -3t44.5 4.5q15 5 16 0q1 -1 0 -3q-3 -7 -0.5 -56t1.5 -54q-2 -7 -39 -3h-81z" />
    <glyph glyph-name="florin" unicode="&#x192;" horiz-adv-x="544" 
d="M464 754q-8 5 -24.5 17.5t-26.5 19t-26.5 11t-34.5 2.5q-35 -4 -64 -42q-21 -27 -41.5 -97t-24.5 -79q-55 -7 -102 -6q-8 -63 -12 -77q10 0 52.5 3t47.5 -3q-17 -63 -35.5 -203t-24.5 -171q-38 -217 -70 -340q21 3 54.5 1.5t49.5 2.5q5 47 21 109.5t21 92.5q6 32 16 94
t16 95q14 66 30 164.5t28 154.5q52 4 110 2q4 13 10 77q-42 -4 -110 4q3 7 11.5 40t19 54t25.5 23q12 2 25.5 -7t20.5 -11q5 16 10.5 26.5t14.5 23t13 19.5z" />
    <glyph glyph-name="Acaron" unicode="&#x1cd;" horiz-adv-x="673" 
d="M350 834q-1 0 -8 5l-15 11t-9 6q-12 7 -50 38.5l-70 59.5l-31 29q0 1 10.5 10.5l23.5 20.5l18 15l131 -99l130 99l52 -46q-124 -112 -151 -127zM265 768q2 14 13 32q7 2 22.5 2t24.5 -2h91q19 2 20 -13q0 -5 9 -39t10 -41l13 -63q4 -10 8 -23.5l13.5 -45l20.5 -67.5
q0 -1 31 -95t39 -124q17 -62 47 -153q31 -105 38 -122q4 -10 2 -13t-12 -3q-4 0 -16.5 -1t-19.5 0q-66 4 -99 2q-16 0 -21 13l-34 107q-1 2 -3 8t-4.5 10t-6.5 5q-10 1 -28.5 0.5t-47 -1t-38.5 -0.5h-81q-2 0 -16 -1.5t-21 -1.5q-12 -1 -14 -8l-26 -77q0 -1 -2 -8
t-3.5 -14.5t-4 -15t-5 -12t-5.5 -3.5q-10 0 -55 -2t-73 2q-1 0 -7.5 -2t-10.5 -2t-6 4q-1 9 -1 11.5t6 12.5l6 10l91 299q2 14 17 54q1 3 28 78l55.5 153.5t31.5 87.5zM344 639q-2 0 -4.5 -11t-4.5 -23t-3 -13q-2 -6 -14 -45.5l-24.5 -81.5t-20.5 -63l-17 -58
q-2 -8 -8.5 -21t-8.5 -21q-10 -44 -11 -50q-1 -9 83.5 -11t119.5 1q10 0 13 5t2 10t-4 15l-6.5 23l-8 26.5t-6.5 22.5q-32 117 -43 154z" />
    <glyph glyph-name="acaron" unicode="&#x1ce;" horiz-adv-x="574" 
d="M315 634q-1 0 -8 5l-15 11t-9 6q-12 7 -49.5 38.5l-69.5 59.5l-32 29q0 1 10.5 10.5l23.5 20.5l18 15l131 -99l130 99l52 -46q-124 -112 -151 -127zM337 607q21 0 45 -6t52 -19.5t48 -42.5t24 -69q3 -38 3 -63q0 -226 1 -294q2 -34 11 -49q0 -2 7.5 -14t7.5 -22
q-10 -6 -105 -32l-7 -3.5t-9 -3.5t-8 0q-11 4 -26 43q-3 5 -40 -5.5t-68 -22.5q-90 -20 -120 -14q-46 8 -89 60q-36 36 -36 93q0 69 45 119q19 21 38.5 32.5t32.5 15t47 10.5q60 12 72 13q27 1 62.5 8.5t46.5 18.5q16 16 18.5 54t-11.5 58q-24 35 -59 37q-47 3 -87 -37
q-2 -3 -17 -33.5t-22 -33.5q-5 -5 -7 -2.5t-3 2.5q-9 0 -79 31q-2 1 -8.5 2.5t-8 2.5t-4.5 3.5t-2 6t4 9.5q13 26 44.5 58.5t51.5 47.5q27 19 55 28.5t46 11t54 1.5zM361 254q-11 -7 -48 -7q-24 -1 -69 -11q-27 -7 -52 -25t-26 -39q-2 -27 6 -50t25 -29q27 -8 81.5 3
t86.5 33q14 9 16 14v43q2 8 2 59q0 8 -2 10t-9.5 0.5t-10.5 -1.5z" />
    </font>
</defs>
</svg>
