<svg width="50" height="50" viewBox="0 0 50 50" fill="none" xmlns="http://www.w3.org/2000/svg">
<path d="M26.8632 13.6518L22.6966 5.31845C22.5235 4.97241 22.2575 4.68139 21.9283 4.47802C21.5992 4.27465 21.2199 4.16695 20.833 4.16699H4.16634C3.61381 4.16699 3.0839 4.38649 2.6932 4.77719C2.3025 5.16789 2.08301 5.69779 2.08301 6.25033V14.5837C2.08301 15.1362 2.3025 15.6661 2.6932 16.0568C3.0839 16.4475 3.61381 16.667 4.16634 16.667H24.9997C25.3548 16.667 25.7041 16.5763 26.0143 16.4034C26.3245 16.2304 26.5854 15.9811 26.7721 15.6789C26.9588 15.3768 27.0652 15.032 27.0812 14.6772C27.0971 14.3224 27.0221 13.9694 26.8632 13.6518Z" fill="#535A76"/>
<path d="M45.833 12.5H2.08301V43.75C2.08301 44.3025 2.3025 44.8324 2.6932 45.2231C3.0839 45.6138 3.61381 45.8333 4.16634 45.8333H45.833C46.3855 45.8333 46.9154 45.6138 47.3061 45.2231C47.6968 44.8324 47.9163 44.3025 47.9163 43.75V14.5833C47.9163 14.0308 47.6968 13.5009 47.3061 13.1102C46.9154 12.7195 46.3855 12.5 45.833 12.5Z" fill="#667093"/>
</svg>
