<?xml version="1.0" encoding="utf-8"?>
<!-- Generator: Adobe Illustrator 22.1.0, SVG Export Plug-In . SVG Version: 6.00 Build 0)  -->
<svg version="1.1" xmlns="http://www.w3.org/2000/svg" xmlns:xlink="http://www.w3.org/1999/xlink" x="0px" y="0px"
	 viewBox="0 0 144 144" style="enable-background:new 0 0 144 144;" xml:space="preserve">
<style type="text/css">
	.Drop_x0020_Shadow{fill:none;}
	.Outer_x0020_Glow_x0020_5_x0020_pt{fill:none;}
	.Blue_x0020_Neon{fill:none;stroke:#8AACDA;stroke-width:7;stroke-linecap:round;stroke-linejoin:round;}
	.Chrome_x0020_Highlight{fill:url(#SVGID_1_);stroke:#FFFFFF;stroke-width:0.3629;stroke-miterlimit:1;}
	.Jive_GS{fill:#FFDD00;}
	.Alyssa_GS{fill:#A6D0E4;}
	.st0{display:none;}
	.st1{display:inline;}
	.st2{fill:none;stroke:#565656;stroke-width:5;stroke-linecap:round;stroke-miterlimit:10;}
	.st3{fill:none;stroke:#EF6A6A;stroke-linecap:round;stroke-miterlimit:10;}
	.st4{fill:none;stroke:#EF6A6A;stroke-miterlimit:10;}
	.st5{fill:none;stroke:#565656;stroke-width:3;stroke-linecap:round;stroke-miterlimit:10;}
	.st6{fill:#565656;}
	.st7{fill:#69DEA9;}
	.st8{fill:none;stroke:#FFFFFF;stroke-width:3;stroke-linecap:round;stroke-miterlimit:10;}
	.st9{fill:none;stroke:#565656;stroke-width:9;stroke-linecap:round;stroke-miterlimit:10;}
	.st10{fill:none;stroke:#565656;stroke-width:3;stroke-miterlimit:10;}
	.st11{fill:none;stroke:#565656;stroke-miterlimit:10;}
	.st12{display:none;fill:#E9EAE8;}
	.st13{fill:#7E8F9C;}
	.st14{fill:url(#SVGID_2_);}
	.st15{fill:#B6BEC3;}
	.st16{fill:#415363;}
	.st17{fill:#1F2422;}
	.st18{fill:#B5C3CF;}
	.st19{fill:#256A8C;}
	.st20{fill:#3FAFE3;}
	.st21{fill:#297AA3;}
	.st22{fill:#61BEE9;}
	.st23{fill:#000910;}
	.st24{clip-path:url(#SVGID_6_);fill:#FDFFFF;}
	.st25{clip-path:url(#SVGID_6_);fill:#000910;}
	.st26{fill:#9AA7B0;}
	.st27{fill:#DCE0DC;}
	.st28{fill:#323C3F;}
	.st29{fill:#61778A;}
	.st30{clip-path:url(#SVGID_10_);fill:#FDFFFF;}
	.st31{clip-path:url(#SVGID_10_);fill:#000910;}
	.st32{fill:#1D68A1;}
	.st33{fill:#3D77AC;}
	.st34{opacity:0.44;}
	.st35{fill:url(#SVGID_11_);}
	.st36{clip-path:url(#SVGID_15_);fill:#FDFFFF;}
	.st37{clip-path:url(#SVGID_15_);fill:#000910;}
	.st38{clip-path:url(#SVGID_19_);fill:#FDFFFF;}
	.st39{clip-path:url(#SVGID_19_);fill:#000910;}
	.st40{fill:none;stroke:#FFFFFF;stroke-width:4;stroke-linecap:round;stroke-miterlimit:10;}
	.st41{fill:none;stroke:#565656;stroke-width:4;stroke-linecap:round;stroke-miterlimit:10;}
	.st42{fill:none;stroke:#565656;stroke-width:6;stroke-linecap:round;stroke-miterlimit:10;}
	.st43{fill:none;stroke:#565656;stroke-width:2;stroke-linecap:round;stroke-miterlimit:10;}
	.st44{fill:none;stroke:#FFFFFF;stroke-width:7;stroke-linecap:round;stroke-miterlimit:10;}
	.st45{display:inline;fill:none;stroke:#565656;stroke-width:5;stroke-linecap:round;stroke-miterlimit:10;}
	.st46{fill:url(#SVGID_20_);}
	.st47{clip-path:url(#SVGID_24_);fill:#FDFFFF;}
	.st48{clip-path:url(#SVGID_24_);fill:#000910;}
	.st49{clip-path:url(#SVGID_28_);fill:#FDFFFF;}
	.st50{clip-path:url(#SVGID_28_);fill:#000910;}
	.st51{display:inline;opacity:0.44;}
	.st52{display:inline;fill:none;stroke:#565656;stroke-width:9;stroke-linecap:round;stroke-miterlimit:10;}
	.st53{display:inline;fill:none;stroke:#565656;stroke-width:6;stroke-linecap:round;stroke-miterlimit:10;}
	.st54{display:inline;fill:none;stroke:#565656;stroke-width:2;stroke-linecap:round;stroke-miterlimit:10;}
</style>
<linearGradient id="SVGID_1_" gradientUnits="userSpaceOnUse" x1="-157" y1="-3634" x2="-157" y2="-3635">
	<stop  offset="0" style="stop-color:#656565"/>
	<stop  offset="0.618" style="stop-color:#1B1B1B"/>
	<stop  offset="0.6292" style="stop-color:#545454"/>
	<stop  offset="0.9831" style="stop-color:#3E3E3E"/>
</linearGradient>
<g id="Layer_3" class="st0">
	<g class="st1">
		<path d="M158.5-3225.2v152.5H6v-152.5H158.5 M162.5-3229.2H2v160.5h160.5V-3229.2L162.5-3229.2z"/>
	</g>
	<g class="st1">
		<path d="M399.3-3221.2v152.5H246.8v-152.5H399.3 M403.3-3225.2H242.8v160.5h160.5V-3225.2L403.3-3225.2z"/>
	</g>
	<g class="st1">
		<path d="M158.5-3024.5v152.5H6v-152.5H158.5 M162.5-3028.5H2v160.5h160.5V-3028.5L162.5-3028.5z"/>
	</g>
	<g class="st1">
		<path d="M399.3-3020.5v152.5H246.8v-152.5H399.3 M403.3-3024.5H242.8v160.5h160.5V-3024.5L403.3-3024.5z"/>
	</g>
	<g class="st1">
		<path d="M599.9-3221.2v152.5H447.4v-152.5H599.9 M603.9-3225.2H443.4v160.5h160.5V-3225.2L603.9-3225.2z"/>
	</g>
	<g class="st1">
		<path d="M800.6-3221.2v152.5H648.1v-152.5H800.6 M804.6-3225.2H644.1v160.5h160.5V-3225.2L804.6-3225.2z"/>
	</g>
	<g class="st1">
		<path d="M1197.9-3221.2v152.5h-152.5v-152.5H1197.9 M1201.9-3225.2h-160.5v160.5h160.5V-3225.2L1201.9-3225.2z"/>
	</g>
	<g class="st1">
		<path d="M1001.2-3221.2v152.5H848.7v-152.5H1001.2 M1005.2-3225.2H844.7v160.5h160.5V-3225.2L1005.2-3225.2z"/>
	</g>
	<g class="st1">
		<path d="M399.3-3470v152.5H246.8V-3470H399.3 M403.3-3474H242.8v160.5h160.5V-3474L403.3-3474z"/>
	</g>
	<g class="st1">
		<path d="M159-3470v152.5H6.5V-3470H159 M163-3474H2.5v160.5H163V-3474L163-3474z"/>
	</g>
	<g class="st1">
		<path d="M599.9-3470v152.5H447.4V-3470H599.9 M603.9-3474H443.4v160.5h160.5V-3474L603.9-3474z"/>
	</g>
	<g class="st1">
		<path d="M800.6-3470v152.5H648.1V-3470H800.6 M804.6-3474H644.1v160.5h160.5V-3474L804.6-3474z"/>
	</g>
	<g class="st1">
		<path d="M1001.2-3470v152.5H848.7V-3470H1001.2 M1005.2-3474H844.7v160.5h160.5V-3474L1005.2-3474z"/>
	</g>
	<g class="st1">
		<path d="M1201.9-3470v152.5h-152.5V-3470H1201.9 M1205.9-3474h-160.5v160.5h160.5V-3474L1205.9-3474z"/>
	</g>
</g>
<g id="Layer_5" class="st0">
	<g class="st1">
		<rect x="68.5" y="-3602.5" class="st2" width="1059" height="1059"/>
		<line class="st2" x1="68.5" y1="-2720" x2="1127.5" y2="-2720"/>
		<line class="st2" x1="68.5" y1="-2896.5" x2="1127.5" y2="-2896.5"/>
		<line class="st2" x1="68.5" y1="-3073" x2="1127.5" y2="-3073"/>
		<line class="st2" x1="68.5" y1="-3249.5" x2="1127.5" y2="-3249.5"/>
		<line class="st2" x1="68.5" y1="-3426" x2="1127.5" y2="-3426"/>
		<line class="st2" x1="951" y1="-3602.5" x2="951" y2="-2543.5"/>
		<line class="st2" x1="774.5" y1="-3602.5" x2="774.5" y2="-2543.5"/>
		<line class="st2" x1="598" y1="-3602.5" x2="598" y2="-2543.5"/>
		<line class="st2" x1="421.5" y1="-3602.5" x2="421.5" y2="-2543.5"/>
		<line class="st2" x1="245" y1="-3602.5" x2="245" y2="-2543.5"/>
	</g>
</g>
<g id="Layer_6" class="st0">
	<g class="st1">
		<g>
			<rect x="27" y="-2095.7" class="st3" width="312" height="312"/>
			<ellipse class="st3" cx="183" cy="-1939.6" rx="156" ry="156"/>
			<line class="st4" x1="27.4" y1="-2095.3" x2="339.4" y2="-1784"/>
			<line class="st4" x1="339.4" y1="-2095.3" x2="28.1" y2="-1784"/>
			<rect x="107.4" y="-2096" class="st4" width="150.5" height="312"/>
			<line class="st4" x1="182.7" y1="-2096" x2="182.7" y2="-1784"/>
			<rect x="26" y="-2014.6" class="st4" width="313.4" height="150.5"/>
			<line class="st4" x1="26" y1="-1939.3" x2="339.4" y2="-1939.3"/>
			<rect x="72.5" y="-2048.8" class="st4" width="219" height="219"/>
			<circle class="st4" cx="181.3" cy="-1939.3" r="108.1"/>
			<circle class="st4" cx="181.3" cy="-1939.3" r="74.6"/>
			<circle class="st4" cx="182.7" cy="-1939.3" r="37.6"/>
		</g>
		<g>
			<rect x="458.5" y="-2092.7" class="st3" width="312" height="312"/>
			<ellipse class="st3" cx="614.5" cy="-1936.6" rx="156" ry="156"/>
			<line class="st4" x1="458.9" y1="-2092.3" x2="770.9" y2="-1781"/>
			<line class="st4" x1="770.9" y1="-2092.3" x2="459.6" y2="-1781"/>
			<rect x="538.9" y="-2093" class="st4" width="150.5" height="312"/>
			<line class="st4" x1="614.2" y1="-2093" x2="614.2" y2="-1781"/>
			<rect x="457.5" y="-2011.6" class="st4" width="313.4" height="150.5"/>
			<line class="st4" x1="457.5" y1="-1936.3" x2="770.9" y2="-1936.3"/>
			<rect x="504" y="-2045.8" class="st4" width="219" height="219"/>
			<circle class="st4" cx="612.8" cy="-1936.3" r="108.1"/>
			<circle class="st4" cx="612.8" cy="-1936.3" r="74.6"/>
			<circle class="st4" cx="614.2" cy="-1936.3" r="37.6"/>
		</g>
		<g>
			<rect x="890" y="-2092.7" class="st3" width="312" height="312"/>
			<ellipse class="st3" cx="1046" cy="-1936.6" rx="156" ry="156"/>
			<line class="st4" x1="890.4" y1="-2092.3" x2="1202.4" y2="-1781"/>
			<line class="st4" x1="1202.4" y1="-2092.3" x2="891.1" y2="-1781"/>
			<rect x="970.4" y="-2093" class="st4" width="150.5" height="312"/>
			<line class="st4" x1="1045.7" y1="-2093" x2="1045.7" y2="-1781"/>
			<rect x="889" y="-2011.6" class="st4" width="313.4" height="150.5"/>
			<line class="st4" x1="889" y1="-1936.3" x2="1202.4" y2="-1936.3"/>
			<rect x="935.5" y="-2045.8" class="st4" width="219" height="219"/>
			<circle class="st4" cx="1044.3" cy="-1936.3" r="108.1"/>
			<circle class="st4" cx="1044.3" cy="-1936.3" r="74.6"/>
			<circle class="st4" cx="1045.7" cy="-1936.3" r="37.6"/>
		</g>
	</g>
	<g class="st1">
		<rect x="34.6" y="-1730.1" class="st3" width="312" height="312"/>
		<ellipse class="st3" cx="190.6" cy="-1574" rx="156" ry="156"/>
		<line class="st4" x1="35" y1="-1729.7" x2="347" y2="-1418.4"/>
		<line class="st4" x1="347" y1="-1729.7" x2="35.6" y2="-1418.4"/>
		<rect x="115" y="-1730.4" class="st4" width="150.5" height="312"/>
		<line class="st4" x1="190.3" y1="-1730.4" x2="190.3" y2="-1418.4"/>
		<rect x="33.6" y="-1649" class="st4" width="313.4" height="150.5"/>
		<line class="st4" x1="33.6" y1="-1573.7" x2="347" y2="-1573.7"/>
		<rect x="80.1" y="-1683.2" class="st4" width="219" height="219"/>
		<circle class="st4" cx="188.9" cy="-1573.7" r="108.1"/>
		<circle class="st4" cx="188.9" cy="-1573.7" r="74.6"/>
		<circle class="st4" cx="190.3" cy="-1573.7" r="37.6"/>
	</g>
	<g class="st1">
		<rect x="406.3" y="-1749.4" class="st3" width="312" height="312"/>
		<ellipse class="st3" cx="562.3" cy="-1593.4" rx="156" ry="156"/>
		<line class="st4" x1="406.7" y1="-1749.1" x2="718.7" y2="-1437.7"/>
		<line class="st4" x1="718.7" y1="-1749.1" x2="407.3" y2="-1437.7"/>
		<rect x="486.7" y="-1749.8" class="st4" width="150.5" height="312"/>
		<line class="st4" x1="562" y1="-1749.8" x2="562" y2="-1437.7"/>
		<rect x="405.3" y="-1668.3" class="st4" width="313.4" height="150.5"/>
		<line class="st4" x1="405.3" y1="-1593.1" x2="718.7" y2="-1593.1"/>
		<rect x="451.8" y="-1702.6" class="st4" width="219" height="219"/>
		<circle class="st4" cx="560.6" cy="-1593.1" r="108.1"/>
		<circle class="st4" cx="560.6" cy="-1593.1" r="74.6"/>
		<circle class="st4" cx="562" cy="-1593.1" r="37.6"/>
	</g>
	<g class="st1">
		<rect x="895.8" y="-1733.4" class="st3" width="312" height="312"/>
		<ellipse class="st3" cx="1051.8" cy="-1577.4" rx="156" ry="156"/>
		<line class="st4" x1="896.2" y1="-1733.1" x2="1208.2" y2="-1421.7"/>
		<line class="st4" x1="1208.2" y1="-1733.1" x2="896.8" y2="-1421.7"/>
		<rect x="976.2" y="-1733.8" class="st4" width="150.5" height="312"/>
		<line class="st4" x1="1051.5" y1="-1733.8" x2="1051.5" y2="-1421.7"/>
		<rect x="894.8" y="-1652.3" class="st4" width="313.4" height="150.5"/>
		<line class="st4" x1="894.8" y1="-1577.1" x2="1208.2" y2="-1577.1"/>
		<rect x="941.3" y="-1686.6" class="st4" width="219" height="219"/>
		<circle class="st4" cx="1050.1" cy="-1577.1" r="108.1"/>
		<circle class="st4" cx="1050.1" cy="-1577.1" r="74.6"/>
		<circle class="st4" cx="1051.5" cy="-1577.1" r="37.6"/>
	</g>
	<g class="st1">
		<rect x="16" y="-1338.7" class="st3" width="312" height="312"/>
		<ellipse class="st3" cx="172" cy="-1182.6" rx="156" ry="156"/>
		<line class="st4" x1="16.4" y1="-1338.3" x2="328.4" y2="-1027"/>
		<line class="st4" x1="328.4" y1="-1338.3" x2="17.1" y2="-1027"/>
		<rect x="96.4" y="-1339" class="st4" width="150.5" height="312"/>
		<line class="st4" x1="171.7" y1="-1339" x2="171.7" y2="-1027"/>
		<rect x="15" y="-1257.6" class="st4" width="313.4" height="150.5"/>
		<line class="st4" x1="15" y1="-1182.3" x2="328.4" y2="-1182.3"/>
		<rect x="61.5" y="-1291.8" class="st4" width="219" height="219"/>
		<circle class="st4" cx="170.3" cy="-1182.3" r="108.1"/>
		<circle class="st4" cx="170.3" cy="-1182.3" r="74.6"/>
		<circle class="st4" cx="171.7" cy="-1182.3" r="37.6"/>
	</g>
	<g class="st1">
		<rect x="466.6" y="-1365.7" class="st3" width="312" height="312"/>
		<ellipse class="st3" cx="622.6" cy="-1209.6" rx="156" ry="156"/>
		<line class="st4" x1="467" y1="-1365.3" x2="779" y2="-1054"/>
		<line class="st4" x1="779" y1="-1365.3" x2="467.6" y2="-1054"/>
		<rect x="547" y="-1366" class="st4" width="150.5" height="312"/>
		<line class="st4" x1="622.3" y1="-1366" x2="622.3" y2="-1054"/>
		<rect x="465.6" y="-1284.6" class="st4" width="313.4" height="150.5"/>
		<line class="st4" x1="465.6" y1="-1209.3" x2="779" y2="-1209.3"/>
		<rect x="512.1" y="-1318.8" class="st4" width="219" height="219"/>
		<circle class="st4" cx="620.9" cy="-1209.3" r="108.1"/>
		<circle class="st4" cx="620.9" cy="-1209.3" r="74.6"/>
		<circle class="st4" cx="622.3" cy="-1209.3" r="37.6"/>
	</g>
	<g class="st1">
		<rect x="879" y="-1335.7" class="st3" width="312" height="312"/>
		<ellipse class="st3" cx="1035" cy="-1179.6" rx="156" ry="156"/>
		<line class="st4" x1="879.4" y1="-1335.3" x2="1191.4" y2="-1024"/>
		<line class="st4" x1="1191.4" y1="-1335.3" x2="880.1" y2="-1024"/>
		<rect x="959.4" y="-1336" class="st4" width="150.5" height="312"/>
		<line class="st4" x1="1034.7" y1="-1336" x2="1034.7" y2="-1024"/>
		<rect x="878" y="-1254.6" class="st4" width="313.4" height="150.5"/>
		<line class="st4" x1="878" y1="-1179.3" x2="1191.4" y2="-1179.3"/>
		<rect x="924.5" y="-1288.8" class="st4" width="219" height="219"/>
		<circle class="st4" cx="1033.3" cy="-1179.3" r="108.1"/>
		<circle class="st4" cx="1033.3" cy="-1179.3" r="74.6"/>
		<circle class="st4" cx="1034.7" cy="-1179.3" r="37.6"/>
	</g>
	<g class="st1">
		<rect x="37.6" y="-1002.1" class="st3" width="312" height="312"/>
		<ellipse class="st3" cx="193.6" cy="-846" rx="156" ry="156"/>
		<line class="st4" x1="38" y1="-1001.7" x2="350" y2="-690.4"/>
		<line class="st4" x1="350" y1="-1001.7" x2="38.6" y2="-690.4"/>
		<rect x="118" y="-1002.4" class="st4" width="150.5" height="312"/>
		<line class="st4" x1="193.3" y1="-1002.4" x2="193.3" y2="-690.4"/>
		<rect x="36.6" y="-921" class="st4" width="313.4" height="150.5"/>
		<line class="st4" x1="36.6" y1="-845.7" x2="350" y2="-845.7"/>
		<rect x="83.1" y="-955.2" class="st4" width="219" height="219"/>
		<circle class="st4" cx="191.9" cy="-845.7" r="108.1"/>
		<circle class="st4" cx="191.9" cy="-845.7" r="74.6"/>
		<circle class="st4" cx="193.3" cy="-845.7" r="37.6"/>
	</g>
	<g class="st1">
		<rect x="-31.2" y="-423.1" class="st3" width="312" height="312"/>
		<ellipse class="st3" cx="124.8" cy="-267.1" rx="156" ry="156"/>
		<line class="st4" x1="-30.8" y1="-422.8" x2="281.2" y2="-111.4"/>
		<line class="st4" x1="281.2" y1="-422.8" x2="-30.2" y2="-111.4"/>
		<rect x="49.2" y="-423.4" class="st4" width="150.5" height="312"/>
		<line class="st4" x1="124.5" y1="-423.4" x2="124.5" y2="-111.4"/>
		<rect x="-32.2" y="-342" class="st4" width="313.4" height="150.5"/>
		<line class="st4" x1="-32.2" y1="-266.7" x2="281.2" y2="-266.7"/>
		<rect x="14.3" y="-376.2" class="st4" width="219" height="219"/>
		<circle class="st4" cx="123.1" cy="-266.7" r="108.1"/>
		<circle class="st4" cx="123.1" cy="-266.7" r="74.6"/>
		<circle class="st4" cx="124.5" cy="-266.7" r="37.6"/>
	</g>
	<g class="st1">
		<rect x="406.3" y="-853.6" class="st3" width="312" height="312"/>
		<ellipse class="st3" cx="562.3" cy="-697.6" rx="156" ry="156"/>
		<line class="st4" x1="406.7" y1="-853.3" x2="718.7" y2="-541.9"/>
		<line class="st4" x1="718.7" y1="-853.3" x2="407.3" y2="-541.9"/>
		<rect x="486.7" y="-853.9" class="st4" width="150.5" height="312"/>
		<line class="st4" x1="562" y1="-853.9" x2="562" y2="-541.9"/>
		<rect x="405.3" y="-772.5" class="st4" width="313.4" height="150.5"/>
		<line class="st4" x1="405.3" y1="-697.2" x2="718.7" y2="-697.2"/>
		<rect x="451.8" y="-806.7" class="st4" width="219" height="219"/>
		<circle class="st4" cx="560.6" cy="-697.2" r="108.1"/>
		<circle class="st4" cx="560.6" cy="-697.2" r="74.6"/>
		<circle class="st4" cx="562" cy="-697.2" r="37.6"/>
	</g>
	<g class="st1">
		<rect x="837.8" y="-852.1" class="st3" width="312" height="312"/>
		<ellipse class="st3" cx="993.8" cy="-696.1" rx="156" ry="156"/>
		<line class="st4" x1="838.2" y1="-851.8" x2="1150.2" y2="-540.4"/>
		<line class="st4" x1="1150.2" y1="-851.8" x2="838.8" y2="-540.4"/>
		<rect x="918.2" y="-852.4" class="st4" width="150.5" height="312"/>
		<line class="st4" x1="993.5" y1="-852.4" x2="993.5" y2="-540.4"/>
		<rect x="836.8" y="-771" class="st4" width="313.4" height="150.5"/>
		<line class="st4" x1="836.8" y1="-695.7" x2="1150.2" y2="-695.7"/>
		<rect x="883.3" y="-805.2" class="st4" width="219" height="219"/>
		<circle class="st4" cx="992.1" cy="-695.7" r="108.1"/>
		<circle class="st4" cx="992.1" cy="-695.7" r="74.6"/>
		<circle class="st4" cx="993.5" cy="-695.7" r="37.6"/>
	</g>
</g>
<g id="Layer_1">
	<path class="st5" d="M-603.1-2379.6h-46.4c-7.6,0-13.7-6.1-13.7-13.7v-104c0-7.6,6.1-13.7,13.7-13.7h104c7.6,0,13.7,6.1,13.7,13.7
		v104c0,7.6-6.1,13.7-13.7,13.7h-12.7"/>
	<g>
		<path class="st2" d="M670.8-3013.8v-73c0-6.3-5.1-11.4-11.4-11.4h-86.2c-6.3,0-11.4,5.1-11.4,11.4v86.2c0,6.3,5.1,11.4,11.4,11.4
			H630"/>
		<path class="st2" d="M648.6-3001.5h-9c-3.2,0-5.7-2.6-5.7-5.7v-50.2c0-3.2,2.6-5.7,5.7-5.7h9c3.2,0,5.7,2.6,5.7,5.7v50.2
			C654.4-3004,651.8-3001.5,648.6-3001.5z"/>
		<path class="st2" d="M620.4-3001.5h-9c-3.2,0-5.7-2.6-5.7-5.7v-36c0-3.2,2.6-5.7,5.7-5.7h9c3.2,0,5.7,2.6,5.7,5.7v36
			C626.1-3004,623.5-3001.5,620.4-3001.5z"/>
		<path class="st2" d="M594.2-3001.5h-9c-3.2,0-5.7-2.6-5.7-5.7v-20.5c0-3.2,2.6-5.7,5.7-5.7h9c3.2,0,5.7,2.6,5.7,5.7v20.5
			C600-3004,597.4-3001.5,594.2-3001.5z"/>
	</g>
	<g>
		<path class="st6" d="M-327.7-3215.3c41.5,0,75.3,33.8,75.3,75.3s-33.8,75.3-75.3,75.3s-75.3-33.8-75.3-75.3
			S-369.2-3215.3-327.7-3215.3 M-327.7-3218.3c-43.2,0-78.3,35-78.3,78.3s35,78.3,78.3,78.3s78.3-35,78.3-78.3
			S-284.5-3218.3-327.7-3218.3L-327.7-3218.3z"/>
	</g>
	<g>
		<path class="st6" d="M-329-2501.9c41.1,0,74.5,33.4,74.5,74.5s-33.4,74.5-74.5,74.5s-74.5-33.4-74.5-74.5
			S-370.1-2501.9-329-2501.9 M-329-2504.9c-42.8,0-77.5,34.7-77.5,77.5s34.7,77.5,77.5,77.5s77.5-34.7,77.5-77.5
			S-286.3-2504.9-329-2504.9L-329-2504.9z"/>
	</g>
	<g>
		<line class="st5" x1="-285.7" y1="-2451.5" x2="-285.7" y2="-2424.7"/>
		<line class="st5" x1="-272.3" y1="-2438.1" x2="-299" y2="-2438.1"/>
	</g>
	<g>
		<g>
			<circle class="st7" cx="346.9" cy="-2791" r="59"/>
		</g>
		<line class="st8" x1="346.6" y1="-2816.4" x2="346.6" y2="-2764.3"/>
		<line class="st8" x1="372.7" y1="-2790.3" x2="320.5" y2="-2790.3"/>
	</g>
	<g>
		<g>
			<g>
				<path class="st6" d="M-327.8-2472.7c11.2,0,20.2,9.1,20.2,20.2s-9.1,20.2-20.2,20.2c-11.2,0-20.2-9.1-20.2-20.2
					C-348.1-2463.6-339-2472.7-327.8-2472.7 M-327.8-2475.7L-327.8-2475.7c-12.8,0-23.2,10.4-23.2,23.2l0,0
					c0,12.8,10.4,23.2,23.2,23.2h0c12.8,0,23.2-10.4,23.2-23.2l0,0C-304.6-2465.3-315-2475.7-327.8-2475.7L-327.8-2475.7z"/>
			</g>
		</g>
		<g id="XMLID_7_">
			<path class="st5" d="M-311.5-2428.2c3,0.2,5.9,0.7,8.8,1.4c11.6,3,19.6,13.7,19.6,25.7"/>
		</g>
		<g id="XMLID_6_">
			<path class="st5" d="M-344.2-2428.1c0.5,0.6,0.9,1.2,1.5,1.8c3.5,3.7,8.4,6.1,13.8,6.4l2.1-0.1c5.5-0.3,10.4-2.7,13.9-6.4
				c0.5-0.6,1-1.1,1.5-1.8"/>
			<path class="st5" d="M-344.2-2428.1c-3,0.2-5.9,0.7-8.8,1.4c-11.6,3-19.6,13.7-19.6,25.7"/>
		</g>
	</g>
	<g>
		<circle class="st2" cx="86.2" cy="-3302.8" r="49.4"/>
		<line class="st9" x1="120.8" y1="-3265" x2="138.3" y2="-3246.3"/>
	</g>
	<g>
		<line class="st5" x1="699.9" y1="-3715.3" x2="757.1" y2="-3715.3"/>
		<line class="st5" x1="723.4" y1="-3746.1" x2="698" y2="-3715.7"/>
		<line class="st5" x1="723.4" y1="-3686" x2="698" y2="-3716.4"/>
	</g>
	<g>
		<line class="st5" x1="616.7" y1="-3757.2" x2="586.9" y2="-3757.2"/>
		<line class="st5" x1="607.5" y1="-3769" x2="617.7" y2="-3757.5"/>
		<line class="st5" x1="607.5" y1="-3745.9" x2="617.7" y2="-3757.4"/>
	</g>
	<g>
		<line class="st5" x1="376.7" y1="-3757.2" x2="346.9" y2="-3757.2"/>
		<line class="st5" x1="367.5" y1="-3769" x2="377.7" y2="-3757.5"/>
		<line class="st5" x1="367.5" y1="-3745.9" x2="377.7" y2="-3757.4"/>
	</g>
	<g>
		<line class="st2" x1="1083.3" y1="-3098.2" x2="1190.8" y2="-3098.2"/>
		<line class="st2" x1="1082.5" y1="-3048.6" x2="1190" y2="-3048.6"/>
		<line class="st2" x1="1083" y1="-2997" x2="1190.6" y2="-2997"/>
	</g>
	<g>
		<path class="st2" d="M1175.2-3272.6h-77c-8.5,0-15.5-6.9-15.5-15.5v-48.7c0-8.5,6.9-15.5,15.5-15.5h77c8.5,0,15.5,6.9,15.5,15.5
			v48.7C1190.6-3279.5,1183.7-3272.6,1175.2-3272.6z"/>
		<line class="st2" x1="1110.1" y1="-3264.7" x2="1163.8" y2="-3264.7"/>
		<line class="st2" x1="1133.1" y1="-3271.9" x2="1133" y2="-3265.9"/>
		<line class="st2" x1="1142" y1="-3271.8" x2="1142" y2="-3265.8"/>
	</g>
	<g>
		<path class="st5" d="M380.8-3254.5h-78.5c-5.7,0-10.4-4.6-10.4-10.4v-78.5c0-5.7,4.6-10.4,10.4-10.4h78.5
			c5.7,0,10.4,4.6,10.4,10.4v78.5C391.1-3259.1,386.5-3254.5,380.8-3254.5z"/>
		<path class="st5" d="M391.5-3340.6c5.7,0,10.4,4.6,10.4,10.4v78.5c0,5.7-4.6,10.4-10.4,10.4H313c-5.7,0-10.4-4.6-10.4-10.4"/>
		<g>
			<line class="st5" x1="314.4" y1="-3335.4" x2="314.4" y2="-3330.9"/>
			<line class="st5" x1="332.8" y1="-3335.4" x2="332.8" y2="-3330.9"/>
			<line class="st5" x1="351.5" y1="-3335" x2="351.5" y2="-3330.4"/>
			<line class="st5" x1="370.8" y1="-3335" x2="370.8" y2="-3330.5"/>
		</g>
		<path class="st5" d="M344.9-3273h-29.5c-1.3,0-2.4-1.1-2.4-2.4v-24.5c0-1.3,1.1-2.4,2.4-2.4h29.5c1.3,0,2.4,1.1,2.4,2.4v24.5
			C347.3-3274.1,346.2-3273,344.9-3273z"/>
		<path class="st10" d="M315.3-3273.5c-0.8,0-1.3-0.9-0.8-1.5l7.5-7.9l7.6,6.1l8-10.7l8,11.6c0.6,1.1-0.2,2.5-1.5,2.5H315.3z"/>
		<circle class="st10" cx="329.2" cy="-3287.9" r="2.5"/>
		<path class="st5" d="M337.5-3303.8v-7.2c0-1.3,1.1-2.4,2.4-2.4h29.6c1.3,0,2.4,1.1,2.4,2.4v24.5c0,1.3-1.1,2.4-2.4,2.4h-20.7"/>
		<path class="st10" d="M359.3-3299.4l-7.1-4.1c-0.5-0.3-1.2,0.1-1.2,0.7v8.1c0,0.6,0.6,1,1.2,0.7l7.1-4.1
			C359.9-3298.3,359.9-3299.1,359.3-3299.4z"/>
		<line class="st10" x1="337.9" y1="-3308" x2="371.2" y2="-3308"/>
		<line class="st10" x1="348.4" y1="-3290.8" x2="371.2" y2="-3290.8"/>
	</g>
	<g>
		<g>
			<path class="st6" d="M-598-2486.4c12.9,0,23.4,10.5,23.4,23.4s-10.5,23.4-23.4,23.4c-12.9,0-23.4-10.5-23.4-23.4
				S-610.9-2486.4-598-2486.4 M-598-2489.4L-598-2489.4c-14.6,0-26.4,11.8-26.4,26.4l0,0c0,14.6,11.8,26.4,26.4,26.4h0
				c14.6,0,26.4-11.8,26.4-26.4l0,0C-571.6-2477.6-583.4-2489.4-598-2489.4L-598-2489.4z"/>
		</g>
	</g>
	<path class="st10" d="M-579.1-2434.1c-0.7,0.9-1.4,1.7-2.2,2.5c-4.3,4.3-10.2,6.9-16.7,6.9c-7.7,0-14.5-3.7-18.8-9.3"/>
	<path class="st5" d="M-616.8-2434c-3.5,0.2-6.8,0.8-10.1,1.6c-13.2,3.4-22.3,15.5-22.3,29.2"/>
	<path class="st5" d="M-552.6-2426.6c4.6,5.4,7.3,12.4,7.3,19.8v5.6"/>
	<path class="st5" d="M-579.4-2434.3c3.5,0.2,6.8,0.8,10.1,1.6"/>
	<path class="st10" d="M-572.2-2401.4l-14.4,4l1.8-14.1l30.1-38.6c2-2.6,5.8-3.1,8.4-1l3.3,2.6c2.6,2,3,5.7,1,8.3L-572.2-2401.4z"/>
	<line class="st10" x1="-584" y1="-2411.6" x2="-572.3" y2="-2402.4"/>
	<line class="st11" x1="-580.6" y1="-2408.1" x2="-547" y2="-2450.8"/>
	<line class="st11" x1="-576.4" y1="-2405.2" x2="-542.8" y2="-2447.9"/>
	<g>
		<line class="st9" x1="295.4" y1="-2993.9" x2="398.4" y2="-3095.2"/>
		<line class="st9" x1="398.4" y1="-2993.9" x2="295.4" y2="-3095.2"/>
	</g>
	<rect x="50.9" y="-2411.7" class="st12" width="1177.4" height="710"/>
	<g>
		<g>
			<path class="st6" d="M616.3-2846.9c30.2,0,54.8,24.6,54.8,54.8s-24.6,54.8-54.8,54.8s-54.8-24.6-54.8-54.8
				S586.1-2846.9,616.3-2846.9 M616.3-2849.9c-31.9,0-57.8,25.9-57.8,57.8c0,31.9,25.9,57.8,57.8,57.8c31.9,0,57.8-25.9,57.8-57.8
				C674.1-2824,648.2-2849.9,616.3-2849.9L616.3-2849.9z"/>
		</g>
		<g>
			<path class="st13" d="M644.3-2792.1l-3,4.2h2l1.5,6.1c0,0-11.5,9-14.8,12.2s-12.8,10.9-12.8,10.9h-0.9v-62.3c0,0,3.8-0.1,4.4,0.1
				c0.6,0.1,1.5,1,2.2,0.7C623.5-2820.6,644.3-2792.1,644.3-2792.1z"/>
			<linearGradient id="SVGID_2_" gradientUnits="userSpaceOnUse" x1="654.1561" y1="-2790.2986" x2="616.7965" y2="-2789.9358">
				<stop  offset="0.5405" style="stop-color:#D3D3D3;stop-opacity:0"/>
				<stop  offset="0.7142" style="stop-color:#D1D1D1;stop-opacity:2.709636e-02"/>
				<stop  offset="0.7768" style="stop-color:#CACACA;stop-opacity:3.685728e-02"/>
				<stop  offset="0.8214" style="stop-color:#BFBFBF;stop-opacity:4.381816e-02"/>
				<stop  offset="0.8574" style="stop-color:#AEAEAE;stop-opacity:4.944365e-02"/>
				<stop  offset="0.8883" style="stop-color:#989898;stop-opacity:5.426258e-02"/>
				<stop  offset="0.9157" style="stop-color:#7C7C7C;stop-opacity:5.852773e-02"/>
				<stop  offset="0.9404" style="stop-color:#5C5C5C;stop-opacity:6.238755e-02"/>
				<stop  offset="0.9631" style="stop-color:#363636;stop-opacity:6.593376e-02"/>
				<stop  offset="0.9834" style="stop-color:#0D0D0D;stop-opacity:6.909213e-02"/>
				<stop  offset="0.9892" style="stop-color:#000000;stop-opacity:7.000000e-02"/>
			</linearGradient>
			<path class="st14" d="M644.3-2792.1l-3,4.2h2l1.5,6.1c0,0-11.5,9-14.8,12.2s-12.8,10.9-12.8,10.9h-0.9v-62.3c0,0,3.8-0.1,4.4,0.1
				c0.6,0.1,1.5,1,2.2,0.7C623.5-2820.6,644.3-2792.1,644.3-2792.1z"/>
			<path class="st15" d="M619.3-2793.1c0,0,2-5.5,6.9-8.1c2.4-1.2,6.7,0.5,6.7,0.5s-1.5,2.8-2.3,4.3c-0.4,0.9-0.4,2.5-2.2,2.9
				s-5.1,0.5-5.5,0.7c-0.3,0.2-1.4,1.5-1.6,2.3c-0.2,1-0.2,1.3-0.2,1.3L619.3-2793.1z"/>
			<path class="st16" d="M621.8-2819.4l12.5-13.1c0,0,4.5,8.7,4.6,12.2c0.1,3.5,0.1,9.9,1.9,14.2s2.6,6.2,2.6,6.2l-2.3-2.4l3.1,9.9
				C644.2-2792.3,623-2815.4,621.8-2819.4z"/>
			<path class="st15" d="M616.9-2790.4l1.8-2.5l5.8,8.8c0.2,0.3,0.1,0.7-0.1,0.9c-0.6,0.5-1.7,1-2,1.8c-0.2,0.5-0.4,2.2-0.4,2.3
				c-0.3,1.3-2.4,2.6-2.4,2.6l-3.3,0.1v-13.9L616.9-2790.4z"/>
			<polygon class="st17" points="618.7,-2782.6 616.3,-2782.6 616.3,-2774.3 619.3,-2774.3 621.4,-2777.1 621.5,-2778.6 			"/>
			<path class="st17" d="M621.9-2772.4c-0.9,0.6-3.2,0.7-3.8,0.4l-0.6-2.5h-1.3v6.1c0.9,0,1.8-0.3,2.9-0.7c2.3-0.9,5.5-5.5,5.5-5.5
				S622.8-2772.9,621.9-2772.4z"/>
			<g>
				<path d="M628.6-2786.5c-6.5,0-10.3-3.6-10.3-9.5c0-2.9,0.8-4.7,2.8-6.4c1.8-1.5,4.6-2.4,7.6-2.4c3,0,5.5,0.3,7.3,1.8
					c2,1.6,3,4,3.1,7c0.1,2.6-0.8,4.8-2.4,6.5C634.8-2787.6,631.9-2786.5,628.6-2786.5z M628.5-2803.8c-3.6,0-6.2,1.4-7.8,3.5
					c-1,1.3-1.5,3.1-1.5,5.1c0,4.8,3.4,7.8,9.4,7.8c3.1,0,5.6-1.1,7.3-2.9c1.5-1.5,2.2-3.5,2.1-5.8c-0.1-2.1-1.1-3.7-2.1-4.9
					C634-2803.2,632.1-2803.8,628.5-2803.8z"/>
			</g>
			<path d="M635.7-2803.8c0.2,0,4.9,0.8,4.9,0.8l1.1,4.1l-3.7,1.4c0,0-0.4-2.5-1.5-3.6s-2.3-2.7-2.3-2.7L635.7-2803.8z"/>
			<polygon class="st18" points="633.3,-2817.7 631.1,-2815.2 634.7,-2823.5 635,-2815.2 636.6,-2815.9 634.6,-2812.8 
				636.6,-2811.9 636.6,-2807.8 637.6,-2805.5 629.8,-2813.6 632.8,-2813 			"/>
			<path class="st19" d="M631.1-2748.6c-4.6-1-13.1-5.7-13.1-5.7l0.1-5.4c0,0,8.3-4.6,11.6-4.6C636.8-2764.3,634-2748,631.1-2748.6z
				"/>
			<path class="st20" d="M630.6-2748.4c-4.7-0.2-13.3-5.9-13.3-5.9v-4.8c0,0,9.1-5.4,12.4-5.5C635.1-2764.9,633-2748.2,630.6-2748.4
				z"/>
			<path class="st21" d="M601.5-2748.6c4.6-1,13.1-5.7,13.1-5.7l-0.1-5.4c0,0-8.3-4.6-11.6-4.6
				C595.8-2764.3,598.6-2748,601.5-2748.6z"/>
			<path class="st22" d="M602.1-2748.4c4.7-0.2,13.3-5.9,13.3-5.9v-4.8c0,0-9.1-5.4-12.4-5.5
				C597.5-2764.9,599.7-2748.2,602.1-2748.4z"/>
			<g>
				<defs>
					<path id="SVGID_3_" d="M624.3-2795.3l-0.3,0.6h-0.9l0.4-2.2c0,0,1.6-1.9,3.3-2.6c0.5-0.2,1.1-0.3,1.6-0.2c2,0.6,1.5,1,1.5,1
						s-0.3,1-1.9,2C626.3-2795.8,625.4-2795.2,624.3-2795.3z"/>
				</defs>
				<clipPath id="SVGID_4_">
					<use xlink:href="#SVGID_3_"  style="overflow:visible;"/>
				</clipPath>
			</g>
			<path class="st23" d="M623.8-2795.9l-1.3,0.8l0,0l0.5-2.5c0,0,1.1-1.1,1.5-1.5c0.9-0.7,1.8-1.2,1.8-1.2s0.6-0.2,0.9-0.2
				c1.6,0.1,2.2,1,2.2,1s-0.4,0.5-1.9,1.8C626-2796.3,625-2795.8,623.8-2795.9z"/>
			<g>
				<defs>
					<path id="SVGID_5_" d="M623.8-2795.9l-0.3,0.6h-0.9l0.4-2.2c0,0,1.6-1.9,3.3-2.6c0.5-0.2,1.1-0.3,1.6-0.2c2,0.6,1.5,1,1.5,1
						s-0.3,1-1.9,2S625-2795.8,623.8-2795.9z"/>
				</defs>
				<clipPath id="SVGID_6_">
					<use xlink:href="#SVGID_5_"  style="overflow:visible;"/>
				</clipPath>
				<path class="st24" d="M624.8-2801.5c-0.8,0.5-1.5,2.5-1.5,2.5c0,0.1,0,0.2,0,0.4c0,1,0.9,1.7,1.9,1.7c1.1,0,2-1,2-2.2
					C627.1-2800.6,625.8-2801.4,624.8-2801.5z"/>
				<path class="st25" d="M624.8-2798.2c0.5,0,0.9-0.4,0.9-0.9c0-0.4-0.2-0.7-0.5-0.8c-0.6,0.3-1,0.6-1.3,1.1
					C624.1-2798.6,624.5-2798.2,624.8-2798.2z"/>
			</g>
			<path class="st26" d="M588.3-2792.1l3,4.2h-2l-1.5,6.1c0,0,11.5,9,14.8,12.2s12.8,10.9,12.8,10.9h0.9v-62.3c0,0-3.8-0.1-4.4,0.1
				c-0.6,0.1-1.5,1-2.2,0.7C609-2820.6,588.3-2792.1,588.3-2792.1z"/>
			<path class="st27" d="M613.3-2793.1c0,0-2-5.5-6.9-8.1c-2.4-1.2-6.7,0.5-6.7,0.5s1.5,2.8,2.3,4.3c0.4,0.9,0.4,2.5,2.2,2.9
				c1.7,0.4,5.1,0.5,5.5,0.7c0.3,0.2,1.4,1.5,1.6,2.3c0.2,1,0.2,1.3,0.2,1.3L613.3-2793.1z"/>
			<path class="st27" d="M615.7-2790.4l-1.8-2.5l-5.8,8.8c-0.2,0.3-0.1,0.7,0.1,0.9c0.6,0.5,1.7,1,2,1.8c0.2,0.5,0.4,2.2,0.4,2.3
				c0.3,1.3,2.4,2.6,2.4,2.6l3.3,0.1v-13.9L615.7-2790.4z"/>
			<g>
				<path d="M612.8-2799.5l-1.4-1.9c0.2-0.1,3.7-3,9.3-0.7l-1,2.5C615.9-2800.8,612.8-2799.6,612.8-2799.5z"/>
			</g>
			<g>
				<path class="st28" d="M616.3-2803c-3,0.1-4.8,1.5-4.9,1.6l1.4,1.9c0,0,1.4-0.6,3.5-0.6V-2803z"/>
			</g>
			<path class="st29" d="M610.8-2819.4l-12.5-13.1c0,0-4.5,8.7-4.6,12.2c-0.1,3.5-0.1,9.9-1.9,14.2s-2.6,6.2-2.6,6.2l2.3-2.4
				l-3.1,9.9C588.3-2792.3,609.6-2815.4,610.8-2819.4z"/>
			<polygon class="st28" points="613.8,-2782.6 616.3,-2782.6 616.3,-2774.3 613.2,-2774.3 611.2,-2777.1 611,-2778.6 			"/>
			<path class="st28" d="M610.7-2772.3c0.9,0.6,3.1,0.7,3.7,0.5c0,0,0,0,0-0.1l0.6-2.4c0,0,0-0.1,0.1-0.1h1.1c0,0,0.1,0,0.1,0.1v5.9
				c0,0,0,0.1-0.1,0.1c-0.9,0-1.7-0.3-2.8-0.7c-1.5-0.6-3.3-2.7-4.5-4.1c-0.2-0.2,0.1-0.5,0.3-0.3
				C609.8-2773,610.3-2772.5,610.7-2772.3z"/>
			<g>
				<path class="st28" d="M595.9-2789.6c-1.6-1.7-2.5-3.9-2.4-6.5c0.1-3,1.1-5.4,3.1-7c1.8-1.5,4.3-1.8,7.3-1.8c3,0,5.8,0.9,7.6,2.4
					c2,1.7,2.8,3.5,2.8,6.4c0,6-3.9,9.5-10.3,9.5C600.7-2786.5,597.8-2787.6,595.9-2789.6z M596.5-2800.9c-1,1.2-2.1,2.8-2.1,4.9
					c-0.1,2.3,0.7,4.3,2.1,5.8c1.7,1.8,4.3,2.9,7.3,2.9c6,0,9.4-2.9,9.4-7.8c0-2-0.5-3.8-1.5-5.1c-1.6-2.1-4.2-3.5-7.8-3.5
					C600.5-2803.8,598.5-2803.2,596.5-2800.9z"/>
			</g>
			<path class="st28" d="M596.9-2803.8c-0.2,0-5.2,0.8-5.2,0.8l-1.2,4.1l4.1,1.3c0,0,0.4-2.5,1.5-3.6c1.1-1.1,2.3-2.7,2.3-2.7
				L596.9-2803.8z"/>
			<polygon class="st27" points="599.3,-2817.7 601.5,-2815.2 597.9,-2823.5 597.6,-2815.2 596,-2815.9 598,-2812.8 596,-2811.9 
				596,-2807.8 595,-2805.5 602.8,-2813.6 599.8,-2813 			"/>
			<g>
				<defs>
					<path id="SVGID_7_" d="M608.3-2795.3l0.3,0.6h0.9l-0.4-2.2c0,0-1.6-1.9-3.3-2.6c-0.5-0.2-1.1-0.3-1.6-0.2c-2,0.6-1.5,1-1.5,1
						s0.3,1,1.9,2S607.1-2795.2,608.3-2795.3z"/>
				</defs>
				<clipPath id="SVGID_8_">
					<use xlink:href="#SVGID_7_"  style="overflow:visible;"/>
				</clipPath>
			</g>
			<path class="st23" d="M608.7-2795.9l1.3,0.8l0,0l-0.5-2.5c0,0-1.1-1.1-1.5-1.5c-0.9-0.7-1.8-1.2-1.8-1.2s-0.6-0.2-0.9-0.2
				c-1.6,0.1-2.2,1-2.2,1s0.4,0.5,1.9,1.8C606.6-2796.3,607.6-2795.8,608.7-2795.9z"/>
			<g>
				<defs>
					<path id="SVGID_9_" d="M608.7-2795.9l0.3,0.6h0.9l-0.4-2.2c0,0-1.6-1.9-3.3-2.6c-0.5-0.2-1.1-0.3-1.6-0.2c-2,0.6-1.5,1-1.5,1
						s0.3,1,1.9,2S607.6-2795.8,608.7-2795.9z"/>
				</defs>
				<clipPath id="SVGID_10_">
					<use xlink:href="#SVGID_9_"  style="overflow:visible;"/>
				</clipPath>
				<path class="st30" d="M607.8-2801.5c0.8,0.5,1.5,2.5,1.5,2.5c0,0.1,0,0.2,0,0.4c0,1-0.9,1.7-1.9,1.7c-1.1,0-2-1-2-2.2
					C605.5-2800.6,606.8-2801.4,607.8-2801.5z"/>
				<path class="st31" d="M607.8-2798.2c-0.5,0-0.9-0.4-0.9-0.9c0-0.4,0.2-0.7,0.5-0.8c0.6,0.3,1,0.6,1.3,1.1
					C608.5-2798.6,608.1-2798.2,607.8-2798.2z"/>
			</g>
			<path class="st32" d="M617.1-2754.1h-1.7c-0.7,0-1.3-0.6-1.3-1.3v-3.3c0-0.7,0.6-1.3,1.3-1.3h1.7c0.7,0,1.3,0.6,1.3,1.3v3.3
				C618.4-2754.7,617.8-2754.1,617.1-2754.1z"/>
			<path class="st33" d="M616.3-2760h-0.9c-0.7,0-1.3,0.6-1.3,1.3v3.3c0,0.7,0.6,1.3,1.3,1.3h0.9V-2760z"/>
		</g>
		<g class="st34">
			<circle class="st6" cx="616.3" cy="-2792.1" r="57.8"/>
		</g>
		<g>
			<line class="st8" x1="616.3" y1="-2808.2" x2="616.3" y2="-2785.3"/>
			<line class="st8" x1="627.8" y1="-2796.7" x2="604.9" y2="-2796.7"/>
		</g>
	</g>
	<g>
		<g>
			<path class="st6" d="M183.3-546.2c39.2,0,71.1,31.9,71.1,71.1S222.5-404,183.3-404s-71.1-31.9-71.1-71.1S144.1-546.2,183.3-546.2
				 M183.3-549.2c-40.9,0-74.1,33.2-74.1,74.1s33.2,74.1,74.1,74.1s74.1-33.2,74.1-74.1S224.2-549.2,183.3-549.2L183.3-549.2z"/>
		</g>
		<g>
			<path class="st13" d="M219.2-475.2l-3.9,5.4h2.6l1.9,7.8c0,0-14.7,11.5-19,15.6s-16.4,13.9-16.4,13.9h-1.1v-79.8
				c0,0,4.8-0.1,5.6,0.1c0.7,0.2,1.9,1.3,2.8,0.9C192.6-511.6,219.2-475.2,219.2-475.2z"/>
			<linearGradient id="SVGID_11_" gradientUnits="userSpaceOnUse" x1="231.7996" y1="-472.7961" x2="183.9392" y2="-472.3315">
				<stop  offset="0.5405" style="stop-color:#D3D3D3;stop-opacity:0"/>
				<stop  offset="0.7142" style="stop-color:#D1D1D1;stop-opacity:2.709636e-02"/>
				<stop  offset="0.7768" style="stop-color:#CACACA;stop-opacity:3.685728e-02"/>
				<stop  offset="0.8214" style="stop-color:#BFBFBF;stop-opacity:4.381816e-02"/>
				<stop  offset="0.8574" style="stop-color:#AEAEAE;stop-opacity:4.944365e-02"/>
				<stop  offset="0.8883" style="stop-color:#989898;stop-opacity:5.426258e-02"/>
				<stop  offset="0.9157" style="stop-color:#7C7C7C;stop-opacity:5.852773e-02"/>
				<stop  offset="0.9404" style="stop-color:#5C5C5C;stop-opacity:6.238755e-02"/>
				<stop  offset="0.9631" style="stop-color:#363636;stop-opacity:6.593376e-02"/>
				<stop  offset="0.9834" style="stop-color:#0D0D0D;stop-opacity:6.909213e-02"/>
				<stop  offset="0.9892" style="stop-color:#000000;stop-opacity:7.000000e-02"/>
			</linearGradient>
			<path class="st35" d="M219.2-475.2l-3.9,5.4h2.6l1.9,7.8c0,0-14.7,11.5-19,15.6s-16.4,13.9-16.4,13.9h-1.1v-79.8
				c0,0,4.8-0.1,5.6,0.1c0.7,0.2,1.9,1.3,2.8,0.9C192.6-511.6,219.2-475.2,219.2-475.2z"/>
			<path class="st15" d="M187.1-476.4c0,0,2.6-7.1,8.8-10.3c3.1-1.6,8.5,0.6,8.5,0.6s-2,3.6-3,5.6c-0.6,1.1-0.6,3.2-2.8,3.7
				c-2.2,0.6-6.5,0.6-7.1,0.9c-0.4,0.2-1.9,1.9-2.1,3c-0.3,1.3-0.2,1.7-0.2,1.7L187.1-476.4z"/>
			<path class="st16" d="M190.4-510.1l16-16.7c0,0,5.8,11.2,5.9,15.6s0.2,12.6,2.4,18.2c2.2,5.6,3.3,8,3.3,8l-2.9-3l3.9,12.6
				C219.1-475.4,191.8-504.9,190.4-510.1z"/>
			<path class="st15" d="M184.1-472.9l2.2-3.2l7.5,11.2c0.2,0.4,0.2,0.9-0.2,1.2c-0.7,0.6-2.1,1.3-2.5,2.3c-0.2,0.6-0.5,2.9-0.5,3
				c-0.4,1.7-3.1,3.4-3.1,3.4l-4.3,0.2v-17.8L184.1-472.9z"/>
			<polygon class="st17" points="186.4,-462.9 183.2,-462.9 183.2,-452.3 187.2,-452.3 189.8,-455.9 190,-457.8 			"/>
			<path class="st17" d="M190.5-449.8c-1.1,0.7-4.1,0.9-4.8,0.6l-0.7-3.2h-1.6v7.8c1.1,0,2.2-0.3,3.7-0.9c3-1.1,7.1-7.1,7.1-7.1
				S191.6-450.6,190.5-449.8z"/>
			<g>
				<path d="M199-468c-8.3,0-13.2-4.6-13.2-12.2c0-3.7,1-6,3.6-8.2c2.4-2,5.9-3.1,9.8-3.1c3.9,0,7.1,0.4,9.4,2.3
					c2.5,2.1,3.8,5.1,3.9,9c0.1,3.3-1,6.2-3.1,8.3C206.9-469.4,203.3-468,199-468z M198.9-490c-4.6,0-7.9,1.8-9.9,4.5
					c-1.3,1.7-1.9,4-1.9,6.6c0,6.2,4.4,9.9,12.1,9.9c3.9,0,7.2-1.4,9.4-3.7c1.9-1.9,2.8-4.5,2.8-7.5c-0.1-2.7-1.4-4.8-2.7-6.3
					C206-489.3,203.5-490,198.9-490z"/>
			</g>
			<path d="M208.2-490.1c0.2,0,6.3,1,6.3,1l1.5,5.2l-4.7,1.8c0,0-0.5-3.2-1.9-4.6s-2.9-3.5-2.9-3.5L208.2-490.1z"/>
			<polygon class="st18" points="205,-507.9 202.2,-504.7 206.9,-515.3 207.3,-504.7 209.3,-505.6 206.7,-501.6 209.3,-500.4 
				209.3,-495.2 210.6,-492.3 200.6,-502.7 204.5,-501.9 			"/>
			<path class="st19" d="M202.3-419.4c-5.9-1.3-16.7-7.3-16.7-7.3l0.2-6.9c0,0,10.6-5.9,14.8-5.9C209.6-439.5,206-418.6,202.3-419.4
				z"/>
			<path class="st20" d="M201.6-419.1c-6.1-0.3-17-7.6-17-7.6v-6.2c0,0,11.7-6.9,15.9-7.1C207.4-440.3,204.7-418.9,201.6-419.1z"/>
			<path class="st21" d="M164.4-419.4c5.9-1.3,16.7-7.3,16.7-7.3l-0.2-6.9c0,0-10.6-5.9-14.8-5.9
				C157.1-439.5,160.7-418.6,164.4-419.4z"/>
			<path class="st22" d="M165.1-419.1c6.1-0.3,17-7.6,17-7.6v-6.2c0,0-11.7-6.9-15.9-7.1C159.3-440.3,162-418.9,165.1-419.1z"/>
			<g>
				<defs>
					<path id="SVGID_12_" d="M193.5-479.3l-0.4,0.7H192l0.5-2.9c0,0,2.1-2.5,4.2-3.3c0.7-0.3,1.4-0.4,2-0.2c2.6,0.7,1.9,1.3,1.9,1.3
						s-0.4,1.3-2.4,2.6C196.1-479.8,195-479.1,193.5-479.3z"/>
				</defs>
				<clipPath id="SVGID_13_">
					<use xlink:href="#SVGID_12_"  style="overflow:visible;"/>
				</clipPath>
			</g>
			<path class="st23" d="M193-480l-1.7,1.1l0,0l0.7-3.2c0,0,1.4-1.4,1.9-1.9c1.1-0.9,2.3-1.5,2.3-1.5s0.7-0.3,1.1-0.3
				c2.1,0.1,2.8,1.3,2.8,1.3s-0.6,0.6-2.4,2.3C195.7-480.5,194.4-479.8,193-480z"/>
			<g>
				<defs>
					<path id="SVGID_14_" d="M193-480l-0.4,0.7h-1.1l0.5-2.9c0,0,2.1-2.5,4.2-3.3c0.7-0.3,1.4-0.4,2-0.2c2.6,0.7,1.9,1.3,1.9,1.3
						s-0.4,1.3-2.4,2.6S194.4-479.8,193-480z"/>
				</defs>
				<clipPath id="SVGID_15_">
					<use xlink:href="#SVGID_14_"  style="overflow:visible;"/>
				</clipPath>
				<path class="st36" d="M194.2-487.1c-1,0.7-1.9,3.2-2,3.2c0,0.1-0.1,0.3-0.1,0.5c0,1.2,1.1,2.2,2.5,2.2c1.4,0,2.6-1.3,2.5-2.8
					C197.1-486,195.5-487,194.2-487.1z"/>
				<path class="st37" d="M194.2-482.9c0.6,0,1.2-0.5,1.2-1.2c0-0.5-0.3-0.9-0.7-1c-0.7,0.4-1.2,0.8-1.6,1.5
					C193.3-483.4,193.8-482.9,194.2-482.9z"/>
			</g>
			<path class="st26" d="M147.4-475.2l3.9,5.4h-2.6l-1.9,7.8c0,0,14.7,11.5,19,15.6c4.3,4.1,16.4,13.9,16.4,13.9h1.1v-79.8
				c0,0-4.8-0.1-5.6,0.1c-0.7,0.2-1.9,1.3-2.8,0.9C174-511.6,147.4-475.2,147.4-475.2z"/>
			<path class="st27" d="M179.5-476.4c0,0-2.6-7.1-8.8-10.3c-3.1-1.6-8.5,0.6-8.5,0.6s2,3.6,3,5.6c0.6,1.1,0.6,3.2,2.8,3.7
				c2.2,0.6,6.5,0.6,7.1,0.9c0.4,0.2,1.9,1.9,2.1,3c0.3,1.3,0.2,1.7,0.2,1.7L179.5-476.4z"/>
			<path class="st27" d="M182.5-472.9l-2.2-3.2l-7.5,11.2c-0.2,0.4-0.2,0.9,0.2,1.2c0.7,0.6,2.1,1.3,2.5,2.3c0.2,0.6,0.5,2.9,0.5,3
				c0.4,1.7,3.1,3.4,3.1,3.4l4.3,0.2v-17.8L182.5-472.9z"/>
			<g>
				<path d="M178.8-484.6L177-487c0.2-0.2,4.7-3.8,11.9-0.9l-1.3,3.1C182.8-486.2,178.8-484.7,178.8-484.6z"/>
			</g>
			<g>
				<path class="st28" d="M183.3-489.1c-3.8,0.1-6.1,1.9-6.3,2l1.7,2.4c0,0,1.8-0.7,4.5-0.8V-489.1z"/>
			</g>
			<path class="st29" d="M176.2-510.1l-16-16.7c0,0-5.8,11.2-5.9,15.6c-0.2,4.5-0.2,12.6-2.4,18.2c-2.2,5.6-3.3,8-3.3,8l2.9-3
				l-3.9,12.6C147.5-475.4,174.7-504.9,176.2-510.1z"/>
			<polygon class="st28" points="180.1,-462.9 183.3,-462.9 183.3,-452.3 179.4,-452.3 176.8,-455.9 176.6,-457.8 			"/>
			<path class="st28" d="M176.1-449.7c1.1,0.7,4,0.9,4.8,0.6c0,0,0.1,0,0.1-0.1l0.7-3c0-0.1,0.1-0.1,0.1-0.1h1.4
				c0.1,0,0.1,0.1,0.1,0.1v7.5c0,0.1-0.1,0.1-0.1,0.1c-1.1,0-2.2-0.4-3.6-0.9c-1.9-0.7-4.3-3.4-5.7-5.2c-0.2-0.3,0.1-0.6,0.4-0.4
				C175-450.6,175.6-450,176.1-449.7z"/>
			<g>
				<path class="st28" d="M157.2-471.9c-2.1-2.2-3.2-5-3.1-8.3c0.1-3.9,1.4-6.9,3.9-9c2.3-1.9,5.5-2.3,9.4-2.3
					c3.9,0,7.4,1.1,9.8,3.1c2.6,2.2,3.6,4.5,3.6,8.2c0,7.6-4.9,12.2-13.2,12.2C163.3-468,159.6-469.4,157.2-471.9z M158-486.4
					c-1.3,1.5-2.6,3.5-2.7,6.3c-0.1,3,0.9,5.6,2.8,7.5c2.2,2.3,5.5,3.7,9.4,3.7c7.7,0,12.1-3.7,12.1-9.9c0-2.6-0.6-4.9-1.9-6.6
					c-2-2.7-5.4-4.5-9.9-4.5C163.1-490,160.6-489.3,158-486.4z"/>
			</g>
			<path class="st28" d="M158.4-490.1c-0.2,0-6.7,1-6.7,1l-1.6,5.2l5.2,1.7c0,0,0.5-3.2,1.9-4.6s2.9-3.5,2.9-3.5L158.4-490.1z"/>
			<polygon class="st27" points="161.5,-507.9 164.3,-504.7 159.7,-515.3 159.3,-504.7 157.3,-505.6 159.9,-501.6 157.3,-500.4 
				157.3,-495.2 156,-492.3 166,-502.7 162.1,-501.9 			"/>
			<g>
				<defs>
					<path id="SVGID_16_" d="M173.1-479.3l0.4,0.7h1.1l-0.5-2.9c0,0-2.1-2.5-4.2-3.3c-0.7-0.3-1.4-0.4-2-0.2
						c-2.6,0.7-1.9,1.3-1.9,1.3s0.4,1.3,2.4,2.6S171.6-479.1,173.1-479.3z"/>
				</defs>
				<clipPath id="SVGID_17_">
					<use xlink:href="#SVGID_16_"  style="overflow:visible;"/>
				</clipPath>
			</g>
			<path class="st23" d="M173.6-480l1.7,1.1l0,0l-0.7-3.2c0,0-1.4-1.4-1.9-1.9c-1.1-0.9-2.3-1.5-2.3-1.5s-0.7-0.3-1.1-0.3
				c-2.1,0.1-2.8,1.3-2.8,1.3s0.6,0.6,2.4,2.3C170.8-480.5,172.1-479.8,173.6-480z"/>
			<g>
				<defs>
					<path id="SVGID_18_" d="M173.6-480l0.4,0.7h1.1l-0.5-2.9c0,0-2.1-2.5-4.2-3.3c-0.7-0.3-1.4-0.4-2-0.2c-2.6,0.7-1.9,1.3-1.9,1.3
						s0.4,1.3,2.4,2.6S172.1-479.8,173.6-480z"/>
				</defs>
				<clipPath id="SVGID_19_">
					<use xlink:href="#SVGID_18_"  style="overflow:visible;"/>
				</clipPath>
				<path class="st38" d="M172.4-487.1c1,0.7,1.9,3.2,2,3.2c0,0.1,0.1,0.3,0.1,0.5c0,1.2-1.1,2.2-2.5,2.2c-1.4,0-2.6-1.3-2.5-2.8
					C169.5-486,171.1-487,172.4-487.1z"/>
				<path class="st39" d="M172.4-482.9c-0.6,0-1.2-0.5-1.2-1.2c0-0.5,0.3-0.9,0.7-1c0.7,0.4,1.2,0.8,1.6,1.5
					C173.3-483.4,172.8-482.9,172.4-482.9z"/>
			</g>
			<path class="st32" d="M184.3-426.4h-2.2c-0.9,0-1.7-0.8-1.7-1.7v-4.2c0-0.9,0.8-1.7,1.7-1.7h2.2c0.9,0,1.7,0.8,1.7,1.7v4.2
				C186-427.1,185.3-426.4,184.3-426.4z"/>
			<path class="st33" d="M183.3-434h-1.1c-0.9,0-1.7,0.8-1.7,1.7v4.2c0,0.9,0.8,1.7,1.7,1.7h1.1V-434z"/>
		</g>
		<g class="st34">
			<circle class="st6" cx="183.3" cy="-475.1" r="74.1"/>
		</g>
		<g>
			<line class="st40" x1="183.3" y1="-495.7" x2="183.3" y2="-466.3"/>
			<line class="st40" x1="198" y1="-481" x2="168.6" y2="-481"/>
		</g>
	</g>
	<polyline class="st9" points="-172.7,-2778.4 -235.6,-2717.4 -172.7,-2658.3 	"/>
	<polyline class="st41" points="-192,-3155.2 -178.8,-3142.4 -192,-3130 	"/>
	<line class="st41" x1="-183" y1="-3142" x2="-211.9" y2="-3142.1"/>
	<line class="st41" x1="-172.8" y1="-3157" x2="-172.8" y2="-3127"/>
	<g>
		<polyline class="st2" points="103.5,-3066 129,-3042.4 103.5,-3019 		"/>
		<g>
			<line class="st2" x1="123.3" y1="-3042.5" x2="65.2" y2="-3042.6"/>
		</g>
		<path class="st2" d="M134.1-3098.2H49.2c-2.9,0-5.3,2.4-5.3,5.3v100.7c0,2.9,2.4,5.3,5.3,5.3h84.9"/>
	</g>
	<g>
		<g>
			<polyline class="st2" points="910.2,-3069.2 933.3,-3047.9 910.2,-3026.8 			"/>
			<g>
				<line class="st2" x1="928.1" y1="-3048.1" x2="875.7" y2="-3048.2"/>
			</g>
		</g>
		<path class="st2" d="M937.8-3098.2h-76.6c-2.6,0-4.8,2.1-4.8,4.8v90.8c0,2.6,2.1,4.8,4.8,4.8h76.6"/>
		<path class="st2" d="M855.8-3086.7h-7.4c-2.6,0-4.8,2.1-4.8,4.8v90.8c0,2.6,2.1,4.8,4.8,4.8h34.4h51.7"/>
	</g>
	<g>
		<line class="st9" x1="588.2" y1="-1176.2" x2="655.6" y2="-1242.5"/>
		<line class="st9" x1="655.6" y1="-1176.2" x2="588.2" y2="-1242.5"/>
	</g>
	<g>
		<line class="st2" x1="837.8" y1="-3345.9" x2="943.6" y2="-3345.9"/>
		<g>
			<path class="st2" d="M930.8-3242.8h-81.1c-2.8,0-5-2.2-5-5v-98.1h91.1v98.1C935.7-3245.1,933.5-3242.8,930.8-3242.8z"/>
			<line class="st2" x1="873.9" y1="-3326.5" x2="873.9" y2="-3258.3"/>
			<line class="st2" x1="909.1" y1="-3326.7" x2="909.1" y2="-3258.5"/>
			<path class="st2" d="M873.5-3346.5v-3c0-1.5,1.2-2.7,2.7-2.7h29.5c1.5,0,2.7,1.2,2.7,2.7v3"/>
		</g>
	</g>
	<g>
		<path class="st2" d="M665.4-1524.6h-89.6c-9.9,0-18-8.1-18-18v-56.6c0-9.9,8.1-18,18-18h89.6c9.9,0,18,8.1,18,18v56.6
			C683.4-1532.6,675.4-1524.6,665.4-1524.6z"/>
		<line class="st2" x1="589.7" y1="-1512.5" x2="652.2" y2="-1512.5"/>
		<line class="st2" x1="616.5" y1="-1523.8" x2="616.4" y2="-1514.4"/>
		<line class="st2" x1="626.9" y1="-1523.7" x2="626.9" y2="-1514.3"/>
	</g>
	<g>
		<polyline class="st2" points="1060.6,-1592.4 1086.4,-1568.6 1060.6,-1544.9 		"/>
		<g>
			<line class="st2" x1="1080.7" y1="-1568.7" x2="1029" y2="-1568.7"/>
		</g>
		<path class="st2" d="M1051.5-1624.9h-45.7c-3,0-5.4,2.4-5.4,5.4v101.6c0,3,2.4,5.4,5.4,5.4h45.7"/>
	</g>
	<g>
		<polyline class="st2" points="1069.5,-1236 1093.1,-1214.2 1069.5,-1192.6 		"/>
		<g>
			<line class="st2" x1="1087.8" y1="-1214.3" x2="1041.2" y2="-1214.3"/>
		</g>
		<path class="st2" d="M1053.9-1265.6h-34.5c-2.7,0-4.9,2.2-4.9,4.9v92.9c0,2.7,2.2,4.9,4.9,4.9h34.5"/>
		<path class="st2" d="M1013.2-1254.5l-7.8-0.1c-2.7,0-4.9,2.2-4.9,4.9v92.9c0,2.7,2.2,4.9,4.9,4.9h20.3"/>
	</g>
	<g>
		<g>
			<line class="st41" x1="172.9" y1="-1598.9" x2="172.9" y2="-1531"/>
			<line class="st41" x1="206.7" y1="-1598.9" x2="206.7" y2="-1531"/>
		</g>
		<g>
			<line class="st2" x1="136.2" y1="-1619.1" x2="243.5" y2="-1619.1"/>
			<path class="st2" d="M227.1-1512.5h-73.6c-6,0-10.8-4.8-10.8-10.8v-95.8h95.2v95.8C237.9-1517.4,233-1512.5,227.1-1512.5z"/>
			<path class="st2" d="M163.6-1622.3v-3c0-2.9,2.8-5.2,6.3-5.2H209c3.5,0,6.3,2.3,6.3,5.2v3"/>
		</g>
	</g>
	<g>
		<path class="st2" d="M670.8-3325.5v73.1c0,6.3-5.1,11.4-11.4,11.4h-86.3c-6.3,0-11.4-5.1-11.4-11.4v-86.3
			c0-6.3,5.1-11.4,11.4-11.4H630"/>
		<polygon class="st2" points="596.2,-3269.1 597.6,-3285.3 651.8,-3350.7 665.9,-3339.1 611.7,-3273.7 		"/>
		<line class="st2" x1="641.9" y1="-3337.4" x2="655.4" y2="-3326.9"/>
	</g>
	<g>
		<circle class="st42" cx="182.6" cy="-1949.3" r="39.7"/>
		<line class="st42" x1="210.3" y1="-1918.9" x2="233.3" y2="-1894.9"/>
	</g>
	<g>
		<path class="st2" d="M654.1-1892.4h-76.9c-5.6,0-10.1-4.5-10.1-10.1v-76.9c0-5.6,4.5-10.1,10.1-10.1h76.9
			c5.6,0,10.1,4.5,10.1,10.1v76.9C664.2-1896.9,659.7-1892.4,654.1-1892.4z"/>
		<path class="st2" d="M664.6-1976.7c5.6,0,10.1,4.5,10.1,10.1v76.9c0,5.6-4.5,10.1-10.1,10.1h-76.9c-5.6,0-10.1-4.5-10.1-10.1"/>
		<g>
			<line class="st43" x1="589.1" y1="-1971.6" x2="589.1" y2="-1967.2"/>
			<line class="st43" x1="607.1" y1="-1971.7" x2="607.1" y2="-1967.2"/>
			<line class="st43" x1="625.4" y1="-1971.2" x2="625.4" y2="-1966.7"/>
			<line class="st43" x1="644.3" y1="-1971.2" x2="644.3" y2="-1966.8"/>
		</g>
		<path class="st43" d="M619-1910.5H590c-1.3,0-2.3-1-2.3-2.3v-24c0-1.3,1-2.3,2.3-2.3H619c1.3,0,2.3,1,2.3,2.3v24
			C621.3-1911.6,620.2-1910.5,619-1910.5z"/>
		<path class="st43" d="M590-1911c-0.8,0-1.2-0.9-0.8-1.5l7.4-7.7l7.5,6l7.8-10.5l7.8,11.3c0.6,1.1-0.2,2.4-1.5,2.4H590z"/>
		<circle class="st43" cx="603.5" cy="-1925.1" r="2.4"/>
		<path class="st43" d="M611.7-1940.6v-7c0-1.3,1-2.3,2.3-2.3h29c1.3,0,2.3,1,2.3,2.3v24c0,1.3-1,2.3-2.3,2.3h-20.3"/>
		<path class="st43" d="M633.1-1936.3l-6.9-4c-0.5-0.3-1.1,0.1-1.1,0.7v8c0,0.6,0.6,0.9,1.1,0.7l6.9-4
			C633.6-1935.3,633.6-1936,633.1-1936.3z"/>
		<line class="st43" x1="612.1" y1="-1944.8" x2="644.7" y2="-1944.8"/>
		<line class="st43" x1="622.4" y1="-1927.9" x2="644.7" y2="-1927.9"/>
	</g>
	<g>
		<path class="st2" d="M1106.4-1964.2v72.5c0,6.2-5.1,11.3-11.3,11.3h-85.6c-6.2,0-11.3-5.1-11.3-11.3v-85.6
			c0-6.2,5.1-11.3,11.3-11.3h56.4"/>
		<polygon class="st2" points="1032.4,-1908.3 1033.7,-1924.4 1087.5,-1989.3 1101.5,-1977.8 1047.7,-1912.9 		"/>
		<line class="st2" x1="1077.6" y1="-1976" x2="1091.1" y2="-1965.6"/>
	</g>
	<g>
		<path class="st5" d="M134.1-2733.7H43.9c-6.6,0-11.9-5.3-11.9-11.9v-90.2c0-6.6,5.3-11.9,11.9-11.9h90.2c6.6,0,11.9,5.3,11.9,11.9
			v90.2C146-2739,140.7-2733.7,134.1-2733.7z"/>
		<g>
			<g>
				<g>
					<path class="st6" d="M90.1-2799.7c6.9,0,12.5,5.6,12.5,12.5s-5.6,12.5-12.5,12.5c-6.9,0-12.5-5.6-12.5-12.5
						S83.2-2799.7,90.1-2799.7 M90.1-2802.7L90.1-2802.7c-8.6,0-15.5,6.9-15.5,15.5c0,8.6,6.9,15.5,15.5,15.5h0
						c8.6,0,15.5-6.9,15.5-15.5C105.6-2795.8,98.7-2802.7,90.1-2802.7L90.1-2802.7z"/>
				</g>
			</g>
			<g>
				<g>
					<path class="st6" d="M62.6-2794.3c3.1,0,5.6,2.5,5.6,5.6s-2.5,5.6-5.6,5.6c-3.1,0-5.6-2.5-5.6-5.6S59.5-2794.3,62.6-2794.3
						 M62.6-2797.3L62.6-2797.3c-4.7,0-8.6,3.8-8.6,8.6s3.8,8.6,8.6,8.6h0c4.7,0,8.6-3.8,8.6-8.6S67.3-2797.3,62.6-2797.3
						L62.6-2797.3z"/>
				</g>
			</g>
			<g id="XMLID_3_">
				<path class="st5" d="M101-2771c2,0.1,4,0.4,5.9,0.9c7.8,2,13.1,9.1,13.1,17.1"/>
			</g>
			<g id="XMLID_2_">
				<path class="st5" d="M79.2-2771c0.3,0.4,0.6,0.8,1,1.2c2.3,2.5,5.6,4.1,9.2,4.3l1.4-0.1c3.7-0.2,6.9-1.8,9.2-4.3
					c0.3-0.4,0.7-0.8,1-1.2"/>
				<path class="st5" d="M79.2-2771c-2,0.1-4,0.4-5.9,0.9c-7.8,2-13.1,9.1-13.1,17.1"/>
			</g>
			<g id="XMLID_4_">
				<path class="st5" d="M56-2778.2c0.2,0.2,0.4,0.5,0.6,0.7c1.4,1.5,3.3,2.4,5.4,2.5l0.8,0c2.1-0.1,4.1-1.1,5.4-2.5
					c0.2-0.2,0.4-0.4,0.6-0.7"/>
				<path class="st5" d="M56-2778.2c-1.2,0.1-2.3,0.3-3.4,0.5c-4.6,1.2-7.7,5.4-7.7,10.1"/>
			</g>
			<g>
				<g>
					<path class="st6" d="M116.6-2794.6c3.1,0,5.6,2.5,5.6,5.6s-2.5,5.6-5.6,5.6c-3.1,0-5.6-2.5-5.6-5.6S113.5-2794.6,116.6-2794.6
						 M116.6-2797.6L116.6-2797.6c-4.7,0-8.6,3.8-8.6,8.6c0,4.7,3.8,8.6,8.6,8.6h0c4.7,0,8.6-3.8,8.6-8.6
						C125.1-2793.8,121.3-2797.6,116.6-2797.6L116.6-2797.6z"/>
				</g>
			</g>
			<g id="XMLID_5_">
				<path class="st5" d="M123.1-2778.5c-0.2,0.2-0.4,0.5-0.6,0.7c-1.4,1.5-3.3,2.4-5.4,2.5l-0.8,0c-2.1-0.1-4.1-1.1-5.4-2.5
					c-0.2-0.2-0.4-0.4-0.6-0.7"/>
				<path class="st5" d="M123.1-2778.5c1.2,0.1,2.3,0.3,3.4,0.5c4.6,1.2,7.7,5.4,7.7,10.1"/>
			</g>
		</g>
	</g>
	<g>
		<g>
			<circle class="st7" cx="1051.9" cy="-842" r="74"/>
		</g>
		<g>
			<line class="st44" x1="1051.5" y1="-874" x2="1051.5" y2="-808.5"/>
			<line class="st44" x1="1084.3" y1="-841.3" x2="1018.8" y2="-841.3"/>
		</g>
	</g>
	<g>
		<line class="st2" x1="175.6" y1="-878" x2="209.2" y2="-878"/>
		<line class="st2" x1="175" y1="-845.5" x2="208.7" y2="-845.5"/>
		<line class="st2" x1="175.4" y1="-811.7" x2="209" y2="-811.7"/>
	</g>
	<g>
		<g>
			<path class="st5" d="M221.9-1165h-15.1c-1.5,0-2.6-1.2-2.6-2.6v-56c0-1.5,1.2-2.6,2.6-2.6h15.1c1.5,0,2.6,1.2,2.6,2.6v56
				C224.6-1166.2,223.4-1165,221.9-1165z"/>
			<path class="st5" d="M193.9-1165h-15.1c-1.5,0-2.6-1.2-2.6-2.6v-42c0-1.5,1.2-2.6,2.6-2.6h15.1c1.5,0,2.6,1.2,2.6,2.6v42
				C196.5-1166.2,195.3-1165,193.9-1165z"/>
			<path class="st5" d="M167.9-1165h-15.1c-1.5,0-2.6-1.2-2.6-2.6v-26.5c0-1.5,1.2-2.6,2.6-2.6h15.1c1.5,0,2.6,1.2,2.6,2.6v26.5
				C170.5-1166.2,169.3-1165,167.9-1165z"/>
		</g>
		<path class="st2" d="M186.6-1150h-41.8c-6.4,0-11.5-5.2-11.5-11.5v-87.3c0-6.4,5.2-11.5,11.5-11.5h87.3c6.4,0,11.5,5.2,11.5,11.5
			v87.3c0,6.4-5.2,11.5-11.5,11.5h-23.5H186.6z"/>
	</g>
	<g>
		<path class="st2" d="M664.7-787.6h-87.3c-6.4,0-11.5-5.2-11.5-11.5v-87.3c0-6.4,5.2-11.5,11.5-11.5h87.3c6.4,0,11.5,5.2,11.5,11.5
			v10.4v31v45.9C676.2-792.8,671-787.6,664.7-787.6z"/>
		<g>
			<g>
				<g>
					<path class="st6" d="M622.1-849c6.6,0,12,5.4,12,12s-5.4,12-12,12s-12-5.4-12-12S615.5-849,622.1-849 M622.1-852L622.1-852
						c-8.3,0-15,6.7-15,15s6.7,15,15,15h0c8.3,0,15-6.7,15-15S630.4-852,622.1-852L622.1-852z"/>
				</g>
			</g>
			<g>
				<g>
					<path class="st6" d="M595.4-843.7c2.9,0,5.3,2.4,5.3,5.3s-2.4,5.3-5.3,5.3s-5.3-2.4-5.3-5.3S592.5-843.7,595.4-843.7
						 M595.4-846.7c-4.6,0-8.3,3.7-8.3,8.3s3.7,8.3,8.3,8.3s8.3-3.7,8.3-8.3S600-846.7,595.4-846.7L595.4-846.7z"/>
				</g>
			</g>
			<g id="XMLID_10_">
				<path class="st5" d="M632.6-821.4c1.9,0.1,3.8,0.4,5.7,0.9c7.5,1.9,12.7,8.8,12.7,16.6"/>
			</g>
			<g id="XMLID_9_">
				<path class="st5" d="M611.5-821.3c0.3,0.4,0.6,0.8,0.9,1.1c2.3,2.4,5.4,4,8.9,4.2l1.3-0.1c3.5-0.2,6.7-1.7,8.9-4.2
					c0.3-0.4,0.7-0.7,0.9-1.1"/>
				<path class="st5" d="M611.5-821.3c-1.9,0.1-3.8,0.4-5.7,0.9c-7.5,1.9-12.7,8.8-12.7,16.6"/>
			</g>
			<g id="XMLID_8_">
				<path class="st5" d="M589.1-828.3c0.2,0.2,0.4,0.5,0.6,0.7c1.3,1.4,3.2,2.3,5.2,2.4l0.8,0c2.1-0.1,3.9-1,5.2-2.4
					c0.2-0.2,0.4-0.4,0.6-0.7"/>
				<path class="st5" d="M589.1-828.3c-1.1,0.1-2.3,0.3-3.3,0.5c-4.4,1.1-7.4,5.2-7.4,9.7"/>
			</g>
			<g>
				<g>
					<path class="st6" d="M647.7-844.1c2.9,0,5.3,2.4,5.3,5.3s-2.4,5.3-5.3,5.3s-5.3-2.4-5.3-5.3S644.8-844.1,647.7-844.1
						 M647.7-847.1c-4.6,0-8.3,3.7-8.3,8.3s3.7,8.3,8.3,8.3s8.3-3.7,8.3-8.3S652.2-847.1,647.7-847.1L647.7-847.1z"/>
				</g>
			</g>
			<g id="XMLID_1_">
				<path class="st5" d="M654-828.6c-0.2,0.2-0.4,0.5-0.6,0.7c-1.3,1.4-3.2,2.3-5.2,2.4l-0.8,0c-2.1-0.1-3.9-1-5.2-2.4
					c-0.2-0.2-0.4-0.4-0.6-0.7"/>
				<path class="st5" d="M654-828.6c1.1,0.1,2.3,0.3,3.3,0.5c4.4,1.1,7.4,5.2,7.4,9.7"/>
			</g>
		</g>
	</g>
</g>
<g id="Layer_4" class="st0">
	<path class="st45" d="M543.8-3341.8h-46.4c-7.6,0-13.7-6.1-13.7-13.7v-104c0-7.6,6.1-13.7,13.7-13.7h104c7.6,0,13.7,6.1,13.7,13.7
		v104c0,7.6-6.1,13.7-13.7,13.7h-12.7"/>
	<path class="st45" d="M736.8-3341.8h-46.4c-7.6,0-13.7-6.1-13.7-13.7v-104c0-7.6,6.1-13.7,13.7-13.7h104c7.6,0,13.7,6.1,13.7,13.7
		v104c0,7.6-6.1,13.7-13.7,13.7h-12.7"/>
	<path class="st45" d="M909.8-3342.8h-46.4c-7.6,0-13.7-6.1-13.7-13.7v-104c0-7.6,6.1-13.7,13.7-13.7h104c7.6,0,13.7,6.1,13.7,13.7
		v104c0,7.6-6.1,13.7-13.7,13.7h-12.7"/>
	<path class="st45" d="M1093.8-3345.8h-46.4c-7.6,0-13.7-6.1-13.7-13.7v-104c0-7.6,6.1-13.7,13.7-13.7h104c7.6,0,13.7,6.1,13.7,13.7
		v104c0,7.6-6.1,13.7-13.7,13.7h-12.7"/>
	<path class="st45" d="M336.8-3109h-46.2c-7.6,0-13.7-6.1-13.7-13.7v-103.6c0-7.6,6.1-13.7,13.7-13.7h103.6
		c7.6,0,13.7,6.1,13.7,13.7v103.6c0,7.6-6.1,13.7-13.7,13.7h-12.7"/>
	<path class="st45" d="M556.8-3108.8h-46.4c-7.6,0-13.7-6.1-13.7-13.7v-104c0-7.6,6.1-13.7,13.7-13.7h104c7.6,0,13.7,6.1,13.7,13.7
		v104c0,7.6-6.1,13.7-13.7,13.7h-12.7"/>
	<path class="st45" d="M758.8-3109.8h-46.4c-7.6,0-13.7-6.1-13.7-13.7v-104c0-7.6,6.1-13.7,13.7-13.7h104c7.6,0,13.7,6.1,13.7,13.7
		v104c0,7.6-6.1,13.7-13.7,13.7h-12.7"/>
	<path class="st45" d="M928.8-3109.8h-46.4c-7.6,0-13.7-6.1-13.7-13.7v-104c0-7.6,6.1-13.7,13.7-13.7h104c7.6,0,13.7,6.1,13.7,13.7
		v104c0,7.6-6.1,13.7-13.7,13.7h-12.7"/>
	<path class="st45" d="M1135.8-3111.8h-46.4c-7.6,0-13.7-6.1-13.7-13.7v-104c0-7.6,6.1-13.7,13.7-13.7h104c7.6,0,13.7,6.1,13.7,13.7
		v104c0,7.6-6.1,13.7-13.7,13.7h-12.7"/>
	<path class="st45" d="M76.8-2863.8H30.4c-7.6,0-13.7-6.1-13.7-13.7v-104c0-7.6,6.1-13.7,13.7-13.7h104c7.6,0,13.7,6.1,13.7,13.7
		v104c0,7.6-6.1,13.7-13.7,13.7h-12.7"/>
	<path class="st45" d="M330.8-2863.8h-46.4c-7.6,0-13.7-6.1-13.7-13.7v-104c0-7.6,6.1-13.7,13.7-13.7h104c7.6,0,13.7,6.1,13.7,13.7
		v104c0,7.6-6.1,13.7-13.7,13.7h-12.7"/>
</g>
<g id="Layer_2">
</g>
<g id="Layer_7">
	<g class="st0">
		<g class="st1">
			<path class="st6" d="M72,5.3c36.8,0,66.7,29.9,66.7,66.8s-29.9,66.8-66.7,66.8S5.3,108.8,5.3,72S35.2,5.3,72,5.3 M72,2.3
				C33.5,2.3,2.3,33.5,2.3,72s31.2,69.8,69.7,69.8s69.7-31.2,69.7-69.8S110.5,2.3,72,2.3L72,2.3z"/>
		</g>
		<g class="st1">
			<path class="st13" d="M105.8,71.9l-3.7,5.1h2.4l1.7,7.3c0,0-13.8,10.8-17.8,14.7c-4,3.8-15.4,13.1-15.4,13.1h-1V37
				c0,0,4.5-0.1,5.2,0.1c0.7,0.2,1.7,1.2,2.6,0.9S105.8,71.9,105.8,71.9z"/>
			<linearGradient id="SVGID_20_" gradientUnits="userSpaceOnUse" x1="117.6717" y1="74.1556" x2="72.6123" y2="74.5931">
				<stop  offset="0.5405" style="stop-color:#D3D3D3;stop-opacity:0"/>
				<stop  offset="0.7142" style="stop-color:#D1D1D1;stop-opacity:2.709636e-02"/>
				<stop  offset="0.7768" style="stop-color:#CACACA;stop-opacity:3.685728e-02"/>
				<stop  offset="0.8214" style="stop-color:#BFBFBF;stop-opacity:4.381816e-02"/>
				<stop  offset="0.8574" style="stop-color:#AEAEAE;stop-opacity:4.944365e-02"/>
				<stop  offset="0.8883" style="stop-color:#989898;stop-opacity:5.426258e-02"/>
				<stop  offset="0.9157" style="stop-color:#7C7C7C;stop-opacity:5.852773e-02"/>
				<stop  offset="0.9404" style="stop-color:#5C5C5C;stop-opacity:6.238755e-02"/>
				<stop  offset="0.9631" style="stop-color:#363636;stop-opacity:6.593376e-02"/>
				<stop  offset="0.9834" style="stop-color:#0D0D0D;stop-opacity:6.909213e-02"/>
				<stop  offset="0.9892" style="stop-color:#000000;stop-opacity:7.000000e-02"/>
			</linearGradient>
			<path class="st46" d="M105.8,71.9l-3.7,5.1h2.4l1.7,7.3c0,0-13.8,10.8-17.8,14.7c-4,3.8-15.4,13.1-15.4,13.1h-1V37
				c0,0,4.5-0.1,5.2,0.1c0.7,0.2,1.7,1.2,2.6,0.9S105.8,71.9,105.8,71.9z"/>
			<path class="st15" d="M75.6,70.8c0,0,2.4-6.7,8.3-9.7c2.9-1.5,8,0.5,8,0.5s-1.8,3.4-2.8,5.2c-0.5,1-0.5,3-2.6,3.5
				c-2.1,0.5-6.1,0.5-6.7,0.9c-0.4,0.2-1.7,1.8-2,2.8c-0.3,1.2-0.2,1.6-0.2,1.6L75.6,70.8z"/>
			<path class="st16" d="M78.6,39l15-15.7c0,0,5.4,10.5,5.6,14.7s0.2,11.9,2.3,17.1c2.1,5.2,3.1,7.5,3.1,7.5l-2.7-2.8l3.7,11.9
				C105.7,71.7,80,43.9,78.6,39z"/>
			<path class="st15" d="M72.8,74l2.1-3l7,10.6c0.2,0.4,0.2,0.8-0.2,1.1c-0.7,0.6-2,1.3-2.4,2.2c-0.2,0.6-0.4,2.7-0.5,2.8
				c-0.4,1.6-2.9,3.2-2.9,3.2L72,91V74.2L72.8,74z"/>
			<polygon class="st17" points="75,83.4 72,83.4 72,93.4 75.7,93.4 78.1,90.1 78.3,88.3 			"/>
			<path class="st17" d="M78.7,95.8c-1,0.7-3.8,0.9-4.5,0.5l-0.7-3H72v7.3c1.1,0,2.1-0.3,3.5-0.8c2.8-1,6.6-6.6,6.6-6.6
				S79.8,95.1,78.7,95.8z"/>
			<g>
				<path d="M86.8,78.7c-7.8,0-12.5-4.3-12.5-11.5c0-3.5,0.9-5.7,3.4-7.7c2.2-1.9,5.6-2.9,9.2-2.9c3.7,0,6.7,0.4,8.8,2.2
					c2.4,2,3.6,4.8,3.7,8.5c0.1,3.1-0.9,5.8-2.9,7.8C94.3,77.4,90.8,78.7,86.8,78.7z M86.7,57.9c-4.3,0-7.5,1.7-9.4,4.2
					c-1.2,1.6-1.8,3.8-1.8,6.2c0,5.8,4.1,9.4,11.3,9.4c3.7,0,6.8-1.3,8.9-3.5c1.8-1.8,2.7-4.3,2.6-7c-0.1-2.5-1.3-4.5-2.6-5.9
					C93.4,58.6,91,57.9,86.7,57.9z"/>
			</g>
			<path d="M95.4,57.9c0.2,0,5.9,1,5.9,1l1.4,4.9l-4.4,1.7c0,0-0.4-3-1.8-4.4c-1.3-1.3-2.7-3.3-2.7-3.3L95.4,57.9z"/>
			<polygon class="st18" points="92.5,41.1 89.8,44.1 94.2,34.1 94.6,44.1 96.5,43.2 94,47.1 96.5,48.1 96.5,53 97.7,55.8 88.3,46 
				91.9,46.7 			"/>
			<path class="st19" d="M89.9,124.4c-5.6-1.2-15.8-6.8-15.8-6.8l0.2-6.5c0,0,10-5.6,14-5.6C96.8,105.5,93.4,125.2,89.9,124.4z"/>
			<path class="st20" d="M89.2,124.7c-5.7-0.3-16-7.1-16-7.1v-5.8c0,0,11-6.5,15-6.7C94.7,104.8,92.1,124.9,89.2,124.7z"/>
			<path class="st21" d="M54.2,124.4c5.6-1.2,15.8-6.8,15.8-6.8l-0.2-6.5c0,0-10-5.6-14-5.6C47.3,105.5,50.7,125.2,54.2,124.4z"/>
			<path class="st22" d="M54.9,124.7c5.7-0.3,16-7.1,16-7.1v-5.8c0,0-11-6.5-15-6.7C49.4,104.8,52,124.9,54.9,124.7z"/>
			<g>
				<defs>
					<path id="SVGID_21_" d="M81.6,68.1l-0.3,0.7h-1l0.4-2.7c0,0,1.9-2.3,3.9-3.1c0.7-0.3,1.3-0.4,1.9-0.2c2.4,0.7,1.7,1.2,1.7,1.2
						s-0.3,1.2-2.3,2.4C84.1,67.5,83,68.2,81.6,68.1z"/>
				</defs>
				<clipPath id="SVGID_22_">
					<use xlink:href="#SVGID_21_"  style="overflow:visible;"/>
				</clipPath>
			</g>
			<path class="st23" d="M81.1,67.3l-1.6,1l0,0l0.6-3c0,0,1.3-1.3,1.8-1.8c1-0.9,2.2-1.4,2.2-1.4s0.7-0.3,1-0.2
				c1.9,0.1,2.6,1.2,2.6,1.2s-0.5,0.6-2.2,2.1C83.7,66.9,82.5,67.5,81.1,67.3z"/>
			<g>
				<defs>
					<path id="SVGID_23_" d="M81.1,67.4l-0.3,0.7h-1l0.4-2.7c0,0,1.9-2.3,3.9-3.1c0.7-0.3,1.3-0.4,1.9-0.2c2.4,0.7,1.7,1.2,1.7,1.2
						s-0.3,1.2-2.3,2.4S82.5,67.6,81.1,67.4z"/>
				</defs>
				<clipPath id="SVGID_24_">
					<use xlink:href="#SVGID_23_"  style="overflow:visible;"/>
				</clipPath>
				<path class="st47" d="M82.3,60.7c-0.9,0.6-1.8,3-1.8,3c0,0.1,0,0.3,0,0.4c0,1.2,1,2.1,2.3,2.1c1.3,0,2.4-1.2,2.4-2.6
					C85,61.7,83.5,60.8,82.3,60.7z"/>
				<path class="st48" d="M82.3,64.6c0.6,0,1.1-0.5,1.1-1.1c0-0.4-0.3-0.8-0.6-1c-0.7,0.4-1.2,0.8-1.5,1.4
					C81.4,64.2,81.9,64.6,82.3,64.6z"/>
			</g>
			<path class="st26" d="M38.2,71.9l3.7,5.1h-2.4l-1.7,7.3c0,0,13.8,10.8,17.8,14.7c4,3.8,15.4,13.1,15.4,13.1h1V37
				c0,0-4.5-0.1-5.2,0.1c-0.7,0.2-1.7,1.2-2.6,0.9S38.2,71.9,38.2,71.9z"/>
			<path class="st27" d="M68.4,70.8c0,0-2.4-6.7-8.3-9.7c-2.9-1.5-8,0.5-8,0.5s1.8,3.4,2.8,5.2c0.5,1,0.5,3,2.6,3.5s6.1,0.5,6.7,0.9
				c0.4,0.2,1.7,1.8,2,2.8c0.3,1.2,0.2,1.6,0.2,1.6L68.4,70.8z"/>
			<path class="st27" d="M71.2,74l-2.1-3l-7,10.6c-0.2,0.4-0.2,0.8,0.2,1.1c0.7,0.6,2,1.3,2.4,2.2c0.2,0.6,0.4,2.7,0.5,2.8
				c0.4,1.6,2.9,3.2,2.9,3.2l4,0.2V74.2L71.2,74z"/>
			<g>
				<path d="M67.8,63l-1.6-2.3c0.2-0.2,4.4-3.6,11.2-0.9l-1.2,3C71.5,61.5,67.8,63,67.8,63z"/>
			</g>
			<g>
				<path class="st28" d="M72,58.8c-3.6,0.1-5.7,1.8-5.9,1.9l1.6,2.3c0,0,1.7-0.7,4.2-0.7V58.8z"/>
			</g>
			<path class="st29" d="M65.4,39l-15-15.7c0,0-5.4,10.5-5.6,14.7s-0.2,11.9-2.3,17.1s-3.1,7.5-3.1,7.5l2.7-2.8l-3.7,11.9
				C38.3,71.7,64,43.9,65.4,39z"/>
			<polygon class="st28" points="69,83.4 72,83.4 72,93.4 68.3,93.4 65.9,90.1 65.7,88.3 			"/>
			<path class="st28" d="M65.2,95.9c1,0.7,3.7,0.9,4.5,0.5c0,0,0.1,0,0.1-0.1l0.7-2.8c0,0,0.1-0.1,0.1-0.1h1.3c0.1,0,0.1,0,0.1,0.1
				v7.1c0,0.1,0,0.1-0.1,0.1c-1,0-2-0.3-3.3-0.8c-1.8-0.7-4-3.2-5.4-4.9c-0.2-0.2,0.1-0.6,0.4-0.4C64.2,95.1,64.8,95.6,65.2,95.9z"
				/>
			<g>
				<path class="st28" d="M47.4,75c-2-2-3-4.8-2.9-7.8c0.1-3.7,1.3-6.5,3.7-8.5c2.2-1.8,5.2-2.2,8.8-2.2c3.6,0,7,1.1,9.2,2.9
					c2.4,2,3.4,4.3,3.4,7.7c0,7.2-4.7,11.5-12.5,11.5C53.2,78.7,49.7,77.4,47.4,75z M48.2,61.3c-1.3,1.4-2.5,3.3-2.6,5.9
					c-0.1,2.8,0.8,5.2,2.6,7c2.1,2.1,5.2,3.5,8.9,3.5c7.2,0,11.3-3.5,11.3-9.4c0-2.4-0.6-4.6-1.8-6.2c-1.9-2.6-5.1-4.2-9.4-4.2
					C53,57.9,50.6,58.6,48.2,61.3z"/>
			</g>
			<path class="st28" d="M48.6,57.9c-0.2,0-6.3,1-6.3,1l-1.5,4.9l4.9,1.6c0,0,0.4-3,1.8-4.4c1.3-1.3,2.7-3.3,2.7-3.3L48.6,57.9z"/>
			<polygon class="st27" points="51.5,41.1 54.2,44.1 49.8,34.1 49.4,44.1 47.5,43.2 50,47.1 47.5,48.1 47.5,53 46.3,55.8 55.7,46 
				52.1,46.7 			"/>
			<g>
				<defs>
					<path id="SVGID_25_" d="M62.4,68.1l0.3,0.7h1l-0.4-2.7c0,0-1.9-2.3-3.9-3.1c-0.7-0.3-1.3-0.4-1.9-0.2c-2.4,0.7-1.7,1.2-1.7,1.2
						s0.3,1.2,2.3,2.4C59.9,67.5,61,68.2,62.4,68.1z"/>
				</defs>
				<clipPath id="SVGID_26_">
					<use xlink:href="#SVGID_25_"  style="overflow:visible;"/>
				</clipPath>
			</g>
			<path class="st23" d="M62.9,67.3l1.6,1l0,0l-0.6-3c0,0-1.3-1.3-1.8-1.8c-1-0.9-2.2-1.4-2.2-1.4s-0.7-0.3-1-0.2
				c-1.9,0.1-2.6,1.2-2.6,1.2s0.5,0.6,2.2,2.1C60.3,66.9,61.5,67.5,62.9,67.3z"/>
			<g>
				<defs>
					<path id="SVGID_27_" d="M62.9,67.4l0.3,0.7h1l-0.4-2.7c0,0-1.9-2.3-3.9-3.1c-0.7-0.3-1.3-0.4-1.9-0.2c-2.4,0.7-1.7,1.2-1.7,1.2
						s0.3,1.2,2.3,2.4S61.5,67.6,62.9,67.4z"/>
				</defs>
				<clipPath id="SVGID_28_">
					<use xlink:href="#SVGID_27_"  style="overflow:visible;"/>
				</clipPath>
				<path class="st49" d="M61.7,60.7c0.9,0.6,1.8,3,1.8,3c0,0.1,0,0.3,0,0.4c0,1.2-1,2.1-2.3,2.1c-1.3,0-2.4-1.2-2.4-2.6
					C59,61.7,60.5,60.8,61.7,60.7z"/>
				<path class="st50" d="M61.7,64.6c-0.6,0-1.1-0.5-1.1-1.1c0-0.4,0.3-0.8,0.6-1c0.7,0.4,1.2,0.8,1.5,1.4
					C62.6,64.2,62.1,64.6,61.7,64.6z"/>
			</g>
			<path class="st32" d="M73,117.9h-2c-0.9,0-1.6-0.7-1.6-1.6v-4c0-0.9,0.7-1.6,1.6-1.6h2c0.9,0,1.6,0.7,1.6,1.6v4
				C74.6,117.1,73.9,117.9,73,117.9z"/>
			<path class="st33" d="M72,110.7h-1c-0.9,0-1.6,0.7-1.6,1.6v4c0,0.9,0.7,1.6,1.6,1.6h1V110.7z"/>
		</g>
		<g class="st51">
			<circle class="st6" cx="72" cy="72" r="69.7"/>
		</g>
		<g class="st1">
			<line class="st40" x1="72" y1="52.6" x2="72" y2="80.2"/>
			<line class="st40" x1="85.9" y1="66.4" x2="58.2" y2="66.4"/>
		</g>
	</g>
	<g class="st0">
		<line class="st52" x1="6.2" y1="136.7" x2="137.8" y2="7.3"/>
		<line class="st52" x1="137.8" y1="136.7" x2="6.2" y2="7.3"/>
	</g>
	<g class="st0">
		<path class="st45" d="M117.8,113.2H26.2c-10.2,0-18.4-8.2-18.4-18.4V36.9c0-10.2,8.2-18.4,18.4-18.4h91.5
			c10.2,0,18.4,8.2,18.4,18.4v57.9C136.2,104.9,127.9,113.2,117.8,113.2z"/>
		<line class="st45" x1="40.4" y1="125.5" x2="104.2" y2="125.5"/>
		<line class="st45" x1="67.7" y1="114" x2="67.7" y2="123.6"/>
		<line class="st45" x1="78.4" y1="114.1" x2="78.4" y2="123.7"/>
	</g>
	<g class="st0">
		<polyline class="st45" points="91.8,43.7 122.5,72.1 91.8,100.3 		"/>
		<g class="st1">
			<line class="st2" x1="119" y1="72" x2="54.1" y2="72"/>
		</g>
		<path class="st45" d="M81,5.1H26.5c-3.5,0-6.4,2.9-6.4,6.4v121.1c0,3.5,2.9,6.4,6.4,6.4H81"/>
	</g>
	<g class="st0">
		<polyline class="st45" points="97.7,40.5 125,65.7 97.7,90.7 		"/>
		<g class="st1">
			<line class="st2" x1="118.9" y1="65.6" x2="64.9" y2="65.6"/>
		</g>
		<path class="st45" d="M79.6,6.1H39.7c-3.1,0-5.7,2.5-5.7,5.7v107.6c0,3.1,2.5,5.7,5.7,5.7h39.9"/>
		<path class="st45" d="M32.4,19l-9-0.1c-3.1,0-5.7,2.5-5.7,5.7v107.6c0,3.1,2.5,5.7,5.7,5.7h23.5"/>
	</g>
	<g class="st0">
		<g class="st1">
			<line class="st41" x1="53.9" y1="42.7" x2="53.9" y2="115.4"/>
			<line class="st41" x1="90.1" y1="42.7" x2="90.1" y2="115.4"/>
		</g>
		<line class="st45" x1="14.6" y1="21" x2="129.4" y2="21"/>
		<path class="st45" d="M111.9,135.1H33.1c-6.4,0-11.6-5.2-11.6-11.6V21h101.9v102.5C123.4,130,118.3,135.1,111.9,135.1z"/>
		<path class="st45" d="M43.9,19.4v-3.2c0-3.1,3-5.5,6.7-5.5h41.9c3.7,0,6.7,2.5,6.7,5.5v3.2"/>
	</g>
	<g class="st0">
		<circle class="st53" cx="64.4" cy="61.8" r="54.9"/>
		<line class="st53" x1="102.7" y1="103.9" x2="134.5" y2="137.1"/>
	</g>
	<g class="st0">
		<path class="st45" d="M107.4,117h-82c-6,0-10.8-4.8-10.8-10.8v-82c0-6,4.8-10.8,10.8-10.8h82c6,0,10.8,4.8,10.8,10.8v82
			C118.2,112.1,113.4,117,107.4,117z"/>
		<path class="st45" d="M118.6,27c6,0,10.8,4.8,10.8,10.8v82c0,6-4.8,10.8-10.8,10.8h-82c-6,0-10.8-4.8-10.8-10.8"/>
		<g class="st1">
			<line class="st43" x1="38" y1="32.4" x2="38" y2="37.2"/>
			<line class="st43" x1="57.2" y1="32.4" x2="57.2" y2="37.1"/>
			<line class="st43" x1="76.8" y1="32.9" x2="76.8" y2="37.6"/>
			<line class="st43" x1="96.9" y1="32.8" x2="96.9" y2="37.6"/>
		</g>
		<path class="st54" d="M69.9,97.6H39.1c-1.4,0-2.5-1.1-2.5-2.5V69.5c0-1.4,1.1-2.5,2.5-2.5h30.9c1.4,0,2.5,1.1,2.5,2.5v25.6
			C72.4,96.5,71.3,97.6,69.9,97.6z"/>
		<path class="st54" d="M39,97.1c-0.8,0-1.3-0.9-0.8-1.6l7.9-8.2l8,6.4l8.3-11.2l8.4,12.1c0.6,1.2-0.3,2.6-1.6,2.6H39z"/>
		<circle class="st54" cx="53.5" cy="82.1" r="2.6"/>
		<path class="st54" d="M62.2,65.5V58c0-1.4,1.1-2.5,2.5-2.5h30.9c1.4,0,2.5,1.1,2.5,2.5v25.6c0,1.4-1.1,2.5-2.5,2.5H73.9"/>
		<path class="st54" d="M85,70.1l-7.4-4.3c-0.5-0.3-1.2,0.1-1.2,0.7V75c0,0.6,0.7,1,1.2,0.7l7.4-4.3C85.5,71.1,85.5,70.4,85,70.1z"
			/>
		<line class="st54" x1="62.6" y1="61.1" x2="97.4" y2="61.1"/>
		<line class="st54" x1="73.6" y1="79.1" x2="97.3" y2="79.1"/>
	</g>
	<g class="st0">
		<path class="st45" d="M130.8,40.6v78.8c0,6.8-5.5,12.3-12.3,12.3H25.5c-6.8,0-12.3-5.5-12.3-12.3V26.3c0-6.8,5.5-12.3,12.3-12.3
			h61.4"/>
		<polygon class="st45" points="50.3,101.4 51.8,83.9 110.3,13.4 125.5,25.9 67,96.4 		"/>
		<line class="st45" x1="99.6" y1="27.8" x2="114.2" y2="39.1"/>
	</g>
	<g class="st0">
		<g class="st1">
			<circle class="st7" cx="72" cy="72" r="69.6"/>
		</g>
		<g class="st1">
			<line class="st44" x1="71.6" y1="41.9" x2="71.6" y2="103.5"/>
			<line class="st44" x1="102.5" y1="72.7" x2="40.8" y2="72.7"/>
		</g>
	</g>
	<g class="st0">
		<line class="st45" x1="42.3" y1="12.5" x2="102.7" y2="12.5"/>
		<line class="st45" x1="41.3" y1="70.8" x2="101.7" y2="70.8"/>
		<line class="st45" x1="42" y1="131.5" x2="102.4" y2="131.5"/>
	</g>
	<g class="st0">
		<g class="st1">
			<path class="st5" d="M109.5,116.8H92.6c-1.6,0-2.9-1.3-2.9-2.9V51.3c0-1.6,1.3-2.9,2.9-2.9h16.9c1.6,0,2.9,1.3,2.9,2.9v62.6
				C112.4,115.5,111.1,116.8,109.5,116.8z"/>
			<path class="st5" d="M78.1,116.8H61.2c-1.6,0-2.9-1.3-2.9-2.9V67c0-1.6,1.3-2.9,2.9-2.9h16.9c1.6,0,2.9,1.3,2.9,2.9v46.9
				C81,115.5,79.7,116.8,78.1,116.8z"/>
			<path class="st5" d="M49.1,116.8H32.2c-1.6,0-2.9-1.3-2.9-2.9V84.2c0-1.6,1.3-2.9,2.9-2.9h16.9c1.6,0,2.9,1.3,2.9,2.9v29.6
				C52,115.5,50.7,116.8,49.1,116.8z"/>
		</g>
		<path class="st45" d="M70,133.6H23.2c-7.1,0-12.9-5.8-12.9-12.9V23.2c0-7.1,5.8-12.9,12.9-12.9h97.5c7.1,0,12.9,5.8,12.9,12.9
			v97.5c0,7.1-5.8,12.9-12.9,12.9H94.5H70z"/>
	</g>
	<g>
		<path class="st2" d="M123.2,136.8H20.8c-7.5,0-13.5-6.1-13.5-13.5V20.8c0-7.5,6.1-13.5,13.5-13.5h102.5c7.5,0,13.5,6.1,13.5,13.5
			V33v36.4v53.8C136.8,130.7,130.7,136.8,123.2,136.8z"/>
		<g>
			<g>
				<g>
					<path class="st6" d="M73.3,64.2c8.1,0,14.6,6.6,14.6,14.6c0,8.1-6.6,14.6-14.6,14.6c-8.1,0-14.6-6.6-14.6-14.6
						C58.7,70.7,65.2,64.2,73.3,64.2 M73.3,61.2L73.3,61.2c-9.7,0-17.6,7.9-17.6,17.6c0,9.7,7.9,17.6,17.6,17.6h0
						c9.7,0,17.6-7.9,17.6-17.6C90.9,69.1,83,61.2,73.3,61.2L73.3,61.2z"/>
				</g>
			</g>
			<g>
				<g>
					<path class="st6" d="M42,70.4c3.7,0,6.7,3,6.7,6.7s-3,6.7-6.7,6.7s-6.7-3-6.7-6.7S38.3,70.4,42,70.4 M42,67.4L42,67.4
						c-5.4,0-9.7,4.3-9.7,9.7s4.3,9.7,9.7,9.7h0c5.4,0,9.7-4.3,9.7-9.7S47.3,67.4,42,67.4L42,67.4z"/>
				</g>
			</g>
			<g id="XMLID_14_">
				<path class="st5" d="M85.6,97.1c2.3,0.1,4.5,0.5,6.6,1.1c8.8,2.3,14.9,10.4,14.9,19.5"/>
			</g>
			<g id="XMLID_13_">
				<path class="st5" d="M60.9,97.2c0.3,0.5,0.7,0.9,1.1,1.3c2.6,2.8,6.3,4.7,10.5,4.9l1.6-0.1c4.2-0.2,7.8-2,10.5-4.9
					c0.4-0.4,0.8-0.9,1.1-1.3"/>
				<path class="st5" d="M60.9,97.2c-2.3,0.1-4.5,0.5-6.6,1.1c-8.8,2.3-14.9,10.4-14.9,19.5"/>
			</g>
			<g id="XMLID_12_">
				<path class="st5" d="M34.5,89.1c0.2,0.3,0.4,0.5,0.6,0.8c1.6,1.7,3.7,2.7,6.2,2.9l0.9,0c2.4-0.1,4.6-1.2,6.2-2.9
					c0.2-0.2,0.4-0.5,0.6-0.8"/>
				<path class="st5" d="M34.5,89.1c-1.3,0.1-2.6,0.3-3.9,0.6c-5.2,1.3-8.7,6.1-8.7,11.4"/>
			</g>
			<g>
				<g>
					<path class="st6" d="M103.3,70c3.7,0,6.7,3,6.7,6.7s-3,6.7-6.7,6.7c-3.7,0-6.7-3-6.7-6.7S99.6,70,103.3,70 M103.3,67L103.3,67
						c-5.4,0-9.7,4.3-9.7,9.7v0c0,5.4,4.3,9.7,9.7,9.7h0c5.4,0,9.7-4.3,9.7-9.7v0C113,71.3,108.6,67,103.3,67L103.3,67z"/>
				</g>
			</g>
			<g id="XMLID_11_">
				<path class="st5" d="M110.7,88.7c-0.2,0.3-0.4,0.5-0.6,0.8c-1.6,1.7-3.7,2.7-6.2,2.9l-0.9,0c-2.4-0.1-4.6-1.2-6.2-2.9
					c-0.2-0.2-0.4-0.5-0.6-0.8"/>
				<path class="st5" d="M110.7,88.7c1.3,0.1,2.6,0.3,3.9,0.6c5.2,1.3,8.7,6.1,8.7,11.4"/>
			</g>
		</g>
	</g>
</g>
</svg>
