<svg width="48" height="48" viewBox="0 0 48 48" fill="none" xmlns="http://www.w3.org/2000/svg">
<path d="M0 24C0 10.7452 10.7452 0 24 0C37.2548 0 48 10.7452 48 24C48 37.2548 37.2548 48 24 48C10.7452 48 0 37.2548 0 24Z" fill="#69DEA9"/>
<path d="M32.2969 23.2969H24.7031V15.7031C24.7031 15.3148 24.3883 15 24 15C23.6117 15 23.2969 15.3148 23.2969 15.7031V23.2969H15.7031C15.3148 23.2969 15 23.6117 15 24C15 24.3883 15.3148 24.7031 15.7031 24.7031H23.2969V32.2969C23.2969 32.6852 23.6117 33 24 33C24.3883 33 24.7031 32.6852 24.7031 32.2969V24.7031H32.2969C32.6852 24.7031 33 24.3883 33 24C33 23.6117 32.6852 23.2969 32.2969 23.2969Z" fill="white"/>
</svg>
