<svg width="16" height="16" viewBox="0 0 16 16" fill="none" xmlns="http://www.w3.org/2000/svg">
<path fill-rule="evenodd" clip-rule="evenodd" d="M16 7.99999L15.9998 8.79999L15.9992 9.13133L15.9982 9.38553L15.9968 9.59978L15.995 9.78848L15.9928 9.959L15.9902 10.1157L15.9872 10.2615L15.9838 10.3984L15.98 10.5277L15.9758 10.6506L15.9712 10.768L15.9662 10.8804L15.9608 10.9884L15.955 11.0926L15.9487 11.1932L15.9421 11.2905L15.9351 11.3849L15.9277 11.4766L15.9199 11.5658L15.9116 11.6526L15.903 11.7372L15.894 11.8198L15.8845 11.9004L15.8747 11.9792L15.8644 12.0562L15.8537 12.1317L15.8427 12.2056L15.8312 12.278L15.8193 12.3489L15.807 12.4186L15.7943 12.4869L15.7812 12.554L15.7676 12.6199L15.7537 12.6846L15.7393 12.7482L15.7246 12.8108L15.7094 12.8723L15.6938 12.9328L15.6778 12.9923L15.6613 13.0508L15.6445 13.1085L15.6272 13.1652L15.6095 13.2211L15.5914 13.2762L15.5728 13.3304L15.5538 13.3837L15.5344 13.4363L15.5146 13.4882L15.4943 13.5392L15.4737 13.5896L15.4525 13.6392L15.431 13.6881L15.409 13.7363L15.3866 13.7838L15.3637 13.8306L15.3404 13.8768L15.3167 13.9223L15.2925 13.9672L15.2678 14.0114L15.2428 14.055L15.2172 14.0981L15.1912 14.1405L15.1648 14.1823L15.1379 14.2235L15.1105 14.2641L15.0827 14.3042L15.0544 14.3437L15.0257 14.3827L14.9964 14.4211L14.9667 14.4589L14.9365 14.4962L14.9059 14.533L14.8747 14.5692L14.8431 14.6049L14.811 14.6401L14.7784 14.6748L14.7453 14.7089L14.7116 14.7426L14.6775 14.7757L14.6429 14.8084L14.6077 14.8406L14.5721 14.8722L14.5359 14.9034L14.4991 14.9341L14.4619 14.9643L14.4241 14.9941L14.3857 15.0233L14.3468 15.0521L14.3074 15.0805L14.2674 15.1083L14.2268 15.1357L14.1856 15.1627L14.1438 15.1891L14.1015 15.2152L14.0585 15.2407L14.0149 15.2659L13.9707 15.2905L13.9259 15.3148L13.8804 15.3385L13.8343 15.3619L13.7875 15.3848L13.7401 15.4072L13.6919 15.4293L13.6431 15.4508L13.5936 15.472L13.5433 15.4927L13.4923 15.513L13.4405 15.5329L13.388 15.5523L13.3346 15.5713L13.2805 15.5899L13.2255 15.608L13.1697 15.6258L13.113 15.6431L13.0555 15.66L12.997 15.6765L12.9375 15.6925L12.8771 15.7082L12.8157 15.7234L12.7532 15.7382L12.6897 15.7526L12.6251 15.7665L12.5593 15.7801L12.4923 15.7933L12.4241 15.806L12.3545 15.8183L12.2837 15.8303L12.2114 15.8418L12.1376 15.8529L12.0623 15.8636L11.9854 15.8739L11.9067 15.8837L11.8262 15.8932L11.7439 15.9023L11.6594 15.911L11.5728 15.9192L11.4838 15.9271L11.3923 15.9345L11.2982 15.9416L11.201 15.9482L11.1007 15.9545L10.9969 15.9603L10.8891 15.9658L10.7771 15.9708L10.6602 15.9754L10.5377 15.9797L10.4089 15.9835L10.2727 15.9869L10.1277 15.99L9.97194 15.9926L9.80265 15.9948L9.61562 15.9967L9.4038 15.9981L9.15363 15.9991L8.83123 15.9998L8.22575 16L7.23252 15.9998L6.89141 15.9993L6.63297 15.9983L6.41621 15.9969L6.2258 15.9952L6.05402 15.993L5.89631 15.9904L5.74972 15.9875L5.61222 15.9841L5.48233 15.9803L5.35895 15.9761L5.2412 15.9716L5.1284 15.9666L5.02002 15.9612L4.91558 15.9554L4.81471 15.9493L4.7171 15.9427L4.62246 15.9357L4.53057 15.9283L4.44122 15.9205L4.35423 15.9123L4.26945 15.9037L4.18674 15.8947L4.10597 15.8853L4.02703 15.8755L3.94982 15.8652L3.87426 15.8546L3.80026 15.8436L3.72775 15.8321L3.65666 15.8203L3.58692 15.808L3.51849 15.7953L3.45131 15.7822L3.38533 15.7687L3.32051 15.7548L3.25681 15.7405L3.19418 15.7258L3.1326 15.7106L3.07202 15.695L3.01243 15.679L2.95378 15.6626L2.89606 15.6458L2.83924 15.6286L2.78329 15.6109L2.72819 15.5928L2.67393 15.5743L2.62047 15.5554L2.56781 15.536L2.51592 15.5162L2.46479 15.496L2.4144 15.4753L2.36474 15.4542L2.31579 15.4327L2.26755 15.4108L2.21999 15.3884L2.1731 15.3656L2.12688 15.3423L2.08131 15.3186L2.03638 15.2944L1.99208 15.2698L1.94841 15.2448L1.90535 15.2193L1.86289 15.1933L1.82103 15.1669L1.77976 15.14L1.73907 15.1127L1.69895 15.0849L1.6594 15.0567L1.62041 15.028L1.58198 14.9988L1.54409 14.9691L1.50675 14.939L1.46994 14.9083L1.43366 14.8772L1.39791 14.8456L1.36268 14.8136L1.32796 14.781L1.29376 14.7479L1.26006 14.7143L1.22687 14.6803L1.19417 14.6457L1.16197 14.6106L1.13026 14.5749L1.09904 14.5388L1.06831 14.5021L1.03805 14.4649L1.00827 14.4271L0.97897 14.3888L0.950137 14.35L0.921773 14.3105L0.893875 14.2706L0.86644 14.23L0.839465 14.1889L0.812948 14.1472L0.786887 14.1048L0.761279 14.0619L0.736122 14.0184L0.711413 13.9743L0.687152 13.9295L0.663334 13.8841L0.63996 13.838L0.617027 13.7913L0.594532 13.7439L0.572475 13.6958L0.550854 13.647L0.529666 13.5975L0.508911 13.5473L0.488586 13.4964L0.468691 13.4447L0.449225 13.3922L0.430184 13.3389L0.411569 13.2848L0.393378 13.2299L0.37561 13.1742L0.358264 13.1176L0.341338 13.0601L0.324832 13.0017L0.308743 12.9423L0.293073 12.882L0.277818 12.8206L0.262979 12.7582L0.248555 12.6948L0.234544 12.6303L0.220946 12.5646L0.20776 12.4977L0.194985 12.4295L0.182621 12.3601L0.170667 12.2894L0.159121 12.2172L0.147984 12.1435L0.137255 12.0684L0.126933 11.9916L0.117018 11.913L0.107509 11.8327L0.0984057 11.7505L0.0897073 11.6662L0.0814136 11.5798L0.0735241 11.491L0.0660383 11.3997L0.0589559 11.3058L0.0522766 11.2089L0.0459999 11.1088L0.0401256 11.0053L0.0346533 10.8979L0.0295828 10.7862L0.0249138 10.6697L0.020646 10.5477L0.0167792 10.4194L0.0133134 10.2839L0.0102481 10.1396L0.00758344 9.9848L0.00531912 9.81671L0.00345508 9.6313L0.0019912 9.42182L0.000927431 9.1755L0.000263708 8.86134L0 8.31926L0.000136294 7.26647L0.000672597 6.91464L0.00160894 6.65173L0.00294536 6.43236L0.00468193 6.2402L0.00681874 6.06713L0.00935589 5.90842L0.0122935 5.76104L0.0156318 5.62287L0.0193708 5.49242L0.0235108 5.36855L0.028052 5.25038L0.0329946 5.13721L0.0383389 5.02849L0.0440851 4.92375L0.0502336 4.82262L0.0567846 4.72475L0.0637386 4.62989L0.0710958 4.53779L0.0788567 4.44824L0.0870216 4.36107L0.095591 4.27612L0.104565 4.19325L0.113945 4.11233L0.123731 4.03325L0.133923 3.95591L0.144523 3.88022L0.155529 3.80609L0.166945 3.73347L0.178769 3.66226L0.191002 3.59242L0.203646 3.52389L0.216701 3.45661L0.230168 3.39054L0.244047 3.32563L0.25834 3.26183L0.273046 3.19912L0.288168 3.13746L0.303706 3.07681L0.319662 3.01713L0.336035 2.95842L0.352827 2.90062L0.370039 2.84373L0.387673 2.78771L0.405729 2.73255L0.424209 2.67821L0.443113 2.62469L0.462444 2.57197L0.482203 2.52002L0.50239 2.46883L0.523008 2.41838L0.544058 2.36866L0.565541 2.31966L0.587459 2.27136L0.609814 2.22374L0.632607 2.1768L0.655841 2.13053L0.679517 2.08491L0.703637 2.03993L0.728203 1.99558L0.753217 1.95186L0.778681 1.90875L0.804598 1.86624L0.830969 1.82434L0.857798 1.78302L0.885086 1.74228L0.912836 1.70212L0.941052 1.66253L0.969735 1.62349L0.998888 1.58501L1.02851 1.54708L1.05862 1.50969L1.0892 1.47284L1.12027 1.43652L1.15182 1.40073L1.18386 1.36546L1.2164 1.3307L1.24943 1.29646L1.28297 1.26272L1.31701 1.22949L1.35156 1.19675L1.38663 1.16451L1.42221 1.13277L1.45832 1.10151L1.49496 1.07073L1.53214 1.04044L1.56985 1.01062L1.60811 0.98128L1.64692 0.95241L1.68629 0.924009L1.72623 0.896074L1.76674 0.868602L1.80782 0.84159L1.84949 0.815037L1.89176 0.78894L1.93462 0.763295L1.9781 0.738102L2.0222 0.713358L2.06693 0.689061L2.11229 0.665209L2.1583 0.641799L2.20498 0.618831L2.25232 0.596301L2.30035 0.574209L2.34907 0.552553L2.39851 0.531331L2.44866 0.510542L2.49955 0.490183L2.5512 0.470254L2.60361 0.450753L2.65681 0.431679L2.71082 0.41303L2.76565 0.394805L2.82133 0.377004L2.87787 0.359624L2.9353 0.342664L2.99365 0.326124L3.05294 0.310003L3.11319 0.294299L3.17445 0.279011L3.23674 0.264139L3.3001 0.249682L3.36456 0.235638L3.43017 0.222007L3.49696 0.208789L3.56499 0.195981L3.6343 0.183584L3.70495 0.171597L3.77701 0.160019L3.85052 0.14885L3.92558 0.138088L4.00225 0.127734L4.08063 0.117787L4.16081 0.108245L4.24289 0.0991094L4.327 0.0903788L4.41326 0.0820529L4.50184 0.0741312L4.5929 0.0666133L4.68664 0.0594988L4.78328 0.0527874L4.88308 0.0464787L4.98634 0.0405723L5.09342 0.035068L5.20476 0.0299655L5.32086 0.0252645L5.44237 0.0209648L5.57008 0.0170661L5.70502 0.0135683L5.84852 0.0104712L6.00242 0.00777462L6.16932 0.00547843L6.35316 0.00358251L6.56037 0.00208677L6.80301 0.00099114L7.10956 0.000295561L7.60898 0L8.69792 0.000104441L9.06162 0.00060889L9.32924 0.00151337L9.5513 0.00281793L9.74527 0.00452264L9.91965 0.00662757L10.0794 0.00913284L10.2276 0.0120386L10.3664 0.0153449L10.4974 0.019052L10.6218 0.0231601L10.7404 0.0276693L10.8539 0.03258L10.963 0.0378923L11.068 0.0436065L11.1694 0.0497229L11.2676 0.0562419L11.3627 0.0631637L11.455 0.0704888L11.5447 0.0782175L11.6321 0.0863503L11.7172 0.0948875L11.8002 0.10383L11.8813 0.113177L11.9605 0.122931L12.038 0.13309L12.1138 0.143657L12.1881 0.154632L12.2608 0.166014L12.3321 0.177806L12.4021 0.190007L12.4707 0.202618L12.5381 0.21564L12.6042 0.229074L12.6692 0.24292L12.7331 0.25718L12.7959 0.271854L12.8577 0.286943L12.9184 0.302448L12.9781 0.31837L13.0369 0.334709L13.0948 0.351468L13.1518 0.368647L13.2079 0.386247L13.2631 0.404269L13.3175 0.422715L13.3711 0.441586L13.4239 0.460883L13.4759 0.480607L13.5271 0.500761L13.5776 0.521344L13.6274 0.542359L13.6765 0.563808L13.7248 0.585692L13.7725 0.608012L13.8195 0.63077L13.8658 0.653969L13.9115 0.677609L13.9565 0.701694L14.0009 0.726224L14.0447 0.751202L14.0878 0.776631L14.1304 0.802511L14.1723 0.828846L14.2137 0.855638L14.2545 0.88289L14.2947 0.910604L14.3343 0.938782L14.3734 0.967427L14.4119 0.996543L14.4499 1.02613L14.4873 1.0562L14.5242 1.08674L14.5606 1.11777L14.5964 1.14928L14.6317 1.18129L14.6665 1.21378L14.7008 1.24678L14.7346 1.28027L14.7679 1.31427L14.8006 1.34879L14.8329 1.38381L14.8647 1.41936L14.896 1.45542L14.9268 1.49202L14.9572 1.52915L14.987 1.56682L15.0164 1.60504L15.0453 1.64381L15.0737 1.68313L15.1017 1.72302L15.1292 1.76348L15.1563 1.80452L15.1829 1.84615L15.209 1.88836L15.2347 1.93118L15.2599 1.97461L15.2847 2.01866L15.309 2.06333L15.3329 2.10865L15.3563 2.15461L15.3793 2.20123L15.4019 2.24852L15.424 2.29649L15.4457 2.34516L15.467 2.39454L15.4878 2.44463L15.5082 2.49547L15.5282 2.54705L15.5477 2.5994L15.5668 2.65254L15.5855 2.70648L15.6037 2.76125L15.6216 2.81685L15.639 2.87333L15.656 2.93069L15.6726 2.98896L15.6887 3.04817L15.7045 3.10835L15.7198 3.16953L15.7347 3.23174L15.7492 3.29501L15.7632 3.35938L15.7769 3.42489L15.7902 3.49159L15.803 3.55952L15.8154 3.62873L15.8275 3.69927L15.8391 3.77121L15.8503 3.84461L15.8611 3.91954L15.8714 3.99608L15.8814 4.07432L15.891 4.15435L15.9002 4.23627L15.9089 4.32022L15.9173 4.40631L15.9252 4.4947L15.9328 4.58555L15.9399 4.67907L15.9467 4.77547L15.953 4.875L15.959 4.97798L15.9645 5.08474L15.9696 5.19572L15.9744 5.31142L15.9787 5.43247L15.9826 5.55966L15.9862 5.69397L15.9893 5.83674L15.992 5.98973L15.9943 6.15547L15.9963 6.33777L15.9978 6.54278L15.9989 6.78191L15.9997 7.08139L16 7.54849L16 7.99999Z" fill="white"/>
</svg>
