<svg width="16" height="16" viewBox="0 0 16 16" fill="none" xmlns="http://www.w3.org/2000/svg">
<path fill-rule="evenodd" clip-rule="evenodd" d="M16 7.99997L15.9988 7.99998L15.9952 8.00003L15.9892 8.00019L15.9808 8.00048L15.97 8.00097L15.9569 8.00169L15.9414 8.00271L15.9235 8.00405L15.9033 8.00578L15.8807 8.00793L15.8558 8.01055L15.8286 8.01369L15.7992 8.0174L15.7675 8.02171L15.7335 8.02667L15.6974 8.03232L15.659 8.03871L15.6185 8.04587L15.5758 8.05386L15.5311 8.0627L15.4842 8.07244L15.4354 8.08311L15.3845 8.09476L15.3316 8.10742L15.2769 8.12112L15.2202 8.13589L15.1616 8.15178L15.1013 8.16882L15.0391 8.18703L14.9752 8.20644L14.9097 8.22708L14.8425 8.24899L14.7736 8.27218L14.7033 8.29668L14.6314 8.32251L14.558 8.3497L14.4833 8.37827L14.4072 8.40823L14.3298 8.4396L14.2511 8.4724L14.1712 8.50665L14.0902 8.54235L14.008 8.57953L13.9249 8.61818L13.8407 8.65832L13.7556 8.69995L13.6696 8.74309L13.5828 8.78773L13.4952 8.83388L13.407 8.88154L13.318 8.9307L13.2285 8.98137L13.1384 9.03354L13.0479 9.08721L12.9569 9.14237L12.8656 9.19901L12.7739 9.25711L12.682 9.31668L12.5899 9.37769L12.4976 9.44014L12.4053 9.50399L12.3129 9.56925L12.2205 9.63587L12.1283 9.70386L12.0361 9.77318L11.9442 9.8438L11.8525 9.91571L11.7611 9.98888L11.67 10.0633L11.5794 10.1389L11.4891 10.2156L11.3994 10.2935L11.3103 10.3725L11.2217 10.4526L11.1338 10.5337L11.0465 10.6157L10.9601 10.6988L10.8743 10.7827L10.7895 10.8675L10.7054 10.9532L10.6223 11.0396L10.5402 11.1268L10.459 11.2147L10.3789 11.3032L10.2998 11.3923L10.2218 11.482L10.1449 11.5721L10.0693 11.6628L9.99477 11.7538L9.9215 11.8452L9.84949 11.9369L9.77876 12.0288L9.70934 12.1209L9.64125 12.2132L9.57451 12.3055L9.50915 12.3979L9.44518 12.4902L9.38262 12.5825L9.3215 12.6746L9.26182 12.7666L9.20359 12.8583L9.14684 12.9496L9.09156 13.0406L9.03778 13.1312L8.98548 13.2213L8.93469 13.3109L8.88541 13.3999L8.83763 13.4882L8.79136 13.5759L8.7466 13.6627L8.70335 13.7488L8.66159 13.834L8.62133 13.9182L8.58256 14.0014L8.54527 14.0837L8.50945 14.1648L8.47509 14.2448L8.44217 14.3235L8.41069 14.4011L8.38062 14.4773L8.35194 14.5521L8.32464 14.6256L8.2987 14.6976L8.27409 14.7681L8.2508 14.837L8.2288 14.9044L8.20805 14.9701L8.18854 15.0341L8.17024 15.0964L8.15311 15.1569L8.13713 15.2156L8.12227 15.2724L8.10848 15.3274L8.09575 15.3804L8.08402 15.4314L8.07327 15.4804L8.06346 15.5274L8.05455 15.5723L8.0465 15.6152L8.03927 15.6559L8.03282 15.6944L8.02711 15.7307L8.02209 15.7649L8.01773 15.7968L8.01398 15.8264L8.0108 15.8537L8.00814 15.8788L8.00595 15.9016L8.00419 15.922L8.00282 15.94L8.00178 15.9557L8.00103 15.9691L8.00053 15.9801L8.00022 15.9886L8.00006 15.9948L8 15.9986L7.99998 16L7.99998 15.999L7.99993 15.9956L7.99979 15.9898L7.9995 15.9816L7.99903 15.971L7.99833 15.958L7.99734 15.9427L7.99602 15.925L7.99433 15.905L7.99221 15.8826L7.98963 15.8579L7.98653 15.8309L7.98287 15.8016L7.97861 15.7701L7.97371 15.7363L7.96811 15.7003L7.96178 15.6621L7.95468 15.6218L7.94676 15.5793L7.93799 15.5347L7.92832 15.488L7.91773 15.4393L7.90616 15.3886L7.89358 15.3359L7.87997 15.2813L7.86528 15.2248L7.84948 15.1664L7.83254 15.1061L7.81442 15.0441L7.79511 14.9804L7.77456 14.915L7.75276 14.8479L7.72967 14.7792L7.70528 14.7089L7.67955 14.6372L7.65247 14.5639L7.62401 14.4893L7.59417 14.4133L7.56291 14.336L7.53022 14.2574L7.49609 14.1776L7.4605 14.0967L7.42344 14.0146L7.38491 13.9315L7.34489 13.8474L7.30337 13.7624L7.26036 13.6765L7.21584 13.5898L7.16981 13.5022L7.12227 13.414L7.07323 13.3251L7.02268 13.2357L6.97062 13.1456L6.91708 13.0551L6.86204 12.9642L6.80552 12.8728L6.74752 12.7812L6.68807 12.6893L6.62718 12.5972L6.56485 12.505L6.5011 12.4126L6.43596 12.3202L6.36944 12.2279L6.30156 12.1356L6.23235 12.0435L6.16183 11.9515L6.09002 11.8598L6.01695 11.7683L5.94265 11.6772L5.86716 11.5866L5.79049 11.4963L5.71268 11.4065L5.63377 11.3173L5.5538 11.2287L5.47279 11.1407L5.39078 11.0535L5.30783 10.9669L5.22395 10.8811L5.1392 10.7962L5.05362 10.7121L4.96725 10.6289L4.88013 10.5467L4.79232 10.4654L4.70385 10.3852L4.61478 10.306L4.52515 10.228L4.43502 10.151L4.34442 10.0752L4.25342 10.0006L4.16206 9.92728L4.0704 9.85517L3.97849 9.78434L3.88639 9.71481L3.79413 9.64661L3.7018 9.57977L3.60942 9.51429L3.51707 9.45021L3.4248 9.38754L3.33265 9.3263L3.2407 9.2665L3.149 9.20816L3.0576 9.15129L2.96655 9.0959L2.87593 9.04199L2.78578 8.98958L2.69616 8.93867L2.60713 8.88927L2.51874 8.84137L2.43105 8.79498L2.34413 8.7501L2.25801 8.70672L2.17277 8.66485L2.08845 8.62447L2.00512 8.58558L1.92281 8.54818L1.8416 8.51224L1.76153 8.47776L1.68266 8.44473L1.60504 8.41313L1.52872 8.38294L1.45375 8.35416L1.38018 8.32675L1.30806 8.3007L1.23744 8.27599L1.16837 8.25259L1.1009 8.23049L1.03506 8.20964L0.970914 8.19004L0.908492 8.17164L0.847842 8.15442L0.789005 8.13835L0.732021 8.1234L0.676929 8.10953L0.623767 8.09671L0.572571 8.0849L0.523378 8.07408L0.47622 8.06419L0.431131 8.05521L0.388142 8.04709L0.347282 8.0398L0.30858 8.03329L0.272062 8.02752L0.237755 8.02245L0.205681 8.01804L0.175864 8.01425L0.148323 8.01102L0.123079 8.00832L0.100149 8.00609L0.0795484 8.0043L0.0612922 8.0029L0.0453929 8.00183L0.0318617 8.00107L0.020708 8.00054L0.0119398 8.00022L0.00556296 8.00005L0.00158211 7.99998L0 7.99997L0.00081773 7.99996L0.00403473 7.99992L0.00964875 7.99979L0.0176559 7.99952L0.0280505 7.99906L0.0408253 7.99838L0.0559714 7.99741L0.0734782 7.99612L0.0933334 7.99446L0.115523 7.99238L0.140032 7.98984L0.166843 7.98678L0.195937 7.98317L0.227295 7.97896L0.260893 7.97411L0.296709 7.96857L0.334718 7.9623L0.374894 7.95526L0.417208 7.94741L0.461632 7.9387L0.508134 7.92911L0.556683 7.91859L0.607244 7.9071L0.659784 7.89461L0.714265 7.88108L0.770651 7.86647L0.828902 7.85076L0.888979 7.83391L0.950841 7.81589L1.01444 7.79667L1.07975 7.77623L1.14671 7.75453L1.21527 7.73154L1.2854 7.70725L1.35705 7.68163L1.43016 7.65466L1.50469 7.62631L1.58059 7.59658L1.6578 7.56543L1.73628 7.53286L1.81597 7.49884L1.89683 7.46337L1.97879 7.42643L2.0618 7.38802L2.14581 7.34811L2.23076 7.30672L2.31661 7.26382L2.40328 7.21942L2.49073 7.17351L2.5789 7.12609L2.66773 7.07717L2.75717 7.02674L2.84716 6.97481L2.93764 6.92137L3.02855 6.86645L3.11985 6.81005L3.21146 6.75218L3.30334 6.69284L3.39543 6.63206L3.48767 6.56984L3.58 6.50621L3.67237 6.44118L3.76473 6.37477L3.85701 6.307L3.94917 6.23789L4.04115 6.16747L4.1329 6.09576L4.22436 6.0228L4.31548 5.94859L4.40621 5.87319L4.49649 5.79661L4.58629 5.7189L4.67554 5.64008L4.76421 5.56018L4.85224 5.47925L4.93958 5.39733L5.02619 5.31444L5.11203 5.23064L5.19705 5.14596L5.28121 5.06044L5.36446 4.97413L5.44677 4.88707L5.5281 4.79931L5.60841 4.7109L5.68767 4.62187L5.76583 4.53228L5.84286 4.44219L5.91874 4.35163L5.99342 4.26066L6.06688 4.16933L6.13909 4.07769L6.21003 3.98579L6.27966 3.8937L6.34797 3.80146L6.41492 3.70912L6.4805 3.61675L6.5447 3.52439L6.60748 3.43211L6.66883 3.33996L6.72875 3.24799L6.7872 3.15626L6.84419 3.06483L6.8997 2.97376L6.95373 2.8831L7.00626 2.79291L7.05729 2.70324L7.10681 2.61416L7.15483 2.52572L7.20134 2.43798L7.24634 2.35099L7.28983 2.26481L7.33183 2.17949L7.37232 2.0951L7.41133 2.01168L7.44886 1.9293L7.48491 1.848L7.5195 1.76783L7.55265 1.68887L7.58436 1.61114L7.61466 1.53471L7.64356 1.45963L7.67107 1.38595L7.69723 1.31371L7.72204 1.24298L7.74555 1.17378L7.76776 1.10618L7.7887 1.04021L7.8084 0.975924L7.8269 0.913363L7.84421 0.85257L7.86037 0.793587L7.87541 0.736454L7.88936 0.681209L7.90226 0.627892L7.91415 0.576539L7.92505 0.527184L7.93501 0.479863L7.94406 0.434608L7.95225 0.39145L7.95961 0.35042L7.96618 0.311545L7.972 0.274852L7.97712 0.240368L7.98158 0.208115L7.98543 0.178117L7.9887 0.150395L7.99144 0.124967L7.9937 0.101852L7.99553 0.0810653L7.99696 0.0626219L7.99805 0.0465344L7.99884 0.0328142L7.99938 0.0214709L7.99971 0.0125124L7.9999 0.00594498L7.99997 0.0017732L7.99998 0L7.99999 0.000626624L8.00003 0.00365263L8.00015 0.00907591L8.00041 0.0168927L8.00085 0.0270974L8.00151 0.039683L8.00245 0.0546407L8.00371 0.07196L8.00534 0.0916287L8.00739 0.113633L8.0099 0.137958L8.01291 0.164587L8.01647 0.1935L8.02064 0.224678L8.02544 0.258099L8.03092 0.293739L8.03713 0.331575L8.04411 0.371579L8.05189 0.413724L8.06052 0.457981L8.07004 0.504319L8.08049 0.552706L8.0919 0.603108L8.10431 0.655492L8.11776 0.70982L8.13228 0.766056L8.1479 0.82416L8.16466 0.884093L8.18258 0.945815L8.2017 1.00928L8.22205 1.07445L8.24365 1.14128L8.26653 1.20972L8.29072 1.27973L8.31623 1.35125L8.3431 1.42425L8.37133 1.49867L8.40096 1.57446L8.43199 1.65157L8.46445 1.72995L8.49835 1.80955L8.53371 1.89031L8.57053 1.97219L8.60882 2.05512L8.64861 2.13905L8.68989 2.22393L8.73266 2.30971L8.77694 2.39632L8.82273 2.48371L8.87003 2.57182L8.91883 2.6606L8.96914 2.75L9.02096 2.83994L9.07427 2.93039L9.12907 3.02127L9.18535 3.11254L9.24311 3.20413L9.30233 3.29599L9.363 3.38806L9.4251 3.48029L9.48862 3.57262L9.55354 3.66499L9.61984 3.75735L9.68751 3.84964L9.75651 3.94181L9.82682 4.03381L9.89843 4.12558L9.9713 4.21706L10.0454 4.30821L10.1207 4.39897L10.1972 4.4893L10.2748 4.57913L10.3536 4.66843L10.4334 4.75715L10.5142 4.84523L10.5961 4.93262L10.6789 5.0193L10.7626 5.1052L10.8472 5.19028L10.9327 5.27451L11.0189 5.35784L11.1059 5.44023L11.1936 5.52164L11.282 5.60203L11.371 5.68137L11.4605 5.75962L11.5506 5.83675L11.6411 5.91271L11.732 5.98749L11.8233 6.06105L11.9149 6.13337L12.0068 6.20441L12.0989 6.27414L12.1911 6.34256L12.2835 6.40962L12.3758 6.47531L12.4682 6.53962L12.5605 6.60251L12.6527 6.66398L12.7446 6.72401L12.8364 6.78258L12.9278 6.83969L13.0189 6.89532L13.1096 6.94946L13.1999 7.00211L13.2896 7.05326L13.3787 7.10291L13.4672 7.15104L13.555 7.19767L13.6421 7.24279L13.7283 7.28641L13.8137 7.32852L13.8982 7.36914L13.9816 7.40826L14.0641 7.4459L14.1455 7.48207L14.2258 7.51678L14.3048 7.55005L14.3827 7.58187L14.4592 7.61228L14.5344 7.64129L14.6082 7.66892L14.6805 7.69518L14.7514 7.7201L14.8207 7.74371L14.8884 7.76602L14.9545 7.78706L15.019 7.80686L15.0817 7.82545L15.1426 7.84285L15.2017 7.85911L15.259 7.87423L15.3144 7.88827L15.3679 7.90126L15.4194 7.91322L15.4689 7.9242L15.5164 7.93424L15.5618 7.94336L15.6051 7.95161L15.6463 7.95903L15.6854 7.96566L15.7222 7.97155L15.7569 7.97672L15.7893 7.98124L15.8195 7.98513L15.8474 7.98844L15.873 7.99123L15.8963 7.99352L15.9173 7.99538L15.9359 7.99684L15.9522 7.99796L15.9661 7.99877L15.9776 7.99933L15.9868 7.99968L15.9936 7.99987L15.9979 7.99995L15.9999 7.99997L16 7.99997Z" fill="white"/>
</svg>
