<svg width="15" height="15" viewBox="0 0 15 15" fill="none" xmlns="http://www.w3.org/2000/svg">
<g clip-path="url(#clip0)">
<path d="M14.7461 3.82998C14.5881 3.73233 14.3909 3.72342 14.2248 3.80641L10.7143 5.56193V4.28585C10.7143 3.39825 9.99473 2.67871 9.10713 2.67871H1.60714C0.719541 2.67871 0 3.39825 0 4.28585V10.7144C0 11.602 0.719541 12.3216 1.60714 12.3216H9.10713C9.99473 12.3216 10.7143 11.602 10.7143 10.7144V9.43834L14.2248 11.1966C14.4895 11.3288 14.8112 11.2215 14.9435 10.9568C14.9811 10.8816 15.0005 10.7985 15 10.7144V4.28585C15.0001 4.10015 14.904 3.92767 14.7461 3.82998ZM5.35715 9.643C4.17367 9.643 3.21428 8.68361 3.21428 7.50014C3.21428 6.31666 4.17367 5.35727 5.35715 5.35727C6.54063 5.35727 7.50002 6.31666 7.50002 7.50014C7.50002 8.68361 6.5406 9.643 5.35715 9.643Z" fill="#667093"/>
</g>
<defs>
<clipPath id="clip0">
<rect width="15" height="15" fill="white"/>
</clipPath>
</defs>
</svg>
