<?xml version="1.0" encoding="utf-8"?>
<!-- Generator: Adobe Illustrator 22.1.0, SVG Export Plug-In . SVG Version: 6.00 Build 0)  -->
<svg version="1.1" id="Layer_1" xmlns="http://www.w3.org/2000/svg" xmlns:xlink="http://www.w3.org/1999/xlink" x="0px" y="0px"
	 viewBox="0 0 144 144" style="enable-background:new 0 0 144 144;" xml:space="preserve">
<style type="text/css">
	.st0{fill:none;stroke:#565656;stroke-width:2;stroke-linecap:round;stroke-linejoin:round;stroke-miterlimit:2.6131;}
	.st1{fill:#565656;}
	.st2{fill:none;stroke:#565656;stroke-width:2.4999;stroke-linecap:round;stroke-linejoin:round;stroke-miterlimit:2.6131;}
</style>
<path class="st2" d="M23.4,98l22.3-1.1c3-0.1,4.1-1.4,5.6-2.8l39.1-43.9c1-1.1,2-1.5,2.9-1.6l24.3-0.4"/>
<polyline class="st2" points="109.2,35.2 117.8,48.3 108.2,60.6 "/>
<g>
	<path class="st1" d="M63.8,64.1L52.1,51c0,0,0-0.1-0.1-0.1l-0.3-0.3c-1.4-1.3-2.8-2.7-6-2.8l-22.3-1.1c-0.7,0-1.3,0.5-1.3,1.2
		c0,0.7,0.5,1.3,1.2,1.3l22.4,1.1c2.3,0.1,3.1,0.9,4.4,2.1l0.3,0.3L62.1,66L63.8,64.1z"/>
	<path class="st1" d="M121.6,97.4L113,84.3c-0.4-0.6-1.2-0.7-1.7-0.4c-0.6,0.4-0.7,1.2-0.4,1.7l7,10.7L93.3,96
		c-0.6-0.1-1.3-0.2-2.1-1.2L77.6,79.6l-1.6,2l13.3,15c1.1,1.2,2.3,1.9,3.9,2l25.1,0.3l-8.3,10.6c-0.4,0.5-0.3,1.3,0.2,1.8
		c0.2,0.2,0.5,0.3,0.8,0.3c0.4,0,0.7-0.2,1-0.5l9.5-12.2C121.9,98.4,121.9,97.8,121.6,97.4z"/>
</g>
</svg>
