<?xml version="1.0" encoding="utf-8"?>
<!-- Generator: Adobe Illustrator 22.1.0, SVG Export Plug-In . SVG Version: 6.00 Build 0)  -->
<svg version="1.1" id="Layer_1" xmlns="http://www.w3.org/2000/svg" xmlns:xlink="http://www.w3.org/1999/xlink" x="0px" y="0px"
	 viewBox="0 0 144 144" style="enable-background:new 0 0 144 144;" xml:space="preserve">
<style type="text/css">
	.st0{fill:none;stroke:#565656;stroke-width:2.4999;stroke-linecap:round;stroke-linejoin:round;stroke-miterlimit:2.6131;}
	.st1{fill:none;stroke:#565656;stroke-width:2.4999;stroke-miterlimit:2.6131;}
	.st2{fill:none;stroke:#565656;stroke-width:2.7752;stroke-linecap:round;stroke-linejoin:round;stroke-miterlimit:2.6131;}
</style>
<path class="st0" d="M79.4,47.4c2.1,0.6,4.1,1.5,5.9,2.6l0.3-0.2l8.6-6.1l7.4,7.4l-6.4,8.7l-0.5,0.5c0.9,1.7,1.5,3.5,2,5.4l1.1,0.2
	l10.4,1.7v10.5l-10.7,1.6l-1.4,0c-0.5,1.6-1.2,3.2-2.1,4.7l1.1,1.5l6.1,8.6l-7.4,7.4l-8.7-6.4L84,94.4c-1.4,0.7-2.9,1.4-4.5,1.8
	l-0.3,2.1l-1.7,10.4H66.9l-1.6-10.7l0-1.6c-1.7-0.5-3.2-1.1-4.8-1.8l-1.4,1l-8.6,6.1l-7.4-7.4l6.4-8.7l0.7-0.7
	c-1-1.6-1.8-3.4-2.4-5.3l-1-0.2l-10.4-1.7V67.3L47,65.7l0.2,0c0.5-2.1,1.3-4.1,2.3-6l-0.1-0.2l-6.1-8.6l7.4-7.4l8.5,6.3
	c1.9-1.1,4-2,6.3-2.6l0,0l1.7-10.4h10.5L79.4,47.4L79.4,47.4z"/>
<path class="st0" d="M72,57.9c7.7,0,14,6.3,14,14c0,7.7-6.3,14-14,14c-7.7,0-14-6.3-14-14C58,64.1,64.3,57.9,72,57.9z"/>
</svg>
