<?xml version="1.0" encoding="utf-8"?>
<!-- Generator: Adobe Illustrator 22.1.0, SVG Export Plug-In . SVG Version: 6.00 Build 0)  -->
<svg version="1.1" id="Layer_1" xmlns="http://www.w3.org/2000/svg" xmlns:xlink="http://www.w3.org/1999/xlink" x="0px" y="0px"
	 viewBox="0 0 144 144" style="enable-background:new 0 0 144 144;" xml:space="preserve">
<style type="text/css">
	.st0{fill:none;stroke:#565656;stroke-width:2;stroke-linecap:round;stroke-linejoin:round;stroke-miterlimit:2.6131;}
	.st1{fill:#565656;}
	.st2{fill:none;stroke:#565656;stroke-width:2.4999;stroke-linecap:round;stroke-linejoin:round;stroke-miterlimit:2.6131;}
</style>
<path class="st1" d="M101.1,54.9c-0.2-1.7-1-3.2-2.3-4.2c-1.2-0.9-2.7-1.3-4.3-1c-1.2,0.2-2.1,0.5-2.8,0.9c0.2-3.9,0.2-7.8-2.7-9.5
	c-1.5-0.9-3.2-1.2-4.7-0.7c-0.7,0.2-1.4,0.6-2,1c0-2-0.2-4.6-2.4-6.2c-1.4-1-3.1-1.2-4.8-0.8c-1.7,0.5-3.1,1.6-3.7,3
	c-0.2,0.4-0.3,1.1-0.5,2.4c-0.7-0.7-1.7-1.1-3.1-1.3c-1.9-0.2-3.4,0.2-4.5,1.3c-2.2,2-2.1,5.4-2,8.4c0,0.7,0,1.5,0,2.1
	c-0.1,3.5-0.3,8.7-0.1,12.7c0,0.7,0,2.1-0.1,2.9c-0.1,1-0.1,2.9-0.1,6c0,2.9,0.1,7.6-0.2,8.9c0,0,0,0-0.1,0
	c-0.6-0.6-1.7-2.7-2.5-4.3c-1.5-2.8-3.1-6-5.2-8.2c-0.1-0.1-0.2-0.2-0.3-0.3l-2.4-1.6c-0.1,0-0.1-0.1-0.2-0.1
	c-1.6-0.9-2.7-0.9-4.3-0.6c-1.9,0.3-3.4,1.3-4,2.8c-0.7,1.6-0.5,3.5,0.7,5.3c0.5,0.8,1.1,1.5,1.6,2.3c0.7,0.9,1.3,1.8,1.9,2.8
	c1.5,2.6,2.7,5.3,3.9,8c1.5,3.3,3,6.7,5.1,10c2.4,3.7,5.1,6.7,8.3,9.2c0.7,0.6,1.4,0.9,2,1.2c0.3,0.1,0.5,0.3,0.8,0.4
	c2.5,1.5,5.4,2.3,9,2.6c0.9,0.1,1.8,0.1,2.6,0.1c10.9,0,18.6-5.3,21.4-14.9c1-3.4,1.4-5.1,1.6-8.9c0,0,0-0.1,0-0.1l0.4-31.3
	C101.2,55.1,101.2,55,101.1,54.9z M98.6,86.6c-0.2,3.7-0.6,5.2-1.5,8.5c-2.9,10-11.3,14-21.8,13.2c-2.9-0.2-5.7-0.8-8.1-2.3
	c-0.9-0.5-1.7-0.8-2.5-1.4c-2.9-2.3-5.5-5.1-7.8-8.7c-3.7-5.7-5.5-11.9-9-17.9c-1.1-1.9-2.4-3.4-3.5-5.2c-1.4-2.3-0.7-4.5,1.9-4.9
	c1.3-0.2,1.9-0.2,2.9,0.4l2.4,1.6c3.8,3.9,6.3,12.3,8.5,13c1.1,0.4,2.2-0.2,2.7-1.1c0.8-1.3,0.2-13.1,0.4-15.6
	c0.1-0.9,0.1-2.4,0.1-3.3c-0.2-3.8-0.1-8.7,0.1-12.5c0.1-4-1.1-10.3,4.2-9.8c4.4,0.5,3.1,6.7,3.1,10.7c0,2.1,0,4.3,0,6.2l-0.2,12.5
	c0,0.9,0,2.7,1.4,2.1c0.9-0.4,0.7-1.8,0.7-2.8c0-2-0.1-4.3,0-6.2l0.2-6.3c0.2-1.9,0-4.2,0-6.2c0-2-0.1-11,0.5-12.3
	c0.8-1.8,3.6-2.7,5.4-1.4c1.8,1.3,1.5,3.7,1.5,5.7l-0.2,25.1c0,0.9-0.3,2.6,0.4,3.2c0.5,0.4,1.2,0.2,1.5-0.2
	c0.3-0.4,0.2-0.9,0.2-1.6c-0.1-6.8,0.1-12.1,0.2-18.7c0-2-0.3-4.6,0.5-6.1c1.2-2.2,3.3-2.3,5.2-1.3c2.7,1.6,1.4,7.7,1.5,12
	c0.1,2.3,0,4,0,6.4c0,2.1,0,4.2,0,6.3c0,1.7-0.5,4.9,0.4,6.3c1.9,0.1,1.7-0.1,1.6-4.9l0.1-12.5c0.1-2.5,0-4.3,3.2-4.7
	c2.4-0.3,3.9,1.2,4.2,3.4L98.6,86.6z"/>
</svg>
