<?xml version="1.0" encoding="utf-8"?>
<!-- Generator: Adobe Illustrator 22.1.0, SVG Export Plug-In . SVG Version: 6.00 Build 0)  -->
<svg version="1.1" xmlns="http://www.w3.org/2000/svg" xmlns:xlink="http://www.w3.org/1999/xlink" x="0px" y="0px"
	 viewBox="0 0 144 144" style="enable-background:new 0 0 144 144;" xml:space="preserve">
<style type="text/css">
	.Drop_x0020_Shadow{fill:none;}
	.Outer_x0020_Glow_x0020_5_x0020_pt{fill:none;}
	.Blue_x0020_Neon{fill:none;stroke:#8AACDA;stroke-width:7;stroke-linecap:round;stroke-linejoin:round;}
	.Chrome_x0020_Highlight{fill:url(#SVGID_1_);stroke:#FFFFFF;stroke-width:0.3629;stroke-miterlimit:1;}
	.Jive_GS{fill:#FFDD00;}
	.Alyssa_GS{fill:#A6D0E4;}
	.st0{display:none;}
	.st1{display:inline;}
	.st2{fill:none;stroke:#565656;stroke-width:5;stroke-linecap:round;stroke-miterlimit:10;}
	.st3{fill:none;stroke:#EF6A6A;stroke-linecap:round;stroke-miterlimit:10;}
	.st4{fill:none;stroke:#EF6A6A;stroke-miterlimit:10;}
	.st5{fill:none;stroke:#565656;stroke-width:3;stroke-linecap:round;stroke-miterlimit:10;}
	.st6{fill:#565656;}
	.st7{fill:#69DEA9;}
	.st8{fill:none;stroke:#FFFFFF;stroke-width:3;stroke-linecap:round;stroke-miterlimit:10;}
	.st9{fill:none;stroke:#565656;stroke-width:9;stroke-linecap:round;stroke-miterlimit:10;}
	.st10{fill:none;stroke:#565656;stroke-width:3;stroke-miterlimit:10;}
	.st11{fill:none;stroke:#565656;stroke-miterlimit:10;}
	.st12{display:none;fill:#E9EAE8;}
	.st13{fill:#7E8F9C;}
	.st14{fill:url(#SVGID_2_);}
	.st15{fill:#B6BEC3;}
	.st16{fill:#415363;}
	.st17{fill:#1F2422;}
	.st18{fill:#B5C3CF;}
	.st19{fill:#256A8C;}
	.st20{fill:#3FAFE3;}
	.st21{fill:#297AA3;}
	.st22{fill:#61BEE9;}
	.st23{fill:#000910;}
	.st24{clip-path:url(#SVGID_6_);fill:#FDFFFF;}
	.st25{clip-path:url(#SVGID_6_);fill:#000910;}
	.st26{fill:#9AA7B0;}
	.st27{fill:#DCE0DC;}
	.st28{fill:#323C3F;}
	.st29{fill:#61778A;}
	.st30{clip-path:url(#SVGID_10_);fill:#FDFFFF;}
	.st31{clip-path:url(#SVGID_10_);fill:#000910;}
	.st32{fill:#1D68A1;}
	.st33{fill:#3D77AC;}
	.st34{opacity:0.44;}
	.st35{fill:url(#SVGID_11_);}
	.st36{clip-path:url(#SVGID_15_);fill:#FDFFFF;}
	.st37{clip-path:url(#SVGID_15_);fill:#000910;}
	.st38{clip-path:url(#SVGID_19_);fill:#FDFFFF;}
	.st39{clip-path:url(#SVGID_19_);fill:#000910;}
	.st40{fill:none;stroke:#FFFFFF;stroke-width:4;stroke-linecap:round;stroke-miterlimit:10;}
	.st41{fill:none;stroke:#565656;stroke-width:4;stroke-linecap:round;stroke-miterlimit:10;}
	.st42{fill:none;stroke:#565656;stroke-width:6;stroke-linecap:round;stroke-miterlimit:10;}
	.st43{fill:none;stroke:#565656;stroke-width:2;stroke-linecap:round;stroke-miterlimit:10;}
	.st44{fill:none;stroke:#FFFFFF;stroke-width:7;stroke-linecap:round;stroke-miterlimit:10;}
	.st45{display:inline;fill:none;stroke:#565656;stroke-width:5;stroke-linecap:round;stroke-miterlimit:10;}
	.st46{fill:url(#SVGID_20_);}
	.st47{clip-path:url(#SVGID_24_);fill:#FDFFFF;}
	.st48{clip-path:url(#SVGID_24_);fill:#000910;}
	.st49{clip-path:url(#SVGID_28_);fill:#FDFFFF;}
	.st50{clip-path:url(#SVGID_28_);fill:#000910;}
	.st51{display:inline;opacity:0.44;}
	.st52{display:inline;fill:none;stroke:#565656;stroke-width:9;stroke-linecap:round;stroke-miterlimit:10;}
	.st53{display:inline;fill:none;stroke:#565656;stroke-width:6;stroke-linecap:round;stroke-miterlimit:10;}
	.st54{display:inline;fill:none;stroke:#565656;stroke-width:2;stroke-linecap:round;stroke-miterlimit:10;}
</style>
<linearGradient id="SVGID_1_" gradientUnits="userSpaceOnUse" x1="-157" y1="-3634" x2="-157" y2="-3635">
	<stop  offset="0" style="stop-color:#656565"/>
	<stop  offset="0.618" style="stop-color:#1B1B1B"/>
	<stop  offset="0.6292" style="stop-color:#545454"/>
	<stop  offset="0.9831" style="stop-color:#3E3E3E"/>
</linearGradient>
<g id="Layer_3" class="st0">
</g>
<g id="Layer_5" class="st0">
</g>
<g id="Layer_6" class="st0">
</g>
<g id="Layer_1">
</g>
<g id="Layer_4" class="st0">
</g>
<g id="Layer_2">
</g>
<g id="Layer_7">
	<g class="st0">
		<g class="st1">
			<path class="st6" d="M72,5.3c36.8,0,66.7,29.9,66.7,66.8s-29.9,66.8-66.7,66.8S5.3,108.8,5.3,72S35.2,5.3,72,5.3 M72,2.3
				C33.5,2.3,2.3,33.5,2.3,72s31.2,69.8,69.7,69.8s69.7-31.2,69.7-69.8S110.5,2.3,72,2.3L72,2.3z"/>
		</g>
		<g class="st1">
			<path class="st13" d="M105.8,71.9l-3.7,5.1h2.4l1.7,7.3c0,0-13.8,10.8-17.8,14.7c-4,3.8-15.4,13.1-15.4,13.1h-1V37
				c0,0,4.5-0.1,5.2,0.1c0.7,0.2,1.7,1.2,2.6,0.9S105.8,71.9,105.8,71.9z"/>
			<linearGradient id="SVGID_2_" gradientUnits="userSpaceOnUse" x1="117.6717" y1="74.1556" x2="72.6123" y2="74.5931">
				<stop  offset="0.5405" style="stop-color:#D3D3D3;stop-opacity:0"/>
				<stop  offset="0.7142" style="stop-color:#D1D1D1;stop-opacity:2.709636e-02"/>
				<stop  offset="0.7768" style="stop-color:#CACACA;stop-opacity:3.685728e-02"/>
				<stop  offset="0.8214" style="stop-color:#BFBFBF;stop-opacity:4.381816e-02"/>
				<stop  offset="0.8574" style="stop-color:#AEAEAE;stop-opacity:4.944365e-02"/>
				<stop  offset="0.8883" style="stop-color:#989898;stop-opacity:5.426258e-02"/>
				<stop  offset="0.9157" style="stop-color:#7C7C7C;stop-opacity:5.852773e-02"/>
				<stop  offset="0.9404" style="stop-color:#5C5C5C;stop-opacity:6.238755e-02"/>
				<stop  offset="0.9631" style="stop-color:#363636;stop-opacity:6.593376e-02"/>
				<stop  offset="0.9834" style="stop-color:#0D0D0D;stop-opacity:6.909213e-02"/>
				<stop  offset="0.9892" style="stop-color:#000000;stop-opacity:7.000000e-02"/>
			</linearGradient>
			<path class="st14" d="M105.8,71.9l-3.7,5.1h2.4l1.7,7.3c0,0-13.8,10.8-17.8,14.7c-4,3.8-15.4,13.1-15.4,13.1h-1V37
				c0,0,4.5-0.1,5.2,0.1c0.7,0.2,1.7,1.2,2.6,0.9S105.8,71.9,105.8,71.9z"/>
			<path class="st15" d="M75.6,70.8c0,0,2.4-6.7,8.3-9.7c2.9-1.5,8,0.5,8,0.5s-1.8,3.4-2.8,5.2c-0.5,1-0.5,3-2.6,3.5
				c-2.1,0.5-6.1,0.5-6.7,0.9c-0.4,0.2-1.7,1.8-2,2.8c-0.3,1.2-0.2,1.6-0.2,1.6L75.6,70.8z"/>
			<path class="st16" d="M78.6,39l15-15.7c0,0,5.4,10.5,5.6,14.7s0.2,11.9,2.3,17.1c2.1,5.2,3.1,7.5,3.1,7.5l-2.7-2.8l3.7,11.9
				C105.7,71.7,80,43.9,78.6,39z"/>
			<path class="st15" d="M72.8,74l2.1-3l7,10.6c0.2,0.4,0.2,0.8-0.2,1.1c-0.7,0.6-2,1.3-2.4,2.2c-0.2,0.6-0.4,2.7-0.5,2.8
				c-0.4,1.6-2.9,3.2-2.9,3.2L72,91V74.2L72.8,74z"/>
			<polygon class="st17" points="75,83.4 72,83.4 72,93.4 75.7,93.4 78.1,90.1 78.3,88.3 			"/>
			<path class="st17" d="M78.7,95.8c-1,0.7-3.8,0.9-4.5,0.5l-0.7-3H72v7.3c1.1,0,2.1-0.3,3.5-0.8c2.8-1,6.6-6.6,6.6-6.6
				S79.8,95.1,78.7,95.8z"/>
			<g>
				<path d="M86.8,78.7c-7.8,0-12.5-4.3-12.5-11.5c0-3.5,0.9-5.7,3.4-7.7c2.2-1.9,5.6-2.9,9.2-2.9c3.7,0,6.7,0.4,8.8,2.2
					c2.4,2,3.6,4.8,3.7,8.5c0.1,3.1-0.9,5.8-2.9,7.8C94.3,77.4,90.8,78.7,86.8,78.7z M86.7,57.9c-4.3,0-7.5,1.7-9.4,4.2
					c-1.2,1.6-1.8,3.8-1.8,6.2c0,5.8,4.1,9.4,11.3,9.4c3.7,0,6.8-1.3,8.9-3.5c1.8-1.8,2.7-4.3,2.6-7c-0.1-2.5-1.3-4.5-2.6-5.9
					C93.4,58.6,91,57.9,86.7,57.9z"/>
			</g>
			<path d="M95.4,57.9c0.2,0,5.9,1,5.9,1l1.4,4.9l-4.4,1.7c0,0-0.4-3-1.8-4.4c-1.3-1.3-2.7-3.3-2.7-3.3L95.4,57.9z"/>
			<polygon class="st18" points="92.5,41.1 89.8,44.1 94.2,34.1 94.6,44.1 96.5,43.2 94,47.1 96.5,48.1 96.5,53 97.7,55.8 88.3,46 
				91.9,46.7 			"/>
			<path class="st19" d="M89.9,124.4c-5.6-1.2-15.8-6.8-15.8-6.8l0.2-6.5c0,0,10-5.6,14-5.6C96.8,105.5,93.4,125.2,89.9,124.4z"/>
			<path class="st20" d="M89.2,124.7c-5.7-0.3-16-7.1-16-7.1v-5.8c0,0,11-6.5,15-6.7C94.7,104.8,92.1,124.9,89.2,124.7z"/>
			<path class="st21" d="M54.2,124.4c5.6-1.2,15.8-6.8,15.8-6.8l-0.2-6.5c0,0-10-5.6-14-5.6C47.3,105.5,50.7,125.2,54.2,124.4z"/>
			<path class="st22" d="M54.9,124.7c5.7-0.3,16-7.1,16-7.1v-5.8c0,0-11-6.5-15-6.7C49.4,104.8,52,124.9,54.9,124.7z"/>
			<g>
				<defs>
					<path id="SVGID_21_" d="M81.6,68.1l-0.3,0.7h-1l0.4-2.7c0,0,1.9-2.3,3.9-3.1c0.7-0.3,1.3-0.4,1.9-0.2c2.4,0.7,1.7,1.2,1.7,1.2
						s-0.3,1.2-2.3,2.4C84.1,67.5,83,68.2,81.6,68.1z"/>
				</defs>
				<clipPath id="SVGID_4_">
					<use xlink:href="#SVGID_21_"  style="overflow:visible;"/>
				</clipPath>
			</g>
			<path class="st23" d="M81.1,67.3l-1.6,1l0,0l0.6-3c0,0,1.3-1.3,1.8-1.8c1-0.9,2.2-1.4,2.2-1.4s0.7-0.3,1-0.2
				c1.9,0.1,2.6,1.2,2.6,1.2s-0.5,0.6-2.2,2.1C83.7,66.9,82.5,67.5,81.1,67.3z"/>
			<g>
				<defs>
					<path id="SVGID_23_" d="M81.1,67.4l-0.3,0.7h-1l0.4-2.7c0,0,1.9-2.3,3.9-3.1c0.7-0.3,1.3-0.4,1.9-0.2c2.4,0.7,1.7,1.2,1.7,1.2
						s-0.3,1.2-2.3,2.4S82.5,67.6,81.1,67.4z"/>
				</defs>
				<clipPath id="SVGID_6_">
					<use xlink:href="#SVGID_23_"  style="overflow:visible;"/>
				</clipPath>
				<path class="st24" d="M82.3,60.7c-0.9,0.6-1.8,3-1.8,3c0,0.1,0,0.3,0,0.4c0,1.2,1,2.1,2.3,2.1c1.3,0,2.4-1.2,2.4-2.6
					C85,61.7,83.5,60.8,82.3,60.7z"/>
				<path class="st25" d="M82.3,64.6c0.6,0,1.1-0.5,1.1-1.1c0-0.4-0.3-0.8-0.6-1c-0.7,0.4-1.2,0.8-1.5,1.4
					C81.4,64.2,81.9,64.6,82.3,64.6z"/>
			</g>
			<path class="st26" d="M38.2,71.9l3.7,5.1h-2.4l-1.7,7.3c0,0,13.8,10.8,17.8,14.7c4,3.8,15.4,13.1,15.4,13.1h1V37
				c0,0-4.5-0.1-5.2,0.1c-0.7,0.2-1.7,1.2-2.6,0.9S38.2,71.9,38.2,71.9z"/>
			<path class="st27" d="M68.4,70.8c0,0-2.4-6.7-8.3-9.7c-2.9-1.5-8,0.5-8,0.5s1.8,3.4,2.8,5.2c0.5,1,0.5,3,2.6,3.5s6.1,0.5,6.7,0.9
				c0.4,0.2,1.7,1.8,2,2.8c0.3,1.2,0.2,1.6,0.2,1.6L68.4,70.8z"/>
			<path class="st27" d="M71.2,74l-2.1-3l-7,10.6c-0.2,0.4-0.2,0.8,0.2,1.1c0.7,0.6,2,1.3,2.4,2.2c0.2,0.6,0.4,2.7,0.5,2.8
				c0.4,1.6,2.9,3.2,2.9,3.2l4,0.2V74.2L71.2,74z"/>
			<g>
				<path d="M67.8,63l-1.6-2.3c0.2-0.2,4.4-3.6,11.2-0.9l-1.2,3C71.5,61.5,67.8,63,67.8,63z"/>
			</g>
			<g>
				<path class="st28" d="M72,58.8c-3.6,0.1-5.7,1.8-5.9,1.9l1.6,2.3c0,0,1.7-0.7,4.2-0.7V58.8z"/>
			</g>
			<path class="st29" d="M65.4,39l-15-15.7c0,0-5.4,10.5-5.6,14.7s-0.2,11.9-2.3,17.1s-3.1,7.5-3.1,7.5l2.7-2.8l-3.7,11.9
				C38.3,71.7,64,43.9,65.4,39z"/>
			<polygon class="st28" points="69,83.4 72,83.4 72,93.4 68.3,93.4 65.9,90.1 65.7,88.3 			"/>
			<path class="st28" d="M65.2,95.9c1,0.7,3.7,0.9,4.5,0.5c0,0,0.1,0,0.1-0.1l0.7-2.8c0,0,0.1-0.1,0.1-0.1h1.3c0.1,0,0.1,0,0.1,0.1
				v7.1c0,0.1,0,0.1-0.1,0.1c-1,0-2-0.3-3.3-0.8c-1.8-0.7-4-3.2-5.4-4.9c-0.2-0.2,0.1-0.6,0.4-0.4C64.2,95.1,64.8,95.6,65.2,95.9z"
				/>
			<g>
				<path class="st28" d="M47.4,75c-2-2-3-4.8-2.9-7.8c0.1-3.7,1.3-6.5,3.7-8.5c2.2-1.8,5.2-2.2,8.8-2.2c3.6,0,7,1.1,9.2,2.9
					c2.4,2,3.4,4.3,3.4,7.7c0,7.2-4.7,11.5-12.5,11.5C53.2,78.7,49.7,77.4,47.4,75z M48.2,61.3c-1.3,1.4-2.5,3.3-2.6,5.9
					c-0.1,2.8,0.8,5.2,2.6,7c2.1,2.1,5.2,3.5,8.9,3.5c7.2,0,11.3-3.5,11.3-9.4c0-2.4-0.6-4.6-1.8-6.2c-1.9-2.6-5.1-4.2-9.4-4.2
					C53,57.9,50.6,58.6,48.2,61.3z"/>
			</g>
			<path class="st28" d="M48.6,57.9c-0.2,0-6.3,1-6.3,1l-1.5,4.9l4.9,1.6c0,0,0.4-3,1.8-4.4c1.3-1.3,2.7-3.3,2.7-3.3L48.6,57.9z"/>
			<polygon class="st27" points="51.5,41.1 54.2,44.1 49.8,34.1 49.4,44.1 47.5,43.2 50,47.1 47.5,48.1 47.5,53 46.3,55.8 55.7,46 
				52.1,46.7 			"/>
			<g>
				<defs>
					<path id="SVGID_25_" d="M62.4,68.1l0.3,0.7h1l-0.4-2.7c0,0-1.9-2.3-3.9-3.1c-0.7-0.3-1.3-0.4-1.9-0.2c-2.4,0.7-1.7,1.2-1.7,1.2
						s0.3,1.2,2.3,2.4C59.9,67.5,61,68.2,62.4,68.1z"/>
				</defs>
				<clipPath id="SVGID_8_">
					<use xlink:href="#SVGID_25_"  style="overflow:visible;"/>
				</clipPath>
			</g>
			<path class="st23" d="M62.9,67.3l1.6,1l0,0l-0.6-3c0,0-1.3-1.3-1.8-1.8c-1-0.9-2.2-1.4-2.2-1.4s-0.7-0.3-1-0.2
				c-1.9,0.1-2.6,1.2-2.6,1.2s0.5,0.6,2.2,2.1C60.3,66.9,61.5,67.5,62.9,67.3z"/>
			<g>
				<defs>
					<path id="SVGID_27_" d="M62.9,67.4l0.3,0.7h1l-0.4-2.7c0,0-1.9-2.3-3.9-3.1c-0.7-0.3-1.3-0.4-1.9-0.2c-2.4,0.7-1.7,1.2-1.7,1.2
						s0.3,1.2,2.3,2.4S61.5,67.6,62.9,67.4z"/>
				</defs>
				<clipPath id="SVGID_10_">
					<use xlink:href="#SVGID_27_"  style="overflow:visible;"/>
				</clipPath>
				<path class="st30" d="M61.7,60.7c0.9,0.6,1.8,3,1.8,3c0,0.1,0,0.3,0,0.4c0,1.2-1,2.1-2.3,2.1c-1.3,0-2.4-1.2-2.4-2.6
					C59,61.7,60.5,60.8,61.7,60.7z"/>
				<path class="st31" d="M61.7,64.6c-0.6,0-1.1-0.5-1.1-1.1c0-0.4,0.3-0.8,0.6-1c0.7,0.4,1.2,0.8,1.5,1.4
					C62.6,64.2,62.1,64.6,61.7,64.6z"/>
			</g>
			<path class="st32" d="M73,117.9h-2c-0.9,0-1.6-0.7-1.6-1.6v-4c0-0.9,0.7-1.6,1.6-1.6h2c0.9,0,1.6,0.7,1.6,1.6v4
				C74.6,117.1,73.9,117.9,73,117.9z"/>
			<path class="st33" d="M72,110.7h-1c-0.9,0-1.6,0.7-1.6,1.6v4c0,0.9,0.7,1.6,1.6,1.6h1V110.7z"/>
		</g>
		<g class="st51">
			<circle class="st6" cx="72" cy="72" r="69.7"/>
		</g>
		<g class="st1">
			<line class="st40" x1="72" y1="52.6" x2="72" y2="80.2"/>
			<line class="st40" x1="85.9" y1="66.4" x2="58.2" y2="66.4"/>
		</g>
	</g>
	<g class="st0">
		<line class="st52" x1="6.2" y1="136.7" x2="137.8" y2="7.3"/>
		<line class="st52" x1="137.8" y1="136.7" x2="6.2" y2="7.3"/>
	</g>
	<g class="st0">
		<path class="st45" d="M117.8,113.2H26.2c-10.2,0-18.4-8.2-18.4-18.4V36.9c0-10.2,8.2-18.4,18.4-18.4h91.5
			c10.2,0,18.4,8.2,18.4,18.4v57.9C136.2,104.9,127.9,113.2,117.8,113.2z"/>
		<line class="st45" x1="40.4" y1="125.5" x2="104.2" y2="125.5"/>
		<line class="st45" x1="67.7" y1="114" x2="67.7" y2="123.6"/>
		<line class="st45" x1="78.4" y1="114.1" x2="78.4" y2="123.7"/>
	</g>
	<g class="st0">
		<polyline class="st45" points="91.8,43.7 122.5,72.1 91.8,100.3 		"/>
		<g class="st1">
			<line class="st2" x1="119" y1="72" x2="54.1" y2="72"/>
		</g>
		<path class="st45" d="M81,5.1H26.5c-3.5,0-6.4,2.9-6.4,6.4v121.1c0,3.5,2.9,6.4,6.4,6.4H81"/>
	</g>
	<g class="st0">
		<polyline class="st45" points="97.7,40.5 125,65.7 97.7,90.7 		"/>
		<g class="st1">
			<line class="st2" x1="118.9" y1="65.6" x2="64.9" y2="65.6"/>
		</g>
		<path class="st45" d="M79.6,6.1H39.7c-3.1,0-5.7,2.5-5.7,5.7v107.6c0,3.1,2.5,5.7,5.7,5.7h39.9"/>
		<path class="st45" d="M32.4,19l-9-0.1c-3.1,0-5.7,2.5-5.7,5.7v107.6c0,3.1,2.5,5.7,5.7,5.7h23.5"/>
	</g>
	<g>
		<g>
			<line class="st41" x1="53.9" y1="42.7" x2="53.9" y2="115.4"/>
			<line class="st41" x1="90.1" y1="42.7" x2="90.1" y2="115.4"/>
		</g>
		<line class="st2" x1="14.6" y1="21" x2="129.4" y2="21"/>
		<path class="st2" d="M111.9,135.1H33.1c-6.4,0-11.6-5.2-11.6-11.6V21h101.9v102.5C123.4,130,118.3,135.1,111.9,135.1z"/>
		<path class="st2" d="M43.9,19.4v-3.2c0-3.1,3-5.5,6.7-5.5h41.9c3.7,0,6.7,2.5,6.7,5.5v3.2"/>
	</g>
	<g class="st0">
		<circle class="st53" cx="64.4" cy="61.8" r="54.9"/>
		<line class="st53" x1="102.7" y1="103.9" x2="134.5" y2="137.1"/>
	</g>
	<g class="st0">
		<path class="st45" d="M107.4,117h-82c-6,0-10.8-4.8-10.8-10.8v-82c0-6,4.8-10.8,10.8-10.8h82c6,0,10.8,4.8,10.8,10.8v82
			C118.2,112.1,113.4,117,107.4,117z"/>
		<path class="st45" d="M118.6,27c6,0,10.8,4.8,10.8,10.8v82c0,6-4.8,10.8-10.8,10.8h-82c-6,0-10.8-4.8-10.8-10.8"/>
		<g class="st1">
			<line class="st43" x1="38" y1="32.4" x2="38" y2="37.2"/>
			<line class="st43" x1="57.2" y1="32.4" x2="57.2" y2="37.1"/>
			<line class="st43" x1="76.8" y1="32.9" x2="76.8" y2="37.6"/>
			<line class="st43" x1="96.9" y1="32.8" x2="96.9" y2="37.6"/>
		</g>
		<path class="st54" d="M69.9,97.6H39.1c-1.4,0-2.5-1.1-2.5-2.5V69.5c0-1.4,1.1-2.5,2.5-2.5h30.9c1.4,0,2.5,1.1,2.5,2.5v25.6
			C72.4,96.5,71.3,97.6,69.9,97.6z"/>
		<path class="st54" d="M39,97.1c-0.8,0-1.3-0.9-0.8-1.6l7.9-8.2l8,6.4l8.3-11.2l8.4,12.1c0.6,1.2-0.3,2.6-1.6,2.6H39z"/>
		<circle class="st54" cx="53.5" cy="82.1" r="2.6"/>
		<path class="st54" d="M62.2,65.5V58c0-1.4,1.1-2.5,2.5-2.5h30.9c1.4,0,2.5,1.1,2.5,2.5v25.6c0,1.4-1.1,2.5-2.5,2.5H73.9"/>
		<path class="st54" d="M85,70.1l-7.4-4.3c-0.5-0.3-1.2,0.1-1.2,0.7V75c0,0.6,0.7,1,1.2,0.7l7.4-4.3C85.5,71.1,85.5,70.4,85,70.1z"
			/>
		<line class="st54" x1="62.6" y1="61.1" x2="97.4" y2="61.1"/>
		<line class="st54" x1="73.6" y1="79.1" x2="97.3" y2="79.1"/>
	</g>
	<g class="st0">
		<path class="st45" d="M130.8,40.6v78.8c0,6.8-5.5,12.3-12.3,12.3H25.5c-6.8,0-12.3-5.5-12.3-12.3V26.3c0-6.8,5.5-12.3,12.3-12.3
			h61.4"/>
		<polygon class="st45" points="50.3,101.4 51.8,83.9 110.3,13.4 125.5,25.9 67,96.4 		"/>
		<line class="st45" x1="99.6" y1="27.8" x2="114.2" y2="39.1"/>
	</g>
	<g class="st0">
		<g class="st1">
			<circle class="st7" cx="72" cy="72" r="69.6"/>
		</g>
		<g class="st1">
			<line class="st44" x1="71.6" y1="41.9" x2="71.6" y2="103.5"/>
			<line class="st44" x1="102.5" y1="72.7" x2="40.8" y2="72.7"/>
		</g>
	</g>
	<g class="st0">
		<line class="st45" x1="42.3" y1="12.5" x2="102.7" y2="12.5"/>
		<line class="st45" x1="41.3" y1="70.8" x2="101.7" y2="70.8"/>
		<line class="st45" x1="42" y1="131.5" x2="102.4" y2="131.5"/>
	</g>
	<g class="st0">
		<g class="st1">
			<path class="st5" d="M109.5,116.8H92.6c-1.6,0-2.9-1.3-2.9-2.9V51.3c0-1.6,1.3-2.9,2.9-2.9h16.9c1.6,0,2.9,1.3,2.9,2.9v62.6
				C112.4,115.5,111.1,116.8,109.5,116.8z"/>
			<path class="st5" d="M78.1,116.8H61.2c-1.6,0-2.9-1.3-2.9-2.9V67c0-1.6,1.3-2.9,2.9-2.9h16.9c1.6,0,2.9,1.3,2.9,2.9v46.9
				C81,115.5,79.7,116.8,78.1,116.8z"/>
			<path class="st5" d="M49.1,116.8H32.2c-1.6,0-2.9-1.3-2.9-2.9V84.2c0-1.6,1.3-2.9,2.9-2.9h16.9c1.6,0,2.9,1.3,2.9,2.9v29.6
				C52,115.5,50.7,116.8,49.1,116.8z"/>
		</g>
		<path class="st45" d="M70,133.6H23.2c-7.1,0-12.9-5.8-12.9-12.9V23.2c0-7.1,5.8-12.9,12.9-12.9h97.5c7.1,0,12.9,5.8,12.9,12.9
			v97.5c0,7.1-5.8,12.9-12.9,12.9H94.5H70z"/>
	</g>
	<g class="st0">
		<path class="st45" d="M123.2,136.8H20.8c-7.5,0-13.5-6.1-13.5-13.5V20.8c0-7.5,6.1-13.5,13.5-13.5h102.5c7.5,0,13.5,6.1,13.5,13.5
			V33v36.4v53.8C136.8,130.7,130.7,136.8,123.2,136.8z"/>
		<g class="st1">
			<g>
				<g>
					<path class="st6" d="M73.3,64.2c8.1,0,14.6,6.6,14.6,14.6c0,8.1-6.6,14.6-14.6,14.6c-8.1,0-14.6-6.6-14.6-14.6
						C58.7,70.7,65.2,64.2,73.3,64.2 M73.3,61.2L73.3,61.2c-9.7,0-17.6,7.9-17.6,17.6c0,9.7,7.9,17.6,17.6,17.6h0
						c9.7,0,17.6-7.9,17.6-17.6C90.9,69.1,83,61.2,73.3,61.2L73.3,61.2z"/>
				</g>
			</g>
			<g>
				<g>
					<path class="st6" d="M42,70.4c3.7,0,6.7,3,6.7,6.7s-3,6.7-6.7,6.7s-6.7-3-6.7-6.7S38.3,70.4,42,70.4 M42,67.4L42,67.4
						c-5.4,0-9.7,4.3-9.7,9.7s4.3,9.7,9.7,9.7h0c5.4,0,9.7-4.3,9.7-9.7S47.3,67.4,42,67.4L42,67.4z"/>
				</g>
			</g>
			<g id="XMLID_14_">
				<path class="st5" d="M85.6,97.1c2.3,0.1,4.5,0.5,6.6,1.1c8.8,2.3,14.9,10.4,14.9,19.5"/>
			</g>
			<g id="XMLID_13_">
				<path class="st5" d="M60.9,97.2c0.3,0.5,0.7,0.9,1.1,1.3c2.6,2.8,6.3,4.7,10.5,4.9l1.6-0.1c4.2-0.2,7.8-2,10.5-4.9
					c0.4-0.4,0.8-0.9,1.1-1.3"/>
				<path class="st5" d="M60.9,97.2c-2.3,0.1-4.5,0.5-6.6,1.1c-8.8,2.3-14.9,10.4-14.9,19.5"/>
			</g>
			<g id="XMLID_12_">
				<path class="st5" d="M34.5,89.1c0.2,0.3,0.4,0.5,0.6,0.8c1.6,1.7,3.7,2.7,6.2,2.9l0.9,0c2.4-0.1,4.6-1.2,6.2-2.9
					c0.2-0.2,0.4-0.5,0.6-0.8"/>
				<path class="st5" d="M34.5,89.1c-1.3,0.1-2.6,0.3-3.9,0.6c-5.2,1.3-8.7,6.1-8.7,11.4"/>
			</g>
			<g>
				<g>
					<path class="st6" d="M103.3,70c3.7,0,6.7,3,6.7,6.7s-3,6.7-6.7,6.7c-3.7,0-6.7-3-6.7-6.7S99.6,70,103.3,70 M103.3,67L103.3,67
						c-5.4,0-9.7,4.3-9.7,9.7v0c0,5.4,4.3,9.7,9.7,9.7h0c5.4,0,9.7-4.3,9.7-9.7v0C113,71.3,108.6,67,103.3,67L103.3,67z"/>
				</g>
			</g>
			<g id="XMLID_11_">
				<path class="st5" d="M110.7,88.7c-0.2,0.3-0.4,0.5-0.6,0.8c-1.6,1.7-3.7,2.7-6.2,2.9l-0.9,0c-2.4-0.1-4.6-1.2-6.2-2.9
					c-0.2-0.2-0.4-0.5-0.6-0.8"/>
				<path class="st5" d="M110.7,88.7c1.3,0.1,2.6,0.3,3.9,0.6c5.2,1.3,8.7,6.1,8.7,11.4"/>
			</g>
		</g>
	</g>
</g>
</svg>
