<?xml version="1.0" encoding="utf-8"?>
<!-- Generator: Adobe Illustrator 22.1.0, SVG Export Plug-In . SVG Version: 6.00 Build 0)  -->
<svg version="1.1" id="Layer_1" xmlns="http://www.w3.org/2000/svg" xmlns:xlink="http://www.w3.org/1999/xlink" x="0px" y="0px"
	 viewBox="0 0 144 144" style="enable-background:new 0 0 144 144;" xml:space="preserve">
<style type="text/css">
	.st0{fill:none;stroke:#565656;stroke-width:2.4999;stroke-linecap:round;stroke-linejoin:round;stroke-miterlimit:2.6131;}
	.st1{fill:none;stroke:#565656;stroke-width:2.4999;stroke-miterlimit:2.6131;}
	.st2{fill:none;stroke:#565656;stroke-width:2.7752;stroke-linecap:round;stroke-linejoin:round;stroke-miterlimit:2.6131;}
</style>
<path class="st1" d="M87.5,98.4c1.4,0,2.6,1.2,2.6,2.6c0,1.4-1.2,2.6-2.6,2.6c-1.4,0-2.6-1.2-2.6-2.6C84.9,99.6,86.1,98.4,87.5,98.4
	z M96.5,98.4c1.4,0,2.6,1.2,2.6,2.6c0,1.4-1.2,2.6-2.6,2.6c-1.4,0-2.6-1.2-2.6-2.6C93.9,99.6,95.1,98.4,96.5,98.4z M39.6,84.8h19.1
	v1.7c0,4.2,3.4,7.6,7.6,7.6h11.1c4.2,0,7.6-3.4,7.6-7.6v-1.7h19.1c2,0,3.7,1.7,3.7,3.7V104c0,2-1.7,3.7-3.7,3.7H39.6
	c-2,0-3.7-1.7-3.7-3.7V88.5C35.9,86.5,37.6,84.8,39.6,84.8z"/>
<path class="st1" d="M80.9,62.9v23.1c0,2.2-1.8,3.9-3.9,3.9H66.6c-2.2,0-3.9-1.8-3.9-3.9V62.9h-9.2h-3c0,0-4.5-0.9-1.9-4.9
	l21.3-21.5c0,0,1.7-1.7,3.9,0.1c2.2,1.7,21.5,21.4,21.5,21.4s2.3,4.1-2.3,4.9H80.9z"/>
</svg>
